<?xml version="1.0" standalone="no"?>
  <!DOCTYPE svg PUBLIC "-//W3C//DTD SVG 1.1//EN" "http://www.w3.org/Graphics/SVG/1.1/DTD/svg11.dtd" >
  <svg>
  <metadata>
  Created by font-carrier
  </metadata>
  <defs>
  <font id="SourceSansPro-Bold" horiz-adv-x="2200" vert-adv-y="2200" >
    <font-face
      
      font-family="Source Sans Pro"
      
      font-weight="400"
      
      font-stretch="normal"
      
      units-per-em="1000"
      
      ascent="984"
      
      descent="-273"
      
    />
      <missing-glyph />

      

      
      <glyph glyph-name="uni41" unicode="&#x41;" d="M230 330L214 270L353 270L338 330Q324 379 311 434Q298 489 285 540L281 540Q269 488 256.50 433.50Q244 379 230 330M-6 0L198 652L375 652L579 0L423 0L383 155L184 155L144 0L-6 0Z"  horiz-adv-x="573" vert-adv-y="1000"  />

      
      <glyph glyph-name="uni42" unicode="&#x42;" d="M77 0L77 652L300 652Q351 652 394.50 644.50Q438 637 470.50 618Q503 599 521.50 568Q540 537 540 490Q540 468 534 446Q528 424 517 405Q506 386 490.50 371Q475 356 455 349L455 345Q480 339 501 326.50Q522 314 538 295Q554 276 563 250.50Q572 225 572 192Q572 142 552.50 106Q533 70 498.50 46.50Q464 23 418 11.50Q372 0 319 0L77 0M224 391L293 391Q347 391 371.50 412Q396 433 396 468Q396 506 371 522Q346 538 294 538L224 538L224 391M224 114L307 114Q428 114 428 202Q428 245 398 263.50Q368 282 307 282L224 282L224 114Z"  horiz-adv-x="605" vert-adv-y="1000"  />

      
      <glyph glyph-name="uni43" unicode="&#x43;" d="M349-12Q287-12 232 9.50Q177 31 135.50 73Q94 115 70 177.50Q46 240 46 322Q46 403 71 466.50Q96 530 138 574Q180 618 236 641Q292 664 354 664Q417 664 467 638.50Q517 613 550 579L472 485Q447 508 419.50 522.50Q392 537 357 537Q324 537 294.50 522.50Q265 508 243.50 481Q222 454 209.50 415Q197 376 197 327Q197 226 240 170.50Q283 115 355 115Q395 115 426.50 132.50Q458 150 482 176L560 84Q478-12 349-12Z"  horiz-adv-x="582" vert-adv-y="1000"  />

      
      <glyph glyph-name="uni44" unicode="&#x44;" d="M77 0L77 652L261 652Q336 652 396 633Q456 614 499 574.50Q542 535 565 474Q588 413 588 329Q588 245 565 183Q542 121 500 80.50Q458 40 399.50 20Q341 0 269 0L77 0M224 119L252 119Q294 119 328 130Q362 141 386 165.50Q410 190 423.50 230Q437 270 437 329Q437 387 423.50 426.50Q410 466 386 489.50Q362 513 328 523Q294 533 252 533L224 533L224 119Z"  horiz-adv-x="635" vert-adv-y="1000"  />

      
      <glyph glyph-name="uni45" unicode="&#x45;" d="M77 0L77 652L485 652L485 528L224 528L224 397L446 397L446 274L224 274L224 124L495 124L495 0L77 0Z"  horiz-adv-x="548" vert-adv-y="1000"  />

      
      <glyph glyph-name="uni46" unicode="&#x46;" d="M77 0L77 652L488 652L488 528L224 528L224 377L450 377L450 253L224 253L224 0L77 0Z"  horiz-adv-x="524" vert-adv-y="1000"  />

      
      <glyph glyph-name="uni47" unicode="&#x47;" d="M365-12Q298-12 239.50 9.50Q181 31 138 73Q95 115 70.50 177.50Q46 240 46 322Q46 403 71 466.50Q96 530 139.50 574Q183 618 241 641Q299 664 364 664Q435 664 486 638Q537 612 569 579L492 485Q467 507 439 522Q411 537 369 537Q331 537 299.50 522.50Q268 508 245 481Q222 454 209.50 415Q197 376 197 327Q197 226 242.50 170.50Q288 115 380 115Q400 115 419 120Q438 125 450 135L450 247L342 247L342 367L580 367L580 67Q546 34 490 11Q434-12 365-12Z"  horiz-adv-x="638" vert-adv-y="1000"  />

      
      <glyph glyph-name="uni48" unicode="&#x48;" d="M77 0L77 652L224 652L224 401L449 401L449 652L597 652L597 0L449 0L449 272L224 272L224 0L77 0Z"  horiz-adv-x="674" vert-adv-y="1000"  />

      
      <glyph glyph-name="uni49" unicode="&#x49;" d="M77 0L77 652L224 652L224 0L77 0Z"  horiz-adv-x="301" vert-adv-y="1000"  />

      
      <glyph glyph-name="uni4a" unicode="&#x4a;" d="M226-12Q151-12 100.50 17Q50 46 16 106L116 180Q134 147 158 131Q182 115 207 115Q247 115 267.50 139.50Q288 164 288 229L288 652L435 652L435 217Q435 170 422.50 128Q410 86 384.50 55Q359 24 319.50 6Q280-12 226-12Z"  horiz-adv-x="509" vert-adv-y="1000"  />

      
      <glyph glyph-name="uni4b" unicode="&#x4b;" d="M77 0L77 652L224 652L224 385L228 385L422 652L584 652L387 392L620 0L459 0L300 275L224 175L224 0L77 0Z"  horiz-adv-x="614" vert-adv-y="1000"  />

      
      <glyph glyph-name="uni4c" unicode="&#x4c;" d="M77 0L77 652L224 652L224 124L482 124L482 0L77 0Z"  horiz-adv-x="518" vert-adv-y="1000"  />

      
      <glyph glyph-name="uni4d" unicode="&#x4d;" d="M77 0L77 652L238 652L343 362Q353 333 362 302.50Q371 272 381 242L385 242Q395 272 403.50 302.50Q412 333 422 362L525 652L685 652L685 0L551 0L551 239Q551 263 553 292Q555 321 558 350.50Q561 380 564 408.50Q567 437 570 461L566 461L513 306L420 57L339 57L246 306L194 461L190 461Q193 437 196 408.50Q199 380 202 350.50Q205 321 207 292Q209 263 209 239L209 0L77 0Z"  horiz-adv-x="762" vert-adv-y="1000"  />

      
      <glyph glyph-name="uni4e" unicode="&#x4e;" d="M77 0L77 652L228 652L398 328L462 184L466 184Q461 236 454.50 300Q448 364 448 422L448 652L588 652L588 0L437 0L267 325L203 467L199 467Q204 413 210.50 351Q217 289 217 231L217 0L77 0Z"  horiz-adv-x="665" vert-adv-y="1000"  />

      
      <glyph glyph-name="uni4f" unicode="&#x4f;" d="M342-12Q276-12 221.50 11.50Q167 35 128 79Q89 123 67.50 186Q46 249 46 329Q46 409 67.50 471.50Q89 534 128 576.50Q167 619 221.50 641.50Q276 664 342 664Q408 664 462.50 641.50Q517 619 556 576Q595 533 616.50 470.50Q638 408 638 329Q638 249 616.50 186Q595 123 556 79Q517 35 462.50 11.50Q408-12 342-12M342 115Q409 115 448 172.50Q487 230 487 329Q487 427 448 482Q409 537 342 537Q275 537 236 482Q197 427 197 329Q197 230 236 172.50Q275 115 342 115Z"  horiz-adv-x="684" vert-adv-y="1000"  />

      
      <glyph glyph-name="uni50" unicode="&#x50;" d="M77 0L77 652L301 652Q355 652 402 641.50Q449 631 484 606.50Q519 582 539.50 541.50Q560 501 560 442Q560 385 539.50 343Q519 301 484 274Q449 247 403 234Q357 221 305 221L224 221L224 0L77 0M224 338L296 338Q416 338 416 442Q416 493 384 514Q352 535 292 535L224 535L224 338Z"  horiz-adv-x="596" vert-adv-y="1000"  />

      
      <glyph glyph-name="uni51" unicode="&#x51;" d="M342 108Q409 108 448 166Q487 224 487 329Q487 427 448 482Q409 537 342 537Q275 537 236 482Q197 427 197 329Q197 224 236 166Q275 108 342 108M557-182Q505-182 461-168.50Q417-155 381.50-131.50Q346-108 319-75.50Q292-43 275-5Q223 6 180.50 33.50Q138 61 108 104Q78 147 62 203.50Q46 260 46 329Q46 409 67.50 471.50Q89 534 128 576.50Q167 619 221.50 641.50Q276 664 342 664Q408 664 462.50 641.50Q517 619 556 576Q595 533 616.50 470.50Q638 408 638 329Q638 197 582 112Q526 27 431 0Q454-35 493-49.50Q532-64 574-64Q595-64 613.50-61Q632-58 646-53L672-160Q654-169 624.50-175.50Q595-182 557-182Z"  horiz-adv-x="684" vert-adv-y="1000"  />

      
      <glyph glyph-name="uni52" unicode="&#x52;" d="M77 0L77 652L312 652Q364 652 409.50 642Q455 632 489 608.50Q523 585 543 546Q563 507 563 449Q563 377 531.50 330.50Q500 284 447 261L595 0L430 0L305 235L224 235L224 0L77 0M224 352L300 352Q358 352 388.50 376.50Q419 401 419 449Q419 497 388.50 516Q358 535 300 535L224 535L224 352Z"  horiz-adv-x="613" vert-adv-y="1000"  />

      
      <glyph glyph-name="uni53" unicode="&#x53;" d="M276-12Q212-12 148.50 11.50Q85 35 35 82L119 183Q154 153 196.50 134Q239 115 280 115Q326 115 348.50 132Q371 149 371 178Q371 193 364.50 204Q358 215 345.50 223.50Q333 232 315.50 239.50Q298 247 277 256L192 292Q167 302 143.50 318Q120 334 101.50 355.50Q83 377 72 405.50Q61 434 61 470Q61 510 78 545.50Q95 581 126 607.50Q157 634 199.50 649Q242 664 293 664Q350 664 405.50 642Q461 620 503 578L428 485Q396 510 364 523.50Q332 537 293 537Q255 537 232.50 521.50Q210 506 210 478Q210 463 217.50 452.50Q225 442 238.50 433.50Q252 425 270 417.50Q288 410 309 401L393 367Q453 343 487.50 301Q522 259 522 190Q522 149 505.50 112.50Q489 76 457.50 48.50Q426 21 380 4.50Q334-12 276-12Z"  horiz-adv-x="556" vert-adv-y="1000"  />

      
      <glyph glyph-name="uni54" unicode="&#x54;" d="M204 0L204 528L25 528L25 652L531 652L531 528L352 528L352 0L204 0Z"  horiz-adv-x="556" vert-adv-y="1000"  />

      
      <glyph glyph-name="uni55" unicode="&#x55;" d="M334-12Q207-12 140 63Q73 138 73 302L73 652L221 652L221 287Q221 191 250 153Q279 115 334 115Q389 115 419 153Q449 191 449 287L449 652L591 652L591 302Q591 138 525.50 63Q460-12 334-12Z"  horiz-adv-x="665" vert-adv-y="1000"  />

      
      <glyph glyph-name="uni56" unicode="&#x56;" d="M190 0L-7 652L149 652L227 348Q242 294 253.50 243.50Q265 193 280 139L284 139Q298 193 310 243.50Q322 294 336 348L413 652L563 652L367 0L190 0Z"  horiz-adv-x="556" vert-adv-y="1000"  />

      
      <glyph glyph-name="uni57" unicode="&#x57;" d="M135 0L14 652L165 652L210 347Q216 296 223 244.50Q230 193 236 141L240 141Q250 193 259.50 244.50Q269 296 279 347L349 652L474 652L544 347Q554 297 563.50 245.50Q573 194 583 141L587 141Q594 194 600.50 245Q607 296 614 347L659 652L800 652L684 0L499 0L435 296Q427 334 420.50 372.50Q414 411 409 447L405 447Q399 411 392.50 372.50Q386 334 378 296L317 0L135 0Z"  horiz-adv-x="813" vert-adv-y="1000"  />

      
      <glyph glyph-name="uni58" unicode="&#x58;" d="M11 0L192 335L22 652L186 652L243 529Q254 506 265 480.50Q276 455 290 424L294 424Q305 455 315.50 480.50Q326 506 336 529L388 652L545 652L376 328L556 0L392 0L327 133Q315 159 303.50 184.50Q292 210 278 240L274 240Q263 210 252 184.50Q241 159 230 133L169 0L11 0Z"  horiz-adv-x="567" vert-adv-y="1000"  />

      
      <glyph glyph-name="uni59" unicode="&#x59;" d="M189 0L189 232L-8 652L150 652L208 502Q222 465 234.50 430.50Q247 396 261 358L265 358Q279 396 292.50 430.50Q306 465 320 502L379 652L533 652L336 232L336 0L189 0Z"  horiz-adv-x="525" vert-adv-y="1000"  />

      
      <glyph glyph-name="uni5a" unicode="&#x5a;" d="M36 0L36 89L324 528L63 528L63 652L505 652L505 563L217 124L508 124L508 0L36 0Z"  horiz-adv-x="541" vert-adv-y="1000"  />

      
      <glyph glyph-name="uni61" unicode="&#x61;" d="M190-12Q156-12 128.50-0.50Q101 11 82 31.50Q63 52 52.50 79Q42 106 42 138Q42 216 108 260Q174 304 321 319Q319 352 301.50 371.50Q284 391 243 391Q211 391 179.50 379Q148 367 112 346L59 443Q107 472 159.50 490Q212 508 271 508Q367 508 417.50 453.50Q468 399 468 284L468 0L348 0L338 51L334 51Q302 23 267 5.50Q232-12 190-12M240 102Q265 102 283 113Q301 124 321 144L321 231Q243 220 213 199Q183 178 183 149Q183 125 198.50 113.50Q214 102 240 102Z"  horiz-adv-x="527" vert-adv-y="1000"  />

      
      <glyph glyph-name="uni62" unicode="&#x62;" d="M325-12Q292-12 258.50 4.50Q225 21 196 53L192 53L180 0L65 0L65 701L212 701L212 529L208 453Q237 479 270.50 493.50Q304 508 339 508Q384 508 420 490Q456 472 481.50 439.50Q507 407 520.50 360.50Q534 314 534 257Q534 193 516.50 143Q499 93 469.50 58.50Q440 24 402.50 6Q365-12 325-12M291 108Q329 108 356 142.50Q383 177 383 254Q383 388 297 388Q253 388 212 343L212 140Q232 122 252 115Q272 108 291 108Z"  horiz-adv-x="573" vert-adv-y="1000"  />

      
      <glyph glyph-name="uni63" unicode="&#x63;" d="M281-12Q229-12 184.50 5.50Q140 23 107 56Q74 89 55 137.50Q36 186 36 248Q36 310 57 358.50Q78 407 113.50 440Q149 473 196 490.50Q243 508 294 508Q340 508 375.50 493Q411 478 439 455L370 360Q335 389 303 389Q249 389 218 351Q187 313 187 248Q187 183 218.50 145Q250 107 298 107Q322 107 344.50 117.50Q367 128 387 143L445 47Q408 15 365 1.50Q322-12 281-12Z"  horiz-adv-x="467" vert-adv-y="1000"  />

      
      <glyph glyph-name="uni64" unicode="&#x64;" d="M242-12Q196-12 158.50 6Q121 24 94.50 57.50Q68 91 53.50 139Q39 187 39 248Q39 309 56.50 357Q74 405 102.50 438.50Q131 472 168.50 490Q206 508 245 508Q287 508 314 494Q341 480 367 456L361 532L361 701L508 701L508 0L388 0L378 49L374 49Q348 23 313 5.50Q278-12 242-12M280 108Q304 108 323.50 118Q343 128 361 153L361 356Q341 374 320 381Q299 388 279 388Q244 388 217 354.50Q190 321 190 250Q190 176 213.50 142Q237 108 280 108Z"  horiz-adv-x="573" vert-adv-y="1000"  />

      
      <glyph glyph-name="uni65" unicode="&#x65;" d="M287-12Q234-12 188 5.50Q142 23 108 56.50Q74 90 55 138Q36 186 36 248Q36 308 56 356.50Q76 405 108.50 438.50Q141 472 183 490Q225 508 270 508Q323 508 362.50 490Q402 472 428.50 440Q455 408 468 364.50Q481 321 481 270Q481 250 479 232Q477 214 475 205L178 205Q188 151 222.50 125.50Q257 100 307 100Q360 100 414 133L463 44Q425 18 378.50 3Q332-12 287-12M177 302L356 302Q356 344 337 370Q318 396 273 396Q238 396 211.50 373Q185 350 177 302Z"  horiz-adv-x="518" vert-adv-y="1000"  />

      
      <glyph glyph-name="uni66" unicode="&#x66;" d="M90 0L90 381L24 381L24 490L90 495L90 522Q90 561 99.50 596Q109 631 131 657Q153 683 188 698Q223 713 273 713Q304 713 329.50 707Q355 701 372 695L345 587Q317 597 294 597Q267 597 252 580.50Q237 564 237 526L237 496L326 496L326 381L237 381L237 0L90 0Z"  horiz-adv-x="341" vert-adv-y="1000"  />

      
      <glyph glyph-name="uni67" unicode="&#x67;" d="M242-211Q198-211 160.50-203.50Q123-196 94.50-181Q66-166 50-142Q34-118 34-85Q34-25 105 15L105 19Q85 32 72 52Q59 72 59 103Q59 130 75 154.50Q91 179 115 196L115 200Q89 218 68.50 251.50Q48 285 48 329Q48 374 65 407.50Q82 441 110.50 463.50Q139 486 176 497Q213 508 253 508Q297 508 330 496L511 496L511 389L432 389Q439 378 443.50 361Q448 344 448 324Q448 281 433 249.50Q418 218 391.50 197.50Q365 177 329.50 167Q294 157 253 157Q224 157 193 167Q183 159 179 151Q175 143 175 130Q175 111 191.50 102Q208 93 250 93L330 93Q422 93 470.50 63.50Q519 34 519-33Q519-72 499.50-104.50Q480-137 444-160.50Q408-184 357-197.50Q306-211 242-211M253 246Q282 246 301.50 266.50Q321 287 321 329Q321 368 301.50 388.50Q282 409 253 409Q224 409 204.50 389Q185 369 185 329Q185 287 204.50 266.50Q224 246 253 246M265-119Q315-119 347-101.50Q379-84 379-58Q379-35 359.50-27Q340-19 303-19L252-19Q226-19 210-17.50Q194-16 182-13Q155-37 155-62Q155-90 185-104.50Q215-119 265-119Z"  horiz-adv-x="534" vert-adv-y="1000"  />

      
      <glyph glyph-name="uni68" unicode="&#x68;" d="M65 0L65 701L212 701L212 529L205 440Q233 465 270 486.50Q307 508 358 508Q439 508 475.50 455Q512 402 512 308L512 0L365 0L365 289Q365 343 350.50 363Q336 383 304 383Q276 383 256 370.50Q236 358 212 335L212 0L65 0Z"  horiz-adv-x="571" vert-adv-y="1000"  />

      
      <glyph glyph-name="uni69" unicode="&#x69;" d="M65 0L65 496L212 496L212 0L65 0M138 569Q101 569 77 590.50Q53 612 53 646Q53 680 77 701Q101 722 138 722Q176 722 199.50 701Q223 680 223 646Q223 612 199.50 590.50Q176 569 138 569Z"  horiz-adv-x="276" vert-adv-y="1000"  />

      
      <glyph glyph-name="uni6a" unicode="&#x6a;" d="M36-196Q5-196-15.50-192Q-36-188-51-182L-25-74Q-15-77-6-79Q3-81 14-81Q43-81 54.50-62Q66-43 66-1L66 496L213 496L213 3Q213-38 204.50-74Q196-110 175.50-137Q155-164 121-180Q87-196 36-196M140 569Q103 569 79 590.50Q55 612 55 646Q55 680 79 701Q103 722 140 722Q177 722 201 701Q225 680 225 646Q225 612 201 590.50Q177 569 140 569Z"  horiz-adv-x="278" vert-adv-y="1000"  />

      
      <glyph glyph-name="uni6b" unicode="&#x6b;" d="M65 0L65 701L208 701L208 299L212 299L369 496L529 496L355 292L542 0L383 0L271 193L208 122L208 0L65 0Z"  horiz-adv-x="548" vert-adv-y="1000"  />

      
      <glyph glyph-name="uni6c" unicode="&#x6c;" d="M200-12Q162-12 136 0Q110 12 94.50 33.50Q79 55 72 85.50Q65 116 65 154L65 701L212 701L212 148Q212 125 220.50 116Q229 107 238 107Q243 107 246.50 107Q250 107 256 109L274 0Q262-5 243.50-8.50Q225-12 200-12Z"  horiz-adv-x="286" vert-adv-y="1000"  />

      
      <glyph glyph-name="uni6d" unicode="&#x6d;" d="M65 0L65 496L185 496L195 432L199 432Q230 463 265 485.50Q300 508 349 508Q402 508 434.50 486.50Q467 465 486 425Q519 459 555.50 483.50Q592 508 642 508Q722 508 759.50 454.50Q797 401 797 308L797 0L650 0L650 289Q650 343 635.50 363Q621 383 589 383Q552 383 504 335L504 0L357 0L357 289Q357 343 342.50 363Q328 383 296 383Q258 383 212 335L212 0L65 0Z"  horiz-adv-x="857" vert-adv-y="1000"  />

      
      <glyph glyph-name="uni6e" unicode="&#x6e;" d="M65 0L65 496L185 496L195 433L199 433Q231 463 269 485.50Q307 508 358 508Q439 508 475.50 455Q512 402 512 308L512 0L365 0L365 289Q365 343 350.50 363Q336 383 304 383Q276 383 256 370.50Q236 358 212 335L212 0L65 0Z"  horiz-adv-x="572" vert-adv-y="1000"  />

      
      <glyph glyph-name="uni6f" unicode="&#x6f;" d="M278-12Q231-12 187 5.50Q143 23 109.50 56Q76 89 56 137.50Q36 186 36 248Q36 310 56 358.50Q76 407 109.50 440Q143 473 187 490.50Q231 508 278 508Q325 508 368.50 490.50Q412 473 445.50 440Q479 407 499 358.50Q519 310 519 248Q519 186 499 137.50Q479 89 445.50 56Q412 23 368.50 5.50Q325-12 278-12M278 107Q323 107 346 145Q369 183 369 248Q369 313 346 351Q323 389 278 389Q232 389 209.50 351Q187 313 187 248Q187 183 209.50 145Q232 107 278 107Z"  horiz-adv-x="555" vert-adv-y="1000"  />

      
      <glyph glyph-name="uni70" unicode="&#x70;" d="M65-184L65 496L185 496L195 447L199 447Q228 473 264.50 490.50Q301 508 340 508Q385 508 421 490Q457 472 482 439Q507 406 520.50 359.50Q534 313 534 256Q534 192 516.50 142.50Q499 93 469.50 58.50Q440 24 402.50 6Q365-12 325-12Q293-12 263 1.50Q233 15 207 40L212-39L212-184L65-184M291 108Q329 108 356 142.50Q383 177 383 254Q383 388 297 388Q254 388 212 343L212 140Q232 122 252 115Q272 108 291 108Z"  horiz-adv-x="573" vert-adv-y="1000"  />

      
      <glyph glyph-name="uni71" unicode="&#x71;" d="M361-184L361-33L367 43Q342 19 309 3.50Q276-12 242-12Q196-12 158.50 6Q121 24 94.50 57.50Q68 91 53.50 139Q39 187 39 248Q39 309 56.50 357Q74 405 102.50 438.50Q131 472 168.50 490Q206 508 245 508Q286 508 317 493.50Q348 479 377 447L381 447L393 496L508 496L508-184L361-184M280 108Q304 108 323.50 118Q343 128 361 153L361 356Q341 374 320 381Q299 388 279 388Q244 388 217 354.50Q190 321 190 250Q190 176 213.50 142Q237 108 280 108Z"  horiz-adv-x="573" vert-adv-y="1000"  />

      
      <glyph glyph-name="uni72" unicode="&#x72;" d="M65 0L65 496L185 496L195 409L199 409Q226 460 264 484Q302 508 340 508Q361 508 374.50 505.50Q388 503 399 498L375 371Q361 375 349 377Q337 379 321 379Q293 379 262.50 359Q232 339 212 288L212 0L65 0Z"  horiz-adv-x="398" vert-adv-y="1000"  />

      
      <glyph glyph-name="uni73" unicode="&#x73;" d="M211-12Q162-12 110.50 7Q59 26 21 57L87 149Q121 123 152 110Q183 97 215 97Q248 97 263 108Q278 119 278 139Q278 151 269.50 160.50Q261 170 246.50 178Q232 186 214 192.50Q196 199 177 207Q154 216 131 228Q108 240 89 257.50Q70 275 58 298.50Q46 322 46 353Q46 387 59.50 416Q73 445 98 465Q123 485 158 496.50Q193 508 236 508Q293 508 336 488.50Q379 469 411 445L345 357Q318 377 292 388Q266 399 240 399Q184 399 184 360Q184 348 192 339.50Q200 331 213.50 324Q227 317 244.50 310.50Q262 304 281 297Q305 288 328.50 276.50Q352 265 371.50 248Q391 231 403 206.50Q415 182 415 148Q415 114 402 85Q389 56 363 34.50Q337 13 299 0.50Q261-12 211-12Z"  horiz-adv-x="443" vert-adv-y="1000"  />

      
      <glyph glyph-name="uni74" unicode="&#x74;" d="M256-12Q210-12 177.50 2Q145 16 124.50 41Q104 66 94.50 101.50Q85 137 85 180L85 381L17 381L17 490L93 496L110 628L232 628L232 496L351 496L351 381L232 381L232 182Q232 140 249.50 121.50Q267 103 296 103Q308 103 320.50 106Q333 109 343 113L366 6Q346 0 319-6Q292-12 256-12Z"  horiz-adv-x="383" vert-adv-y="1000"  />

      
      <glyph glyph-name="uni75" unicode="&#x75;" d="M214-12Q133-12 96.50 41Q60 94 60 188L60 496L207 496L207 207Q207 153 222 133Q237 113 269 113Q297 113 316 126Q335 139 357 168L357 496L504 496L504 0L384 0L373 69L370 69Q338 31 301.50 9.50Q265-12 214-12Z"  horiz-adv-x="568" vert-adv-y="1000"  />

      
      <glyph glyph-name="uni76" unicode="&#x76;" d="M179 0L12 496L160 496L224 262Q234 225 243.50 186.50Q253 148 263 109L267 109Q276 148 285.50 186.50Q295 225 305 262L370 496L511 496L349 0L179 0Z"  horiz-adv-x="523" vert-adv-y="1000"  />

      
      <glyph glyph-name="uni77" unicode="&#x77;" d="M148 0L24 496L170 496L218 266Q224 229 229 193Q234 157 240 119L244 119Q251 157 257.50 194Q264 231 273 266L328 496L455 496L511 266Q520 229 527 193Q534 157 542 119L546 119Q553 157 557.50 193Q562 229 569 266L616 496L752 496L633 0L461 0L416 198Q408 233 402 268Q396 303 389 343L385 343Q378 303 372.50 268Q367 233 360 198L316 0L148 0Z"  horiz-adv-x="776" vert-adv-y="1000"  />

      
      <glyph glyph-name="uni78" unicode="&#x78;" d="M14 0L166 258L23 496L181 496L225 416Q235 395 245.50 373.50Q256 352 267 331L271 331Q279 352 288 373.50Q297 395 305 416L339 496L491 496L347 241L500 0L342 0L294 82Q282 103 270.50 125Q259 147 247 168L243 168Q234 147 224 125.50Q214 104 205 82L166 0L14 0Z"  horiz-adv-x="514" vert-adv-y="1000"  />

      
      <glyph glyph-name="uni79" unicode="&#x79;" d="M120-194Q97-194 81-191.50Q65-189 50-184L76-72Q83-74 92-76Q101-78 109-78Q146-78 166-60Q186-42 196-13L203 13L12 496L160 496L231 283Q242 249 251 214Q260 179 270 142L274 142Q282 177 290.50 212.50Q299 248 308 283L368 496L509 496L337-5Q319-52 299.50-87.50Q280-123 254.50-146.50Q229-170 196.50-182Q164-194 120-194Z"  horiz-adv-x="521" vert-adv-y="1000"  />

      
      <glyph glyph-name="uni7a" unicode="&#x7a;" d="M38 0L38 79L246 381L61 381L61 496L429 496L429 418L221 115L436 115L436 0L38 0Z"  horiz-adv-x="460" vert-adv-y="1000"  />

      
      <glyph glyph-name="unic0" unicode="&#xc0;" d="M230 330L214 270L353 270L338 330Q324 379 311 434Q298 489 285 540L281 540Q269 488 256.50 433.50Q244 379 230 330M-6 0L198 652L375 652L579 0L423 0L383 155L184 155L144 0L-6 0M293 680L110 799L188 894L359 754L293 680Z"  horiz-adv-x="573" vert-adv-y="1000"  />

      
      <glyph glyph-name="unic1" unicode="&#xc1;" d="M230 330L214 270L353 270L338 330Q324 379 311 434Q298 489 285 540L281 540Q269 488 256.50 433.50Q244 379 230 330M-6 0L198 652L375 652L579 0L423 0L383 155L184 155L144 0L-6 0M273 680L207 754L378 894L456 799L273 680Z"  horiz-adv-x="573" vert-adv-y="1000"  />

      
      <glyph glyph-name="unic2" unicode="&#xc2;" d="M230 330L214 270L353 270L338 330Q324 379 311 434Q298 489 285 540L281 540Q269 488 256.50 433.50Q244 379 230 330M-6 0L198 652L375 652L579 0L423 0L383 155L184 155L144 0L-6 0M113 724L203 835L363 835L453 724L389 685L285 769L281 769L177 685L113 724Z"  horiz-adv-x="573" vert-adv-y="1000"  />

      
      <glyph glyph-name="unic3" unicode="&#xc3;" d="M230 330L214 270L353 270L338 330Q324 379 311 434Q298 489 285 540L281 540Q269 488 256.50 433.50Q244 379 230 330M-6 0L198 652L375 652L579 0L423 0L383 155L184 155L144 0L-6 0M354 692Q327 692 307 701Q287 710 271 721Q255 732 242 741Q229 750 217 750Q203 750 193 739Q183 728 180 701L85 708Q89 784 124 818Q159 852 212 852Q239 852 259 843Q279 834 295 823Q311 812 324 803Q337 794 349 794Q363 794 373 805Q383 816 386 843L481 836Q477 761 442 726.50Q407 692 354 692Z"  horiz-adv-x="573" vert-adv-y="1000"  />

      
      <glyph glyph-name="unic4" unicode="&#xc4;" d="M230 330L214 270L353 270L338 330Q324 379 311 434Q298 489 285 540L281 540Q269 488 256.50 433.50Q244 379 230 330M-6 0L198 652L375 652L579 0L423 0L383 155L184 155L144 0L-6 0M172 700Q141 700 121.50 720Q102 740 102 770Q102 800 121.50 820Q141 840 172 840Q203 840 222.50 820Q242 800 242 770Q242 740 222.50 720Q203 700 172 700M394 700Q363 700 343.50 720Q324 740 324 770Q324 800 343.50 820Q363 840 394 840Q425 840 444.50 820Q464 800 464 770Q464 740 444.50 720Q425 700 394 700Z"  horiz-adv-x="573" vert-adv-y="1000"  />

      
      <glyph glyph-name="uni0100" unicode="&#x0100;" d="M230 330L214 270L353 270L338 330Q324 379 311 434Q298 489 285 540L281 540Q269 488 256.50 433.50Q244 379 230 330M-6 0L198 652L375 652L579 0L423 0L383 155L184 155L144 0L-6 0M132 721L132 815L434 815L434 721L132 721Z"  horiz-adv-x="573" vert-adv-y="1000"  />

      
      <glyph glyph-name="uni0102" unicode="&#x0102;" d="M230 330L214 270L353 270L338 330Q324 379 311 434Q298 489 285 540L281 540Q269 488 256.50 433.50Q244 379 230 330M-6 0L198 652L375 652L579 0L423 0L383 155L184 155L144 0L-6 0M283 697Q208 697 167.50 732Q127 767 120 834L200 848Q207 817 228 799.50Q249 782 283 782Q317 782 338 799.50Q359 817 366 848L446 834Q439 767 398.50 732Q358 697 283 697Z"  horiz-adv-x="573" vert-adv-y="1000"  />

      
      <glyph glyph-name="unic5" unicode="&#xc5;" d="M230 330L214 270L353 270L338 330Q324 379 311 434Q298 489 285 540L281 540Q269 488 256.50 433.50Q244 379 230 330M-6 0L198 652L375 652L579 0L423 0L383 155L184 155L144 0L-6 0M283 697Q232 697 200.50 724Q169 751 169 796Q169 841 200.50 867.50Q232 894 283 894Q334 894 365.50 867.50Q397 841 397 796Q397 751 365.50 724Q334 697 283 697M283 752Q300 752 312.50 764Q325 776 325 796Q325 816 312.50 827.50Q300 839 283 839Q266 839 253.50 827.50Q241 816 241 796Q241 776 253.50 764Q266 752 283 752Z"  horiz-adv-x="573" vert-adv-y="1000"  />

      
      <glyph glyph-name="uni01CD" unicode="&#x01CD;" d="M230 330L214 270L353 270L338 330Q324 379 311 434Q298 489 285 540L281 540Q269 488 256.50 433.50Q244 379 230 330M-6 0L198 652L375 652L579 0L423 0L383 155L184 155L144 0L-6 0M203 702L113 812L177 852L281 768L285 768L389 852L453 812L363 702L203 702Z"  horiz-adv-x="573" vert-adv-y="1000"  />

      
      <glyph glyph-name="uni1EA0" unicode="&#x1EA0;" d="M230 330L214 270L353 270L338 330Q324 379 311 434Q298 489 285 540L281 540Q269 488 256.50 433.50Q244 379 230 330M-6 0L198 652L375 652L579 0L423 0L383 155L184 155L144 0L-6 0M283-225Q247-225 224.50-203.50Q202-182 202-148Q202-114 224.50-92.50Q247-71 283-71Q319-71 341.50-92.50Q364-114 364-148Q364-182 341.50-203.50Q319-225 283-225Z"  horiz-adv-x="573" vert-adv-y="1000"  />

      
      <glyph glyph-name="uni1EA2" unicode="&#x1EA2;" d="M230 330L214 270L353 270L338 330Q324 379 311 434Q298 489 285 540L281 540Q269 488 256.50 433.50Q244 379 230 330M-6 0L198 652L375 652L579 0L423 0L383 155L184 155L144 0L-6 0M240 691L228 749Q247 753 260 759Q273 765 273 779Q273 793 255 801.50Q237 810 193 813L210 886Q303 884 341 859.50Q379 835 379 795Q379 769 368 750.50Q357 732 338 719.50Q319 707 293.50 700Q268 693 240 691Z"  horiz-adv-x="573" vert-adv-y="1000"  />

      
      <glyph glyph-name="uni1EA4" unicode="&#x1EA4;" d="M230 330L214 270L353 270L338 330Q324 379 311 434Q298 489 285 540L281 540Q269 488 256.50 433.50Q244 379 230 330M-6 0L198 652L375 652L579 0L423 0L383 155L184 155L144 0L-6 0M189 685L130 724L220 824L346 824L436 724L377 685L285 757L281 757L189 685M435 759L391 809L491 895L540 835L435 759Z"  horiz-adv-x="573" vert-adv-y="1000"  />

      
      <glyph glyph-name="uni1EA6" unicode="&#x1EA6;" d="M230 330L214 270L353 270L338 330Q324 379 311 434Q298 489 285 540L281 540Q269 488 256.50 433.50Q244 379 230 330M-6 0L198 652L375 652L579 0L423 0L383 155L184 155L144 0L-6 0M189 685L130 724L220 824L346 824L436 724L377 685L285 757L281 757L189 685M175 808L131 759L30 836L78 895L175 808Z"  horiz-adv-x="573" vert-adv-y="1000"  />

      
      <glyph glyph-name="uni1EA8" unicode="&#x1EA8;" d="M230 330L214 270L353 270L338 330Q324 379 311 434Q298 489 285 540L281 540Q269 488 256.50 433.50Q244 379 230 330M-6 0L198 652L375 652L579 0L423 0L383 155L184 155L144 0L-6 0M189 685L130 724L220 824L346 824L436 724L377 685L285 757L281 757L189 685M420 750L409 797Q423 800 432 805.50Q441 811 441 824Q441 838 427.50 846Q414 854 376 857L389 917Q471 915 503.50 892.50Q536 870 536 837Q536 793 502.50 773.50Q469 754 420 750Z"  horiz-adv-x="573" vert-adv-y="1000"  />

      
      <glyph glyph-name="uni1EAA" unicode="&#x1EAA;" d="M230 330L214 270L353 270L338 330Q324 379 311 434Q298 489 285 540L281 540Q269 488 256.50 433.50Q244 379 230 330M-6 0L198 652L375 652L579 0L423 0L383 155L184 155L144 0L-6 0M189 685L130 724L220 816L346 816L436 724L377 685L285 748L281 748L189 685M130 852Q133 909 157 936Q181 963 223 963Q244 963 260 956Q276 949 289 941Q302 933 312.50 926Q323 919 334 919Q360 919 366 958L436 949Q433 892 409 865Q385 838 343 838Q322 838 306 845Q290 852 277 860Q264 868 253 875Q242 882 232 882Q206 882 200 844L130 852Z"  horiz-adv-x="573" vert-adv-y="1000"  />

      
      <glyph glyph-name="uni1EAC" unicode="&#x1EAC;" d="M230 330L214 270L353 270L338 330Q324 379 311 434Q298 489 285 540L281 540Q269 488 256.50 433.50Q244 379 230 330M-6 0L198 652L375 652L579 0L423 0L383 155L184 155L144 0L-6 0M113 724L203 835L363 835L453 724L389 685L285 769L281 769L177 685L113 724M283-225Q247-225 224.50-203.50Q202-182 202-148Q202-114 224.50-92.50Q247-71 283-71Q319-71 341.50-92.50Q364-114 364-148Q364-182 341.50-203.50Q319-225 283-225Z"  horiz-adv-x="573" vert-adv-y="1000"  />

      
      <glyph glyph-name="uni1EAE" unicode="&#x1EAE;" d="M230 330L214 270L353 270L338 330Q324 379 311 434Q298 489 285 540L281 540Q269 488 256.50 433.50Q244 379 230 330M-6 0L198 652L375 652L579 0L423 0L383 155L184 155L144 0L-6 0M228 852L323 989L415 932L300 805L228 852M283 697Q208 697 167.50 732Q127 767 120 834L192 848Q200 813 223 793.50Q246 774 283 774Q320 774 343 793.50Q366 813 374 848L446 834Q439 767 398.50 732Q358 697 283 697Z"  horiz-adv-x="573" vert-adv-y="1000"  />

      
      <glyph glyph-name="uni1EB0" unicode="&#x1EB0;" d="M230 330L214 270L353 270L338 330Q324 379 311 434Q298 489 285 540L281 540Q269 488 256.50 433.50Q244 379 230 330M-6 0L198 652L375 652L579 0L423 0L383 155L184 155L144 0L-6 0M338 852L266 805L151 932L243 989L338 852M283 697Q208 697 167.50 732Q127 767 120 834L192 848Q200 813 223 793.50Q246 774 283 774Q320 774 343 793.50Q366 813 374 848L446 834Q439 767 398.50 732Q358 697 283 697Z"  horiz-adv-x="573" vert-adv-y="1000"  />

      
      <glyph glyph-name="uni1EB2" unicode="&#x1EB2;" d="M230 330L214 270L353 270L338 330Q324 379 311 434Q298 489 285 540L281 540Q269 488 256.50 433.50Q244 379 230 330M-6 0L198 652L375 652L579 0L423 0L383 155L184 155L144 0L-6 0M251 806L239 853Q253 856 262.50 861.50Q272 867 272 880Q272 894 258 902Q244 910 206 913L220 974Q302 971 334 948.50Q366 926 366 893Q366 871 357 855.50Q348 840 332.50 829.50Q317 819 296 813.50Q275 808 251 806M283 697Q208 697 167.50 732Q127 767 120 834L192 848Q200 813 223 793.50Q246 774 283 774Q320 774 343 793.50Q366 813 374 848L446 834Q439 767 398.50 732Q358 697 283 697Z"  horiz-adv-x="573" vert-adv-y="1000"  />

      
      <glyph glyph-name="uni1EB4" unicode="&#x1EB4;" d="M230 330L214 270L353 270L338 330Q324 379 311 434Q298 489 285 540L281 540Q269 488 256.50 433.50Q244 379 230 330M-6 0L198 652L375 652L579 0L423 0L383 155L184 155L144 0L-6 0M283 702Q208 702 170 732.50Q132 763 126 814L197 826Q203 804 222 788.50Q241 773 283 773Q325 773 344 788.50Q363 804 369 826L440 814Q434 763 396 732.50Q358 702 283 702M130 860Q133 917 157 944Q181 971 223 971Q244 971 260 964Q276 957 289 949Q302 941 312.50 934Q323 927 334 927Q360 927 366 966L436 957Q433 900 409 873.50Q385 847 343 847Q322 847 306 854Q290 861 277 869Q264 877 253 884Q242 891 232 891Q206 891 200 852L130 860Z"  horiz-adv-x="573" vert-adv-y="1000"  />

      
      <glyph glyph-name="uni1EB6" unicode="&#x1EB6;" d="M230 330L214 270L353 270L338 330Q324 379 311 434Q298 489 285 540L281 540Q269 488 256.50 433.50Q244 379 230 330M-6 0L198 652L375 652L579 0L423 0L383 155L184 155L144 0L-6 0M283 697Q208 697 167.50 732Q127 767 120 834L200 848Q207 817 228 799.50Q249 782 283 782Q317 782 338 799.50Q359 817 366 848L446 834Q439 767 398.50 732Q358 697 283 697M283-225Q247-225 224.50-203.50Q202-182 202-148Q202-114 224.50-92.50Q247-71 283-71Q319-71 341.50-92.50Q364-114 364-148Q364-182 341.50-203.50Q319-225 283-225Z"  horiz-adv-x="573" vert-adv-y="1000"  />

      
      <glyph glyph-name="uni0104" unicode="&#x0104;" d="M496-223Q448-223 415-198.50Q382-174 382-129Q382-106 390-85.50Q398-65 410-48.50Q422-32 436.50-19.50Q451-7 463 0L423 0L383 155L184 155L144 0L-6 0L198 652L375 652L579 0Q558-2 541.50-10.50Q525-19 513.50-32Q502-45 495.50-60Q489-75 489-90Q489-109 500.50-118.50Q512-128 528-128Q539-128 549-123.50Q559-119 567-114L601-188Q581-203 551.50-213Q522-223 496-223M230 330L214 270L353 270L338 330Q324 379 311 434Q298 489 285 540L281 540Q269 488 256.50 433.50Q244 379 230 330Z"  horiz-adv-x="573" vert-adv-y="1000"  />

      
      <glyph glyph-name="unic6" unicode="&#xc6;" d="M303 356L261 263L386 263L386 541L382 541Q362 493 342.50 446Q323 399 303 356M-14 0L296 652L783 652L783 528L533 528L533 397L744 397L744 274L533 274L533 124L793 124L793 0L386 0L386 149L209 149L141 0L-14 0Z"  horiz-adv-x="845" vert-adv-y="1000"  />

      
      <glyph glyph-name="uni01FC" unicode="&#x01FC;" d="M303 356L261 263L386 263L386 541L382 541Q362 493 342.50 446Q323 399 303 356M-14 0L296 652L783 652L783 528L533 528L533 397L744 397L744 274L533 274L533 124L793 124L793 0L386 0L386 149L209 149L141 0L-14 0M526 698L460 772L631 912L709 817L526 698Z"  horiz-adv-x="845" vert-adv-y="1000"  />

      
      <glyph glyph-name="uni01E2" unicode="&#x01E2;" d="M303 356L261 263L386 263L386 541L382 541Q362 493 342.50 446Q323 399 303 356M-14 0L296 652L783 652L783 528L533 528L533 397L744 397L744 274L533 274L533 124L793 124L793 0L386 0L386 149L209 149L141 0L-14 0M385 739L385 833L687 833L687 739L385 739Z"  horiz-adv-x="845" vert-adv-y="1000"  />

      
      <glyph glyph-name="uni0243" unicode="&#x0243;" d="M100 0L100 175L26 175L26 240L100 246L100 652L324 652Q375 652 418.50 644Q462 636 494.50 617.50Q527 599 545.50 569Q564 539 564 495Q564 454 538 417Q512 380 454 366L454 362Q524 348 560 308.50Q596 269 596 200Q596 148 576.50 110.50Q557 73 522.50 48.50Q488 24 441.50 12Q395 0 342 0L100 0M248 397L317 397Q371 397 397 418.50Q423 440 423 478Q423 514 396 530Q369 546 318 546L248 546L248 397M248 105L330 105Q390 105 422.50 132Q455 159 455 211Q455 263 423 286.50Q391 310 330 310L248 310L248 246L374 246L374 175L248 175L248 105Z"  horiz-adv-x="628" vert-adv-y="1000"  />

      
      <glyph glyph-name="uni1E06" unicode="&#x1E06;" d="M77 0L77 652L300 652Q351 652 394.50 644.50Q438 637 470.50 618Q503 599 521.50 568Q540 537 540 490Q540 468 534 446Q528 424 517 405Q506 386 490.50 371Q475 356 455 349L455 345Q480 339 501 326.50Q522 314 538 295Q554 276 563 250.50Q572 225 572 192Q572 142 552.50 106Q533 70 498.50 46.50Q464 23 418 11.50Q372 0 319 0L77 0M224 391L293 391Q347 391 371.50 412Q396 433 396 468Q396 506 371 522Q346 538 294 538L224 538L224 391M224 114L307 114Q428 114 428 202Q428 245 398 263.50Q368 282 307 282L224 282L224 114M166-187L166-94L462-94L462-187L166-187Z"  horiz-adv-x="605" vert-adv-y="1000"  />

      
      <glyph glyph-name="unic7" unicode="&#xc7;" d="M349-12Q287-12 232 9.50Q177 31 135.50 73Q94 115 70 177.50Q46 240 46 322Q46 403 71 466.50Q96 530 138 574Q180 618 236 641Q292 664 354 664Q417 664 467 638.50Q517 613 550 579L472 485Q447 508 419.50 522.50Q392 537 357 537Q324 537 294.50 522.50Q265 508 243.50 481Q222 454 209.50 415Q197 376 197 327Q197 226 240 170.50Q283 115 355 115Q395 115 426.50 132.50Q458 150 482 176L560 84Q478-12 349-12M248-239L237-180Q296-177 318-167Q340-157 340-136Q340-121 324.50-110.50Q309-100 263-94L311 4L397 4L369-61Q407-70 426-87Q445-104 445-136Q445-187 393.50-211.50Q342-236 248-239Z"  horiz-adv-x="582" vert-adv-y="1000"  />

      
      <glyph glyph-name="uni0106" unicode="&#x0106;" d="M349-12Q287-12 232 9.50Q177 31 135.50 73Q94 115 70 177.50Q46 240 46 322Q46 403 71 466.50Q96 530 138 574Q180 618 236 641Q292 664 354 664Q417 664 467 638.50Q517 613 550 579L472 485Q447 508 419.50 522.50Q392 537 357 537Q324 537 294.50 522.50Q265 508 243.50 481Q222 454 209.50 415Q197 376 197 327Q197 226 240 170.50Q283 115 355 115Q395 115 426.50 132.50Q458 150 482 176L560 84Q478-12 349-12M333 680L267 754L438 894L516 799L333 680Z"  horiz-adv-x="582" vert-adv-y="1000"  />

      
      <glyph glyph-name="uni0108" unicode="&#x0108;" d="M349-12Q287-12 232 9.50Q177 31 135.50 73Q94 115 70 177.50Q46 240 46 322Q46 403 71 466.50Q96 530 138 574Q180 618 236 641Q292 664 354 664Q417 664 467 638.50Q517 613 550 579L472 485Q447 508 419.50 522.50Q392 537 357 537Q324 537 294.50 522.50Q265 508 243.50 481Q222 454 209.50 415Q197 376 197 327Q197 226 240 170.50Q283 115 355 115Q395 115 426.50 132.50Q458 150 482 176L560 84Q478-12 349-12M173 724L263 835L423 835L513 724L449 685L345 769L341 769L237 685L173 724Z"  horiz-adv-x="582" vert-adv-y="1000"  />

      
      <glyph glyph-name="uni010C" unicode="&#x010C;" d="M349-12Q287-12 232 9.50Q177 31 135.50 73Q94 115 70 177.50Q46 240 46 322Q46 403 71 466.50Q96 530 138 574Q180 618 236 641Q292 664 354 664Q417 664 467 638.50Q517 613 550 579L472 485Q447 508 419.50 522.50Q392 537 357 537Q324 537 294.50 522.50Q265 508 243.50 481Q222 454 209.50 415Q197 376 197 327Q197 226 240 170.50Q283 115 355 115Q395 115 426.50 132.50Q458 150 482 176L560 84Q478-12 349-12M263 702L173 812L237 852L341 768L345 768L449 852L513 812L423 702L263 702Z"  horiz-adv-x="582" vert-adv-y="1000"  />

      
      <glyph glyph-name="uni010A" unicode="&#x010A;" d="M349-12Q287-12 232 9.50Q177 31 135.50 73Q94 115 70 177.50Q46 240 46 322Q46 403 71 466.50Q96 530 138 574Q180 618 236 641Q292 664 354 664Q417 664 467 638.50Q517 613 550 579L472 485Q447 508 419.50 522.50Q392 537 357 537Q324 537 294.50 522.50Q265 508 243.50 481Q222 454 209.50 415Q197 376 197 327Q197 226 240 170.50Q283 115 355 115Q395 115 426.50 132.50Q458 150 482 176L560 84Q478-12 349-12M343 701Q306 701 282 722.50Q258 744 258 778Q258 812 282 833.50Q306 855 343 855Q380 855 404 833.50Q428 812 428 778Q428 744 404 722.50Q380 701 343 701Z"  horiz-adv-x="582" vert-adv-y="1000"  />

      
      <glyph glyph-name="uni010E" unicode="&#x010E;" d="M77 0L77 652L261 652Q336 652 396 633Q456 614 499 574.50Q542 535 565 474Q588 413 588 329Q588 245 565 183Q542 121 500 80.50Q458 40 399.50 20Q341 0 269 0L77 0M224 119L252 119Q294 119 328 130Q362 141 386 165.50Q410 190 423.50 230Q437 270 437 329Q437 387 423.50 426.50Q410 466 386 489.50Q362 513 328 523Q294 533 252 533L224 533L224 119M238 702L148 812L212 852L316 768L320 768L424 852L488 812L398 702L238 702Z"  horiz-adv-x="635" vert-adv-y="1000"  />

      
      <glyph glyph-name="uni1E0C" unicode="&#x1E0C;" d="M77 0L77 652L261 652Q336 652 396 633Q456 614 499 574.50Q542 535 565 474Q588 413 588 329Q588 245 565 183Q542 121 500 80.50Q458 40 399.50 20Q341 0 269 0L77 0M224 119L252 119Q294 119 328 130Q362 141 386 165.50Q410 190 423.50 230Q437 270 437 329Q437 387 423.50 426.50Q410 466 386 489.50Q362 513 328 523Q294 533 252 533L224 533L224 119M313-225Q277-225 254.50-203.50Q232-182 232-148Q232-114 254.50-92.50Q277-71 313-71Q349-71 371.50-92.50Q394-114 394-148Q394-182 371.50-203.50Q349-225 313-225Z"  horiz-adv-x="635" vert-adv-y="1000"  />

      
      <glyph glyph-name="uni1E0E" unicode="&#x1E0E;" d="M77 0L77 652L261 652Q336 652 396 633Q456 614 499 574.50Q542 535 565 474Q588 413 588 329Q588 245 565 183Q542 121 500 80.50Q458 40 399.50 20Q341 0 269 0L77 0M224 119L252 119Q294 119 328 130Q362 141 386 165.50Q410 190 423.50 230Q437 270 437 329Q437 387 423.50 426.50Q410 466 386 489.50Q362 513 328 523Q294 533 252 533L224 533L224 119M165-187L165-94L461-94L461-187L165-187Z"  horiz-adv-x="635" vert-adv-y="1000"  />

      
      <glyph glyph-name="uni0110" unicode="&#x0110;" d="M26 301L26 367L102 372L102 652L286 652Q361 652 421 633Q481 614 524 574.50Q567 535 590 474Q613 413 613 329Q613 245 590 183Q567 121 525 80.50Q483 40 424.50 20Q366 0 294 0L102 0L102 301L26 301M249 119L277 119Q319 119 353 130Q387 141 411 165.50Q435 190 448.50 230Q462 270 462 329Q462 387 448.50 426.50Q435 466 411 489.50Q387 513 353 523Q319 533 277 533L249 533L249 372L374 372L374 301L249 301L249 119Z"  horiz-adv-x="660" vert-adv-y="1000"  />

      
      <glyph glyph-name="unic8" unicode="&#xc8;" d="M77 0L77 652L485 652L485 528L224 528L224 397L446 397L446 274L224 274L224 124L495 124L495 0L77 0M298 680L115 799L193 894L364 754L298 680Z"  horiz-adv-x="548" vert-adv-y="1000"  />

      
      <glyph glyph-name="unic9" unicode="&#xc9;" d="M77 0L77 652L485 652L485 528L224 528L224 397L446 397L446 274L224 274L224 124L495 124L495 0L77 0M278 680L212 754L383 894L461 799L278 680Z"  horiz-adv-x="548" vert-adv-y="1000"  />

      
      <glyph glyph-name="unica" unicode="&#xca;" d="M77 0L77 652L485 652L485 528L224 528L224 397L446 397L446 274L224 274L224 124L495 124L495 0L77 0M118 724L208 835L368 835L458 724L394 685L290 769L286 769L182 685L118 724Z"  horiz-adv-x="548" vert-adv-y="1000"  />

      
      <glyph glyph-name="uni011A" unicode="&#x011A;" d="M77 0L77 652L485 652L485 528L224 528L224 397L446 397L446 274L224 274L224 124L495 124L495 0L77 0M208 702L118 812L182 852L286 768L290 768L394 852L458 812L368 702L208 702Z"  horiz-adv-x="548" vert-adv-y="1000"  />

      
      <glyph glyph-name="unicb" unicode="&#xcb;" d="M77 0L77 652L485 652L485 528L224 528L224 397L446 397L446 274L224 274L224 124L495 124L495 0L77 0M177 700Q146 700 126.50 720Q107 740 107 770Q107 800 126.50 820Q146 840 177 840Q208 840 227.50 820Q247 800 247 770Q247 740 227.50 720Q208 700 177 700M399 700Q368 700 348.50 720Q329 740 329 770Q329 800 348.50 820Q368 840 399 840Q430 840 449.50 820Q469 800 469 770Q469 740 449.50 720Q430 700 399 700Z"  horiz-adv-x="548" vert-adv-y="1000"  />

      
      <glyph glyph-name="uni0112" unicode="&#x0112;" d="M77 0L77 652L485 652L485 528L224 528L224 397L446 397L446 274L224 274L224 124L495 124L495 0L77 0M137 721L137 815L439 815L439 721L137 721Z"  horiz-adv-x="548" vert-adv-y="1000"  />

      
      <glyph glyph-name="uni0114" unicode="&#x0114;" d="M77 0L77 652L485 652L485 528L224 528L224 397L446 397L446 274L224 274L224 124L495 124L495 0L77 0M288 697Q213 697 172.50 732Q132 767 125 834L205 848Q212 817 233 799.50Q254 782 288 782Q322 782 343 799.50Q364 817 371 848L451 834Q444 767 403.50 732Q363 697 288 697Z"  horiz-adv-x="548" vert-adv-y="1000"  />

      
      <glyph glyph-name="uni0116" unicode="&#x0116;" d="M77 0L77 652L485 652L485 528L224 528L224 397L446 397L446 274L224 274L224 124L495 124L495 0L77 0M288 701Q251 701 227 722.50Q203 744 203 778Q203 812 227 833.50Q251 855 288 855Q325 855 349 833.50Q373 812 373 778Q373 744 349 722.50Q325 701 288 701Z"  horiz-adv-x="548" vert-adv-y="1000"  />

      
      <glyph glyph-name="uni1EB8" unicode="&#x1EB8;" d="M77 0L77 652L485 652L485 528L224 528L224 397L446 397L446 274L224 274L224 124L495 124L495 0L77 0M295-225Q259-225 236.50-203.50Q214-182 214-148Q214-114 236.50-92.50Q259-71 295-71Q331-71 353.50-92.50Q376-114 376-148Q376-182 353.50-203.50Q331-225 295-225Z"  horiz-adv-x="548" vert-adv-y="1000"  />

      
      <glyph glyph-name="uni1EBA" unicode="&#x1EBA;" d="M77 0L77 652L485 652L485 528L224 528L224 397L446 397L446 274L224 274L224 124L495 124L495 0L77 0M245 691L233 749Q252 753 265 759Q278 765 278 779Q278 793 260 801.50Q242 810 198 813L215 886Q308 884 346 859.50Q384 835 384 795Q384 769 373 750.50Q362 732 343 719.50Q324 707 298.50 700Q273 693 245 691Z"  horiz-adv-x="548" vert-adv-y="1000"  />

      
      <glyph glyph-name="uni1EBC" unicode="&#x1EBC;" d="M77 0L77 652L485 652L485 528L224 528L224 397L446 397L446 274L224 274L224 124L495 124L495 0L77 0M359 692Q332 692 312 701Q292 710 276 721Q260 732 247 741Q234 750 222 750Q208 750 198 739Q188 728 185 701L90 708Q94 784 129 818Q164 852 217 852Q244 852 264 843Q284 834 300 823Q316 812 329 803Q342 794 354 794Q368 794 378 805Q388 816 391 843L486 836Q482 761 447 726.50Q412 692 359 692Z"  horiz-adv-x="548" vert-adv-y="1000"  />

      
      <glyph glyph-name="uni1EBE" unicode="&#x1EBE;" d="M77 0L77 652L485 652L485 528L224 528L224 397L446 397L446 274L224 274L224 124L495 124L495 0L77 0M194 685L135 724L225 824L351 824L441 724L382 685L290 757L286 757L194 685M440 759L396 809L496 895L545 835L440 759Z"  horiz-adv-x="548" vert-adv-y="1000"  />

      
      <glyph glyph-name="uni1EC0" unicode="&#x1EC0;" d="M77 0L77 652L485 652L485 528L224 528L224 397L446 397L446 274L224 274L224 124L495 124L495 0L77 0M194 685L135 724L225 824L351 824L441 724L382 685L290 757L286 757L194 685M180 808L136 759L35 836L83 895L180 808Z"  horiz-adv-x="548" vert-adv-y="1000"  />

      
      <glyph glyph-name="uni1EC2" unicode="&#x1EC2;" d="M77 0L77 652L485 652L485 528L224 528L224 397L446 397L446 274L224 274L224 124L495 124L495 0L77 0M194 685L135 724L225 824L351 824L441 724L382 685L290 757L286 757L194 685M425 750L414 797Q428 800 437 805.50Q446 811 446 824Q446 838 432.50 846Q419 854 381 857L394 917Q476 915 508.50 892.50Q541 870 541 837Q541 793 507.50 773.50Q474 754 425 750Z"  horiz-adv-x="548" vert-adv-y="1000"  />

      
      <glyph glyph-name="uni1EC4" unicode="&#x1EC4;" d="M77 0L77 652L485 652L485 528L224 528L224 397L446 397L446 274L224 274L224 124L495 124L495 0L77 0M194 685L135 724L225 816L351 816L441 724L382 685L290 748L286 748L194 685M135 852Q138 909 162 936Q186 963 228 963Q249 963 265 956Q281 949 294 941Q307 933 317.50 926Q328 919 339 919Q365 919 371 958L441 949Q438 892 414 865Q390 838 348 838Q327 838 311 845Q295 852 282 860Q269 868 258 875Q247 882 237 882Q211 882 205 844L135 852Z"  horiz-adv-x="548" vert-adv-y="1000"  />

      
      <glyph glyph-name="uni1EC6" unicode="&#x1EC6;" d="M77 0L77 652L485 652L485 528L224 528L224 397L446 397L446 274L224 274L224 124L495 124L495 0L77 0M118 724L208 835L368 835L458 724L394 685L290 769L286 769L182 685L118 724M295-225Q259-225 236.50-203.50Q214-182 214-148Q214-114 236.50-92.50Q259-71 295-71Q331-71 353.50-92.50Q376-114 376-148Q376-182 353.50-203.50Q331-225 295-225Z"  horiz-adv-x="548" vert-adv-y="1000"  />

      
      <glyph glyph-name="uni0118" unicode="&#x0118;" d="M411-223Q363-223 329.50-198.50Q296-174 296-129Q296-106 303.50-86Q311-66 322.50-49.50Q334-33 348-20.50Q362-8 375 0L77 0L77 652L485 652L485 528L224 528L224 397L446 397L446 274L224 274L224 124L495 124L495 0L490 0Q473-1 457.50-9Q442-17 430-29.50Q418-42 411-58Q404-74 404-90Q404-110 417-119Q430-128 446-128Q456-128 465-123.50Q474-119 482-114L516-188Q496-203 466.50-213Q437-223 411-223Z"  horiz-adv-x="548" vert-adv-y="1000"  />

      
      <glyph glyph-name="uni1E16" unicode="&#x1E16;" d="M77 0L77 652L485 652L485 528L224 528L224 397L446 397L446 274L224 274L224 124L495 124L495 0L77 0M257 834L208 900L363 1007L423 926L257 834M137 721L137 815L439 815L439 721L137 721Z"  horiz-adv-x="548" vert-adv-y="1000"  />

      
      <glyph glyph-name="uni01F4" unicode="&#x01F4;" d="M365-12Q298-12 239.50 9.50Q181 31 138 73Q95 115 70.50 177.50Q46 240 46 322Q46 403 71 466.50Q96 530 139.50 574Q183 618 241 641Q299 664 364 664Q435 664 486 638Q537 612 569 579L492 485Q467 507 439 522Q411 537 369 537Q331 537 299.50 522.50Q268 508 245 481Q222 454 209.50 415Q197 376 197 327Q197 226 242.50 170.50Q288 115 380 115Q400 115 419 120Q438 125 450 135L450 247L342 247L342 367L580 367L580 67Q546 34 490 11Q434-12 365-12M357 680L291 754L462 894L540 799L357 680Z"  horiz-adv-x="638" vert-adv-y="1000"  />

      
      <glyph glyph-name="uni011C" unicode="&#x011C;" d="M365-12Q298-12 239.50 9.50Q181 31 138 73Q95 115 70.50 177.50Q46 240 46 322Q46 403 71 466.50Q96 530 139.50 574Q183 618 241 641Q299 664 364 664Q435 664 486 638Q537 612 569 579L492 485Q467 507 439 522Q411 537 369 537Q331 537 299.50 522.50Q268 508 245 481Q222 454 209.50 415Q197 376 197 327Q197 226 242.50 170.50Q288 115 380 115Q400 115 419 120Q438 125 450 135L450 247L342 247L342 367L580 367L580 67Q546 34 490 11Q434-12 365-12M197 724L287 835L447 835L537 724L473 685L369 769L365 769L261 685L197 724Z"  horiz-adv-x="638" vert-adv-y="1000"  />

      
      <glyph glyph-name="uni011E" unicode="&#x011E;" d="M365-12Q298-12 239.50 9.50Q181 31 138 73Q95 115 70.50 177.50Q46 240 46 322Q46 403 71 466.50Q96 530 139.50 574Q183 618 241 641Q299 664 364 664Q435 664 486 638Q537 612 569 579L492 485Q467 507 439 522Q411 537 369 537Q331 537 299.50 522.50Q268 508 245 481Q222 454 209.50 415Q197 376 197 327Q197 226 242.50 170.50Q288 115 380 115Q400 115 419 120Q438 125 450 135L450 247L342 247L342 367L580 367L580 67Q546 34 490 11Q434-12 365-12M367 697Q292 697 251.50 732Q211 767 204 834L284 848Q291 817 312 799.50Q333 782 367 782Q401 782 422 799.50Q443 817 450 848L530 834Q523 767 482.50 732Q442 697 367 697Z"  horiz-adv-x="638" vert-adv-y="1000"  />

      
      <glyph glyph-name="uni0120" unicode="&#x0120;" d="M365-12Q298-12 239.50 9.50Q181 31 138 73Q95 115 70.50 177.50Q46 240 46 322Q46 403 71 466.50Q96 530 139.50 574Q183 618 241 641Q299 664 364 664Q435 664 486 638Q537 612 569 579L492 485Q467 507 439 522Q411 537 369 537Q331 537 299.50 522.50Q268 508 245 481Q222 454 209.50 415Q197 376 197 327Q197 226 242.50 170.50Q288 115 380 115Q400 115 419 120Q438 125 450 135L450 247L342 247L342 367L580 367L580 67Q546 34 490 11Q434-12 365-12M367 701Q330 701 306 722.50Q282 744 282 778Q282 812 306 833.50Q330 855 367 855Q404 855 428 833.50Q452 812 452 778Q452 744 428 722.50Q404 701 367 701Z"  horiz-adv-x="638" vert-adv-y="1000"  />

      
      <glyph glyph-name="uni0122" unicode="&#x0122;" d="M365-12Q298-12 239.50 9.50Q181 31 138 73Q95 115 70.50 177.50Q46 240 46 322Q46 403 71 466.50Q96 530 139.50 574Q183 618 241 641Q299 664 364 664Q435 664 486 638Q537 612 569 579L492 485Q467 507 439 522Q411 537 369 537Q331 537 299.50 522.50Q268 508 245 481Q222 454 209.50 415Q197 376 197 327Q197 226 242.50 170.50Q288 115 380 115Q400 115 419 120Q438 125 450 135L450 247L342 247L342 367L580 367L580 67Q546 34 490 11Q434-12 365-12M261-239L250-180Q309-177 331-167.50Q353-158 353-141Q353-127 338-118Q323-109 289-106L317-52Q397-59 427.50-79Q458-99 458-136Q458-187 406.50-211.50Q355-236 261-239Z"  horiz-adv-x="638" vert-adv-y="1000"  />

      
      <glyph glyph-name="uni01E6" unicode="&#x01E6;" d="M365-12Q298-12 239.50 9.50Q181 31 138 73Q95 115 70.50 177.50Q46 240 46 322Q46 403 71 466.50Q96 530 139.50 574Q183 618 241 641Q299 664 364 664Q435 664 486 638Q537 612 569 579L492 485Q467 507 439 522Q411 537 369 537Q331 537 299.50 522.50Q268 508 245 481Q222 454 209.50 415Q197 376 197 327Q197 226 242.50 170.50Q288 115 380 115Q400 115 419 120Q438 125 450 135L450 247L342 247L342 367L580 367L580 67Q546 34 490 11Q434-12 365-12M287 702L197 812L261 852L365 768L369 768L473 852L537 812L447 702L287 702Z"  horiz-adv-x="638" vert-adv-y="1000"  />

      
      <glyph glyph-name="uni1E20" unicode="&#x1E20;" d="M365-12Q298-12 239.50 9.50Q181 31 138 73Q95 115 70.50 177.50Q46 240 46 322Q46 403 71 466.50Q96 530 139.50 574Q183 618 241 641Q299 664 364 664Q435 664 486 638Q537 612 569 579L492 485Q467 507 439 522Q411 537 369 537Q331 537 299.50 522.50Q268 508 245 481Q222 454 209.50 415Q197 376 197 327Q197 226 242.50 170.50Q288 115 380 115Q400 115 419 120Q438 125 450 135L450 247L342 247L342 367L580 367L580 67Q546 34 490 11Q434-12 365-12M216 721L216 815L518 815L518 721L216 721Z"  horiz-adv-x="638" vert-adv-y="1000"  />

      
      <glyph glyph-name="uni0193" unicode="&#x0193;" d="M365-12Q298-12 239.50 9.50Q181 31 138 73Q95 115 70.50 177.50Q46 240 46 322Q46 403 71 466.50Q96 530 139.50 574Q183 618 241 641Q299 664 364 664Q378 664 391 663Q404 662 416 660Q416 665 415.50 668.50Q415 672 415 677Q415 706 424.50 731.50Q434 757 452.50 776.50Q471 796 498 807Q525 818 559 818Q590 818 609.50 814Q629 810 644 805L618 696Q610 699 604 701Q598 703 590 703Q567 703 553 690.50Q539 678 539 655Q539 635 548 620.50Q557 606 569 591L492 496Q467 513 439 525Q411 537 369 537Q331 537 299.50 522.50Q268 508 245 481Q222 454 209.50 415Q197 376 197 327Q197 226 242.50 170.50Q288 115 380 115Q400 115 419 120Q438 125 450 135L450 247L342 247L342 367L580 367L580 67Q546 34 490 11Q434-12 365-12Z"  horiz-adv-x="638" vert-adv-y="1000"  />

      
      <glyph glyph-name="uni0124" unicode="&#x0124;" d="M77 0L77 652L224 652L224 401L449 401L449 652L597 652L597 0L449 0L449 272L224 272L224 0L77 0M166 724L256 835L416 835L506 724L442 685L338 769L334 769L230 685L166 724Z"  horiz-adv-x="674" vert-adv-y="1000"  />

      
      <glyph glyph-name="uni1E24" unicode="&#x1E24;" d="M77 0L77 652L224 652L224 401L449 401L449 652L597 652L597 0L449 0L449 272L224 272L224 0L77 0M336-225Q300-225 277.50-203.50Q255-182 255-148Q255-114 277.50-92.50Q300-71 336-71Q372-71 394.50-92.50Q417-114 417-148Q417-182 394.50-203.50Q372-225 336-225Z"  horiz-adv-x="674" vert-adv-y="1000"  />

      
      <glyph glyph-name="uni1E2A" unicode="&#x1E2A;" d="M77 0L77 652L224 652L224 401L449 401L449 652L597 652L597 0L449 0L449 272L224 272L224 0L77 0M336-232Q293-232 262-220Q231-208 210-186.50Q189-165 178.50-136.50Q168-108 167-75L251-61Q256-93 276-116.50Q296-140 336-140Q376-140 396-116.50Q416-93 421-61L505-75Q504-108 493.50-136.50Q483-165 462.50-186.50Q442-208 410.50-220Q379-232 336-232Z"  horiz-adv-x="674" vert-adv-y="1000"  />

      
      <glyph glyph-name="uni0126" unicode="&#x0126;" d="M25 486L25 551L97 557L97 652L244 652L244 557L469 557L469 652L617 652L617 557L687 557L687 486L617 486L617 0L469 0L469 272L244 272L244 0L97 0L97 486L25 486M244 401L469 401L469 486L244 486L244 401Z"  horiz-adv-x="712" vert-adv-y="1000"  />

      
      <glyph glyph-name="unicc" unicode="&#xcc;" d="M77 0L77 652L224 652L224 0L77 0M160 680L-23 799L55 894L226 754L160 680Z"  horiz-adv-x="301" vert-adv-y="1000"  />

      
      <glyph glyph-name="unicd" unicode="&#xcd;" d="M77 0L77 652L224 652L224 0L77 0M140 680L74 754L245 894L323 799L140 680Z"  horiz-adv-x="301" vert-adv-y="1000"  />

      
      <glyph glyph-name="unice" unicode="&#xce;" d="M77 0L77 652L224 652L224 0L77 0M-20 724L70 835L230 835L320 724L256 685L152 769L148 769L44 685L-20 724Z"  horiz-adv-x="301" vert-adv-y="1000"  />

      
      <glyph glyph-name="uni0128" unicode="&#x0128;" d="M77 0L77 652L224 652L224 0L77 0M221 692Q194 692 174 701Q154 710 138 721Q122 732 109 741Q96 750 84 750Q70 750 60 739Q50 728 47 701L-48 708Q-44 784-9 818Q26 852 79 852Q106 852 126 843Q146 834 162 823Q178 812 191 803Q204 794 216 794Q230 794 240 805Q250 816 253 843L348 836Q344 761 309 726.50Q274 692 221 692Z"  horiz-adv-x="301" vert-adv-y="1000"  />

      
      <glyph glyph-name="unicf" unicode="&#xcf;" d="M77 0L77 652L224 652L224 0L77 0M39 700Q8 700-11.50 720Q-31 740-31 770Q-31 800-11.50 820Q8 840 39 840Q70 840 89.50 820Q109 800 109 770Q109 740 89.50 720Q70 700 39 700M261 700Q230 700 210.50 720Q191 740 191 770Q191 800 210.50 820Q230 840 261 840Q292 840 311.50 820Q331 800 331 770Q331 740 311.50 720Q292 700 261 700Z"  horiz-adv-x="301" vert-adv-y="1000"  />

      
      <glyph glyph-name="uni012A" unicode="&#x012A;" d="M77 0L77 652L224 652L224 0L77 0M-1 721L-1 815L301 815L301 721L-1 721Z"  horiz-adv-x="301" vert-adv-y="1000"  />

      
      <glyph glyph-name="uni0130" unicode="&#x0130;" d="M77 0L77 652L224 652L224 0L77 0M150 701Q113 701 89 722.50Q65 744 65 778Q65 812 89 833.50Q113 855 150 855Q187 855 211 833.50Q235 812 235 778Q235 744 211 722.50Q187 701 150 701Z"  horiz-adv-x="301" vert-adv-y="1000"  />

      
      <glyph glyph-name="uni01CF" unicode="&#x01CF;" d="M77 0L77 652L224 652L224 0L77 0M70 702L-20 812L44 852L148 768L152 768L256 852L320 812L230 702L70 702Z"  horiz-adv-x="301" vert-adv-y="1000"  />

      
      <glyph glyph-name="uni1EC8" unicode="&#x1EC8;" d="M77 0L77 652L224 652L224 0L77 0M107 691L95 749Q114 753 127 759Q140 765 140 779Q140 793 122 801.50Q104 810 60 813L77 886Q170 884 208 859.50Q246 835 246 795Q246 769 235 750.50Q224 732 205 719.50Q186 707 160.50 700Q135 693 107 691Z"  horiz-adv-x="301" vert-adv-y="1000"  />

      
      <glyph glyph-name="uni1ECA" unicode="&#x1ECA;" d="M77 0L77 652L224 652L224 0L77 0M150-225Q114-225 91.50-203.50Q69-182 69-148Q69-114 91.50-92.50Q114-71 150-71Q186-71 208.50-92.50Q231-114 231-148Q231-182 208.50-203.50Q186-225 150-225Z"  horiz-adv-x="301" vert-adv-y="1000"  />

      
      <glyph glyph-name="uni012E" unicode="&#x012E;" d="M157-223Q109-223 75.50-198.50Q42-174 42-129Q42-105 49.50-85Q57-65 68-48.50Q79-32 92-20Q105-8 116 0L77 0L77 652L224 652L224 0Q184-17 167-40.50Q150-64 150-90Q150-110 163-119Q176-128 191-128Q202-128 211.50-123.50Q221-119 228-114L261-188Q242-203 212.50-213Q183-223 157-223Z"  horiz-adv-x="301" vert-adv-y="1000"  />

      
      <glyph glyph-name="uni012C" unicode="&#x012C;" d="M77 0L77 652L224 652L224 0L77 0M150 697Q75 697 34.50 732Q-6 767-13 834L67 848Q74 817 95 799.50Q116 782 150 782Q184 782 205 799.50Q226 817 233 848L313 834Q306 767 265.50 732Q225 697 150 697Z"  horiz-adv-x="301" vert-adv-y="1000"  />

      
      <glyph glyph-name="uni0134" unicode="&#x0134;" d="M226-12Q151-12 100.50 17Q50 46 16 106L116 180Q134 147 158 131Q182 115 207 115Q247 115 267.50 139.50Q288 164 288 229L288 652L435 652L435 217Q435 170 422.50 128Q410 86 384.50 55Q359 24 319.50 6Q280-12 226-12M189 724L279 835L439 835L529 724L465 685L361 769L357 769L253 685L189 724Z"  horiz-adv-x="509" vert-adv-y="1000"  />

      
      <glyph glyph-name="uni0136" unicode="&#x0136;" d="M77 0L77 652L224 652L224 385L228 385L422 652L584 652L387 392L620 0L459 0L300 275L224 175L224 0L77 0M230-239L219-180Q278-177 300-167.50Q322-158 322-141Q322-127 307-118Q292-109 258-106L286-52Q366-59 396.50-79Q427-99 427-136Q427-187 375.50-211.50Q324-236 230-239Z"  horiz-adv-x="614" vert-adv-y="1000"  />

      
      <glyph glyph-name="uni1E32" unicode="&#x1E32;" d="M77 0L77 652L224 652L224 385L228 385L422 652L584 652L387 392L620 0L459 0L300 275L224 175L224 0L77 0M332-225Q296-225 273.50-203.50Q251-182 251-148Q251-114 273.50-92.50Q296-71 332-71Q368-71 390.50-92.50Q413-114 413-148Q413-182 390.50-203.50Q368-225 332-225Z"  horiz-adv-x="614" vert-adv-y="1000"  />

      
      <glyph glyph-name="uni1E34" unicode="&#x1E34;" d="M77 0L77 652L224 652L224 385L228 385L422 652L584 652L387 392L620 0L459 0L300 275L224 175L224 0L77 0M183-187L183-94L479-94L479-187L183-187Z"  horiz-adv-x="614" vert-adv-y="1000"  />

      
      <glyph glyph-name="uni0139" unicode="&#x0139;" d="M77 0L77 652L224 652L224 124L482 124L482 0L77 0M144 680L78 754L249 894L327 799L144 680Z"  horiz-adv-x="518" vert-adv-y="1000"  />

      
      <glyph glyph-name="uni013D" unicode="&#x013D;" d="M77 0L77 652L224 652L224 124L482 124L482 0L77 0M353 511L347 733L442 733L440 664L416 511L353 511Z"  horiz-adv-x="518" vert-adv-y="1000"  />

      
      <glyph glyph-name="uni013B" unicode="&#x013B;" d="M77 0L77 652L224 652L224 124L482 124L482 0L77 0M188-239L177-180Q236-177 258-167.50Q280-158 280-141Q280-127 265-118Q250-109 216-106L244-52Q324-59 354.50-79Q385-99 385-136Q385-187 333.50-211.50Q282-236 188-239Z"  horiz-adv-x="518" vert-adv-y="1000"  />

      
      <glyph glyph-name="uni013F" unicode="&#x013F;" d="M77 0L77 652L224 652L224 124L482 124L482 0L77 0M410 236Q372 236 346.50 262.50Q321 289 321 328Q321 368 346.50 394.50Q372 421 410 421Q448 421 473.50 394.50Q499 368 499 328Q499 289 473.50 262.50Q448 236 410 236Z"  horiz-adv-x="518" vert-adv-y="1000"  />

      
      <glyph glyph-name="uni1E36" unicode="&#x1E36;" d="M77 0L77 652L224 652L224 124L482 124L482 0L77 0M290-225Q254-225 231.50-203.50Q209-182 209-148Q209-114 231.50-92.50Q254-71 290-71Q326-71 348.50-92.50Q371-114 371-148Q371-182 348.50-203.50Q326-225 290-225Z"  horiz-adv-x="518" vert-adv-y="1000"  />

      
      <glyph glyph-name="uni1E38" unicode="&#x1E38;" d="M77 0L77 652L224 652L224 124L482 124L482 0L77 0M3 721L3 815L305 815L305 721L3 721M290-225Q254-225 231.50-203.50Q209-182 209-148Q209-114 231.50-92.50Q254-71 290-71Q326-71 348.50-92.50Q371-114 371-148Q371-182 348.50-203.50Q326-225 290-225Z"  horiz-adv-x="518" vert-adv-y="1000"  />

      
      <glyph glyph-name="uni1E3A" unicode="&#x1E3A;" d="M77 0L77 652L224 652L224 124L482 124L482 0L77 0M142-187L142-94L438-94L438-187L142-187Z"  horiz-adv-x="518" vert-adv-y="1000"  />

      
      <glyph glyph-name="uni0141" unicode="&#x0141;" d="M27 176L-23 264L84 324L84 652L231 652L231 392L389 479L439 391L231 278L231 124L489 124L489 0L84 0L84 210L27 176Z"  horiz-adv-x="524" vert-adv-y="1000"  />

      
      <glyph glyph-name="uni1E3E" unicode="&#x1E3E;" d="M77 0L77 652L238 652L343 362Q353 333 362 302.50Q371 272 381 242L385 242Q395 272 403.50 302.50Q412 333 422 362L525 652L685 652L685 0L551 0L551 239Q551 263 553 292Q555 321 558 350.50Q561 380 564 408.50Q567 437 570 461L566 461L513 306L420 57L339 57L246 306L194 461L190 461Q193 437 196 408.50Q199 380 202 350.50Q205 321 207 292Q209 263 209 239L209 0L77 0M371 680L305 754L476 894L554 799L371 680Z"  horiz-adv-x="762" vert-adv-y="1000"  />

      
      <glyph glyph-name="uni1E40" unicode="&#x1E40;" d="M77 0L77 652L238 652L343 362Q353 333 362 302.50Q371 272 381 242L385 242Q395 272 403.50 302.50Q412 333 422 362L525 652L685 652L685 0L551 0L551 239Q551 263 553 292Q555 321 558 350.50Q561 380 564 408.50Q567 437 570 461L566 461L513 306L420 57L339 57L246 306L194 461L190 461Q193 437 196 408.50Q199 380 202 350.50Q205 321 207 292Q209 263 209 239L209 0L77 0M381 701Q344 701 320 722.50Q296 744 296 778Q296 812 320 833.50Q344 855 381 855Q418 855 442 833.50Q466 812 466 778Q466 744 442 722.50Q418 701 381 701Z"  horiz-adv-x="762" vert-adv-y="1000"  />

      
      <glyph glyph-name="uni1E42" unicode="&#x1E42;" d="M77 0L77 652L238 652L343 362Q353 333 362 302.50Q371 272 381 242L385 242Q395 272 403.50 302.50Q412 333 422 362L525 652L685 652L685 0L551 0L551 239Q551 263 553 292Q555 321 558 350.50Q561 380 564 408.50Q567 437 570 461L566 461L513 306L420 57L339 57L246 306L194 461L190 461Q193 437 196 408.50Q199 380 202 350.50Q205 321 207 292Q209 263 209 239L209 0L77 0M383-225Q347-225 324.50-203.50Q302-182 302-148Q302-114 324.50-92.50Q347-71 383-71Q419-71 441.50-92.50Q464-114 464-148Q464-182 441.50-203.50Q419-225 383-225Z"  horiz-adv-x="762" vert-adv-y="1000"  />

      
      <glyph glyph-name="uni0143" unicode="&#x0143;" d="M77 0L77 652L228 652L398 328L462 184L466 184Q461 236 454.50 300Q448 364 448 422L448 652L588 652L588 0L437 0L267 325L203 467L199 467Q204 413 210.50 351Q217 289 217 231L217 0L77 0M323 680L257 754L428 894L506 799L323 680Z"  horiz-adv-x="665" vert-adv-y="1000"  />

      
      <glyph glyph-name="uni01F8" unicode="&#x01F8;" d="M77 0L77 652L228 652L398 328L462 184L466 184Q461 236 454.50 300Q448 364 448 422L448 652L588 652L588 0L437 0L267 325L203 467L199 467Q204 413 210.50 351Q217 289 217 231L217 0L77 0M343 680L160 799L238 894L409 754L343 680Z"  horiz-adv-x="665" vert-adv-y="1000"  />

      
      <glyph glyph-name="uni0147" unicode="&#x0147;" d="M77 0L77 652L228 652L398 328L462 184L466 184Q461 236 454.50 300Q448 364 448 422L448 652L588 652L588 0L437 0L267 325L203 467L199 467Q204 413 210.50 351Q217 289 217 231L217 0L77 0M253 702L163 812L227 852L331 768L335 768L439 852L503 812L413 702L253 702Z"  horiz-adv-x="665" vert-adv-y="1000"  />

      
      <glyph glyph-name="unid1" unicode="&#xd1;" d="M77 0L77 652L228 652L398 328L462 184L466 184Q461 236 454.50 300Q448 364 448 422L448 652L588 652L588 0L437 0L267 325L203 467L199 467Q204 413 210.50 351Q217 289 217 231L217 0L77 0M404 692Q377 692 357 701Q337 710 321 721Q305 732 292 741Q279 750 267 750Q253 750 243 739Q233 728 230 701L135 708Q139 784 174 818Q209 852 262 852Q289 852 309 843Q329 834 345 823Q361 812 374 803Q387 794 399 794Q413 794 423 805Q433 816 436 843L531 836Q527 761 492 726.50Q457 692 404 692Z"  horiz-adv-x="665" vert-adv-y="1000"  />

      
      <glyph glyph-name="uni0145" unicode="&#x0145;" d="M77 0L77 652L228 652L398 328L462 184L466 184Q461 236 454.50 300Q448 364 448 422L448 652L588 652L588 0L437 0L267 325L203 467L199 467Q204 413 210.50 351Q217 289 217 231L217 0L77 0M241-239L230-180Q289-177 311-167.50Q333-158 333-141Q333-127 318-118Q303-109 269-106L297-52Q377-59 407.50-79Q438-99 438-136Q438-187 386.50-211.50Q335-236 241-239Z"  horiz-adv-x="665" vert-adv-y="1000"  />

      
      <glyph glyph-name="uni1E44" unicode="&#x1E44;" d="M77 0L77 652L228 652L398 328L462 184L466 184Q461 236 454.50 300Q448 364 448 422L448 652L588 652L588 0L437 0L267 325L203 467L199 467Q204 413 210.50 351Q217 289 217 231L217 0L77 0M333 701Q296 701 272 722.50Q248 744 248 778Q248 812 272 833.50Q296 855 333 855Q370 855 394 833.50Q418 812 418 778Q418 744 394 722.50Q370 701 333 701Z"  horiz-adv-x="665" vert-adv-y="1000"  />

      
      <glyph glyph-name="uni1E46" unicode="&#x1E46;" d="M77 0L77 652L228 652L398 328L462 184L466 184Q461 236 454.50 300Q448 364 448 422L448 652L588 652L588 0L437 0L267 325L203 467L199 467Q204 413 210.50 351Q217 289 217 231L217 0L77 0M343-225Q307-225 284.50-203.50Q262-182 262-148Q262-114 284.50-92.50Q307-71 343-71Q379-71 401.50-92.50Q424-114 424-148Q424-182 401.50-203.50Q379-225 343-225Z"  horiz-adv-x="665" vert-adv-y="1000"  />

      
      <glyph glyph-name="uni1E48" unicode="&#x1E48;" d="M77 0L77 652L228 652L398 328L462 184L466 184Q461 236 454.50 300Q448 364 448 422L448 652L588 652L588 0L437 0L267 325L203 467L199 467Q204 413 210.50 351Q217 289 217 231L217 0L77 0M195-187L195-94L491-94L491-187L195-187Z"  horiz-adv-x="665" vert-adv-y="1000"  />

      
      <glyph glyph-name="unid2" unicode="&#xd2;" d="M342-12Q276-12 221.50 11.50Q167 35 128 79Q89 123 67.50 186Q46 249 46 329Q46 409 67.50 471.50Q89 534 128 576.50Q167 619 221.50 641.50Q276 664 342 664Q408 664 462.50 641.50Q517 619 556 576Q595 533 616.50 470.50Q638 408 638 329Q638 249 616.50 186Q595 123 556 79Q517 35 462.50 11.50Q408-12 342-12M342 115Q409 115 448 172.50Q487 230 487 329Q487 427 448 482Q409 537 342 537Q275 537 236 482Q197 427 197 329Q197 230 236 172.50Q275 115 342 115M352 680L169 799L247 894L418 754L352 680Z"  horiz-adv-x="684" vert-adv-y="1000"  />

      
      <glyph glyph-name="unid3" unicode="&#xd3;" d="M342-12Q276-12 221.50 11.50Q167 35 128 79Q89 123 67.50 186Q46 249 46 329Q46 409 67.50 471.50Q89 534 128 576.50Q167 619 221.50 641.50Q276 664 342 664Q408 664 462.50 641.50Q517 619 556 576Q595 533 616.50 470.50Q638 408 638 329Q638 249 616.50 186Q595 123 556 79Q517 35 462.50 11.50Q408-12 342-12M342 115Q409 115 448 172.50Q487 230 487 329Q487 427 448 482Q409 537 342 537Q275 537 236 482Q197 427 197 329Q197 230 236 172.50Q275 115 342 115M332 680L266 754L437 894L515 799L332 680Z"  horiz-adv-x="684" vert-adv-y="1000"  />

      
      <glyph glyph-name="unid4" unicode="&#xd4;" d="M342-12Q276-12 221.50 11.50Q167 35 128 79Q89 123 67.50 186Q46 249 46 329Q46 409 67.50 471.50Q89 534 128 576.50Q167 619 221.50 641.50Q276 664 342 664Q408 664 462.50 641.50Q517 619 556 576Q595 533 616.50 470.50Q638 408 638 329Q638 249 616.50 186Q595 123 556 79Q517 35 462.50 11.50Q408-12 342-12M342 115Q409 115 448 172.50Q487 230 487 329Q487 427 448 482Q409 537 342 537Q275 537 236 482Q197 427 197 329Q197 230 236 172.50Q275 115 342 115M172 724L262 835L422 835L512 724L448 685L344 769L340 769L236 685L172 724Z"  horiz-adv-x="684" vert-adv-y="1000"  />

      
      <glyph glyph-name="unid5" unicode="&#xd5;" d="M342-12Q276-12 221.50 11.50Q167 35 128 79Q89 123 67.50 186Q46 249 46 329Q46 409 67.50 471.50Q89 534 128 576.50Q167 619 221.50 641.50Q276 664 342 664Q408 664 462.50 641.50Q517 619 556 576Q595 533 616.50 470.50Q638 408 638 329Q638 249 616.50 186Q595 123 556 79Q517 35 462.50 11.50Q408-12 342-12M342 115Q409 115 448 172.50Q487 230 487 329Q487 427 448 482Q409 537 342 537Q275 537 236 482Q197 427 197 329Q197 230 236 172.50Q275 115 342 115M413 692Q386 692 366 701Q346 710 330 721Q314 732 301 741Q288 750 276 750Q262 750 252 739Q242 728 239 701L144 708Q148 784 183 818Q218 852 271 852Q298 852 318 843Q338 834 354 823Q370 812 383 803Q396 794 408 794Q422 794 432 805Q442 816 445 843L540 836Q536 761 501 726.50Q466 692 413 692Z"  horiz-adv-x="684" vert-adv-y="1000"  />

      
      <glyph glyph-name="unid6" unicode="&#xd6;" d="M342-12Q276-12 221.50 11.50Q167 35 128 79Q89 123 67.50 186Q46 249 46 329Q46 409 67.50 471.50Q89 534 128 576.50Q167 619 221.50 641.50Q276 664 342 664Q408 664 462.50 641.50Q517 619 556 576Q595 533 616.50 470.50Q638 408 638 329Q638 249 616.50 186Q595 123 556 79Q517 35 462.50 11.50Q408-12 342-12M342 115Q409 115 448 172.50Q487 230 487 329Q487 427 448 482Q409 537 342 537Q275 537 236 482Q197 427 197 329Q197 230 236 172.50Q275 115 342 115M231 700Q200 700 180.50 720Q161 740 161 770Q161 800 180.50 820Q200 840 231 840Q262 840 281.50 820Q301 800 301 770Q301 740 281.50 720Q262 700 231 700M453 700Q422 700 402.50 720Q383 740 383 770Q383 800 402.50 820Q422 840 453 840Q484 840 503.50 820Q523 800 523 770Q523 740 503.50 720Q484 700 453 700Z"  horiz-adv-x="684" vert-adv-y="1000"  />

      
      <glyph glyph-name="uni014C" unicode="&#x014C;" d="M342-12Q276-12 221.50 11.50Q167 35 128 79Q89 123 67.50 186Q46 249 46 329Q46 409 67.50 471.50Q89 534 128 576.50Q167 619 221.50 641.50Q276 664 342 664Q408 664 462.50 641.50Q517 619 556 576Q595 533 616.50 470.50Q638 408 638 329Q638 249 616.50 186Q595 123 556 79Q517 35 462.50 11.50Q408-12 342-12M342 115Q409 115 448 172.50Q487 230 487 329Q487 427 448 482Q409 537 342 537Q275 537 236 482Q197 427 197 329Q197 230 236 172.50Q275 115 342 115M191 721L191 815L493 815L493 721L191 721Z"  horiz-adv-x="684" vert-adv-y="1000"  />

      
      <glyph glyph-name="uni0150" unicode="&#x0150;" d="M342-12Q276-12 221.50 11.50Q167 35 128 79Q89 123 67.50 186Q46 249 46 329Q46 409 67.50 471.50Q89 534 128 576.50Q167 619 221.50 641.50Q276 664 342 664Q408 664 462.50 641.50Q517 619 556 576Q595 533 616.50 470.50Q638 408 638 329Q638 249 616.50 186Q595 123 556 79Q517 35 462.50 11.50Q408-12 342-12M342 115Q409 115 448 172.50Q487 230 487 329Q487 427 448 482Q409 537 342 537Q275 537 236 482Q197 427 197 329Q197 230 236 172.50Q275 115 342 115M207 728L308 889L401 837L279 694L207 728M394 728L495 889L589 837L467 694L394 728Z"  horiz-adv-x="684" vert-adv-y="1000"  />

      
      <glyph glyph-name="uni01D1" unicode="&#x01D1;" d="M342-12Q276-12 221.50 11.50Q167 35 128 79Q89 123 67.50 186Q46 249 46 329Q46 409 67.50 471.50Q89 534 128 576.50Q167 619 221.50 641.50Q276 664 342 664Q408 664 462.50 641.50Q517 619 556 576Q595 533 616.50 470.50Q638 408 638 329Q638 249 616.50 186Q595 123 556 79Q517 35 462.50 11.50Q408-12 342-12M342 115Q409 115 448 172.50Q487 230 487 329Q487 427 448 482Q409 537 342 537Q275 537 236 482Q197 427 197 329Q197 230 236 172.50Q275 115 342 115M262 702L172 812L236 852L340 768L344 768L448 852L512 812L422 702L262 702Z"  horiz-adv-x="684" vert-adv-y="1000"  />

      
      <glyph glyph-name="uni1ECC" unicode="&#x1ECC;" d="M342-12Q276-12 221.50 11.50Q167 35 128 79Q89 123 67.50 186Q46 249 46 329Q46 409 67.50 471.50Q89 534 128 576.50Q167 619 221.50 641.50Q276 664 342 664Q408 664 462.50 641.50Q517 619 556 576Q595 533 616.50 470.50Q638 408 638 329Q638 249 616.50 186Q595 123 556 79Q517 35 462.50 11.50Q408-12 342-12M342 115Q409 115 448 172.50Q487 230 487 329Q487 427 448 482Q409 537 342 537Q275 537 236 482Q197 427 197 329Q197 230 236 172.50Q275 115 342 115M342-225Q306-225 283.50-203.50Q261-182 261-148Q261-114 283.50-92.50Q306-71 342-71Q378-71 400.50-92.50Q423-114 423-148Q423-182 400.50-203.50Q378-225 342-225Z"  horiz-adv-x="684" vert-adv-y="1000"  />

      
      <glyph glyph-name="uni1ECE" unicode="&#x1ECE;" d="M342-12Q276-12 221.50 11.50Q167 35 128 79Q89 123 67.50 186Q46 249 46 329Q46 409 67.50 471.50Q89 534 128 576.50Q167 619 221.50 641.50Q276 664 342 664Q408 664 462.50 641.50Q517 619 556 576Q595 533 616.50 470.50Q638 408 638 329Q638 249 616.50 186Q595 123 556 79Q517 35 462.50 11.50Q408-12 342-12M342 115Q409 115 448 172.50Q487 230 487 329Q487 427 448 482Q409 537 342 537Q275 537 236 482Q197 427 197 329Q197 230 236 172.50Q275 115 342 115M299 691L287 749Q306 753 319 759Q332 765 332 779Q332 793 314 801.50Q296 810 252 813L269 886Q362 884 400 859.50Q438 835 438 795Q438 769 427 750.50Q416 732 397 719.50Q378 707 352.50 700Q327 693 299 691Z"  horiz-adv-x="684" vert-adv-y="1000"  />

      
      <glyph glyph-name="uni1ED0" unicode="&#x1ED0;" d="M342-12Q276-12 221.50 11.50Q167 35 128 79Q89 123 67.50 186Q46 249 46 329Q46 409 67.50 471.50Q89 534 128 576.50Q167 619 221.50 641.50Q276 664 342 664Q408 664 462.50 641.50Q517 619 556 576Q595 533 616.50 470.50Q638 408 638 329Q638 249 616.50 186Q595 123 556 79Q517 35 462.50 11.50Q408-12 342-12M342 115Q409 115 448 172.50Q487 230 487 329Q487 427 448 482Q409 537 342 537Q275 537 236 482Q197 427 197 329Q197 230 236 172.50Q275 115 342 115M248 685L189 724L279 824L405 824L495 724L436 685L344 757L340 757L248 685M494 759L450 809L550 895L599 835L494 759Z"  horiz-adv-x="684" vert-adv-y="1000"  />

      
      <glyph glyph-name="uni1ED2" unicode="&#x1ED2;" d="M342-12Q276-12 221.50 11.50Q167 35 128 79Q89 123 67.50 186Q46 249 46 329Q46 409 67.50 471.50Q89 534 128 576.50Q167 619 221.50 641.50Q276 664 342 664Q408 664 462.50 641.50Q517 619 556 576Q595 533 616.50 470.50Q638 408 638 329Q638 249 616.50 186Q595 123 556 79Q517 35 462.50 11.50Q408-12 342-12M342 115Q409 115 448 172.50Q487 230 487 329Q487 427 448 482Q409 537 342 537Q275 537 236 482Q197 427 197 329Q197 230 236 172.50Q275 115 342 115M248 685L189 724L279 824L405 824L495 724L436 685L344 757L340 757L248 685M234 808L190 759L89 836L137 895L234 808Z"  horiz-adv-x="684" vert-adv-y="1000"  />

      
      <glyph glyph-name="uni1ED4" unicode="&#x1ED4;" d="M342-12Q276-12 221.50 11.50Q167 35 128 79Q89 123 67.50 186Q46 249 46 329Q46 409 67.50 471.50Q89 534 128 576.50Q167 619 221.50 641.50Q276 664 342 664Q408 664 462.50 641.50Q517 619 556 576Q595 533 616.50 470.50Q638 408 638 329Q638 249 616.50 186Q595 123 556 79Q517 35 462.50 11.50Q408-12 342-12M342 115Q409 115 448 172.50Q487 230 487 329Q487 427 448 482Q409 537 342 537Q275 537 236 482Q197 427 197 329Q197 230 236 172.50Q275 115 342 115M248 685L189 724L279 824L405 824L495 724L436 685L344 757L340 757L248 685M479 750L468 797Q482 800 491 805.50Q500 811 500 824Q500 838 486.50 846Q473 854 435 857L448 917Q530 915 562.50 892.50Q595 870 595 837Q595 793 561.50 773.50Q528 754 479 750Z"  horiz-adv-x="684" vert-adv-y="1000"  />

      
      <glyph glyph-name="uni1ED6" unicode="&#x1ED6;" d="M342-12Q276-12 221.50 11.50Q167 35 128 79Q89 123 67.50 186Q46 249 46 329Q46 409 67.50 471.50Q89 534 128 576.50Q167 619 221.50 641.50Q276 664 342 664Q408 664 462.50 641.50Q517 619 556 576Q595 533 616.50 470.50Q638 408 638 329Q638 249 616.50 186Q595 123 556 79Q517 35 462.50 11.50Q408-12 342-12M342 115Q409 115 448 172.50Q487 230 487 329Q487 427 448 482Q409 537 342 537Q275 537 236 482Q197 427 197 329Q197 230 236 172.50Q275 115 342 115M248 685L189 724L279 816L405 816L495 724L436 685L344 748L340 748L248 685M189 852Q192 909 216 936Q240 963 282 963Q303 963 319 956Q335 949 348 941Q361 933 371.50 926Q382 919 393 919Q419 919 425 958L495 949Q492 892 468 865Q444 838 402 838Q381 838 365 845Q349 852 336 860Q323 868 312 875Q301 882 291 882Q265 882 259 844L189 852Z"  horiz-adv-x="684" vert-adv-y="1000"  />

      
      <glyph glyph-name="uni1ED8" unicode="&#x1ED8;" d="M342-12Q276-12 221.50 11.50Q167 35 128 79Q89 123 67.50 186Q46 249 46 329Q46 409 67.50 471.50Q89 534 128 576.50Q167 619 221.50 641.50Q276 664 342 664Q408 664 462.50 641.50Q517 619 556 576Q595 533 616.50 470.50Q638 408 638 329Q638 249 616.50 186Q595 123 556 79Q517 35 462.50 11.50Q408-12 342-12M342 115Q409 115 448 172.50Q487 230 487 329Q487 427 448 482Q409 537 342 537Q275 537 236 482Q197 427 197 329Q197 230 236 172.50Q275 115 342 115M172 724L262 835L422 835L512 724L448 685L344 769L340 769L236 685L172 724M342-225Q306-225 283.50-203.50Q261-182 261-148Q261-114 283.50-92.50Q306-71 342-71Q378-71 400.50-92.50Q423-114 423-148Q423-182 400.50-203.50Q378-225 342-225Z"  horiz-adv-x="684" vert-adv-y="1000"  />

      
      <glyph glyph-name="uni014E" unicode="&#x014E;" d="M342-12Q276-12 221.50 11.50Q167 35 128 79Q89 123 67.50 186Q46 249 46 329Q46 409 67.50 471.50Q89 534 128 576.50Q167 619 221.50 641.50Q276 664 342 664Q408 664 462.50 641.50Q517 619 556 576Q595 533 616.50 470.50Q638 408 638 329Q638 249 616.50 186Q595 123 556 79Q517 35 462.50 11.50Q408-12 342-12M342 115Q409 115 448 172.50Q487 230 487 329Q487 427 448 482Q409 537 342 537Q275 537 236 482Q197 427 197 329Q197 230 236 172.50Q275 115 342 115M342 697Q267 697 226.50 732Q186 767 179 834L259 848Q266 817 287 799.50Q308 782 342 782Q376 782 397 799.50Q418 817 425 848L505 834Q498 767 457.50 732Q417 697 342 697Z"  horiz-adv-x="684" vert-adv-y="1000"  />

      
      <glyph glyph-name="uni1E52" unicode="&#x1E52;" d="M342-12Q276-12 221.50 11.50Q167 35 128 79Q89 123 67.50 186Q46 249 46 329Q46 409 67.50 471.50Q89 534 128 576.50Q167 619 221.50 641.50Q276 664 342 664Q408 664 462.50 641.50Q517 619 556 576Q595 533 616.50 470.50Q638 408 638 329Q638 249 616.50 186Q595 123 556 79Q517 35 462.50 11.50Q408-12 342-12M342 115Q409 115 448 172.50Q487 230 487 329Q487 427 448 482Q409 537 342 537Q275 537 236 482Q197 427 197 329Q197 230 236 172.50Q275 115 342 115M311 834L262 900L417 1007L477 926L311 834M191 721L191 815L493 815L493 721L191 721Z"  horiz-adv-x="684" vert-adv-y="1000"  />

      
      <glyph glyph-name="unid8" unicode="&#xd8;" d="M343-12Q249-12 178 36L116-41L40 17L109 103Q80 146 63.50 203Q47 260 47 329Q47 409 68.50 471.50Q90 534 129 576.50Q168 619 222.50 641.50Q277 664 343 664Q445 664 518 611L584 693L660 634L584 540Q610 499 624.50 446.50Q639 394 639 329Q639 249 617.50 186Q596 123 557 79Q518 35 463.50 11.50Q409-12 343-12M198 329Q198 301 201.50 276Q205 251 211 230L431 503Q395 537 343 537Q276 537 237 482Q198 427 198 329M343 115Q410 115 449 172.50Q488 230 488 329Q488 374 479 410L264 143Q298 115 343 115Z"  horiz-adv-x="684" vert-adv-y="1000"  />

      
      <glyph glyph-name="uni0152" unicode="&#x0152;" d="M373 0Q303 0 243.50 20Q184 40 140 80.50Q96 121 71 183Q46 245 46 329Q46 413 71 474Q96 535 140.50 574.50Q185 614 246.50 633Q308 652 381 652L808 652L808 528L561 528L561 397L769 397L769 274L561 274L561 124L818 124L818 0L373 0M390 119L413 119L413 533L390 533Q347 533 311.50 523Q276 513 250.50 489.50Q225 466 211 427Q197 388 197 329Q197 270 211 229.50Q225 189 250.50 164.50Q276 140 311.50 129.50Q347 119 390 119Z"  horiz-adv-x="871" vert-adv-y="1000"  />

      
      <glyph glyph-name="uni01A0" unicode="&#x01A0;" d="M343-12Q277-12 222.50 11.50Q168 35 129 79Q90 123 68.50 186Q47 249 47 329Q47 409 68.50 471.50Q90 534 129 576.50Q168 619 222.50 641.50Q277 664 343 664Q420 664 482 633Q511 641 526.50 657Q542 673 542 705Q542 725 537 742Q532 759 526 770L635 814Q647 797 656 771.50Q665 746 665 716Q665 662 636 630.50Q607 599 550 584Q592 540 615.50 476.50Q639 413 639 329Q639 249 617.50 186Q596 123 557 79Q518 35 463.50 11.50Q409-12 343-12M343 115Q410 115 449 172.50Q488 230 488 329Q488 427 449 482Q410 537 343 537Q276 537 237 482Q198 427 198 329Q198 230 237 172.50Q276 115 343 115Z"  horiz-adv-x="684" vert-adv-y="1000"  />

      
      <glyph glyph-name="uni1EDA" unicode="&#x1EDA;" d="M343-12Q277-12 222.50 11.50Q168 35 129 79Q90 123 68.50 186Q47 249 47 329Q47 409 68.50 471.50Q90 534 129 576.50Q168 619 222.50 641.50Q277 664 343 664Q420 664 482 633Q511 641 526.50 657Q542 673 542 705Q542 725 537 742Q532 759 526 770L635 814Q647 797 656 771.50Q665 746 665 716Q665 662 636 630.50Q607 599 550 584Q592 540 615.50 476.50Q639 413 639 329Q639 249 617.50 186Q596 123 557 79Q518 35 463.50 11.50Q409-12 343-12M343 115Q410 115 449 172.50Q488 230 488 329Q488 427 449 482Q410 537 343 537Q276 537 237 482Q198 427 198 329Q198 230 237 172.50Q276 115 343 115M332 680L266 754L437 894L515 799L332 680Z"  horiz-adv-x="684" vert-adv-y="1000"  />

      
      <glyph glyph-name="uni1EDC" unicode="&#x1EDC;" d="M343-12Q277-12 222.50 11.50Q168 35 129 79Q90 123 68.50 186Q47 249 47 329Q47 409 68.50 471.50Q90 534 129 576.50Q168 619 222.50 641.50Q277 664 343 664Q420 664 482 633Q511 641 526.50 657Q542 673 542 705Q542 725 537 742Q532 759 526 770L635 814Q647 797 656 771.50Q665 746 665 716Q665 662 636 630.50Q607 599 550 584Q592 540 615.50 476.50Q639 413 639 329Q639 249 617.50 186Q596 123 557 79Q518 35 463.50 11.50Q409-12 343-12M343 115Q410 115 449 172.50Q488 230 488 329Q488 427 449 482Q410 537 343 537Q276 537 237 482Q198 427 198 329Q198 230 237 172.50Q276 115 343 115M352 680L169 799L247 894L418 754L352 680Z"  horiz-adv-x="684" vert-adv-y="1000"  />

      
      <glyph glyph-name="uni1EDE" unicode="&#x1EDE;" d="M343-12Q277-12 222.50 11.50Q168 35 129 79Q90 123 68.50 186Q47 249 47 329Q47 409 68.50 471.50Q90 534 129 576.50Q168 619 222.50 641.50Q277 664 343 664Q420 664 482 633Q511 641 526.50 657Q542 673 542 705Q542 725 537 742Q532 759 526 770L635 814Q647 797 656 771.50Q665 746 665 716Q665 662 636 630.50Q607 599 550 584Q592 540 615.50 476.50Q639 413 639 329Q639 249 617.50 186Q596 123 557 79Q518 35 463.50 11.50Q409-12 343-12M343 115Q410 115 449 172.50Q488 230 488 329Q488 427 449 482Q410 537 343 537Q276 537 237 482Q198 427 198 329Q198 230 237 172.50Q276 115 343 115M299 691L287 749Q306 753 319 759Q332 765 332 779Q332 793 314 801.50Q296 810 252 813L269 886Q362 884 400 859.50Q438 835 438 795Q438 769 427 750.50Q416 732 397 719.50Q378 707 352.50 700Q327 693 299 691Z"  horiz-adv-x="684" vert-adv-y="1000"  />

      
      <glyph glyph-name="uni1EE0" unicode="&#x1EE0;" d="M343-12Q277-12 222.50 11.50Q168 35 129 79Q90 123 68.50 186Q47 249 47 329Q47 409 68.50 471.50Q90 534 129 576.50Q168 619 222.50 641.50Q277 664 343 664Q420 664 482 633Q511 641 526.50 657Q542 673 542 705Q542 725 537 742Q532 759 526 770L635 814Q647 797 656 771.50Q665 746 665 716Q665 662 636 630.50Q607 599 550 584Q592 540 615.50 476.50Q639 413 639 329Q639 249 617.50 186Q596 123 557 79Q518 35 463.50 11.50Q409-12 343-12M343 115Q410 115 449 172.50Q488 230 488 329Q488 427 449 482Q410 537 343 537Q276 537 237 482Q198 427 198 329Q198 230 237 172.50Q276 115 343 115M397 692Q370 692 350 701Q330 710 314 721Q298 732 285 741Q272 750 260 750Q246 750 236 739Q226 728 223 701L128 708Q132 784 167 818Q202 852 255 852Q282 852 302 843Q322 834 338 823Q354 812 367 803Q380 794 392 794Q406 794 416 805Q426 816 429 843L524 836Q520 761 485 726.50Q450 692 397 692Z"  horiz-adv-x="684" vert-adv-y="1000"  />

      
      <glyph glyph-name="uni1EE2" unicode="&#x1EE2;" d="M343-12Q277-12 222.50 11.50Q168 35 129 79Q90 123 68.50 186Q47 249 47 329Q47 409 68.50 471.50Q90 534 129 576.50Q168 619 222.50 641.50Q277 664 343 664Q420 664 482 633Q511 641 526.50 657Q542 673 542 705Q542 725 537 742Q532 759 526 770L635 814Q647 797 656 771.50Q665 746 665 716Q665 662 636 630.50Q607 599 550 584Q592 540 615.50 476.50Q639 413 639 329Q639 249 617.50 186Q596 123 557 79Q518 35 463.50 11.50Q409-12 343-12M343 115Q410 115 449 172.50Q488 230 488 329Q488 427 449 482Q410 537 343 537Q276 537 237 482Q198 427 198 329Q198 230 237 172.50Q276 115 343 115M342-225Q306-225 283.50-203.50Q261-182 261-148Q261-114 283.50-92.50Q306-71 342-71Q378-71 400.50-92.50Q423-114 423-148Q423-182 400.50-203.50Q378-225 342-225Z"  horiz-adv-x="684" vert-adv-y="1000"  />

      
      <glyph glyph-name="uni01EA" unicode="&#x01EA;" d="M368-223Q320-223 286.50-198.50Q253-174 253-129Q253-90 273-60Q293-30 316-10Q254-6 204 19.50Q154 45 119 88.50Q84 132 65 193Q46 254 46 329Q46 409 67.50 471.50Q89 534 128 576.50Q167 619 221.50 641.50Q276 664 342 664Q408 664 462.50 641.50Q517 619 556 576Q595 533 616.50 470.50Q638 408 638 329Q638 260 624 207.50Q610 155 583 115Q556 75 517.50 46Q479 17 431-5Q393-22 376.50-45.50Q360-69 360-90Q360-110 373-119Q386-128 402-128Q413-128 421.50-123.50Q430-119 438-114L472-188Q452-203 423-213Q394-223 368-223M342 115Q409 115 448 172.50Q487 230 487 329Q487 427 448 482Q409 537 342 537Q275 537 236 482Q197 427 197 329Q197 230 236 172.50Q275 115 342 115Z"  horiz-adv-x="684" vert-adv-y="1000"  />

      
      <glyph glyph-name="uni0154" unicode="&#x0154;" d="M77 0L77 652L312 652Q364 652 409.50 642Q455 632 489 608.50Q523 585 543 546Q563 507 563 449Q563 377 531.50 330.50Q500 284 447 261L595 0L430 0L305 235L224 235L224 0L77 0M224 352L300 352Q358 352 388.50 376.50Q419 401 419 449Q419 497 388.50 516Q358 535 300 535L224 535L224 352M298 680L232 754L403 894L481 799L298 680Z"  horiz-adv-x="613" vert-adv-y="1000"  />

      
      <glyph glyph-name="uni0158" unicode="&#x0158;" d="M77 0L77 652L312 652Q364 652 409.50 642Q455 632 489 608.50Q523 585 543 546Q563 507 563 449Q563 377 531.50 330.50Q500 284 447 261L595 0L430 0L305 235L224 235L224 0L77 0M224 352L300 352Q358 352 388.50 376.50Q419 401 419 449Q419 497 388.50 516Q358 535 300 535L224 535L224 352M228 702L138 812L202 852L306 768L310 768L414 852L478 812L388 702L228 702Z"  horiz-adv-x="613" vert-adv-y="1000"  />

      
      <glyph glyph-name="uni1E58" unicode="&#x1E58;" d="M77 0L77 652L312 652Q364 652 409.50 642Q455 632 489 608.50Q523 585 543 546Q563 507 563 449Q563 377 531.50 330.50Q500 284 447 261L595 0L430 0L305 235L224 235L224 0L77 0M224 352L300 352Q358 352 388.50 376.50Q419 401 419 449Q419 497 388.50 516Q358 535 300 535L224 535L224 352M308 701Q271 701 247 722.50Q223 744 223 778Q223 812 247 833.50Q271 855 308 855Q345 855 369 833.50Q393 812 393 778Q393 744 369 722.50Q345 701 308 701Z"  horiz-adv-x="613" vert-adv-y="1000"  />

      
      <glyph glyph-name="uni0156" unicode="&#x0156;" d="M77 0L77 652L312 652Q364 652 409.50 642Q455 632 489 608.50Q523 585 543 546Q563 507 563 449Q563 377 531.50 330.50Q500 284 447 261L595 0L430 0L305 235L224 235L224 0L77 0M224 352L300 352Q358 352 388.50 376.50Q419 401 419 449Q419 497 388.50 516Q358 535 300 535L224 535L224 352M223-239L212-180Q271-177 293-167.50Q315-158 315-141Q315-127 300-118Q285-109 251-106L279-52Q359-59 389.50-79Q420-99 420-136Q420-187 368.50-211.50Q317-236 223-239Z"  horiz-adv-x="613" vert-adv-y="1000"  />

      
      <glyph glyph-name="uni1E5A" unicode="&#x1E5A;" d="M77 0L77 652L312 652Q364 652 409.50 642Q455 632 489 608.50Q523 585 543 546Q563 507 563 449Q563 377 531.50 330.50Q500 284 447 261L595 0L430 0L305 235L224 235L224 0L77 0M224 352L300 352Q358 352 388.50 376.50Q419 401 419 449Q419 497 388.50 516Q358 535 300 535L224 535L224 352M325-225Q289-225 266.50-203.50Q244-182 244-148Q244-114 266.50-92.50Q289-71 325-71Q361-71 383.50-92.50Q406-114 406-148Q406-182 383.50-203.50Q361-225 325-225Z"  horiz-adv-x="613" vert-adv-y="1000"  />

      
      <glyph glyph-name="uni1E5C" unicode="&#x1E5C;" d="M77 0L77 652L312 652Q364 652 409.50 642Q455 632 489 608.50Q523 585 543 546Q563 507 563 449Q563 377 531.50 330.50Q500 284 447 261L595 0L430 0L305 235L224 235L224 0L77 0M224 352L300 352Q358 352 388.50 376.50Q419 401 419 449Q419 497 388.50 516Q358 535 300 535L224 535L224 352M157 721L157 815L459 815L459 721L157 721M325-225Q289-225 266.50-203.50Q244-182 244-148Q244-114 266.50-92.50Q289-71 325-71Q361-71 383.50-92.50Q406-114 406-148Q406-182 383.50-203.50Q361-225 325-225Z"  horiz-adv-x="613" vert-adv-y="1000"  />

      
      <glyph glyph-name="uni1E5E" unicode="&#x1E5E;" d="M77 0L77 652L312 652Q364 652 409.50 642Q455 632 489 608.50Q523 585 543 546Q563 507 563 449Q563 377 531.50 330.50Q500 284 447 261L595 0L430 0L305 235L224 235L224 0L77 0M224 352L300 352Q358 352 388.50 376.50Q419 401 419 449Q419 497 388.50 516Q358 535 300 535L224 535L224 352M177-187L177-94L473-94L473-187L177-187Z"  horiz-adv-x="613" vert-adv-y="1000"  />

      
      <glyph glyph-name="uni015A" unicode="&#x015A;" d="M276-12Q212-12 148.50 11.50Q85 35 35 82L119 183Q154 153 196.50 134Q239 115 280 115Q326 115 348.50 132Q371 149 371 178Q371 193 364.50 204Q358 215 345.50 223.50Q333 232 315.50 239.50Q298 247 277 256L192 292Q167 302 143.50 318Q120 334 101.50 355.50Q83 377 72 405.50Q61 434 61 470Q61 510 78 545.50Q95 581 126 607.50Q157 634 199.50 649Q242 664 293 664Q350 664 405.50 642Q461 620 503 578L428 485Q396 510 364 523.50Q332 537 293 537Q255 537 232.50 521.50Q210 506 210 478Q210 463 217.50 452.50Q225 442 238.50 433.50Q252 425 270 417.50Q288 410 309 401L393 367Q453 343 487.50 301Q522 259 522 190Q522 149 505.50 112.50Q489 76 457.50 48.50Q426 21 380 4.50Q334-12 276-12M281 680L215 754L386 894L464 799L281 680Z"  horiz-adv-x="556" vert-adv-y="1000"  />

      
      <glyph glyph-name="uni015C" unicode="&#x015C;" d="M276-12Q212-12 148.50 11.50Q85 35 35 82L119 183Q154 153 196.50 134Q239 115 280 115Q326 115 348.50 132Q371 149 371 178Q371 193 364.50 204Q358 215 345.50 223.50Q333 232 315.50 239.50Q298 247 277 256L192 292Q167 302 143.50 318Q120 334 101.50 355.50Q83 377 72 405.50Q61 434 61 470Q61 510 78 545.50Q95 581 126 607.50Q157 634 199.50 649Q242 664 293 664Q350 664 405.50 642Q461 620 503 578L428 485Q396 510 364 523.50Q332 537 293 537Q255 537 232.50 521.50Q210 506 210 478Q210 463 217.50 452.50Q225 442 238.50 433.50Q252 425 270 417.50Q288 410 309 401L393 367Q453 343 487.50 301Q522 259 522 190Q522 149 505.50 112.50Q489 76 457.50 48.50Q426 21 380 4.50Q334-12 276-12M121 724L211 835L371 835L461 724L397 685L293 769L289 769L185 685L121 724Z"  horiz-adv-x="556" vert-adv-y="1000"  />

      
      <glyph glyph-name="uni0160" unicode="&#x0160;" d="M276-12Q212-12 148.50 11.50Q85 35 35 82L119 183Q154 153 196.50 134Q239 115 280 115Q326 115 348.50 132Q371 149 371 178Q371 193 364.50 204Q358 215 345.50 223.50Q333 232 315.50 239.50Q298 247 277 256L192 292Q167 302 143.50 318Q120 334 101.50 355.50Q83 377 72 405.50Q61 434 61 470Q61 510 78 545.50Q95 581 126 607.50Q157 634 199.50 649Q242 664 293 664Q350 664 405.50 642Q461 620 503 578L428 485Q396 510 364 523.50Q332 537 293 537Q255 537 232.50 521.50Q210 506 210 478Q210 463 217.50 452.50Q225 442 238.50 433.50Q252 425 270 417.50Q288 410 309 401L393 367Q453 343 487.50 301Q522 259 522 190Q522 149 505.50 112.50Q489 76 457.50 48.50Q426 21 380 4.50Q334-12 276-12M211 702L121 812L185 852L289 768L293 768L397 852L461 812L371 702L211 702Z"  horiz-adv-x="556" vert-adv-y="1000"  />

      
      <glyph glyph-name="uni015E" unicode="&#x015E;" d="M276-12Q212-12 148.50 11.50Q85 35 35 82L119 183Q154 153 196.50 134Q239 115 280 115Q326 115 348.50 132Q371 149 371 178Q371 193 364.50 204Q358 215 345.50 223.50Q333 232 315.50 239.50Q298 247 277 256L192 292Q167 302 143.50 318Q120 334 101.50 355.50Q83 377 72 405.50Q61 434 61 470Q61 510 78 545.50Q95 581 126 607.50Q157 634 199.50 649Q242 664 293 664Q350 664 405.50 642Q461 620 503 578L428 485Q396 510 364 523.50Q332 537 293 537Q255 537 232.50 521.50Q210 506 210 478Q210 463 217.50 452.50Q225 442 238.50 433.50Q252 425 270 417.50Q288 410 309 401L393 367Q453 343 487.50 301Q522 259 522 190Q522 149 505.50 112.50Q489 76 457.50 48.50Q426 21 380 4.50Q334-12 276-12M178-239L167-180Q226-177 248-167Q270-157 270-136Q270-121 254.50-110.50Q239-100 193-94L241 4L327 4L299-61Q337-70 356-87Q375-104 375-136Q375-187 323.50-211.50Q272-236 178-239Z"  horiz-adv-x="556" vert-adv-y="1000"  />

      
      <glyph glyph-name="uni0218" unicode="&#x0218;" d="M276-12Q212-12 148.50 11.50Q85 35 35 82L119 183Q154 153 196.50 134Q239 115 280 115Q326 115 348.50 132Q371 149 371 178Q371 193 364.50 204Q358 215 345.50 223.50Q333 232 315.50 239.50Q298 247 277 256L192 292Q167 302 143.50 318Q120 334 101.50 355.50Q83 377 72 405.50Q61 434 61 470Q61 510 78 545.50Q95 581 126 607.50Q157 634 199.50 649Q242 664 293 664Q350 664 405.50 642Q461 620 503 578L428 485Q396 510 364 523.50Q332 537 293 537Q255 537 232.50 521.50Q210 506 210 478Q210 463 217.50 452.50Q225 442 238.50 433.50Q252 425 270 417.50Q288 410 309 401L393 367Q453 343 487.50 301Q522 259 522 190Q522 149 505.50 112.50Q489 76 457.50 48.50Q426 21 380 4.50Q334-12 276-12M178-239L167-180Q226-177 248-167.50Q270-158 270-141Q270-127 255-118Q240-109 206-106L234-52Q314-59 344.50-79Q375-99 375-136Q375-187 323.50-211.50Q272-236 178-239Z"  horiz-adv-x="556" vert-adv-y="1000"  />

      
      <glyph glyph-name="uni1E60" unicode="&#x1E60;" d="M276-12Q212-12 148.50 11.50Q85 35 35 82L119 183Q154 153 196.50 134Q239 115 280 115Q326 115 348.50 132Q371 149 371 178Q371 193 364.50 204Q358 215 345.50 223.50Q333 232 315.50 239.50Q298 247 277 256L192 292Q167 302 143.50 318Q120 334 101.50 355.50Q83 377 72 405.50Q61 434 61 470Q61 510 78 545.50Q95 581 126 607.50Q157 634 199.50 649Q242 664 293 664Q350 664 405.50 642Q461 620 503 578L428 485Q396 510 364 523.50Q332 537 293 537Q255 537 232.50 521.50Q210 506 210 478Q210 463 217.50 452.50Q225 442 238.50 433.50Q252 425 270 417.50Q288 410 309 401L393 367Q453 343 487.50 301Q522 259 522 190Q522 149 505.50 112.50Q489 76 457.50 48.50Q426 21 380 4.50Q334-12 276-12M291 701Q254 701 230 722.50Q206 744 206 778Q206 812 230 833.50Q254 855 291 855Q328 855 352 833.50Q376 812 376 778Q376 744 352 722.50Q328 701 291 701Z"  horiz-adv-x="556" vert-adv-y="1000"  />

      
      <glyph glyph-name="uni1E62" unicode="&#x1E62;" d="M276-12Q212-12 148.50 11.50Q85 35 35 82L119 183Q154 153 196.50 134Q239 115 280 115Q326 115 348.50 132Q371 149 371 178Q371 193 364.50 204Q358 215 345.50 223.50Q333 232 315.50 239.50Q298 247 277 256L192 292Q167 302 143.50 318Q120 334 101.50 355.50Q83 377 72 405.50Q61 434 61 470Q61 510 78 545.50Q95 581 126 607.50Q157 634 199.50 649Q242 664 293 664Q350 664 405.50 642Q461 620 503 578L428 485Q396 510 364 523.50Q332 537 293 537Q255 537 232.50 521.50Q210 506 210 478Q210 463 217.50 452.50Q225 442 238.50 433.50Q252 425 270 417.50Q288 410 309 401L393 367Q453 343 487.50 301Q522 259 522 190Q522 149 505.50 112.50Q489 76 457.50 48.50Q426 21 380 4.50Q334-12 276-12M280-225Q244-225 221.50-203.50Q199-182 199-148Q199-114 221.50-92.50Q244-71 280-71Q316-71 338.50-92.50Q361-114 361-148Q361-182 338.50-203.50Q316-225 280-225Z"  horiz-adv-x="556" vert-adv-y="1000"  />

      
      <glyph glyph-name="uni1E9E" unicode="&#x1E9E;" d="M463-12Q398-12 351.50 10Q305 32 277 60L354 150Q378 126 400.50 116.50Q423 107 445 107Q477 107 496 127Q515 147 515 179Q515 209 481 234.50Q447 260 364 275L354 361L463 486Q450 509 424 527Q398 545 357 545Q228 545 228 389L228 0L80 0L80 409Q80 464 96.50 510.50Q113 557 147.50 591Q182 625 235 644.50Q288 664 361 664Q459 664 522.50 613.50Q586 563 609 481L501 359Q538 347 568 331Q598 315 620 293.50Q642 272 654 243.50Q666 215 666 178Q666 138 652.50 103Q639 68 613.50 42.50Q588 17 550 2.50Q512-12 463-12Z"  horiz-adv-x="705" vert-adv-y="1000"  />

      
      <glyph glyph-name="uni0164" unicode="&#x0164;" d="M204 0L204 528L25 528L25 652L531 652L531 528L352 528L352 0L204 0M198 702L108 812L172 852L276 768L280 768L384 852L448 812L358 702L198 702Z"  horiz-adv-x="556" vert-adv-y="1000"  />

      
      <glyph glyph-name="uni0162" unicode="&#x0162;" d="M204 0L204 528L25 528L25 652L531 652L531 528L352 528L352 0L204 0M178-239L167-180Q226-177 248-167Q270-157 270-136Q270-121 254.50-110.50Q239-100 193-94L241 4L327 4L299-61Q337-70 356-87Q375-104 375-136Q375-187 323.50-211.50Q272-236 178-239Z"  horiz-adv-x="556" vert-adv-y="1000"  />

      
      <glyph glyph-name="uni021A" unicode="&#x021A;" d="M204 0L204 528L25 528L25 652L531 652L531 528L352 528L352 0L204 0M176-239L165-180Q224-177 246-167.50Q268-158 268-141Q268-127 253-118Q238-109 204-106L232-52Q312-59 342.50-79Q373-99 373-136Q373-187 321.50-211.50Q270-236 176-239Z"  horiz-adv-x="556" vert-adv-y="1000"  />

      
      <glyph glyph-name="uni1E6C" unicode="&#x1E6C;" d="M204 0L204 528L25 528L25 652L531 652L531 528L352 528L352 0L204 0M278-225Q242-225 219.50-203.50Q197-182 197-148Q197-114 219.50-92.50Q242-71 278-71Q314-71 336.50-92.50Q359-114 359-148Q359-182 336.50-203.50Q314-225 278-225Z"  horiz-adv-x="556" vert-adv-y="1000"  />

      
      <glyph glyph-name="uni1E6E" unicode="&#x1E6E;" d="M204 0L204 528L25 528L25 652L531 652L531 528L352 528L352 0L204 0M130-187L130-94L426-94L426-187L130-187Z"  horiz-adv-x="556" vert-adv-y="1000"  />

      
      <glyph glyph-name="uni0166" unicode="&#x0166;" d="M204 0L204 285L86 285L86 350L180 356L204 356L204 528L25 528L25 652L531 652L531 528L352 528L352 356L470 356L470 285L352 285L352 0L204 0Z"  horiz-adv-x="556" vert-adv-y="1000"  />

      
      <glyph glyph-name="unid9" unicode="&#xd9;" d="M334-12Q207-12 140 63Q73 138 73 302L73 652L221 652L221 287Q221 191 250 153Q279 115 334 115Q389 115 419 153Q449 191 449 287L449 652L591 652L591 302Q591 138 525.50 63Q460-12 334-12M342 680L159 799L237 894L408 754L342 680Z"  horiz-adv-x="665" vert-adv-y="1000"  />

      
      <glyph glyph-name="unida" unicode="&#xda;" d="M334-12Q207-12 140 63Q73 138 73 302L73 652L221 652L221 287Q221 191 250 153Q279 115 334 115Q389 115 419 153Q449 191 449 287L449 652L591 652L591 302Q591 138 525.50 63Q460-12 334-12M322 680L256 754L427 894L505 799L322 680Z"  horiz-adv-x="665" vert-adv-y="1000"  />

      
      <glyph glyph-name="unidb" unicode="&#xdb;" d="M334-12Q207-12 140 63Q73 138 73 302L73 652L221 652L221 287Q221 191 250 153Q279 115 334 115Q389 115 419 153Q449 191 449 287L449 652L591 652L591 302Q591 138 525.50 63Q460-12 334-12M162 724L252 835L412 835L502 724L438 685L334 769L330 769L226 685L162 724Z"  horiz-adv-x="665" vert-adv-y="1000"  />

      
      <glyph glyph-name="uni0168" unicode="&#x0168;" d="M334-12Q207-12 140 63Q73 138 73 302L73 652L221 652L221 287Q221 191 250 153Q279 115 334 115Q389 115 419 153Q449 191 449 287L449 652L591 652L591 302Q591 138 525.50 63Q460-12 334-12M403 692Q376 692 356 701Q336 710 320 721Q304 732 291 741Q278 750 266 750Q252 750 242 739Q232 728 229 701L134 708Q138 784 173 818Q208 852 261 852Q288 852 308 843Q328 834 344 823Q360 812 373 803Q386 794 398 794Q412 794 422 805Q432 816 435 843L530 836Q526 761 491 726.50Q456 692 403 692Z"  horiz-adv-x="665" vert-adv-y="1000"  />

      
      <glyph glyph-name="unidc" unicode="&#xdc;" d="M334-12Q207-12 140 63Q73 138 73 302L73 652L221 652L221 287Q221 191 250 153Q279 115 334 115Q389 115 419 153Q449 191 449 287L449 652L591 652L591 302Q591 138 525.50 63Q460-12 334-12M221 700Q190 700 170.50 720Q151 740 151 770Q151 800 170.50 820Q190 840 221 840Q252 840 271.50 820Q291 800 291 770Q291 740 271.50 720Q252 700 221 700M443 700Q412 700 392.50 720Q373 740 373 770Q373 800 392.50 820Q412 840 443 840Q474 840 493.50 820Q513 800 513 770Q513 740 493.50 720Q474 700 443 700Z"  horiz-adv-x="665" vert-adv-y="1000"  />

      
      <glyph glyph-name="uni016A" unicode="&#x016A;" d="M334-12Q207-12 140 63Q73 138 73 302L73 652L221 652L221 287Q221 191 250 153Q279 115 334 115Q389 115 419 153Q449 191 449 287L449 652L591 652L591 302Q591 138 525.50 63Q460-12 334-12M181 721L181 815L483 815L483 721L181 721Z"  horiz-adv-x="665" vert-adv-y="1000"  />

      
      <glyph glyph-name="uni016C" unicode="&#x016C;" d="M334-12Q207-12 140 63Q73 138 73 302L73 652L221 652L221 287Q221 191 250 153Q279 115 334 115Q389 115 419 153Q449 191 449 287L449 652L591 652L591 302Q591 138 525.50 63Q460-12 334-12M332 697Q257 697 216.50 732Q176 767 169 834L249 848Q256 817 277 799.50Q298 782 332 782Q366 782 387 799.50Q408 817 415 848L495 834Q488 767 447.50 732Q407 697 332 697Z"  horiz-adv-x="665" vert-adv-y="1000"  />

      
      <glyph glyph-name="uni016E" unicode="&#x016E;" d="M334-12Q207-12 140 63Q73 138 73 302L73 652L221 652L221 287Q221 191 250 153Q279 115 334 115Q389 115 419 153Q449 191 449 287L449 652L591 652L591 302Q591 138 525.50 63Q460-12 334-12M332 697Q281 697 249.50 724Q218 751 218 796Q218 841 249.50 867.50Q281 894 332 894Q383 894 414.50 867.50Q446 841 446 796Q446 751 414.50 724Q383 697 332 697M332 752Q349 752 361.50 764Q374 776 374 796Q374 816 361.50 827.50Q349 839 332 839Q315 839 302.50 827.50Q290 816 290 796Q290 776 302.50 764Q315 752 332 752Z"  horiz-adv-x="665" vert-adv-y="1000"  />

      
      <glyph glyph-name="uni0170" unicode="&#x0170;" d="M334-12Q207-12 140 63Q73 138 73 302L73 652L221 652L221 287Q221 191 250 153Q279 115 334 115Q389 115 419 153Q449 191 449 287L449 652L591 652L591 302Q591 138 525.50 63Q460-12 334-12M197 728L298 889L391 837L269 694L197 728M384 728L485 889L579 837L457 694L384 728Z"  horiz-adv-x="665" vert-adv-y="1000"  />

      
      <glyph glyph-name="uni01D3" unicode="&#x01D3;" d="M334-12Q207-12 140 63Q73 138 73 302L73 652L221 652L221 287Q221 191 250 153Q279 115 334 115Q389 115 419 153Q449 191 449 287L449 652L591 652L591 302Q591 138 525.50 63Q460-12 334-12M252 702L162 812L226 852L330 768L334 768L438 852L502 812L412 702L252 702Z"  horiz-adv-x="665" vert-adv-y="1000"  />

      
      <glyph glyph-name="uni01D5" unicode="&#x01D5;" d="M334-12Q207-12 140 63Q73 138 73 302L73 652L221 652L221 287Q221 191 250 153Q279 115 334 115Q389 115 419 153Q449 191 449 287L449 652L591 652L591 302Q591 138 525.50 63Q460-12 334-12M221 700Q194 700 177 718Q160 736 160 762Q160 788 177 805.50Q194 823 221 823Q248 823 265.50 805.50Q283 788 283 762Q283 736 265.50 718Q248 700 221 700M181 872L181 941L483 941L483 872L181 872M443 700Q416 700 398.50 718Q381 736 381 762Q381 788 398.50 805.50Q416 823 443 823Q470 823 487 805.50Q504 788 504 762Q504 736 487 718Q470 700 443 700Z"  horiz-adv-x="665" vert-adv-y="1000"  />

      
      <glyph glyph-name="uni01D7" unicode="&#x01D7;" d="M334-12Q207-12 140 63Q73 138 73 302L73 652L221 652L221 287Q221 191 250 153Q279 115 334 115Q389 115 419 153Q449 191 449 287L449 652L591 652L591 302Q591 138 525.50 63Q460-12 334-12M221 700Q194 700 177 718Q160 736 160 762Q160 788 177 805.50Q194 823 221 823Q248 823 265.50 805.50Q283 788 283 762Q283 736 265.50 718Q248 700 221 700M277 864L372 1009L464 952L340 825L277 864M443 700Q416 700 398.50 718Q381 736 381 762Q381 788 398.50 805.50Q416 823 443 823Q470 823 487 805.50Q504 788 504 762Q504 736 487 718Q470 700 443 700Z"  horiz-adv-x="665" vert-adv-y="1000"  />

      
      <glyph glyph-name="uni01D9" unicode="&#x01D9;" d="M334-12Q207-12 140 63Q73 138 73 302L73 652L221 652L221 287Q221 191 250 153Q279 115 334 115Q389 115 419 153Q449 191 449 287L449 652L591 652L591 302Q591 138 525.50 63Q460-12 334-12M269 854L177 956L236 995L330 922L334 922L428 995L487 956L395 854L269 854M221 700Q194 700 177 718Q160 736 160 762Q160 788 177 805.50Q194 823 221 823Q248 823 265.50 805.50Q283 788 283 762Q283 736 265.50 718Q248 700 221 700M443 700Q416 700 398.50 718Q381 736 381 762Q381 788 398.50 805.50Q416 823 443 823Q470 823 487 805.50Q504 788 504 762Q504 736 487 718Q470 700 443 700Z"  horiz-adv-x="665" vert-adv-y="1000"  />

      
      </font>
</defs>
</svg>
