<svg xmlns="http://www.w3.org/2000/svg" width="16" height="16" viewBox="0 0 16 16"><g fill="none" fill-rule="evenodd"><path fill="#FAA819" d="M2.62 1v13.886h4.435v-1.299H4.099V2.384h2.956V1z"/><rect width="16" height="16" fill="#373B46" rx="1"/><path fill="#FAA819" d="M8.893 1v1.384h3.022v11.203H8.893v1.299h4.501V1z"/><path fill="#FEFEFE" d="M7.055 7.334V3.572H5.568v8.781h1.487V8.444zM8.893 3.572v3.761H7.61v1.111H9.9l-1.007.622v3.287h1.487V3.572z"/><path fill="#FAA819" d="M2.62 1v13.886h4.435v-1.299H4.099V2.384h2.956V1zM8.893 1v1.384h3.022v11.203H8.893v1.299h4.501V1z"/><path fill="#FFF" d="M7.055 7.334V3.572H5.568v8.781h1.487V8.444zM8.893 3.572v3.761H7.61v1.111H9.9l-1.007.622v3.287h1.487V3.572z"/></g></svg>