<svg xmlns="http://www.w3.org/2000/svg" width="180" height="180"><g fill="#373b46" fill-rule="evenodd"><path fill-rule="nonzero" d="M65.07 26.193L37.4 94.2c-.6 1.1 0 1.9.8 2.1 1.9.6 24.9 3.8 28.7 3.8 1.7 0 2.5-.2 2.6-1.7l.2-1.7c-1.813-.259 6.506-23.217 24.958-68.875a3 3 0 0 0-2.781-4.124H68.775a4 4 0 0 0-3.705 2.492z"/><path fill-rule="nonzero" d="M38.5 22.1c-1.1.6-1.5 1.7-1.5 2.8 0 1.3.9 2.6 3.6 2.6 7 0 10.4 5.1 10.4 11.1 0 3.6-1.3 7.4-3.6 10.8l-4 6.8c-3.6 5.3-12.9 20.2-14.2 28.1-.4 2.1-.2 3.2.6 4.2 1.3 1.5 3 2.3 5.1 2.8.6.2 1.7.6 3.6.8l31.2 4.6s1.1.2 1.5.2c2.3 0 2.8-2.1 2.6-3.6-.9-3.4.6-9.2 3.6-10.2 1.9-.6 2.1-1.7 1.7-3-.9-4 .9-9.6 5.3-11.1 1.3-.4 1.3-1.9.9-2.8-.8-2.1-.4-5.3 1.5-7.9 3-4.1 6.4-5.1 8.9-3.4 1.7 1.1 4.5 2.1 7.9 2.1h28.3c2.1 0 2.3-2.1 1.5-3.6-.9-1.5-1.3-3.6-1.3-7v-6.8c0-4 2.3-5.7 5.3-5.7H173c4.2 0 4.9-1.3 4.9-4.7v-3h.8l.6-.6v-4.1l-.8-.8H39.8c-.2.7-.6 1-1.3 1.4zm89.4 23.6c0 4.3-3 7.9-7.7 7.9h-16.9c-6.6 0-9.1-5.3-9.1-9.8 0-1.5.2-2.8.8-4h1c0 4.7 2.8 9.2 6.2 11.1h1.3l.8-.6V49c-1.5-1.9-2.1-4.2-2.1-6.2 0-3.6 1.9-6.8 4.9-7.2l13.8-1.5c4.9-.2 7 2.3 7 6.4v5.2z"/><rect width="53" height="9" x="127" y="8" rx="1"/><g fill-rule="nonzero"><path d="M103.9 10.2h14.3c1.9 0 3-.6 3-3.6V4h-20.5v2.6c0 3 1.1 3.6 3.2 3.6z"/><path d="M179.4 6.6h-1.5V4.9c0-1.1-.2-1.9-1.5-1.9h-2.1L173 1.7c-.4-.4-.9-.6-1.3-.6-.8 0-1.3.6-1.7 1.9h-46.7v3.6c0 3.8-1.9 5.5-5.1 5.5h-14.3c-3.4 0-5.1-1.7-5.1-5.5V3H51.1V.6l-.6-.6H49l-2.8 3h-3.4c-2.1 0-2.8.9-2.8 2.8v12.6h5.7v-12h1.9v12.1h3V6.4h2.1v12.1h3V6.4h1.9v12.1h3.2V6.4h1.9v12.1h3.2V6.4H68v12.1h3V6.4h2v12.1h106.2l.8-.8V7.2l-.6-.6z"/></g></g></svg>