<svg height="140" viewBox="0 0 140 140" width="140" xmlns="http://www.w3.org/2000/svg"><g fill="none" fill-rule="evenodd"><g fill="#ee9f3f"><rect height="18" opacity=".2" rx="9" width="60" x="78" y="44"/><rect height="18" opacity=".2" rx="9" width="30" x="78" y="104"/><rect height="18" opacity=".2" rx="9" width="24" x="8" y="84"/></g><rect fill="#9cdc81" height="6" rx="3" width="6" x="8" y="66"/><rect fill="#ffcc5e" height="6" rx="3" width="6" x="38" y="17"/><rect fill="#5eddf4" height="6" rx="3" width="6" x="118" y="77"/><g fill-rule="nonzero"><path d="M67.656 81.87v21.092A2.342 2.342 0 0 0 70 105.306h20.538c2.68 0 5.09-1.49 6.289-3.886l2.988-5.978.65-13.572zm19.78-48.542C86.124 31.218 83.92 30 81.483 30h-2.671L68.21 41.25l11.125 17.548L96.482 47.92zM41.409 51.342L31.055 71.215c-1.265 2.062-1.406 4.843-.328 7.046l2.667 3.61 15.18 3.549 9.925-21.385z" fill="#66bd21"/><path d="M81.014 91.948L66.953 77.886c-1.453-1.5-3.984-.468-3.984 1.64v2.344H33.394c1.036 2.095 9.682 19.322 9.796 19.545a6.976 6.976 0 0 0 6.28 3.89H62.97v2.344c0 2.11 2.53 3.14 3.984 1.64l14.061-14.06c.938-.891.938-2.39 0-3.281zM78.811 30H58.516c-2.437 0-4.64 1.219-5.952 3.328l-7.64 12.342-1.828-1.124c-1.781-1.078-3.984.562-3.469 2.578l4.687 18.748c.282 1.266 1.594 2.015 2.812 1.687l18.749-4.687c2.015-.468 2.437-3.187.656-4.265l-3.515-2.11C64.569 53.91 77.24 32.638 78.81 30zm30.123 41.212l-7.986-16.113 3.068-1.842a2.344 2.344 0 0 0-.64-4.282L84.63 44.288a2.33 2.33 0 0 0-2.84 1.705L77.1 64.742a2.345 2.345 0 0 0 .877 2.45c.764.562 1.79.614 2.602.127l3.012-1.808 16.223 29.931c2.813-5.627 1.89-2.093 9.446-17.204 1.087-2.174.961-4.962-.327-7.026z" fill="#98d400"/></g></g></svg>