<svg height="140" viewBox="0 0 140 140" width="140" xmlns="http://www.w3.org/2000/svg"><g fill="none" fill-rule="evenodd"><rect fill="#dc3b41" height="18" opacity=".2" rx="9" width="60" x="78" y="44"/><rect fill="#dc3b41" height="18" opacity=".2" rx="9" width="30" x="78" y="104"/><rect fill="#ff836b" height="6" rx="3" width="6" x="110" y="92"/><rect fill="#ffb0cd" height="6" rx="3" width="6" x="30" y="32"/><rect fill="#77b4ff" height="6" rx="3" width="6" x="8" y="46"/><rect fill="#dc3b41" height="18" opacity=".2" rx="9" width="24" x="8" y="84"/><g fill-rule="nonzero"><path d="M65.102 66.513L70 96.603c14.958 0 27.084-6.034 27.084-10.62v-19.47z" fill="#003da8"/><g fill="#2f91ed"><path d="M42.917 66.513v19.47c0 4.586 12.126 10.62 27.083 10.62v-30.09z"/><path d="M70.001 34.104l-3.266 24.498L70.001 83.1l40-24.498z"/></g><path d="M30 58.602L70 83.1V34.104z" fill="#63c1ff"/><path d="M52.449 72.223l19.918-12.172-4.692-2.873-20.124 12.301v25.527l-7.279 7.279 3.463 3.464 3.816-3.816v6.026h4.898v-6.026l3.816 3.816 3.463-3.464-7.279-7.279z" fill="#424242"/></g></g></svg>