<svg xmlns="http://www.w3.org/2000/svg" width="242" height="120" viewBox="0 0 242 120"><g fill="#8E704E"><path d="M57.956 59.966c-2.719-2.44-3.392-5.637-3.392-8.3 0-1.88.644-5.16 3.14-7.657 1.681-1.682 4.231-3 8.549-3a24.002 24.002 0 0 1 4.065.34c1.065.197 1.962.365 2.86.422.308.028.364.14.364.309 0 .227-.085.56-.14 1.57-.056.925-.056 2.468-.085 2.888-.028.42-.084.588-.252.588-.197 0-.228-.197-.228-.588 0-1.094-.448-2.244-1.178-2.861-.98-.842-3.14-1.594-5.605-1.594-3.728 0-5.463 1.094-6.447 2.05-2.048 1.962-2.523 4.458-2.523 7.318 0 5.35 4.12 10.263 10.12 10.263 2.101 0 3.754-.252 4.877-1.402.588-.617.952-1.851 1.036-2.356.056-.308.114-.42.28-.42.14 0 .196.196.196.42 0 .196-.342 2.636-.617 3.59-.168.533-.227.588-.73.813-1.12.448-3.25.645-5.045.645-4.202-.008-7.033-1.046-9.245-3.038zm28.646-14.914c.309-.786.42-.926.589-.926.252 0 .341.342.588.87.448 1.01 4.4 10.853 5.917 14.47.897 2.131 1.57 2.44 2.102 2.608.319.094.65.141.981.14.14 0 .309.056.309.197 0 .141-.28.196-.561.196-.365 0-2.186 0-3.897-.056-.477-.028-.87-.028-.87-.168 0-.114.057-.114.17-.169.14-.056.392-.253.227-.644l-2.224-5.475c-.056-.114-.084-.14-.227-.14h-5.69a.26.26 0 0 0-.253.196l-1.394 3.815c-.228.588-.364 1.178-.364 1.593 0 .477.42.645.84.645h.228c.196 0 .253.084.253.197 0 .14-.14.196-.364.196-.588 0-1.935-.085-2.215-.085-.252 0-1.485.085-2.494.085-.308 0-.477-.056-.477-.196a.216.216 0 0 1 .228-.197c.243-.006.486-.025.728-.056 1.12-.14 1.593-.981 2.075-2.187l5.795-14.909zm2.747 9.927c.114 0 .114-.056.085-.168l-2.44-6.537c-.14-.364-.28-.364-.419 0l-2.299 6.533c-.028.113 0 .169.084.169l4.99.003zm14.157-3.508c0-3.703 0-4.375-.056-5.133-.056-.812-.197-1.205-1.01-1.318a7.922 7.922 0 0 0-.84-.056.238.238 0 0 1-.196-.197c0-.14.114-.195.393-.195 1.12 0 2.662.055 2.86.055.532 0 2.382-.055 3.503-.055 3.167 0 4.29.98 4.71 1.345a4.02 4.02 0 0 1 1.233 2.861c0 3.421-2.579 5.692-6.364 5.692a5.845 5.845 0 0 1-.7-.028.27.27 0 0 1-.254-.228c0-.196.14-.253.645-.253 2.662 0 4.569-1.682 4.569-3.842 0-.785-.085-2.328-1.402-3.618-1.29-1.29-2.776-1.15-3.336-1.15a8.343 8.343 0 0 0-1.373.169c-.14.028-.196.197-.196.448v9.703c0 2.3 0 4.178.114 5.16.084.701.227 1.15.98 1.262.363.06.728.098 1.094.114a.19.19 0 0 1 .197.197c0 .114-.114.196-.393.196-1.345 0-2.97-.084-3.083-.084-.085 0-1.682.084-2.44.084-.252 0-.392-.056-.392-.196a.19.19 0 0 1 .197-.197c.256-.01.51-.048.757-.114.477-.114.532-.56.645-1.262.14-.982.14-2.86.14-5.16l-.002-4.2zm21.445 4.206c0 2.3 0 4.178.114 5.16.084.7.168 1.15.897 1.262.37.059.745.097 1.12.114a.19.19 0 0 1 .197.197c0 .114-.113.196-.392.196-1.374 0-2.971-.085-3.084-.085-.14 0-1.682.085-2.439.085-.252 0-.392-.056-.392-.196a.19.19 0 0 1 .195-.197c.256-.01.51-.049.757-.114.477-.114.561-.561.645-1.262.114-.982.14-2.86.14-5.16v-4.206c0-3.703 0-4.375-.056-5.133-.055-.812-.252-1.178-.785-1.29a4.394 4.394 0 0 0-.756-.084.21.21 0 0 1-.196-.197c0-.14.114-.195.392-.195.813 0 2.355.055 2.495.055.114 0 1.707-.055 2.467-.055.28 0 .393.055.393.195a.238.238 0 0 1-.196.197 2.752 2.752 0 0 0-.617.056c-.672.14-.812.477-.87 1.318-.028.758-.028 1.43-.028 5.133v4.206zm17.215 0c0 2.3 0 4.178.114 5.16.084.7.197 1.15.954 1.262.37.06.745.098 1.12.114a.175.175 0 0 1 .196.197c0 .114-.113.196-.392.196-1.345 0-2.916-.085-3.056-.085-.113 0-1.82.085-2.55.085-.28 0-.394-.056-.394-.196 0-.084.056-.169.196-.169.246-.01.49-.048.729-.114.504-.113.644-.588.728-1.29.114-.98.114-2.86.114-5.159V45.666l-3.56.055c-1.542.029-2.13.196-2.494.757-.159.238-.29.492-.393.758-.056.196-.14.227-.253.227a.187.187 0 0 1-.168-.196c0-.252.504-2.383.532-2.58.056-.14.169-.448.253-.448.169 0 .421.197 1.094.28.7.084 1.653.114 1.934.114h9.307c.59.005 1.18-.033 1.766-.114.364-.056.588-.114.7-.114.113 0 .115.14.115.28 0 .73-.085 2.44-.085 2.72 0 .197-.113.309-.227.309s-.169-.085-.197-.42l-.029-.253c-.084-.729-.616-1.262-2.97-1.318l-3.085-.056.001 10.01zm17.489-10.625c.308-.786.42-.926.588-.926.253 0 .342.342.589.87.448 1.01 4.4 10.853 5.917 14.47.897 2.131 1.57 2.44 2.102 2.608.318.094.649.141.98.14.14 0 .31.056.31.197 0 .141-.28.196-.562.196-.364 0-2.186 0-3.896-.056-.477-.028-.87-.028-.87-.168 0-.114.056-.114.169-.169.14-.056.392-.253.227-.644l-2.218-5.475c-.055-.114-.084-.14-.227-.14h-5.69a.26.26 0 0 0-.253.196l-1.4 3.815c-.227.588-.364 1.178-.364 1.593 0 .477.422.645.841.645h.228c.196 0 .253.084.253.197 0 .14-.14.196-.364.196-.589 0-1.935-.085-2.215-.085-.253 0-1.485.085-2.494.085-.309 0-.477-.056-.477-.196a.216.216 0 0 1 .227-.197c.244-.006.487-.025.729-.056 1.12-.14 1.593-.981 2.074-2.187l5.796-14.909zm2.747 9.927c.114 0 .114-.056.084-.168l-2.438-6.534c-.14-.364-.28-.364-.42 0l-2.3 6.534c-.027.112 0 .168.085.168h4.989zm16.398.754c0 3.505.056 4.935.504 5.35.393.393 1.346.562 3.28.562 1.29 0 2.383-.029 2.971-.73a2.92 2.92 0 0 0 .589-1.346c.028-.168.113-.308.252-.308.114 0 .169.114.169.364a15.06 15.06 0 0 1-.359 2.39c-.168.561-.252.644-1.569.644a89.33 89.33 0 0 1-4.29-.084c-1.12-.029-1.96-.056-2.69-.056-.114 0-.533 0-1.01.029-.504.028-1.036.055-1.43.055-.252 0-.392-.055-.392-.195a.19.19 0 0 1 .196-.197c.256-.01.51-.049.757-.114.477-.114.532-.561.645-1.263.14-.981.14-2.86.14-5.16v-4.203c0-3.703 0-4.375-.056-5.133-.056-.812-.197-1.205-1.01-1.318a7.922 7.922 0 0 0-.84-.056.238.238 0 0 1-.196-.197c0-.14.114-.195.393-.195 1.12 0 2.663.055 2.803.055.113 0 1.961-.055 2.718-.055.253 0 .393.055.393.195 0 .085-.114.169-.197.169-.168 0-.533.028-.813.056-.728.14-.869.504-.925 1.345-.028.757-.028 1.43-.028 5.132l-.005 4.264zM152.53 78.194l.032-8.035c0-.823.032-1.097.5-1.194.112-.023.226-.034.34-.032a.16.16 0 0 0 .162-.129c0-.08-.113-.096-.258-.096-.58 0-1.048.032-1.21.032-.161 0-.838-.032-1.48-.032-.16 0-.273.016-.273.096 0 .048.016.13.113.13.233.003.464.025.694.064.435.08.516.387.532 1.275l.145 6.874c-.436-.455-1.952-2.081-3.355-3.53-2.193-2.258-4.258-4.453-4.484-4.678-.145-.145-.387-.42-.548-.42-.114 0-.194.145-.194.694v7.855c0 1.242-.048 1.614-.403 1.708a2.23 2.23 0 0 1-.58.08.114.114 0 0 0-.114.115c0 .097.081.114.228.114.645 0 1.241-.05 1.365-.05.124 0 .693.05 1.5.05.162 0 .259-.032.259-.114a.114.114 0 0 0-.114-.114 3.368 3.368 0 0 1-.71-.08c-.387-.098-.517-.437-.549-1.566l-.161-6.471c.435.484 2.032 2.163 3.676 3.889 1.5 1.565 3.549 3.581 3.694 3.711.79.726.936.84 1.081.84.096-.002.112-.082.112-.986zm-50.323-4.534c0-3.195-2.42-5.147-5.612-5.147-3.92 0-5.629 3.147-5.629 5.356 0 2.469 1.662 5.39 5.55 5.39 3.416 0 5.691-2.533 5.691-5.6zm-9.77-.162c0-2.985 1.708-4.47 4.081-4.47 2.242 0 4.243 1.727 4.243 5.019 0 3.97-2.565 4.647-3.839 4.647-2.57 0-4.484-2-4.484-5.196zm48.023 5.583c.162 0 .324-.032.324-.114s-.097-.114-.178-.114a1.971 1.971 0 0 1-.569-.08c-.306-.097-.693-.275-1.21-1.5-.87-2.082-3.145-7.742-3.403-8.326-.145-.306-.194-.5-.342-.5-.096 0-.161.08-.341.533l-3.339 8.584c-.274.693-.548 1.178-1.194 1.258a3.97 3.97 0 0 1-.42.031.124.124 0 0 0-.128.114c0 .081.097.114.274.114.58 0 1.29-.049 1.435-.049.145 0 .936.05 1.275.05.13 0 .21-.033.21-.115s-.033-.114-.145-.114h-.13c-.243 0-.484-.096-.484-.37a2.84 2.84 0 0 1 .21-.92l.806-2.195a.15.15 0 0 1 .146-.114h3.289c.08 0 .097.016.128.08l1.275 3.147a.259.259 0 0 1-.13.371c-.065.032-.097.032-.097.097s.228.08.5.097c.987.035 2.034.035 2.238.035zm-4.128-4.389h-2.867c-.048 0-.065-.032-.049-.096l1.323-3.757c.08-.21.16-.21.242 0l1.403 3.757c.017.065.017.096-.048.096h-.004zm54.167-1.673l-23.88-.733v1.467l23.88-.734z"/><path d="M43.796 90.214l.228.141.026.015.234.13.026.015.242.12.03.014.247.114.029.011.254.097.026.009.26.085.029.01.266.073.032.008.27.062.033.006.276.046h.027l.278.034h.029l.283.023h.036l.29.007H194.74l.287-.007h.032l.283-.02h.032l.28-.036h.032l.274-.047h.03l.273-.06.034-.01.264-.074.025-.008.26-.084.035-.011.253-.1.024-.01.248-.114.03-.013.241-.12.029-.016.227-.13.025-.015.228-.142a.44.44 0 0 0 .037-.025l.43-.31a.543.543 0 0 0 .047-.04l.397-.35.043-.04.358-.387a.665.665 0 0 0 .036-.043l.324-.418c.01-.012.018-.025.027-.037l.144-.22a.277.277 0 0 0 .018-.027l.133-.228.012-.023.125-.233.014-.03.114-.241.011-.024.1-.247c0-.012.008-.023.013-.034l.087-.253.008-.023.077-.257c0-.011.007-.023.009-.034l.062-.264c0-.01 0-.02.007-.032l.048-.268v-.028l.035-.272V85.8l.023-.275v-.035l.007-.28v-.014l-.042-50.15v-.013l-.007-.28v-.032l-.022-.276v-.032l-.035-.272v-.032l-.05-.267-.006-.03-.062-.264c0-.01 0-.023-.008-.034l-.077-.256a.152.152 0 0 0-.007-.023l-.087-.253c0-.011-.008-.022-.013-.033l-.1-.246c0-.009-.006-.017-.011-.023l-.114-.242-.012-.025-.122-.234-.017-.029-.134-.227-.016-.026-.146-.22-.027-.038-.324-.417a.408.408 0 0 0-.036-.043l-.36-.386a.475.475 0 0 0-.042-.04l-.398-.353a.374.374 0 0 0-.047-.037l-.43-.313a.332.332 0 0 0-.026-.026l-.228-.142-.028-.017-.234-.13-.022-.012-.241-.12-.028-.013-.247-.114-.027-.011-.254-.098-.034-.012-.26-.085-.024-.008-.265-.074-.035-.008-.272-.06h-.03l-.275-.048h-.033l-.28-.034h-.032l-.285-.02h-.03L194.7 29H47.204l-.287.008h-.031l-.285.022h-.032l-.28.034h-.033l-.274.049-.03.007-.273.06-.034.008-.264.074-.025.007-.26.092-.033.011-.253.098-.025.01-.248.114-.03.015-.241.115-.027.014-.232.13-.027.015-.226.142-.037.026-.43.315a.588.588 0 0 0-.046.038l-.397.348a.412.412 0 0 0-.04.04l-.362.385a.48.48 0 0 0-.039.046l-.324.417a.398.398 0 0 0-.026.038l-.143.22-.017.028-.133.227c0 .008-.008.016-.013.023l-.126.232-.014.029-.114.241-.012.024-.098.248-.012.035-.087.249-.007.026-.077.258c0 .01-.005.021-.009.032l-.061.262v.029l-.056.268v.031l-.041.271v.03l-.025.276v.031l-.008.286v.015l.042 50.147v.015l.007.278v.031l.022.276v.032l.043.27v.032l.05.267c0 .009 0 .02.006.028l.062.264h-.004l.009.033.076.258.008.024.086.252c0 .012.008.022.013.033l.1.247.011.024.114.242.015.03.124.233.013.02.134.228c0 .008.01.017.016.025l.144.22.026.036.323.417a.595.595 0 0 0 .038.045l.366.395.04.04.392.346a.38.38 0 0 0 .049.04l.43.31.041.027zm-1.559-5.186V35.211c0-2.725 2.282-4.943 5.087-4.943h147.303c2.804 0 5.087 2.218 5.087 4.943v49.817c0 2.726-2.282 4.943-5.087 4.943H47.323c-2.806 0-5.087-2.217-5.087-4.943h.001z"/><path d="M87.415 78.937c.29-.13.323-.162.42-.468.161-.549.355-1.953.355-2.065 0-.113-.032-.243-.114-.243s-.129.065-.162.243c-.047.29-.258 1-.596 1.355-.645.662-1.593.808-2.806.808-3.452 0-5.823-2.824-5.823-5.906 0-1.646.274-3.081 1.452-4.212.569-.548 1.565-1.178 3.71-1.178 1.419 0 2.661.436 3.226.92.419.355.683 1.016.683 1.646 0 .228.016.342.13.342.113 0 .128-.097.144-.342.016-.245.016-1.13.049-1.662.032-.58.08-.774.08-.904 0-.097-.031-.162-.209-.178a13.976 13.976 0 0 1-1.645-.242 13.834 13.834 0 0 0-2.339-.194c-2.484 0-3.952.759-4.92 1.726-1.434 1.437-1.805 3.324-1.805 4.405 0 1.532.387 3.372 1.951 4.781 1.275 1.146 2.903 1.743 5.323 1.743 1.025-.004 2.25-.117 2.896-.375zm31.452.016c0-.064-.049-.097-.113-.097a2.986 2.986 0 0 1-.92-.13c-.58-.194-.683-.936-.726-1.42l-.967-8.424c-.032-.259-.114-.371-.21-.371-.095 0-.161.097-.227.227l-4.126 8.505-4.29-8.52a.324.324 0 0 0-.29-.209c-.082 0-.147.097-.162.243l-1.033 8.955c-.064.516-.08 1.016-.548 1.097a2.743 2.743 0 0 1-.42.049c-.08 0-.145.049-.145.097 0 .097.097.13.243.13.387 0 1.064-.05 1.194-.05.13 0 .79.05 1.322.05.162 0 .258-.032.258-.13 0-.048-.065-.097-.114-.097a2.301 2.301 0 0 1-.548-.08.384.384 0 0 1-.341-.388c0-.228 0-.484.015-.694l.549-6.197h.065c.242.57 1.387 2.872 1.806 3.743.355.743 1.29 2.505 1.661 3.179.275.5.355.63.484.63s.21-.13.5-.727l3.413-7.002h.032l.683 6.937c.032.259.016.468-.065.484a.114.114 0 0 0-.097.114c0 .064.065.114.403.144.517.05 2.097.081 2.42.081.166 0 .294-.049.294-.13zm4.033.08c.065 0 1 .05 1.775.05.161 0 .227-.05.227-.115a.114.114 0 0 0-.114-.113 5.202 5.202 0 0 1-.629-.065c-.436-.065-.517-.324-.569-.727-.065-.569-.065-1.646-.065-2.969v-5.578c0-.146.032-.243.114-.258.26-.055.524-.087.79-.097.323 0 1.178-.081 1.92.661.741.742.806 1.63.806 2.081 0 1.242-1.097 2.211-2.628 2.211-.29 0-.371.032-.371.146a.155.155 0 0 0 .145.129c.134.013.269.018.403.015 2.178 0 3.661-1.306 3.661-3.275a2.313 2.313 0 0 0-.71-1.646c-.242-.21-.888-.774-2.71-.774-.645 0-1.707.032-2.016.032-.114 0-1-.032-1.645-.032-.161 0-.227.032-.227.114.01.058.055.104.114.114.161.002.323.012.483.031.468.065.549.29.58.759.033.436.033.823.033 2.953v2.42c0 1.323 0 2.404-.081 2.97-.065.402-.097.66-.371.725a2.03 2.03 0 0 1-.436.065.114.114 0 0 0-.114.114c0 .081.08.114.228.114.439-.007 1.358-.055 1.407-.055zM51.39 73.02l23.877.734v-1.467l-23.877.733zm108.705 6.014c.081 0 1 .05 1.79.05.145 0 .228-.05.228-.115a.114.114 0 0 0-.114-.113 5.423 5.423 0 0 1-.645-.065c-.42-.065-.517-.324-.549-.727-.049-.569-.049-1.145-.049-1.366v-1.181c0-.456-.065-.888.178-1.367.29-.58 2.29-3.808 2.758-4.356.306-.372.436-.517.71-.683.204-.111.43-.172.662-.178a.165.165 0 0 0 .177-.145c0-.049-.08-.08-.177-.08-.275 0-1.29.031-1.388.031-.096 0-.613-.031-.983-.031-.145 0-.227.031-.227.08 0 .05.08.129.21.162.162.049.228.162.228.355 0 .194-.065.403-.243.71-.258.456-2.032 3.389-2.322 3.97l-2.581-4.277c-.097-.177-.194-.341-.194-.533 0-.113.065-.177.178-.227.112-.05.227-.097.227-.145 0-.048-.031-.097-.193-.097-.549 0-1.129.032-1.226.032-.063 0-1.129-.032-1.403-.032-.13 0-.177.032-.177.097.007.075.07.131.145.129.212.018.416.084.598.193.373.27.691.61.935 1.001.484.726 2.404 3.775 2.516 3.985.21.387.306.661.306 1.403v1.179c0 .227 0 .807-.031 1.366-.032.403-.129.661-.42.726-.136.037-.277.06-.42.065a.114.114 0 0 0-.113.114c0 .08.065.114.228.114.41.004 1.32-.044 1.381-.044z"/></g></svg>