<svg xmlns="http://www.w3.org/2000/svg" width="242" height="120" viewBox="0 0 242 120"><g fill="none"><path fill="#030305" d="M46.478 44.264a2.62 2.62 0 0 1 1.01-.139h18.258c.008 1.153-.322 2.37-1.138 3.213a3.353 3.353 0 0 1-2.423.985H49.3v7.85h13.402c.016 1.401 0 2.803.007 4.204-4.471.004-8.941.004-13.41 0v7.848h13.109c.774 0 1.57.194 2.178.691 1.05.824 1.478 2.208 1.47 3.498-6.98.01-13.96.014-20.944.014V46.264a2.098 2.098 0 0 1 1.365-2zm33.644.722c.815-.777 2.029-.963 3.104-.799.978.147 1.93.758 2.307 1.692 3.717 8.854 7.434 17.703 11.152 26.55h-4.61a6669.588 6669.588 0 0 0-4.229-10.255H77.207c-.82 1.955-1.64 3.912-2.455 5.872-.376.875-.665 1.82-1.333 2.529-1.255 1.402-3.23 1.912-5.055 1.853 3.695-8.774 7.383-17.55 11.064-26.327.138-.423.376-.805.694-1.116v.001zm2.41 4.316c-1.196 2.89-2.39 5.782-3.582 8.677 2.386.01 4.773 0 7.159 0a4296.092 4296.092 0 0 0-3.577-8.686v.01zm17.756-3.031c-.053-1.117.921-2.144 2.045-2.144 3.432-.01 6.864 0 10.298 0 1.81 0 3.655.33 5.265 1.19 1.786.941 3.254 2.525 3.924 4.442.622 1.778.701 3.723.347 5.57-.34 1.76-1.334 3.402-2.82 4.427-.973.7-2.109 1.128-3.236 1.51 2.175 3.717 4.336 7.44 6.51 11.155h-4.984c-1.986-3.412-3.97-6.825-5.952-10.24-2.402-.015-4.803 0-7.205-.006v6.774a3.244 3.244 0 0 1-1.066 2.436c-.846.76-2.015 1.051-3.13 1.059V46.272l.004-.001zm4.18 2.06v9.636c2.643 0 5.286.006 7.928 0 1.696-.04 3.54-.48 4.666-1.837.862-.95 1.018-2.309.897-3.535a4.274 4.274 0 0 0-1.395-2.808c-1.123-1.02-2.673-1.43-4.164-1.45h-7.921l-.01-.006zm24.12-2.058c-.06-1.16 1.054-2.292 2.225-2.104.69.451 1.23 1.096 1.81 1.678 2.566 2.752 4.984 5.64 7.41 8.51 2.494 2.965 4.943 5.967 7.409 8.956.012-4.964 0-9.927.005-14.89-.028-.875-.005-1.806.493-2.564.768-1.243 2.308-1.759 3.709-1.746 0 8.54-.003 17.08-.01 25.621.028.683-.029 1.439-.501 1.977-.482.558-1.257.71-1.961.718-.905-.902-1.717-1.898-2.559-2.862-4.67-5.482-9.242-11.048-13.833-16.596-.012 5.324 0 10.65-.007 15.975a3.268 3.268 0 0 1-1.018 2.39c-.842.799-2.036 1.094-3.167 1.11V46.274h-.004zm31.696-.755c.826-1.008 2.187-1.405 3.456-1.405 0 9.436-.003 18.874-.008 28.315h-4.185V47.973c-.05-.867.162-1.777.733-2.45l.004-.005zm31.299-1.115c1.244-.44 2.58-.218 3.871-.27-3.222 4.227-6.447 8.453-9.673 12.678-.863-1.114-1.709-2.242-2.579-3.35 1.787-2.337 3.554-4.691 5.388-6.994a6.74 6.74 0 0 1 2.993-2.067v.003zm-8.378 18.837c.83-1.159 1.725-2.273 2.582-3.414 3.224 4.197 6.446 8.394 9.668 12.593h-5.227c-2.348-3.056-4.663-6.137-7.023-9.181v.002zm-56.606 17.145c.295-.005.591-.005.888 0v8.221h-.885v-.89c-.94 1.29-3.054 1.308-4.123.167-1.215-1.263-1.115-3.574.274-4.672.744-.577 1.785-.712 2.675-.438.483.143.855.496 1.175.87v-3.258h-.004zm-2.726 3.172c-1.489.528-1.777 2.702-.719 3.769.827.86 2.47.774 3.113-.266.583-.915.53-2.256-.226-3.057-.54-.583-1.441-.69-2.168-.452v.006zm46.058-2.555c.442-.564 1.206-.705 1.885-.71v.83c-.404.016-.875.042-1.148.384-.273.342-.217.82-.22 1.241h1.365v.777h-1.367v5.092h-.883v-5.095h-1.005v-.777h1.007c-.006-.592-.026-1.25.366-1.739v-.003zm-40.353-.4h.95v1.155h-.95V80.6zm10.688 2.143v-2.106h.883v2.105h1.357v.78h-1.357v5.092h-.883v-5.095h-1.206v-.78h1.207l-.001.004zm-37.738-1.906c1.182-.005 2.364 0 3.545 0 .755-.01 1.55.226 2.066.804.646.713.732 1.793.435 2.675-.316.912-1.264 1.467-2.203 1.511-.985.03-1.97 0-2.955.013v2.772h-.884v-7.77l-.004-.005zm.891.83v3.356h2.54c.5 0 1.044-.088 1.42-.452.535-.506.594-1.365.319-2.016-.25-.59-.905-.876-1.518-.884-.92-.02-1.841 0-2.76-.008v.005zm46.194-.833h3.62c.725 0 1.48.25 1.977.799.664.722.752 1.832.428 2.725-.325.894-1.256 1.423-2.174 1.467-.99.031-1.983 0-2.973.014v2.772h-.878v-7.777zm.877.831v3.354c.904 0 1.82.01 2.73 0 .532-.014 1.107-.2 1.42-.655.36-.576.39-1.3.08-1.903-.286-.538-.914-.775-1.496-.783-.911-.018-1.823 0-2.734-.007v-.006zm30.892 2.472a2.325 2.325 0 0 1 2.23-1.498v.884a1.96 1.96 0 0 0-1.71.834c-.4.53-.55 1.207-.524 1.863v2.397h-.883v-5.875h.884v1.395h.003zm-70.158-.028a2.332 2.332 0 0 1 2.221-1.467v.882a1.994 1.994 0 0 0-1.301.408c-.61.49-.929 1.281-.923 2.053v2.635h-.884v-5.875h.885v1.366l.002-.002zm3.872-.402c1.065-1.421 3.496-1.438 4.586-.04.54.654.679 1.528.65 2.35-1.65.01-3.302 0-4.953.007.063.552.33 1.06.751 1.424.905.763 2.524.58 3.07-.535.32 0 .64 0 .96.007-.314.77-.94 1.45-1.766 1.665-.966.253-2.086.122-2.864-.541-1.254-1.033-1.387-3.065-.434-4.337zm.987.19c-.39.327-.602.813-.693 1.304h4.023a2.156 2.156 0 0 0-.54-1.155c-.7-.764-2.011-.813-2.79-.145V83.9zm13.533-1.163h.875v5.876h-.875v-5.876zm3.41.81c1.132-1.292 3.451-1.187 4.478.182.189.259.338.544.442.847-.321.006-.641.007-.961 0-.226-.544-.705-.994-1.294-1.1-.632-.102-1.332.03-1.81.472-.981.855-.989 2.566-.029 3.441.489.46 1.213.597 1.86.49.585-.113 1.052-.564 1.282-1.098.317-.011.634-.012.953 0a2.717 2.717 0 0 1-1.792 1.78c-.934.281-2.036.183-2.808-.451-1.352-1.072-1.47-3.302-.324-4.563h.004zm24.53.217c1.048-1.479 3.553-1.507 4.645-.065.525.65.671 1.514.633 2.327h-4.958c.09.711.516 1.392 1.182 1.692a2.275 2.275 0 0 0 1.88-.027c.34-.164.566-.478.777-.783.313.007.627 0 .941.01-.3.79-.959 1.466-1.794 1.678-.956.235-2.058.113-2.828-.546-1.244-1.015-1.39-3.014-.48-4.287l.003.001zm.87.291a2.165 2.165 0 0 0-.534 1.151h4.027c-.086-.444-.259-.885-.591-1.204-.76-.775-2.173-.753-2.903.052v.001zm6.074-1.32h.885v1.368a2.348 2.348 0 0 1 2.23-1.467v.882a1.993 1.993 0 0 0-1.827 1.006c-.394.596-.433 1.33-.406 2.023v2.067h-.882V82.735zm10.367.041c.939-.264 2.036-.15 2.805.482 1.264 1.025 1.41 3.072.468 4.354-1.048 1.443-3.489 1.478-4.59.08-1.017-1.282-.88-3.414.43-4.453.263-.21.564-.367.887-.463zm.217.783c-1.375.498-1.668 2.403-.912 3.528.699 1.095 2.541 1.113 3.26.028.64-.932.575-2.347-.242-3.159-.544-.535-1.403-.63-2.106-.4v.003zm10.074-.821h.876v.87c.533-.895 1.761-1.222 2.687-.764.423.212.77.551.99.969.484-.864 1.563-1.354 2.531-1.106a2.24 2.24 0 0 1 1.583 1.593c.144.515.094 1.052.103 1.58v2.733h-.886v-3.525c0-.501-.173-1.031-.577-1.354-.576-.451-1.483-.372-2 .134a1.57 1.57 0 0 0-.476 1.204v3.536h-.885V85.08c0-.503-.173-1.036-.583-1.354-.625-.488-1.62-.345-2.115.264-.286.328-.372.777-.363 1.2v3.415h-.874V82.73l-.011.007zm-41.955 4.675h1.139v1.191h-1.146v-1.191h.007zm52.648 0h1.138v1.193h-1.14v-1.192l.002-.001z"/><path fill="#88BD24" d="M168.635 44.125h5.089c3.646 4.72 7.262 9.465 10.9 14.192l-10.753 14.101c-1.744.016-3.487 0-5.23.008 3.602-4.711 7.232-9.402 10.822-14.122a4116.923 4116.923 0 0 1-10.826-14.177l-.002-.002z"/></g></svg>