<svg xmlns="http://www.w3.org/2000/svg" width="242" height="120" viewBox="0 0 242 120"><g fill="none"><path fill="#2A2632" d="M195.902 58.364a15.82 15.82 0 0 0-7.146-13.204 16.074 16.074 0 0 0-15.037-1.39c8.03-1.608 15.983 3.077 18.408 10.843 2.424 7.766-1.466 16.094-9.005 19.274 7.435-1.502 12.778-7.992 12.78-15.523zM69.061 71.755c1.174.014 2.347-.1 3.497-.337a17.15 17.15 0 0 0 2.893-.897V64.34h-4.065a1.98 1.98 0 0 1-1.41-.474 1.577 1.577 0 0 1-.507-1.202v-5.205h14.607v17.229a21.525 21.525 0 0 1-3.283 1.974 21.37 21.37 0 0 1-3.639 1.357c-1.35.358-2.726.613-4.115.76-1.561.174-3.13.258-4.702.252a21.676 21.676 0 0 1-8.347-1.58A19.906 19.906 0 0 1 48.957 66.48a21.33 21.33 0 0 1-1.595-8.302 22.437 22.437 0 0 1 1.522-8.378 18.867 18.867 0 0 1 4.34-6.59 19.8 19.8 0 0 1 6.853-4.307 24.963 24.963 0 0 1 8.984-1.543c1.622-.01 3.242.131 4.839.42 1.418.256 2.81.64 4.159 1.148 1.217.46 2.384 1.04 3.482 1.734a18.813 18.813 0 0 1 2.821 2.182l-2.767 4.171a3.071 3.071 0 0 1-.962.923c-.359.22-.774.336-1.197.333a3.315 3.315 0 0 1-1.746-.56 32.522 32.522 0 0 0-2.12-1.159 13.202 13.202 0 0 0-2.047-.797c-.719-.21-1.454-.36-2.198-.448a21.927 21.927 0 0 0-2.593-.14 11.915 11.915 0 0 0-4.821.936 10.332 10.332 0 0 0-3.653 2.646 11.932 11.932 0 0 0-2.325 4.099 16.375 16.375 0 0 0-.807 5.33 17.035 17.035 0 0 0 .904 5.764 12.348 12.348 0 0 0 2.496 4.254 10.582 10.582 0 0 0 3.779 2.645c1.508.617 3.125.928 4.756.915z"/><path fill="#37C4E5" d="M161.98 56.074c0-2.393 1.954-4.333 4.365-4.333 2.41 0 4.365 1.94 4.365 4.333 0 2.392-1.955 4.332-4.365 4.332-2.411 0-4.365-1.94-4.365-4.332zm1.558 0a2.8 2.8 0 0 0 2.807 2.789 2.8 2.8 0 0 0 2.806-2.786 2.8 2.8 0 0 0-2.806-2.789 2.803 2.803 0 0 0-2.81 2.79l.003-.004z"/><path fill="#35C3E4" d="M167.274 59.426l1.248-1.055 2.322 2.703-1.248 1.055-2.322-2.703z"/><path fill="#F57E22" d="M176.789 62.398l2.503-2.541 1.171 1.138-2.499 2.541z"/><path fill="#F57E23" d="M167.372 65.133a5.642 5.642 0 0 1 1.67-4.007 5.729 5.729 0 0 1 4.037-1.66c3.153 0 5.71 2.537 5.71 5.667-.002 3.129-2.558 5.664-5.71 5.664-3.151-.002-5.705-2.537-5.707-5.664zm2.036 0c.004 2.01 1.645 3.64 3.67 3.643 2.026-.004 3.667-1.633 3.671-3.643-.002-2.012-1.643-3.643-3.67-3.647-2.027.004-3.67 1.635-3.671 3.647z"/><path fill="#38579B" d="M176.561 55.92c0-3.607 2.946-6.53 6.579-6.53 3.633 0 6.578 2.923 6.578 6.53 0 3.605-2.945 6.528-6.578 6.528-3.633 0-6.579-2.923-6.579-6.529zm2.347 0c.004 2.317 1.896 4.195 4.232 4.199 2.335-.004 4.227-1.882 4.231-4.2-.002-2.319-1.895-4.199-4.231-4.203-2.336.004-4.228 1.882-4.232 4.2v.003z"/><path fill="#2A2632" d="M95.65 63.582h1.938c.47-.024.938.068 1.363.27.36.214.655.524.85.893l5.425 9.458c.061.105.129.205.202.302h8.745L107.902 64.3a5.61 5.61 0 0 0-1.161-1.364 7.155 7.155 0 0 0-1.447-.94 11.041 11.041 0 0 0 2.829-1.543 9.818 9.818 0 0 0 2.072-2.136 9.042 9.042 0 0 0 1.273-2.606c.29-.972.433-1.98.427-2.993a10.087 10.087 0 0 0-.724-3.845 7.668 7.668 0 0 0-2.307-3.061 11.437 11.437 0 0 0-4.101-2.025 22.066 22.066 0 0 0-6.072-.717H88.033v31.442h7.613l.003-10.93zm0-14.866h3.066c1.967 0 3.42.402 4.358 1.206.938.804 1.407 1.921 1.407 3.352.006.68-.1 1.357-.315 2.003a4.13 4.13 0 0 1-1.013 1.622 4.792 4.792 0 0 1-1.808 1.077 7.895 7.895 0 0 1-2.629.398h-3.063l-.004-9.658zm21.127-5.657h7.656V74.5h-7.656V43.06zm18.56 15.118c0-.479-.015-.99-.044-1.533a60.97 60.97 0 0 0-.112-1.665l15.475 19.404.105.122h6.51V43.059h-6.705v17.228c0 .522.014 1.077.043 1.666.03.589.074 1.195.134 1.82L135.156 44.21a6.001 6.001 0 0 0-.564-.603 2.018 2.018 0 0 0-.517-.359 2.15 2.15 0 0 0-.608-.169 6.599 6.599 0 0 0-.835-.043h-4.004V74.48h6.712l-.003-16.303zM90.872 82.943a4.54 4.54 0 0 0 .542-.029c.153-.018.304-.048.452-.09.136-.039.27-.088.398-.146.127-.058.253-.122.38-.198v-1.54h-1.107a.105.105 0 0 1-.076-.028.086.086 0 0 1-.029-.065v-.226h1.592v2.031a3.738 3.738 0 0 1-.449.266 3.019 3.019 0 0 1-.495.194 3.731 3.731 0 0 1-.572.122c-.221.03-.445.044-.669.043a3.007 3.007 0 0 1-1.139-.208 2.533 2.533 0 0 1-.882-.589 2.653 2.653 0 0 1-.572-.922 3.653 3.653 0 0 1 0-2.405 2.62 2.62 0 0 1 .579-.923c.258-.258.568-.46.911-.588.384-.144.791-.214 1.2-.208.204-.001.408.015.608.046.178.028.352.073.521.133.157.057.307.129.449.215.14.088.273.186.398.295l-.109.18a.116.116 0 0 1-.101.06.15.15 0 0 1-.069 0 .84.84 0 0 1-.177-.111 1.865 1.865 0 0 0-.315-.187 2.697 2.697 0 0 0-1.219-.247 2.738 2.738 0 0 0-1.012.18 2.131 2.131 0 0 0-.77.509c-.22.232-.388.507-.492.807-.121.347-.18.711-.174 1.077-.005.366.054.73.174 1.077.105.302.273.58.492.815.21.224.469.399.755.513.313.111.645.161.977.147zm3.924-5.624v5.879h-.387v-5.88h.387zm2.976 1.794c.268-.004.534.046.781.148.223.094.42.238.579.42.164.19.287.413.362.653a2.993 2.993 0 0 1 0 1.705c-.076.238-.199.459-.362.65a1.566 1.566 0 0 1-.579.416 2.167 2.167 0 0 1-1.558 0 1.587 1.587 0 0 1-.583-.417 1.845 1.845 0 0 1-.361-.65 2.993 2.993 0 0 1 0-1.704c.074-.24.197-.463.361-.653a1.62 1.62 0 0 1 .583-.42c.246-.102.51-.152.777-.148zm0 3.834c.217.005.433-.037.633-.122a1.2 1.2 0 0 0 .452-.36 1.56 1.56 0 0 0 .271-.556c.12-.478.12-.978 0-1.457a1.567 1.567 0 0 0-.27-.56 1.203 1.203 0 0 0-.453-.359 1.668 1.668 0 0 0-1.266 0 1.2 1.2 0 0 0-.452.36 1.589 1.589 0 0 0-.271.56c-.122.477-.122.978 0 1.456.053.202.145.39.271.557.119.154.274.278.452.359.2.084.416.124.633.118v.004zm2.9.251v-5.88h.388v2.564c.167-.227.378-.417.622-.56.242-.14.519-.21.799-.205.446-.022.877.167 1.16.51.31.45.457.992.417 1.536a2.82 2.82 0 0 1-.116.822c-.07.24-.188.464-.344.66a1.61 1.61 0 0 1-.542.442 1.685 1.685 0 0 1-.756.161c-.251.005-.5-.051-.723-.165a1.493 1.493 0 0 1-.525-.484l-.025.495a.102.102 0 0 1-.108.1l-.246.004zm1.7-3.78a1.335 1.335 0 0 0-.723.205c-.23.151-.429.346-.582.574v2.122c.125.204.302.372.513.488.407.18.87.18 1.277 0 .177-.083.332-.206.452-.36a1.66 1.66 0 0 0 .271-.566c.062-.234.093-.476.09-.718a2.12 2.12 0 0 0-.332-1.321 1.15 1.15 0 0 0-.966-.423zm5.291 3.78a.137.137 0 0 1-.152-.111l-.058-.513a4.33 4.33 0 0 1-.332.29 1.977 1.977 0 0 1-.362.22c-.123.06-.253.106-.387.136-.15.032-.302.047-.456.046-.136 0-.271-.02-.401-.06a.912.912 0 0 1-.604-.506 1.105 1.105 0 0 1-.047-.475c0-.169.052-.334.148-.473.119-.164.277-.295.46-.38.254-.124.524-.211.803-.26a7.09 7.09 0 0 1 1.178-.11v-.42a1.339 1.339 0 0 0-.242-.858.867.867 0 0 0-.723-.302c-.17-.004-.34.024-.5.083a1.789 1.789 0 0 0-.36.176 2.168 2.168 0 0 0-.232.179.254.254 0 0 1-.152.079.134.134 0 0 1-.123-.072l-.069-.115c.193-.197.42-.358.67-.477.25-.111.52-.167.795-.162.195-.004.39.032.571.105.157.064.296.165.405.294.112.136.195.294.243.463.057.198.085.404.083.61v2.617l-.156-.004zm-1.627-.215a1.628 1.628 0 0 0 1.11-.406c.099-.084.195-.175.29-.273v-1.048a7.494 7.494 0 0 0-.995.086 2.91 2.91 0 0 0-.687.194c-.155.062-.291.16-.398.287a.61.61 0 0 0-.13.402.83.83 0 0 0 .068.36.692.692 0 0 0 .434.384c.102.02.205.024.308.014zm3.504-5.664v5.879h-.387v-5.88h.387zm3.736 3.295v2.584h-.416V77.48h1.468a2.419 2.419 0 0 1 1.49.38c.338.274.521.693.492 1.124.004.205-.034.41-.112.6a1.4 1.4 0 0 1-.329.473c-.15.142-.323.256-.513.338-.217.091-.446.15-.68.172a.653.653 0 0 1 .173.162l1.982 2.473h-.362a.244.244 0 0 1-.112-.025.285.285 0 0 1-.09-.083l-1.845-2.319a.415.415 0 0 0-.148-.125.634.634 0 0 0-.246-.036h-.752zm0-.309h.991c.232.003.464-.029.687-.093.187-.052.361-.14.514-.259.136-.11.245-.25.318-.409.075-.17.112-.353.108-.538a1.045 1.045 0 0 0-.401-.905 1.968 1.968 0 0 0-1.172-.294h-1.056l.011 2.498zm5.935-1.192c.216-.002.431.037.633.115.193.082.365.205.506.36.148.159.261.347.333.552.083.241.123.495.119.75a.2.2 0 0 1-.025.122.102.102 0 0 1-.083.032h-2.923v.076c-.005.27.03.538.105.797.06.21.162.405.3.574.125.156.287.279.47.359.197.08.407.118.619.115.178.002.356-.02.528-.068.125-.039.247-.09.362-.151.09-.048.177-.102.26-.162a.272.272 0 0 1 .13-.068c.032 0 .062.014.08.04l.105.129c-.073.088-.16.165-.257.226a1.814 1.814 0 0 1-.362.18c-.137.05-.279.09-.423.118-.149.029-.3.043-.452.043a1.933 1.933 0 0 1-.756-.144 1.613 1.613 0 0 1-.586-.416 1.926 1.926 0 0 1-.361-.671 2.851 2.851 0 0 1-.134-.912c-.003-.27.038-.54.123-.797.077-.232.2-.447.361-.631.16-.178.356-.32.576-.413a1.89 1.89 0 0 1 .752-.155zm0 .288a1.515 1.515 0 0 0-.56.096 1.216 1.216 0 0 0-.431.28 1.414 1.414 0 0 0-.293.435 1.987 1.987 0 0 0-.148.57h2.665a1.782 1.782 0 0 0-.09-.581 1.24 1.24 0 0 0-.254-.434 1.085 1.085 0 0 0-.39-.273 1.289 1.289 0 0 0-.496-.093h-.003zm3.736 3.862a.868.868 0 0 1-.64-.226.95.95 0 0 1-.228-.7v-2.75h-.579a.109.109 0 0 1-.072-.025.082.082 0 0 1-.03-.068v-.14l.691-.047.098-1.435a.114.114 0 0 1 .03-.065.09.09 0 0 1 .068-.029h.18v1.536h1.277v.288h-1.276v2.727a.838.838 0 0 0 .043.284.523.523 0 0 0 .12.194c.05.05.11.088.177.111a.64.64 0 0 0 .22.036.67.67 0 0 0 .253-.043 1.026 1.026 0 0 0 .311-.187.138.138 0 0 1 .076-.043c.027.003.051.017.065.04l.105.168c-.109.118-.242.211-.39.273a1.252 1.252 0 0 1-.5.1zm4.386-.065a.14.14 0 0 1-.151-.111l-.058-.513c-.106.102-.217.2-.333.29-.112.086-.234.16-.362.22-.123.06-.253.106-.387.136-.15.032-.302.047-.455.046-.138 0-.274-.02-.405-.06a.912.912 0 0 1-.604-.506 1.109 1.109 0 0 1-.09-.471.828.828 0 0 1 .144-.474c.118-.163.276-.294.46-.38.253-.123.524-.21.802-.259.39-.07.784-.107 1.179-.111v-.42a1.335 1.335 0 0 0-.242-.858.867.867 0 0 0-.724-.301c-.17-.004-.339.024-.499.082a1.77 1.77 0 0 0-.361.176 2.193 2.193 0 0 0-.232.18.25.25 0 0 1-.152.079.134.134 0 0 1-.123-.072l-.068-.115a2.34 2.34 0 0 1 .665-.477c.25-.112.522-.167.796-.162.195-.004.39.031.571.104.157.064.296.165.405.294.112.137.194.294.243.463.055.199.082.404.08.61v2.617l-.099-.007zm-1.627-.215a1.635 1.635 0 0 0 1.11-.406c.1-.084.196-.175.29-.273v-1.048a7.487 7.487 0 0 0-.995.086 2.91 2.91 0 0 0-.687.194c-.155.062-.291.16-.398.287a.614.614 0 0 0-.126.38.83.83 0 0 0 .068.36c.08.185.24.324.434.38.098.028.199.041.3.04h.004zm3.674-5.19a.303.303 0 0 1-.029.136.362.362 0 0 1-.47.187.359.359 0 0 1-.22-.323.358.358 0 0 1 .22-.33.364.364 0 0 1 .47.19c.02.044.03.091.03.14zm-.17 1.385v4.02h-.387v-4.02h.387zm1.932-1.86v5.88h-.387v-5.88h.387zm3.768 5.88h-.42V77.48h.42v5.718zm1.67 0v-4.02h.21a.113.113 0 0 1 .124.1l.036.607c.177-.225.395-.415.643-.56.25-.142.534-.215.821-.212.2-.003.4.032.586.105.164.065.31.17.423.305.116.14.202.303.254.477.06.205.09.418.086.632v2.57h-.387v-2.57a1.374 1.374 0 0 0-.26-.887.966.966 0 0 0-.8-.32 1.422 1.422 0 0 0-.723.205 2.164 2.164 0 0 0-.61.56v3.015l-.402-.007zm6.619-3.521a.094.094 0 0 1-.09.057.225.225 0 0 1-.116-.05 1.591 1.591 0 0 0-.474-.226 1.457 1.457 0 0 0-.412-.05 1.213 1.213 0 0 0-.402.06 1 1 0 0 0-.31.166.762.762 0 0 0-.2.244.624.624 0 0 0-.072.29.496.496 0 0 0 .098.317c.07.087.157.159.257.211.115.064.236.115.361.155l.413.129c.14.043.278.09.412.143.129.05.25.116.361.198a.918.918 0 0 1 .257.287.806.806 0 0 1 .098.413c.002.167-.03.333-.094.488a1.12 1.12 0 0 1-.275.391 1.34 1.34 0 0 1-.445.262c-.194.068-.398.1-.604.097a1.842 1.842 0 0 1-.723-.133 2.106 2.106 0 0 1-.553-.359l.094-.136a.148.148 0 0 1 .043-.047.124.124 0 0 1 .069 0c.05.007.095.03.13.065a1.65 1.65 0 0 0 .51.28c.148.047.303.069.46.064.153.003.306-.021.451-.071a.924.924 0 0 0 .326-.194.79.79 0 0 0 .199-.284.899.899 0 0 0 .068-.359.55.55 0 0 0-.097-.333.823.823 0 0 0-.257-.227 1.768 1.768 0 0 0-.362-.158l-.416-.129a7.047 7.047 0 0 1-.416-.14 1.515 1.515 0 0 1-.361-.194.921.921 0 0 1-.257-.283.817.817 0 0 1-.098-.416 1.045 1.045 0 0 1 .362-.772c.125-.105.268-.185.423-.237.18-.062.368-.092.557-.09.224-.004.447.03.658.104a1.6 1.6 0 0 1 .528.327l-.101.14zm1.96-1.884a.31.31 0 0 1-.029.136.398.398 0 0 1-.08.111.364.364 0 0 1-.503 0 .359.359 0 0 1-.104-.247.36.36 0 0 1 .5-.334.362.362 0 0 1 .19.19.335.335 0 0 1 .026.144zm-.17 1.385v4.02h-.387v-4.02h.387zm2.767-.068c.166-.002.332.02.492.064.143.04.28.102.405.183h1.038v.133c0 .068-.04.104-.116.108l-.615.047a1.344 1.344 0 0 1 .239.768c.003.181-.033.36-.105.527-.068.155-.17.294-.297.406a1.348 1.348 0 0 1-.455.262 1.766 1.766 0 0 1-.586.093 1.82 1.82 0 0 1-.633-.104.834.834 0 0 0-.268.23.443.443 0 0 0-.097.258.315.315 0 0 0 .123.266c.096.07.208.116.325.136.152.03.305.049.46.054l.524.025c.177 0 .361.025.524.05.158.02.313.063.46.126a.802.802 0 0 1 .321.255c.087.128.13.28.123.434a.981.981 0 0 1-.126.481c-.09.161-.213.3-.362.41a1.894 1.894 0 0 1-.575.283c-.245.075-.5.11-.756.108a2.878 2.878 0 0 1-.748-.086 1.815 1.815 0 0 1-.54-.234 1.033 1.033 0 0 1-.328-.359.828.828 0 0 1 .105-.962c.16-.166.36-.29.582-.359a.76.76 0 0 1-.322-.197.504.504 0 0 1-.12-.359c0-.061.012-.122.033-.18a.716.716 0 0 1 .098-.182 1.08 1.08 0 0 1 .155-.173c.066-.056.137-.104.214-.143a1.204 1.204 0 0 1-.474-.438 1.252 1.252 0 0 1-.16-.643c-.001-.18.034-.36.106-.527.067-.154.167-.293.293-.406.134-.117.29-.206.459-.262.194-.065.399-.097.604-.093zm1.504 4.36a.45.45 0 0 0-.101-.304.662.662 0 0 0-.268-.18 1.554 1.554 0 0 0-.383-.09 5.822 5.822 0 0 0-.456-.039l-.477-.025c-.15-.006-.3-.022-.448-.047a2.01 2.01 0 0 0-.286.14c-.083.05-.158.11-.224.18a.771.771 0 0 0-.149.219.645.645 0 0 0 .037.592.807.807 0 0 0 .267.262c.135.08.281.14.434.176.193.045.391.067.59.064.193.002.387-.02.575-.068.164-.04.322-.105.466-.194a.995.995 0 0 0 .311-.298.714.714 0 0 0 .109-.39l.003.003zm-1.504-2.049c.157.003.314-.023.463-.075a.963.963 0 0 0 .343-.208.872.872 0 0 0 .21-.32 1.219 1.219 0 0 0 0-.825.886.886 0 0 0-.213-.32.974.974 0 0 0-.344-.208 1.366 1.366 0 0 0-.46-.072 1.38 1.38 0 0 0-.458.072.967.967 0 0 0-.362.208.883.883 0 0 0-.213.32c-.05.132-.074.272-.073.413-.002.14.023.28.073.412.046.121.119.23.213.32a.982.982 0 0 0 .362.208c.147.052.302.078.459.075zm2.77 1.777v-5.88h.387v2.546c.177-.22.394-.406.64-.546.246-.138.524-.208.807-.205.201-.004.401.032.59.105.163.065.308.17.422.305.116.14.202.303.253.477.06.205.09.418.087.632v2.57h-.387v-2.57a1.378 1.378 0 0 0-.26-.887.97.97 0 0 0-.8-.32 1.422 1.422 0 0 0-.723.205 2.142 2.142 0 0 0-.61.56v3.015l-.406-.007zm5.512.065a.868.868 0 0 1-.64-.226.95.95 0 0 1-.228-.7v-2.75h-.583a.109.109 0 0 1-.072-.025.086.086 0 0 1-.029-.068v-.14l.69-.047.099-1.435a.114.114 0 0 1 .028-.065.094.094 0 0 1 .07-.029h.18v1.536h1.273v.288h-1.273v2.727a.827.827 0 0 0 .043.284.527.527 0 0 0 .12.194c.05.05.11.088.177.111.07.025.145.037.22.036a.67.67 0 0 0 .254-.043 1.055 1.055 0 0 0 .31-.187.138.138 0 0 1 .077-.043.09.09 0 0 1 .065.04l.105.168c-.11.118-.242.211-.39.273a1.249 1.249 0 0 1-.496.1zm4.028-3.586a.094.094 0 0 1-.09.057.218.218 0 0 1-.116-.05 1.948 1.948 0 0 0-.188-.115 1.457 1.457 0 0 0-.698-.162 1.216 1.216 0 0 0-.401.062.997.997 0 0 0-.308.165.78.78 0 0 0-.199.244.635.635 0 0 0-.072.29.496.496 0 0 0 .098.317.83.83 0 0 0 .257.211c.115.064.236.115.361.155l.412.129c.142.043.279.09.413.143.129.05.25.116.361.198a.903.903 0 0 1 .257.287.806.806 0 0 1 .098.413c.002.167-.03.333-.094.488a1.12 1.12 0 0 1-.279.391c-.13.116-.28.205-.444.262-.193.067-.397.1-.6.097a1.82 1.82 0 0 1-.724-.133 2.106 2.106 0 0 1-.553-.359l.094-.136a.168.168 0 0 1 .014-.047.127.127 0 0 1 .069 0c.05.007.095.03.13.065a1.628 1.628 0 0 0 .513.28c.148.047.302.068.456.064a1.31 1.31 0 0 0 .452-.071.924.924 0 0 0 .326-.194.79.79 0 0 0 .195-.284.899.899 0 0 0 .069-.359.55.55 0 0 0-.098-.333.83.83 0 0 0-.257-.227 1.746 1.746 0 0 0-.361-.158l-.416-.129a7.047 7.047 0 0 1-.416-.14 1.483 1.483 0 0 1-.362-.194.921.921 0 0 1-.257-.283.817.817 0 0 1-.097-.416c0-.143.032-.284.094-.413.062-.138.153-.26.267-.36.124-.103.267-.183.42-.236.179-.062.367-.092.557-.09.224-.004.447.03.658.104.196.074.375.185.528.327l-.069.14zm3.331-2.182a.184.184 0 0 1 .069.06l3.729 4.954V77.48h.361v5.718h-.199a.174.174 0 0 1-.152-.079l-3.754-4.964a2.28 2.28 0 0 1 0 .23v4.813h-.361V77.48h.202a.23.23 0 0 1 .105.015zm7.193 1.618c.217-.002.432.037.633.115.193.082.366.205.507.36.148.159.26.347.332.552.084.241.124.495.12.75a.2.2 0 0 1-.026.122.102.102 0 0 1-.083.032h-2.922v.076c-.005.27.03.538.105.797.06.21.162.405.3.574.125.156.287.279.47.359.196.08.407.118.619.115.178.002.356-.02.528-.068a2.067 2.067 0 0 0 .604-.302.272.272 0 0 1 .13-.068.094.094 0 0 1 .083.04l.105.129a1.083 1.083 0 0 1-.26.226 1.814 1.814 0 0 1-.362.18c-.138.05-.28.09-.423.118-.15.029-.3.043-.452.043a1.93 1.93 0 0 1-.756-.144 1.605 1.605 0 0 1-.586-.416 1.916 1.916 0 0 1-.362-.671 2.851 2.851 0 0 1-.134-.912c-.003-.27.039-.54.123-.797.077-.233.2-.447.362-.632.159-.178.355-.319.575-.412.242-.11.505-.165.77-.166zm0 .288a1.518 1.518 0 0 0-.56.096 1.216 1.216 0 0 0-.43.28 1.414 1.414 0 0 0-.293.435 1.987 1.987 0 0 0-.149.57h2.666a1.754 1.754 0 0 0-.09-.581 1.236 1.236 0 0 0-.254-.434 1.085 1.085 0 0 0-.39-.273 1.285 1.285 0 0 0-.492-.093h-.008zm3.74 3.862a.868.868 0 0 1-.64-.226.95.95 0 0 1-.228-.7v-2.75h-.582a.109.109 0 0 1-.073-.025.082.082 0 0 1-.029-.068v-.14l.691-.047.098-1.435a.114.114 0 0 1 .029-.065.09.09 0 0 1 .068-.029h.181v1.536h1.273v.288h-1.273v2.727a.838.838 0 0 0 .044.284.53.53 0 0 0 .119.194c.05.05.11.088.177.111a.64.64 0 0 0 .22.036.67.67 0 0 0 .254-.043 1.041 1.041 0 0 0 .311-.187.138.138 0 0 1 .076-.043c.027.003.05.017.065.04l.105.168c-.11.119-.245.212-.394.273-.156.067-.323.1-.492.1zm1.226-4.085h.296a.138.138 0 0 1 .094.029.14.14 0 0 1 .051.068l1.024 3.173c.019.059.034.119.047.18l.032.168c0-.057.03-.115.044-.169a2.53 2.53 0 0 1 .057-.18l1.085-3.2a.112.112 0 0 1 .112-.09h.16a.116.116 0 0 1 .119.09l1.085 3.2a3.4 3.4 0 0 1 .098.36c0-.058.021-.115.036-.172.013-.061.03-.121.05-.18l1.027-3.173c.017-.06.075-.1.138-.097h.286l-1.357 4.02h-.314c-.044 0-.076-.028-.094-.086l-1.11-3.266c0-.04-.026-.08-.037-.122-.01-.043-.021-.083-.029-.122l-.025.122c0 .04-.022.079-.036.122l-1.125 3.266a.097.097 0 0 1-.098.086h-.27l-1.346-4.027zm8.115-.065c.268-.004.534.046.781.148.223.094.42.238.58.42.163.19.286.413.36.653a3.008 3.008 0 0 1 0 1.705 1.88 1.88 0 0 1-.36.65 1.573 1.573 0 0 1-.58.416 2.167 2.167 0 0 1-1.558 0 1.584 1.584 0 0 1-.582-.417 1.837 1.837 0 0 1-.362-.65 2.997 2.997 0 0 1 0-1.704c.074-.24.197-.463.362-.653.16-.182.358-.326.582-.42.246-.102.51-.152.777-.148zm0 3.834c.218.004.433-.037.633-.122.178-.081.333-.205.452-.36.127-.165.22-.354.272-.556a2.99 2.99 0 0 0 0-1.457 1.553 1.553 0 0 0-.272-.56 1.2 1.2 0 0 0-.452-.359 1.668 1.668 0 0 0-1.266 0 1.196 1.196 0 0 0-.452.36 1.585 1.585 0 0 0-.27.56c-.123.477-.123.978 0 1.456.052.202.144.39.27.557.12.154.274.278.452.359.2.084.416.124.633.118v.004zm2.861.251v-4.02h.203a.145.145 0 0 1 .097.029.136.136 0 0 1 .036.097l.033.847c.108-.293.287-.556.52-.765.225-.186.51-.285.804-.276a1.304 1.304 0 0 1 .63.15l-.055.27a.073.073 0 0 1-.083.065.226.226 0 0 1-.07 0l-.111-.037-.167-.035a1.33 1.33 0 0 0-.224 0 1.05 1.05 0 0 0-.756.283c-.221.23-.385.51-.477.815v2.613l-.38-.036zm3.66-5.88v3.59h.188a.339.339 0 0 0 .108 0 .297.297 0 0 0 .113-.075l1.623-1.533a.473.473 0 0 1 .09-.072.226.226 0 0 1 .12-.028h.344l-1.787 1.683-.076.075a.412.412 0 0 1-.08.061c.04.02.077.045.11.076l.093.097 1.877 2.028h-.336a.226.226 0 0 1-.101-.022.321.321 0 0 1-.09-.072l-1.704-1.794a.33.33 0 0 0-.304-.126h-.184v2.028h-.387v-5.915h.383z"/></g></svg>