<svg xmlns="http://www.w3.org/2000/svg" width="242" height="120" viewBox="0 0 242 120"><path d="M160.589 88.666c-.023-.99-.497-2.083-1.7-2.703-1.17-.603-2.368-.496-3.452.233-1.08.727-1.415 1.838-1.324 3.08.202 2.74 2.598 3.492 4.306 2.962 1.31-.407 2.152-1.688 2.17-3.572zm3.34.596c-.099.547-.146 1.108-.303 1.637-.731 2.477-2.314 4.104-4.893 4.64-3.58.744-7.195-1.712-7.912-5.283-.755-3.76 1.916-7.34 5.71-7.873 3.768-.53 7.057 2.148 7.326 5.916.01.136.047.27.071.405v.558zm-38.465-64.166c0 .898.008 1.746-.005 2.594a.805.805 0 0 0 .264.642c1.88 1.844 3.749 3.701 5.63 5.544a.85.85 0 0 1 .277.67c-.001 1.953.009 3.907.034 5.86a.782.782 0 0 0 .219.504c3.017 2.865 6.027 5.738 9.081 8.563.685.634 1.518 1.115 2.3 1.64 2.352 1.578 4.713 3.144 7.072 4.71.143.095.303.176.467.229 1.33.431 2.66.861 3.995 1.274.285.089.43.238.527.523.441 1.296.916 2.581 1.363 3.876a.78.78 0 0 0 .44.492c1.85.887 3.694 1.785 5.539 2.68.073.036.143.076.247.13-.077.088-.137.167-.207.236-.872.875-1.738 1.756-2.625 2.616a.88.88 0 0 1-.538.23c-.874.023-1.75.01-2.68.01v-.351c0-.79-.013-1.582.003-2.372.006-.262-.067-.393-.328-.474a237.393 237.393 0 0 1-3.993-1.28 1.492 1.492 0 0 1-.556-.328c-2.451-2.377-4.894-4.763-7.342-7.143a1.86 1.86 0 0 0-.448-.326c-1.872-.945-3.75-1.88-5.62-2.829a1.344 1.344 0 0 1-.463-.398c-1.894-2.624-3.766-5.264-5.672-7.879-.498-.683-1.07-1.315-1.647-1.935a40.104 40.104 0 0 0-1.864-1.844c-.198-.186-.24-.343-.16-.6.445-1.417.865-2.842 1.306-4.26.074-.24.043-.395-.144-.577-1.392-1.36-2.772-2.732-4.157-4.1-.081-.08-.169-.154-.27-.246-.09.077-.172.138-.245.208-.881.85-1.757 1.705-2.645 2.546a.752.752 0 0 0-.259.607c.017 1.942.014 3.883.029 5.825a.77.77 0 0 1-.247.613c-.833.815-1.65 1.646-2.472 2.472-.09.09-.174.185-.241.257l6.1 6.188-3.055 2.96c.58.611 1.101 1.192 1.657 1.74a489.62 489.62 0 0 0 4.287 4.165.832.832 0 0 1 .28.67c-.01.813.001 1.627.021 2.441.004.179.045.372.123.531.92 1.866 1.852 3.725 2.771 5.59.103.208.225.283.457.28.852-.016 1.705-.004 2.558-.016.128-.002.287-.04.378-.122 1.086-.972 2.161-1.955 3.238-2.936.024-.022.035-.058.07-.12-.466-.43-.938-.86-1.4-1.3a1.09 1.09 0 0 1-.262-.357c-.56-1.377-1.111-2.758-1.663-4.138-.025-.062-.037-.128-.076-.264h1.845c.408 0 .818.013 1.226-.006.238-.01.349.088.449.29a886.72 886.72 0 0 0 2.767 5.555c.082.162.194.318.322.447.882.881 1.772 1.755 2.658 2.632.071.07.137.148.234.254l-2.568.9c-2.21.773-4.42 1.542-6.626 2.326-.21.075-.417.21-.577.366-.866.848-1.717 1.71-2.57 2.572-.088.089-.15.204-.217.165-.616-.567-1.212-1.158-1.854-1.695-.937-.784-1.49-1.768-1.806-2.935-.254-.939-.622-1.847-.914-2.777-.091-.288-.254-.43-.532-.522-1.315-.438-2.622-.899-3.937-1.338-.224-.075-.306-.175-.301-.417.016-.778-.005-1.558.007-2.337.004-.26-.059-.376-.349-.37-.805.019-1.611.017-2.417.008-.233-.002-.317.083-.364.309-.491 2.386-.999 4.77-1.489 7.157-.032.158.017.345.07.506.46 1.412.93 2.821 1.396 4.232l.116.355-7.057 3.113c-.602-.86-1.17-1.726-1.799-2.545-.3-.39-.313-.693-.083-1.115.396-.723.734-1.477 1.078-2.227.088-.194.145-.42.147-.631.01-.872-.006-1.744-.014-2.616-.001-.114-.01-.228-.017-.371-.135-.009-.249-.023-.362-.022-1.343.005-2.686.007-4.029.03a.7.7 0 0 0-.443.204 991.912 991.912 0 0 0-5.677 5.986c-.179.19-.32.229-.565.147a180.3 180.3 0 0 0-3.958-1.273c-.267-.082-.328-.201-.327-.46.007-1.895-.01-3.79-.001-5.686.001-.308-.093-.408-.403-.455-2.443-.371-4.882-.77-7.325-1.142a1.2 1.2 0 0 0-.695.112 442.587 442.587 0 0 0-5.203 2.798c-.202.11-.365.135-.583.037-.957-.428-1.922-.84-2.888-1.247-.186-.078-.265-.173-.265-.385.004-2 0-4-.013-6-.001-.198.082-.281.245-.362 4.994-2.466 9.986-4.936 14.975-7.412.19-.095.305-.07.458.057.525.441 1.062.868 1.612 1.315.107-.1.201-.183.29-.272 1.359-1.36 2.712-2.726 4.08-4.077a.868.868 0 0 0 .282-.704c-.02-.744 0-1.488-.016-2.232a.761.761 0 0 1 .25-.61c1.883-1.874 3.76-3.755 5.631-5.64.144-.146.27-.323.358-.507.962-2.012 1.908-4.032 2.876-6.042.221-.46.503-.89.767-1.328 1.254-2.083 2.507-4.165 3.775-6.24a.769.769 0 0 1 .447-.32c2.42-.496 4.842-.98 7.268-1.446.35-.067.722-.027 1.083-.03.675-.003 1.35 0 2.083 0m-10.85 62.481h5.223c-.056-1.103-1.041-2.073-2.17-2.158-1.536-.116-2.779.75-3.054 2.158m8.518 2.76h-8.527c.115.636.415 1.097.871 1.44 1.086.818 2.284.941 3.54.462.419-.16.806-.403 1.257-.633l2.278 1.837c-.396.643-.947 1.093-1.573 1.462-3.267 1.924-7.578.657-9.134-2.683-1.276-2.738-.704-6.167 1.358-8.14 2.294-2.197 6.113-2.186 8.213.035 1.03 1.09 1.56 2.42 1.704 3.888.074.745.013 1.503.013 2.333M96.725 95.65h-3.402v-.616c-.008-2.197-.005-4.395-.031-6.592a4.882 4.882 0 0 0-.201-1.3c-.253-.858-.872-1.296-1.766-1.313-.257-.005-.518-.012-.77.028-.973.157-1.507.788-1.545 1.936-.046 1.405-.032 2.813-.034 4.219-.003 1.116.01 2.232.014 3.348 0 .09-.009.181-.015.295H85.7V82.803h3.217l.039.876c.09-.06.15-.088.196-.131.922-.852 2.05-1.066 3.25-1.005 2.81.144 3.849 2.129 4.16 4.044.098.605.137 1.225.143 1.838.02 2.256.015 4.511.02 6.767v.458m28.057-1.681l1.83-2.037c.82.251 1.583.536 2.37.712.867.194 1.759.241 2.64.049.55-.12.829-.39.87-.78.047-.434-.177-.8-.683-1.025a3.841 3.841 0 0 0-.834-.24c-1.34-.257-2.663-.549-3.924-1.098-2.461-1.071-2.63-4.454-.58-5.96a5.906 5.906 0 0 1 3.04-1.132c1.882-.163 3.672.157 5.31 1.144.09.054.179.11.265.17.038.026.068.061.135.123l-1.711 2.32c-.808-.268-1.538-.6-2.303-.738-.65-.116-1.34-.02-2.012.011-.16.008-.336.109-.467.213-.39.31-.351.84.094 1.053.376.179.778.308 1.178.43 1.158.352 2.336.646 3.476 1.045 1.286.45 2.236 1.265 2.402 2.715.18 1.59-.415 2.848-1.744 3.738-1.354.906-2.881 1.169-4.478 1.05-1.775-.132-3.346-.846-4.874-1.763m24.967-8.96l-2.741 2.115c-.763-.991-1.735-1.56-3.008-1.47-.954.066-1.746.473-2.363 1.204-1.184 1.4-.993 3.539.41 4.768 1.158 1.014 3.418 1.347 4.982-.684L149.745 93c-.796 1.622-4.334 3.035-6.563 2.63-3.186-.58-5.406-2.962-5.718-6.14-.275-2.798 1.565-5.61 4.353-6.69 3.115-1.206 6.298.277 7.932 2.209m-51.813-2.291c1.194 0 2.35.007 3.504-.006.237-.003.261.145.306.297.754 2.534 1.506 5.069 2.261 7.602.088.296.194.587.292.88l.092-.005c.03-.183.045-.37.094-.548.55-1.988 1.101-3.977 1.663-5.962.186-.658.41-1.306.6-1.964.062-.22.147-.317.4-.314 1.003.014 2.007 0 3.011-.002h.39c-.052.172-.083.293-.124.41-1.434 4.059-2.872 8.116-4.297 12.178-.094.266-.214.354-.493.349a88.26 88.26 0 0 0-2.731.006c-.23.003-.349-.06-.432-.292-1.477-4.117-2.964-8.231-4.448-12.346-.028-.076-.048-.154-.088-.283M82.475 77.99v.397c.015 5.624.028 11.25.054 16.874.002.353-.096.46-.45.452a59.766 59.766 0 0 0-2.592.01c-.264.005-.364-.059-.365-.346-.01-5.218-.033-10.436-.043-15.654 0-.117.088-.3.184-.343 1.006-.46 2.022-.899 3.036-1.342.04-.017.085-.023.176-.048" fill="#193989" fill-rule="evenodd"/></svg>