<svg xmlns="http://www.w3.org/2000/svg" width="242" height="120" viewBox="0 0 242 120"><g fill="none"><path fill="#F1F0EF" d="M87.838 53.506V40h3.476v27.964h-3.476v-5.566l-3.735-12.737v18.387h-3.46V40h3.476l3.719 13.506zm6.726 14.458V40h8.617v3.343h-5.125v8.541h4.56v3.343h-4.56v9.344h5.142v3.343l-8.634.05zm14.406 0h-3.477V44.797c0-3.198 1.39-4.797 4.172-4.797h2.603c2.77 0 4.155 1.6 4.155 4.797v23.167h-3.46V57.718h-3.993v10.246zm3.977-13.623v-9.327c0-1.114-.507-1.671-1.52-1.671h-.938c-1.013 0-1.52.557-1.52 1.671v9.31l3.978.017zM119.511 40h6.807c2.652 0 3.977 1.6 3.977 4.797V51.7c0 2.44-.69 3.984-2.069 4.63l2.425 11.701h-3.233l-2.329-11.316h-2.102v11.3h-3.476V40zm3.476 13.472h2.28c1.078 0 1.617-.674 1.617-2.022v-6.034c0-1.349-.539-2.023-1.617-2.023h-2.28v10.08z"/><path fill="#0099D4" d="M140.255 56.43L143.49 40h3.832v27.964h-3.493l.356-18.386-2.603 13.322h-2.668L136.31 49.66l.356 18.387h-3.476V40h3.831l3.234 16.43zm14.39 11.534c-2.803 0-4.204-1.582-4.204-4.747V44.831c-.043-3.22 1.326-4.831 4.107-4.831h3.33c2.781 0 4.166 1.6 4.156 4.797v18.387c0 3.164-1.402 4.747-4.204 4.747l-3.185.033zm.84-3.343h1.78c.92 0 1.373-.551 1.373-1.671V45.014a1.469 1.469 0 0 0-.384-1.273 1.362 1.362 0 0 0-1.232-.398h-1.617c-1.013 0-1.52.557-1.52 1.671v17.919c-.063.442.076.89.377 1.21.301.322.73.48 1.159.428l.065.05zm15.166-21.278v24.571h-3.476V43.343h-3.33V40h10.202v3.343h-3.396zm5.32 24.621V40h3.476v27.964h-3.476zm10.752 0c-2.803 0-4.204-1.582-4.204-4.747V44.831c0-3.22 1.39-4.831 4.171-4.831h3.33c2.782 0 4.167 1.6 4.156 4.797v18.387c0 3.164-1.401 4.747-4.204 4.747l-3.25.033zm.84-3.343h1.779c.921 0 1.374-.551 1.374-1.671V45.014a1.469 1.469 0 0 0-.385-1.273 1.362 1.362 0 0 0-1.232-.398h-1.617c-1.013 0-1.52.557-1.52 1.671v17.919c-.067.455.08.917.397 1.241.316.325.764.472 1.204.397v.05zm16.896-11.115V40H208v27.964h-3.476v-5.566l-3.8-12.737v18.387h-3.476V40h3.476l3.735 13.506z"/><path fill="#EFEFEE" d="M35 40h42.296v10.764H35z"/><path fill="#0098CF" d="M35 57.2h42.296v10.764H35z"/><g fill="#F1F0EF"><path d="M80.643 77.592v-7.506a32.67 32.67 0 0 1 2.49-.1 2.431 2.431 0 0 1 2.118.836c.484.92.692 1.967.598 3.009a5.398 5.398 0 0 1-.598 3.008 2.431 2.431 0 0 1-2.118.836c-.83.011-1.66-.017-2.49-.083zm.89-6.686v5.866h1.616c.544.06 1.076-.189 1.39-.651.32-.74.453-1.55.388-2.357a4.993 4.993 0 0 0-.388-2.357 1.486 1.486 0 0 0-1.39-.669l-1.617.168zm8.439 6.686h-.808v-7.506h.808v7.506zm7.777 0l-.097-.82c-.538.6-1.295.94-2.086.937a1.783 1.783 0 0 1-1.617-.937 6.403 6.403 0 0 1-.517-2.975 5.24 5.24 0 0 1 .63-3.042 2.697 2.697 0 0 1 2.28-.836 7.363 7.363 0 0 1 1.94.234l-.097.72a18.501 18.501 0 0 0-1.794-.084 2.59 2.59 0 0 0-1.213.217c-.31.199-.532.518-.614.886a7.196 7.196 0 0 0-.194 1.972c-.05.796.066 1.594.34 2.34.22.446.68.71 1.163.669a2.877 2.877 0 0 0 1.714-.736v-2.891h.873v4.329l-.711.017zm4.915 0h-.89v-7.506h.89v7.506zm8.327-6.653h-2.248v6.686h-.889v-6.686h-2.247v-.853h5.384v.853zm3.831 6.653h-.889v-7.506h.89v7.506zm7.94-.82v.82h-4.754v-.82l3.718-5.866h-3.67v-.82h4.624v.82l-3.686 5.866h3.767zm4.057.82h-.889v-7.506h.89v7.506zm8.941-7.506v7.121c0 .25-.113.385-.34.385h-.872a.406.406 0 0 1-.388-.301l-2.36-5.316c-.227-.535-.357-.869-.389-.986h-.162v6.603h-.857V70.47c0-.25.114-.385.356-.385h.84a.422.422 0 0 1 .389.301l2.28 5.182c.172.357.328.719.469 1.086h.177v-6.569h.857zm7.696 7.506l-.129-.82c-.538.6-1.294.94-2.086.937a1.783 1.783 0 0 1-1.616-.937 6.403 6.403 0 0 1-.518-2.975c-.1-1.057.12-2.12.63-3.042a2.712 2.712 0 0 1 2.28-.836 7.363 7.363 0 0 1 1.94.234l-.096.72c-.566 0-1.164-.084-1.795-.084a2.59 2.59 0 0 0-1.213.217c-.31.199-.531.518-.614.886a7.269 7.269 0 0 0-.146 1.989c-.049.796.067 1.594.34 2.34.221.446.68.71 1.164.668a2.893 2.893 0 0 0 1.714-.735v-2.908h.873v4.329l-.728.017zm8.456-6.787a3.155 3.155 0 0 1 4.285 0c.485.931.693 1.99.598 3.042a5.523 5.523 0 0 1-.533 3.026 3.155 3.155 0 0 1-4.285 0 5.483 5.483 0 0 1-.614-3.042 5.487 5.487 0 0 1 .55-3.026zm3.574.669a1.88 1.88 0 0 0-1.423-.659c-.544 0-1.061.24-1.423.659a5.045 5.045 0 0 0-.388 2.373 5.028 5.028 0 0 0 .388 2.374c.362.419.88.658 1.423.658s1.06-.24 1.423-.658a5.01 5.01 0 0 0 .388-2.374 5.027 5.027 0 0 0-.405-2.39l.017.017zm9.652-1.388v4.63a3.705 3.705 0 0 1-.566 2.324 2.377 2.377 0 0 1-1.924.685 2.502 2.502 0 0 1-1.989-.685 3.635 3.635 0 0 1-.582-2.323v-4.63h.89v4.63c-.055.582.07 1.167.355 1.671a1.97 1.97 0 0 0 2.555 0 2.85 2.85 0 0 0 .372-1.671v-4.63h.889zm8.44 7.506h-.954l-.614-2.34a1.228 1.228 0 0 0-.356-.602.885.885 0 0 0-.582-.184h-1.536v3.142h-.873v-7.522c.8-.076 1.605-.11 2.409-.1a2.586 2.586 0 0 1 1.746.468c.381.463.562 1.067.501 1.672a2.56 2.56 0 0 1-.307 1.387 1.33 1.33 0 0 1-.986.552c.203.06.383.182.517.35.168.208.284.455.34.72l.695 2.457zm-4.026-3.962h1.504c.384.037.768-.07 1.083-.3.233-.321.337-.723.29-1.12a1.542 1.542 0 0 0-.29-1.104 1.577 1.577 0 0 0-1.083-.284h-1.504v2.808zm12.094-3.544v5.984a.632.632 0 0 0 .161.54c.135.142.327.21.518.18h2.506v.735h-2.7a1.203 1.203 0 0 1-1.047-.347 1.296 1.296 0 0 1-.36-1.074v-6.018h.922zm7.05 7.506h-.906v-7.506h.889l.016 7.506zm7.728-6.703h-2.62a.68.68 0 0 0-.517.167.787.787 0 0 0-.162.552v1.671h2.91v.769h-2.91v3.46h-.889v-6.084a1.312 1.312 0 0 1 .356-.986c.271-.247.625-.373.986-.352h2.894l-.048.803zm7.324 5.883v.736h-2.991a1.331 1.331 0 0 1-.97-.351 1.31 1.31 0 0 1-.372-.953V71.39a1.31 1.31 0 0 1 .372-.952c.266-.244.614-.37.97-.352h2.99v.753h-2.796c-.4 0-.599.24-.599.718v1.672h3.008v.769h-3.008v2.056c0 .49.205.735.615.735l2.78-.017zM208 73.43l-.08 1.94h-.68l-.178-1.94v-3.343H208v3.343zm-.534 2.942h.227a.33.33 0 0 1 .242 0 .38.38 0 0 1 0 .268v.585a.38.38 0 0 1 0 .267.33.33 0 0 1-.242 0h-.227a.314.314 0 0 1-.242 0 .397.397 0 0 1 0-.267v-.585a.397.397 0 0 1 0-.268.333.333 0 0 1 .162-.067l.08.067z"/></g></g></svg>