<svg xmlns="http://www.w3.org/2000/svg" width="242" height="120" viewBox="0 0 242 120"><path fill="#B80819" fill-rule="evenodd" d="M75.01 46.365v27.153h-.147L57.701 41H50v34.926h5.574V48.153h.147l17.712 33.212h7.15v-35H75.01zm26.14 25.745c-2.45-.076-4.604-.968-6.461-2.751-1.857-1.784-2.748-4.163-2.823-6.988h20.128c0-2.38-.149-4.61-.52-6.617-.448-1.932-1.114-3.642-2.08-5.13-1.93-3.047-5.125-4.608-9.804-4.683-4.01 0-7.205 1.338-9.581 4.013-2.377 2.75-3.565 6.243-3.64 10.702 0 4.757 1.189 8.623 3.565 11.448 2.377 2.825 6.09 4.312 11.067 4.312 2.228 0 4.085-.297 5.422-.669 1.337-.446 2.451-.818 3.417-1.19v-5.42c-.669.594-1.857 1.19-3.417 1.858a12.917 12.917 0 0 1-5.273 1.115zm-7.204-19.18c1.188-1.71 3.043-2.602 5.496-2.675 2.303.074 4.085.818 5.274 2.38 1.188 1.56 1.782 3.493 1.782 5.723H91.866c.198-1.96.916-3.833 2.08-5.426v-.002zm30.956 7.503l-9.49-13.667h6.46l6.17 10.206 6.207-10.206h5.81l-9.346 13.667 10.212 15.164h-6.46l-6.892-11.31-6.964 11.31h-6.135l10.428-15.164zm44.953 15.323h-5.11v-4.585h-.152c-.762 1.626-2.058 2.884-3.737 3.845-1.754.892-3.584 1.405-5.72 1.405-7.248-.148-10.905-4.29-10.828-12.424v-17.23h5.34v15.011c-.153 6.657 1.906 10.132 6.1 10.354 3.051-.074 5.34-1.183 6.712-3.402 1.449-2.14 2.135-5.029 2.135-8.58V46.767h5.262v28.99h-.002zm6.151-5.728a15.776 15.776 0 0 0 3.428 1.56c1.24.297 2.188.52 2.99.52 1.24 0 2.408-.371 3.501-1.04 1.095-.595 1.678-1.635 1.678-3.196a3.586 3.586 0 0 0-.438-1.784 3.802 3.802 0 0 0-1.312-1.337c-1.24-.818-2.626-1.562-4.23-2.305l-2.188-1.337a18.077 18.077 0 0 1-1.969-1.562c-1.163-1.19-1.824-2.75-1.824-4.683 0-3.049.949-5.279 2.845-6.765 1.824-1.487 4.084-2.156 6.856-2.156 2.333 0 4.449.372 6.418 1.115l-.511 4.683c-.584-.445-1.459-.817-2.553-1.114-1.164-.223-2.116-.372-2.775-.372-1.312 0-2.48.297-3.354.818-1.021.594-1.532 1.486-1.532 2.75 0 .744.145 1.338.51 1.783a4.237 4.237 0 0 0 1.387 1.413c.583.446 1.24.744 1.968 1.115l2.188 1.114c.73.372 1.459.744 2.262 1.19.68.487 1.315 1.034 1.896 1.636.583.594 1.021 1.337 1.386 2.155.22.818.365 1.858.365 3.121 0 3.048-1.02 5.35-2.917 6.84-1.896 1.488-4.084 2.229-6.712 2.229a21.998 21.998 0 0 1-3.865-.372c-1.313-.223-2.553-.595-3.72-1.264l.219-4.757.003.002z"/></svg>