<svg xmlns="http://www.w3.org/2000/svg" width="242" height="120" viewBox="0 0 242 120"><g fill="none"><path fill="#00AEEF" d="M102.606 71.205h7.408V40.454h-7.408v30.751zm45.908 1.219a13.282 13.282 0 0 1-4.236.586c-2.556 0-4.475-1.58-6.216-3.12 5.124-2.68 8.31-8.122 8.205-14.02-.01-9.087-6.623-15.87-15.484-15.87-8.786 0-15.389 6.783-15.389 15.875 0 8.956 6.524 15.692 15.21 15.784 2.248 1.402 6.215 7.685 13.142 7.685a17.625 17.625 0 0 0 5.509-.862l-.74-6.058zm-25.89-16.549c0-4.977 3.396-8.67 8.154-8.67 4.759 0 8.16 3.708 8.16 8.67 0 4.886-3.352 8.64-8.16 8.64s-8.154-3.754-8.154-8.64z"/><path fill="#00314F" d="M32 55.921c0 9.001 6.613 15.784 15.389 15.784 8.865 0 15.479-6.783 15.479-15.784 0-9.087-6.618-15.875-15.479-15.875C38.613 40.046 32 46.834 32 55.92zm7.23 0c0-4.972 3.44-8.67 8.159-8.67 4.853 0 8.16 3.708 8.16 8.67 0 4.886-3.307 8.64-8.16 8.64-4.719 0-8.16-3.754-8.16-8.64zm50.846 15.33h6.439V40.51h-7.409v18.665L73.98 40.51h-6.439v30.751h7.41V52.576L90.075 71.25zM158.17 40.51h-7.408v17.538c0 7.96 4.937 13.703 13.887 13.703 9.084 0 14.022-6.334 14.022-13.703V40.51h-7.409v17.038c0 4.34-2.203 7.14-6.613 7.14-4.276 0-6.464-2.713-6.464-7.14l-.015-17.038zm21.172 30.751h7.493l2.073-5.655h12.565l2.029 5.655H211L199.668 40.51h-8.73l-11.596 30.751zm15.96-23.244l4.366 12.03h-8.91l4.545-12.03z"/></g></svg>