<svg xmlns="http://www.w3.org/2000/svg" width="242" height="120" viewBox="0 0 242 120"><path fill="#111" d="M31 65.181c1.52 0 2.007-.468 2.007-1.152 0-.815-.74-1.242-2.514-1.389l-5.995-.448c-2.78-.216-4.445-1.21-4.445-3.478 0-2.614 2.208-3.535 4.76-3.535h10.059v2.31H24.58c-1.227 0-1.902.325-1.902 1.152 0 .684.47 1.047 2.499 1.222l5.696.431c2.911.237 4.796 1.153 4.796 3.641 0 2.09-1.337 3.568-4.829 3.568H20V65.18h11zM48.697 55.18c3.419 0 4.94 1.91 4.94 4.126 0 2.215-1.521 4.166-4.94 4.166h-8.145v4.036h-2.585V55.179h10.73zm.127 6.02c1.59 0 2.118-1.08 2.118-1.874s-.544-1.881-2.118-1.881h-8.272v3.746l8.272.008zm22.363 6.308h-2.785l-1.574-3.046h-9.123l-1.574 3.046h-2.768l5.074-9.892c.769-1.532 1.71-2.615 3.828-2.615s3.038 1.083 3.835 2.615l5.087 9.892zm-7.638-9.371a1.394 1.394 0 0 0-1.284-.847c-.56 0-1.066.333-1.284.847l-2.098 4.036h6.751l-2.085-4.036zm24.064-.452h-9.79c-2.968 0-3.328 1.299-3.328 3.665s.36 3.641 3.329 3.641h9.789v2.525h-9.79c-4.452 0-5.97-2.11-5.97-6.162s1.518-6.174 5.97-6.174h9.79v2.505zm7.687-.053c-2.425 0-3.148.92-3.328 2.557h12.917v2.306H91.968c.18 1.629.903 2.54 3.328 2.54h9.814v2.469h-9.814c-4.432 0-5.97-2.11-5.97-6.162s1.542-6.162 5.974-6.162h9.814v2.444l-9.814.008zm30.922 9.876v-5.03h-10.386v5.03h-2.605V55.179h2.588v5.01h10.386v-5.01h2.589v12.328h-2.572zm22.326 0h-2.785l-1.574-3.046h-9.123l-1.574 3.046h-2.768l5.066-9.892c.777-1.532 1.718-2.615 3.836-2.615s3.038 1.083 3.835 2.615l5.087 9.892zm-7.634-9.367a1.394 1.394 0 0 0-1.284-.847c-.56 0-1.066.333-1.284.847l-2.098 4.036H143l-2.085-4.036zm9.527-2.96h10.746c3.039 0 4.907 1.368 4.907 3.84 0 1.73-.924 2.793-2.53 3.258 1.573.505 2.26 1.515 2.26 2.793v2.444h-2.678v-2.496c0-.685-.38-1.568-2.045-1.568h-8.067v4.072h-2.593V55.18zm10.947 5.982c1.59 0 2.081-1.047 2.081-1.857s-.487-1.861-2.077-1.861h-8.358v3.714l8.354.004zm20.54.057c1.7.484 2.453 1.551 2.453 2.957 0 1.946-1.411 3.335-4.83 3.335h-10.868V55.179h10.586c4.47 0 4.76 2.342 4.76 3.258-.004 1.556-.855 2.383-2.102 2.782zm-2.479-1.116c1.41 0 2.081-.452 2.081-1.3 0-.846-.597-1.36-1.917-1.36h-8.436v2.648l8.272.012zm-8.252 2.2v2.878h8.612c1.521 0 2.008-.684 2.008-1.368s-.487-1.531-2.188-1.531l-8.432.02zm32.402-.958c0 4.777-2.784 6.345-8.685 6.345-5.9 0-8.685-1.568-8.685-6.345 0-4.777 2.789-6.345 8.69-6.345 5.9 0 8.68 1.568 8.68 6.345zm-2.641 0c0-3.441-1.992-3.91-6.044-3.91s-6.035.465-6.035 3.91c0 3.445 1.99 3.91 6.043 3.91 4.052 0 6.04-.48 6.04-3.91h-.004zm5.095-6.166h10.754c3.038 0 4.907 1.369 4.907 3.84 0 1.731-.924 2.794-2.535 3.259 1.574.505 2.26 1.515 2.26 2.793v2.444h-2.678v-2.496c0-.685-.38-1.568-2.044-1.568h-8.068v4.072h-2.596V55.18zm10.946 5.983c1.59 0 2.081-1.047 2.081-1.857s-.478-1.861-2.073-1.861h-8.358v3.714l8.35.004z"/></svg>