<svg xmlns="http://www.w3.org/2000/svg" width="242" height="120" viewBox="0 0 242 120"><path fill="#7F7F7F" d="M132.474 22h1.38c2.732.306 5.368 1.805 6.741 4.215 1.163 1.845 1.427 4.124 1.017 6.238a8.748 8.748 0 0 1-6.521 6.572c-3.898 1.01-8.29-1.195-9.89-4.841a8.403 8.403 0 0 1 .027-7.134 8.81 8.81 0 0 1 7.246-5.05zM105.7 23.825a2.924 2.924 0 0 1 2.23-.963c4.627-.017 9.256.023 13.896-.017v.337c-4.392.882-8.798 1.693-13.174 2.562-1.142.272-2.982.168-3.172 1.683.495 6.366.932 12.75 1.484 19.113.16 2.74.404 5.477.509 8.224.339.38.59 1.01 1.173 1.044 8.913.694 17.83 1.367 26.751 2.02.942.216 1.773-.559 1.87-1.458 1.068-4.982 2.241-9.945 3.285-14.934.468.855.319 1.838.339 2.77-.024 3.832.03 7.66-.024 11.491-.122 1.569-1.518 2.498-2.511 3.548-1.017.99-2.034 2.357-3.627 2.317-8.92.018-17.845.018-26.775 0-1.6.037-2.59-1.347-3.63-2.323-1.088-1.118-2.59-2.185-2.549-3.92-.023-8.53 0-17.061 0-25.586 0-1.01.112-2.134.878-2.878.99-1.04 2.034-2.02 3.05-3.047l-.003.017zm5.552 17.19c3.226-3.767 6.52-7.508 9.778-11.272-.097 1.74.145 3.482.712 5.131-2.847 2.377-5.647 4.808-8.474 7.218a5.474 5.474 0 0 1-2.335 1.293c-1.067-.502-.129-1.71.299-2.357l.02-.013zm.566 9.13c3.803-4.195 7.497-8.484 11.323-12.658a13.51 13.51 0 0 0 2.99 3.03 3216.183 3216.183 0 0 0-11.788 10.308c-.986.832-2.112 2.07-3.552 1.586a4.964 4.964 0 0 1 1.037-2.276l-.01.01zm16.906-8.251c1.694.481 3.416.855 5.188.76-4.09 3.263-7.91 6.848-12.014 10.1-.57.152-1.251.59-1.671-.074.07-.952.677-1.737 1.27-2.437 2.4-2.788 4.847-5.538 7.227-8.343v-.006zm-7.769 29.098c.678 0 1.376.02 2.068.03-1.214 3.367-2.264 6.814-3.417 10.211h-1.532c-1.054-3.424-2.233-6.807-3.331-10.218h2.067c.722 2.175 1.261 4.407 2.054 6.562.227-.65.44-1.306.658-1.963.393-1.562.901-3.097 1.433-4.619v-.003zm-47.582.498c1.726-.906 3.885-.522 5.393.64l-1.23 1.212c-.953-.462-2.105-.98-3.132-.394-.807.336-.824 1.656 0 1.973 1.27.41 2.779.245 3.833 1.185 1.213 1.3.915 3.787-.756 4.582-1.966 1.05-4.331.481-6.155-.59v-.437l.17-.044c.529-.252 1.017-.946 1.664-.586 1.207.512 2.603.633 3.779-.027-.064-.63.258-1.616-.59-1.807-1.274-.378-2.81-.233-3.833-1.21-1.139-1.302-.773-3.72.857-4.497zm7.498.397c.616-.027 1.233-.08 1.853-.131.017.757.02 1.515.02 2.272h1.312v1.364l-1.332.037c0 1.286-.037 2.575.024 3.862.251.511.84.37 1.308.447 0 .512 0 1.01-.027 1.539-1.067 0-2.321-.034-2.948-1.05-.44-1.404-.112-2.91-.22-4.354.074-.47-.52-.47-.817-.545v-1.29l.823-.05v-2.11l.004.01zm19.02-.06c.618-.04 1.238-.031 1.854.027v2.154l1.356.024v1.38h-1.356c.027 1.266-.061 2.542.037 3.808.214.562.84.43 1.322.508v1.519c-1.115.027-2.498-.024-3.027-1.202-.338-1.485-.088-3.03-.172-4.552-.793 0-1.077-.413-.851-1.239-.556.515-1.142 1.01-1.674 1.535l-.96-.377-1.135.404c-.295 1.774-.102 3.579-.139 5.387a53.01 53.01 0 0 1-1.932.1v-7.322h1.59c.59.812 1.542-.225 2.325-.242.38.165.756.337 1.118.542a4.655 4.655 0 0 0 1.675-.27v-2.147l-.03-.037zm39.736.08l1.806-.144c.024.757.027 1.518.027 2.279l1.332.027v1.347c-.396.154-1.18-.27-1.308.336 0 1.317-.2 2.694.227 3.956h1.078v1.569c-1.203.077-2.505-.131-3.111-1.293-.072-1.512-.038-3.03-.041-4.538l-.908-.047c.091-.674-.126-1.684.911-1.414v-2.098l-.013.02zm4.531 2.027a9.42 9.42 0 0 0 1.105-.171l.85.026c.058 1.73-.06 3.461.069 5.188.32.314.682.582 1.077.795.416-.19.804-.434 1.153-.727.173-1.75.02-3.518.084-5.276.644.03 1.288.091 1.932.142-.017 2.41 0 4.817 0 7.224h-1.898v-.538c-.87.673-2 .75-3.05.475a3.586 3.586 0 0 1-1.329-2.135c.017-1.683.028-3.34 0-5.006l.007.003zm-13.031.024h1.796v.478a34.415 34.415 0 0 1 1.803-.704c1.166.132 2.372.7 2.572 1.98.207 1.838.038 3.703.088 5.551-.62 0-1.24 0-1.857-.02-.139-1.808.34-3.703-.298-5.45l-.8-.404a2.096 2.096 0 0 0-1.498.966c.047 1.636 0 3.272.02 4.905h-1.84v-7.282l.014-.02zm23.453.448a3.135 3.135 0 0 1 3.515.05c-.448.458-.898.909-1.356 1.347a2.093 2.093 0 0 0-2.132 0c-.264 1.79-.101 3.609-.128 5.41-.648.03-1.295.05-1.94.07v-7.329c.645.159 1.695-.336 2.034.445l.007.007zm-69.188.417c1.108-1.07 2.803-1.155 4.233-.795a2.152 2.152 0 0 1 1.8 2.175c.047 1.653 0 3.31 0 4.966-.678-.097-1.583.253-2.034-.448-1.413 1.115-4.2.516-4.311-1.501-.21-1.306.98-2.182 2.132-2.41.806 0 1.613 0 2.42-.031.044-1.633-2.112-1.744-3.05-.832-.397-.377-.8-.747-1.204-1.117l.014-.007zm1.68 3.535c-.064.138-.2.407-.267.542l.424.774c.573.044 1.176.202 1.732-.03.627-.273.522-.986.63-1.538-.847 0-1.715-.085-2.518.252zm17.513-3.501c.383-.879 1.532-.906 2.373-1.01 1.298-.027 2.969.239 3.423 1.666.271 1.865.047 3.77.118 5.653-.677-.094-1.623.276-2.07-.438-1.078.822-2.84.74-3.762-.276a2.195 2.195 0 0 1 .28-3.087c1.11-.761 2.516-.498 3.78-.566.05-1.683-2.2-1.74-3.145-.814-.34-.37-.678-.724-.987-1.111l-.01-.017zm1.325 4.437c.736.529 1.854.737 2.546 0 .094-.399.167-.802.217-1.209-1.017 0-2.854-.357-2.763 1.192v.017zm17.543-3.841c.468-1.128 1.695-1.515 2.803-1.714.858.199 1.844.266 2.481.956.583.559.75 1.374 1.017 2.108v1.262c-1.66.034-3.322 0-4.982.027.149.394.301.788.45 1.185a2.657 2.657 0 0 0 3.193-.27c.373.388.732.785 1.091 1.186a4.77 4.77 0 0 1-4.623.747c-2.067-.868-2.243-3.703-1.406-5.487h-.024zm1.247 1.279a26.73 26.73 0 0 0 3.244.03c-.153-1.043-1.115-1.559-2.118-1.444a3.92 3.92 0 0 0-1.126 1.414zm33.652-.92c.73-2.43 4.593-2.693 5.847-.582.58.832.57 1.876.59 2.845h-4.939c.102 1.892 2.495 1.966 3.658.956l1.016 1.165a4.77 4.77 0 0 1-4.724.72c-1.915-.8-2.105-3.366-1.498-5.096l.05-.007zm1.38.957c1.017.04 2.064.034 3.098.024-.093-.342-.181-.678-.265-1.01-.447-.223-.905-.489-1.427-.398-.8-.06-1.165.785-1.406 1.394v-.01zm7.185 1.118c-1.525-.73-1.19-3.222.36-3.704a5.715 5.715 0 0 1 4.236.276c.224.57-.505.903-.75 1.33-.83-.232-1.694-.599-2.561-.336-.543.175-.712 1.097.02 1.1 1.38.27 3.315.145 3.779 1.842v.828a2.493 2.493 0 0 1-1.552 1.785c-1.644.501-3.593.414-4.932-.758.4-.384.804-.768 1.214-1.141.678.296 1.406.673 2.196.606.695 0 1.559-.398 1.166-1.226-1.05-.249-2.163-.215-3.176-.589v-.013zM130.831 90.44c1.016 0 2.033 0 3.05.114.326.674.42 1.437.264 2.169-.339.168-.678.336-1 .511a8.916 8.916 0 0 1 1.119 2.492h-.224a21.894 21.894 0 0 1-1.427-2.512l-1.372-.027v2.32l-.41.02v-5.09.003zm.413.353v2.02c.6 0 1.203 0 1.803-.02l.797-.414-.068-1.03c-.546-.852-1.695-.441-2.535-.552l.003-.004zm-28.192-.39l.512.118c.929 1.394 1.864 2.78 2.793 4.178-.027-1.404.193-2.848-.176-4.225.298.02.867-.216.915.235-.099 1.667.17 3.367-.187 5.02h-.498a27.771 27.771 0 0 0-2.915-4.3c-.078 1.432-.047 2.866-.044 4.3h-.423c.054-1.774 0-3.552.027-5.326h-.004zm5.667.04c1.142.03 2.315-.11 3.427.226-.978.132-1.966.181-2.952.148v1.895c.677 0 1.355.03 2.033.048v.542l.79.094c-.8-.067-1.613-.27-2.41-.111-.58.286-.502 1.188-.23 1.666.803.472 2.308-.424 2.63.778h-.19l-.414-.229c-.894-.03-1.79.02-2.684.027v-5.084zm4.067-.293c1.037 1.223.81 2.99 1.505 4.377.36-1.347.72-2.693 1.085-4.04l.457-.08c.363 1.295.702 2.602 1.078 3.895.878-1.297.491-3.094 1.644-4.242.07.343.052.698-.051 1.033-.525 1.508-.776 3.084-1.183 4.623h-.447c-.34-1.317-.776-2.61-1.085-3.933l-.363.024c-.318 1.313-.637 2.626-1.067 3.909h-.183l-.054-.179a26.062 26.062 0 0 1-1.336-5.387zm8.433.081c.908.637 1.216 1.758 1.837 2.626.447-.804.596-1.899 1.42-2.42-.132 1.037-.854 1.898-1.054 2.922-.116.788.037 1.616-.271 2.357h-.167c0-.048 0-.145-.023-.192-.146-.714-.21-1.441-.319-2.158-.383-1.088-1.067-2.047-1.423-3.148v.013zm4.535.997c.677-1.219 2.89-1.088 3.3.293.084.999.097 2.002.041 3.003-.678 1.208-2.47 1.43-3.308.252a10.395 10.395 0 0 1-.033-3.548zm.765-.364c-.755 1.064-.48 2.397-.454 3.613a1.77 1.77 0 0 0 2.373.336c.339-1.141.488-2.424 0-3.541-.444-.64-1.247-.465-1.905-.401l-.014-.007zm9.504 4.862c0-1.849-.356-3.791.19-5.586.12 1.101.17 2.21.149 3.317 1.064-1.04 1.728-2.522 3.09-3.23-.48.748-1.009 1.463-1.582 2.142.627 1.114 1.274 2.215 1.854 3.367h-.16c-.962-.798-1.392-2.02-2.033-3.03a4.29 4.29 0 0 0-1.339 3.03h-.155l-.014-.01z"/></svg>