<svg height="66" viewBox="0 0 249 66" width="249" xmlns="http://www.w3.org/2000/svg"><g fill="none" fill-rule="evenodd"><path d="M34 42V24l-9 9z" fill="#dc3b41"/><path d="M17 33L0 16v8l9 9-9 9v8z" fill="#0098a0"/><path d="M17 41v9H8z" fill="#974188"/><path d="M8 16h9v9z" fill="#ee9f3f"/><g fill="#002344"><path d="M17 50h9l-9-9zM26 16h-9v9z"/><path d="M17 33L0 50h8l9-9v-8l17 17v-8l-9-9 9-9v-8L17 33v-8l-9-9H0z"/><path d="M9 33l-9-9v18z"/></g><path d="M17 33v-8l9-9h8zM17 33v8l9 9h8z" fill="#0098a0"/><path d="M49.645 16.292h8.076v12.31l14.517-12.31h6.236L62.09 30.144l20.776 18.911h-9.732L57.72 35.021v14.034h-8.076zm35.57 0h12.308c2.116 0 3.972.223 5.567.667 1.595.447 2.922 1.067 3.98 1.865s1.852 1.74 2.381 2.83c.53 1.09.794 2.276.794 3.565 0 .92-.18 1.8-.54 2.635s-.87 1.603-1.53 2.3c-.66.698-1.45 1.32-2.37 1.864-.92.545-1.94.993-3.06 1.347l11.665 15.69h-8.72l-11.022-14.84h-1.425v14.84h-8.029zm8.028 15.094h1.75a8.65 8.65 0 0 0 2.725-.415 6.564 6.564 0 0 0 2.174-1.184 5.498 5.498 0 0 0 1.45-1.887c.353-.744.53-1.584.53-2.519 0-.86-.135-1.65-.404-2.37a5.814 5.814 0 0 0-1.116-1.875 4.988 4.988 0 0 0-1.69-1.23 5.215 5.215 0 0 0-2.153-.438h-3.266zm24.087-15.094h8.054v21.052c0 1.273.195 2.467.586 3.577a8.773 8.773 0 0 0 1.68 2.912 7.96 7.96 0 0 0 2.657 1.966c1.043.482 2.208.725 3.496.725 1.29 0 2.451-.243 3.487-.725a7.993 7.993 0 0 0 2.645-1.966 8.773 8.773 0 0 0 1.68-2.912c.391-1.11.587-2.304.587-3.577V16.292h5.061v21.052c0 1.688-.288 3.286-.863 4.797s-1.472 2.834-2.692 3.968c-1.219 1.136-2.79 2.033-4.715 2.693-1.926.658-4.23.99-6.914.99-2.408 0-4.529-.332-6.36-.99-1.834-.66-3.374-1.56-4.614-2.704a11.332 11.332 0 0 1-2.819-3.992 12.36 12.36 0 0 1-.956-4.83zm37.986 0h7.823l11.318 22.386 11.18-22.386h7.663v32.763h-8.03v-21.35l-10.697 21.35h-3.107l-11.064-21.604v21.604h-5.086zm46.382 32.763V16.292h8.029v32.763zm18.038 0h-5.637l13.919-16.174-12.538-16.589h8.88l8.306 11.068 9.57-11.068h5.659l-12.538 14.611L249 49.055h-8.857l-9.548-12.653zM53.143 62.752c.655 0 1.188-.215 1.57-.598l.796.785c-.59.59-1.431.935-2.431.935-2.001 0-3.366-1.365-3.366-3.366s1.365-3.366 3.366-3.366c1 0 1.842.346 2.43.935l-.794.795c-.374-.383-.916-.608-1.571-.608-1.253 0-2.122.917-2.122 2.244s.869 2.244 2.122 2.244zm5.43 1.03h-1.356l1.159-2.058-2.215-4.488h1.355l1.45 3.011 1.43-3.01h1.356zm6.786-2.479l-1.748 2.478h-1.627l2.44-3.329-2.356-3.216h1.636l1.655 2.357 1.655-2.357h1.636l-2.356 3.216 2.45 3.33h-1.627zm4.41 2.478v-6.545h1.263v6.545zm5.281-6.545h3.693v1.028h-2.384v1.59h.795c1.281 0 2.141.767 2.141 1.964 0 1.196-.86 1.963-2.141 1.963H75.05zm2.104 3.693h-.795v1.777h.795c.496 0 .832-.356.832-.888 0-.534-.336-.889-.832-.889zm5.253 2.852H81.05l1.16-2.057-2.216-4.488h1.355l1.45 3.011 1.43-3.01h1.356zm4.626 0v1.403h-1.17V62.8c.628 0 1.03-.542 1.03-1.449v-4.114h4.347v5.516h.7v2.432h-1.167v-1.403zm.72-1.029h2.178v-4.488H88.2v3.086c0 .514-.121 1.028-.448 1.402zm5.308 1.029v-6.545h1.262v6.545zm2.663-6.545h2.104c1.131 0 1.888.673 1.888 1.74 0 .56-.214 1.018-.588 1.317.58.3.935.88.935 1.618 0 1.14-.823 1.87-2.039 1.87h-2.3zm2.01 1.075h-.7v1.543h.7c.431 0 .72-.309.72-.767 0-.467-.289-.776-.72-.776zm.234 2.618h-.935v1.777h.935c.496 0 .832-.356.832-.888 0-.534-.336-.889-.832-.889zm4.71-.935h2.058v1.028h-2.057v1.73h2.385v1.03h-3.647v-6.546h3.6v1.028h-2.338zm3.44 2.992c.627 0 1.047-.402 1.047-1.075v-4.675h4.348v6.545h-1.31v-5.517h-1.728v3.61c0 1.15-.636 1.963-1.74 1.963-.215 0-.467-.019-.617-.056zm6.795-5.75h1.308v2.618h.796c1.281 0 2.141.767 2.141 1.964 0 1.196-.86 1.963-2.14 1.963h-2.105zm2.104 3.693h-.796v1.777h.796c.495 0 .832-.356.832-.888 0-.534-.337-.889-.832-.889zm4.71-.935h2.899v-2.758h1.262v6.545h-1.262v-2.759h-2.9v2.76h-1.261v-6.546h1.262zm5.561 3.787v-6.545h1.262v6.545zm8.619-1.029c.654 0 1.187-.215 1.57-.598l.795.785c-.588.59-1.43.935-2.431.935-2.001 0-3.366-1.365-3.366-3.366s1.365-3.366 3.366-3.366c1.002 0 1.843.346 2.43.935l-.794.795c-.374-.383-.916-.608-1.57-.608-1.253 0-2.123.917-2.123 2.244s.87 2.244 2.123 2.244zm5.43 1.03h-1.356l1.16-2.058-2.217-4.488h1.356l1.45 3.011 1.43-3.01h1.355zm9.347-3.984l-1.749 2.674h-.43l-1.749-2.674v3.983h-1.26v-6.545h.933l2.291 3.375 2.291-3.375h.935v6.545h-1.262zm2.661 3.983v-6.545h1.263v6.545zm2.665 0v-6.545h1.263v5.516h2.197v-5.516h1.26v5.516h2.199v-5.516h1.262v6.545zm9.58 0v-6.545h1.262v6.545z" fill="#fff"/></g></svg>