<svg xmlns="http://www.w3.org/2000/svg" viewBox="0 0 75 75"><title>facebook</title><g data-name="Layer 1"><path d="M37.5 4A33.5 33.5 0 1 1 4 37.5 33.54 33.54 0 0 1 37.5 4m0-4A37.5 37.5 0 1 0 75 37.5 37.5 37.5 0 0 0 37.5 0z" data-name="&amp;lt;Group&amp;gt;"/><g data-name="&amp;lt;Group&amp;gt;"><path data-name="&amp;lt;Path&amp;gt;" d="M44.22 38.47H28.73v-7.14h16.68l-1.19 7.14z"/><path d="M32.34 26.61v28.54h7.11v-27.4a1.08 1.08 0 0 1 1.19-1.19h4.76v-7.14h-5.48c-7.76 0-7.58 6.26-7.58 7.19z"/></g></g></svg>