<svg xmlns="http://www.w3.org/2000/svg" viewBox="0 0 75 75"><title>in</title><g data-name="Layer 1"><path d="M37.5 4A33.5 33.5 0 1 1 4 37.5 33.54 33.54 0 0 1 37.5 4m0-4A37.5 37.5 0 1 0 75 37.5 37.5 37.5 0 0 0 37.5 0z" data-name="&amp;lt;Group&amp;gt;"/><g data-name="&amp;lt;Group&amp;gt;"><path data-name="&amp;lt;Path&amp;gt;" d="M21.49 29.2h7.41v23.49h-7.41zM49.16 29c-4.25 0-6.91 2.3-7.4 3.91V29.2h-8.33c.11 2 0 23.49 0 23.49h8.33V40a5.35 5.35 0 0 1 .18-1.92 4.24 4.24 0 0 1 4-2.88c2.89 0 4.21 2.17 4.21 5.35v12.14h8.41V39.63c0-7.28-4.14-10.63-9.4-10.63zM25.06 18.11c-2.74 0-4.53 1.76-4.53 4.08A4.1 4.1 0 0 0 25 26.26c2.79 0 4.52-1.8 4.52-4.08a4.12 4.12 0 0 0-4.46-4.07z"/></g></g></svg>