<svg xmlns="http://www.w3.org/2000/svg" viewBox="0 0 75 75"><title>twitter</title><g data-name="Layer 1"><path d="M37.5 4A33.5 33.5 0 1 1 4 37.5 33.54 33.54 0 0 1 37.5 4m0-4A37.5 37.5 0 1 0 75 37.5 37.5 37.5 0 0 0 37.5 0z" data-name="&amp;lt;Group&amp;gt;"/><path d="M55.34 24.57a14.82 14.82 0 0 1-4.78 1.87A7.42 7.42 0 0 0 45.07 24a7.62 7.62 0 0 0-7.52 7.71 7.87 7.87 0 0 0 .19 1.76 21.18 21.18 0 0 1-15.51-8.06 7.85 7.85 0 0 0-1 3.88 7.76 7.76 0 0 0 3.35 6.42 7.38 7.38 0 0 1-3.41-1v.09a7.67 7.67 0 0 0 6 7.56 7.17 7.17 0 0 1-2 .27 7.31 7.31 0 0 1-1.42-.14 7.55 7.55 0 0 0 7 5.35 14.85 14.85 0 0 1-9.34 3.3 15.05 15.05 0 0 1-1.79-.11 20.94 20.94 0 0 0 11.53 3.46c13.84 0 21.4-11.75 21.4-21.95v-1a15.44 15.44 0 0 0 3.75-4 14.7 14.7 0 0 1-4.3 1.29 7.7 7.7 0 0 0 3.34-4.26z"/></g></svg>