<svg height="30" viewBox="0 0 30 30" width="30" xmlns="http://www.w3.org/2000/svg"><path d="M6 6.118v19.987l16 1.778V17a1 1 0 0 1 .4-.8L24 15v-1.5l-1.6-1.2a1 1 0 0 1-.4-.8V7.896zM24 17.5V29a1 1 0 0 1-1.11.994l-18-2A1 1 0 0 1 4 27V5a1 1 0 0 1 1.11-.993l18 2A1 1 0 0 1 24 7v4l1.6 1.2a1 1 0 0 1 .4.8v2.5a1 1 0 0 1-.4.8zm-6.07 3.943l-8.053-.894c-1.325-.148-1.104-2.135.221-1.988l8.053.895c1.325.147 1.104 2.135-.221 1.987zm0-5l-8.053-.894c-1.325-.148-1.104-2.135.221-1.988l8.053.895c1.325.147 1.104 2.135-.221 1.987zM5.243 5.971a1 1 0 1 1-.486-1.94l16-4A1 1 0 0 1 22 1v5a1 1 0 0 1-2 0V2.28z" fill="#0098a0"/></svg>