<svg xmlns="http://www.w3.org/2000/svg" xmlns:xlink="http://www.w3.org/1999/xlink" width="30" height="30" viewBox="0 0 30 30"><defs><path id="a" d="M12.839 14.517v.966h-.197c-1.497 0-2.707 1.192-2.707 2.64 0 1.438 1.154 2.67 2.647 2.67h2.45c.326 0 .71.398.71.724 0 .318-.338.724-.771.724h-3.584a.964.964 0 1 0 0 1.931h1.452v.966a.97.97 0 1 0 1.935 0v-.966h.197c1.497 0 2.706-1.207 2.706-2.655a2.648 2.648 0 0 0-2.646-2.655h-2.45c-.326 0-.71-.412-.71-.74 0-.317.338-.708.771-.708h3.584a.964.964 0 1 0 0-1.931h-1.452v-.966a.965.965 0 0 0-1.073-.98.966.966 0 0 0-.862.98zM9 7h10a1 1 0 0 1 0 2H9a1 1 0 1 1 0-2zm0 3h10a1 1 0 0 1 0 2H9a1 1 0 0 1 0-2zM6 5v23h16V5H6zm0-2h16a2 2 0 0 1 2 2v23a2 2 0 0 1-2 2H6a2 2 0 0 1-2-2V5a2 2 0 0 1 2-2zm3-1a1 1 0 1 1 0-2h16a2 2 0 0 1 2 2v21a1 1 0 0 1-2 0V2H9z"/></defs><use fill="#0098A0" xlink:href="#a" fill-rule="evenodd"/></svg>