<svg height="30" viewBox="0 0 30 30" width="30" xmlns="http://www.w3.org/2000/svg"><path d="M15.82 20.595H18a1 1 0 0 1 0 2h-4.761c-.026.228.007.458.105.668.317.682 1.233.97 2.064.582l.793-.37a1 1 0 1 1 .845 1.813l-.793.37c-1.797.838-3.92.171-4.722-1.55a3.216 3.216 0 0 1-.3-1.513H11a1 1 0 1 1 0-2h.989c.313-.4.715-.744 1.191-1H11a1 1 0 1 1 0-2h4.761a1.242 1.242 0 0 0-.105-.668c-.317-.682-1.233-.97-2.064-.582l-.793.37a1 1 0 0 1-.845-1.813l.793-.37c1.797-.838 3.92-.171 4.722 1.55.228.489.322 1.005.3 1.513H18a1 1 0 0 1 0 2h-.989c-.313.4-.715.744-1.191 1zM9 7h10a1 1 0 0 1 0 2H9a1 1 0 1 1 0-2zm0 3h10a1 1 0 0 1 0 2H9a1 1 0 0 1 0-2zM6 5v23h16V5zm0-2h16a2 2 0 0 1 2 2v23a2 2 0 0 1-2 2H6a2 2 0 0 1-2-2V5a2 2 0 0 1 2-2zm3-1a1 1 0 1 1 0-2h16a2 2 0 0 1 2 2v21a1 1 0 0 1-2 0V2z" fill="#fff" fill-rule="evenodd"/></svg>