<svg height="30" viewBox="0 0 30 30" width="30" xmlns="http://www.w3.org/2000/svg"><path d="M8 4h15a2 2 0 0 1 2 2v18a2 2 0 0 1-2 2H8a2 2 0 0 1-2-2V6a2 2 0 0 1 2-2zm15 20V6H8v18zM13.524 9.793a.97.97 0 0 1 .09 0h6.678a.964.964 0 1 1 0 1.931h-6.678a.965.965 0 1 1-.09-1.931zM10.3 9.8a1 1 0 1 1 0 2 1 1 0 0 1 0-2zm0 4.3a1 1 0 1 1 0 2 1 1 0 0 1 0-2zm0 4.3a1 1 0 1 1 0 2 1 1 0 0 1 0-2zm3.224-4.262a.97.97 0 0 1 .09 0h6.678a.964.964 0 1 1 0 1.931h-6.678a.965.965 0 1 1-.09-1.931zm0 4.345a.97.97 0 0 1 .09 0h2.807a.964.964 0 1 1 0 1.931h-2.807a.965.965 0 1 1-.09-1.931z" fill="#0098a0"/></svg>