<svg xmlns="http://www.w3.org/2000/svg" width="176" height="196" viewBox="0 0 176 196"><defs><filter id="a" width="137.5%" height="203.5%" x="-18.7%" y="-51.7%" filterUnits="objectBoundingBox"><feGaussianBlur in="SourceGraphic" stdDeviation="8.124"/></filter><linearGradient id="b" x1="-170.718%" x2="71.149%" y1="141.335%" y2="22.517%"><stop offset="0%" stop-color="#FFF"/><stop offset="100%" stop-color="#FFF" stop-opacity="0"/></linearGradient><linearGradient id="c" x1="-17.201%" x2="71.149%" y1="-40.489%" y2="22.517%"><stop offset="0%" stop-color="#FFF"/><stop offset="100%" stop-color="#FFF" stop-opacity="0"/></linearGradient><linearGradient id="d" x1="-208.23%" y1="-47.06%" y2="36.39%"><stop offset="0%" stop-color="#FFF"/><stop offset="100%" stop-color="#FFF" stop-opacity="0"/></linearGradient><linearGradient id="e" x1="255.159%" x2="-2.686%" y1="62.838%" y2="62.838%"><stop offset="0%" stop-color="#BDD1FF"/><stop offset="100%" stop-color="#1E3CC9"/></linearGradient></defs><g fill="none" fill-rule="evenodd"><path stroke="#0F1D66" stroke-linecap="round" stroke-linejoin="round" stroke-width="3" filter="url(#a)" d="M29.099 134.544L19 140.333 80.546 176 157 132.256 146.213 126"/><path fill="url(#b)" fill-opacity=".45" stroke="#FFF" stroke-linecap="round" stroke-linejoin="round" d="M78.803 95L168 43.806 96.142 2 7 53.258z"/><path fill="url(#c)" fill-opacity=".45" stroke="#FFF" stroke-linecap="round" stroke-linejoin="round" d="M79 94.401V173l89-52.763V43z"/><path fill="url(#d)" fill-opacity=".45" stroke="#FFF" stroke-linecap="round" stroke-linejoin="round" d="M7.043 53L79 94.633 78.986 173 7 132.956z"/><path stroke="#1E3CC9" stroke-linecap="round" stroke-linejoin="round" stroke-width="3" d="M78.803 95L168 43.806 96.142 2 7 53.258z"/><path stroke="#1E3CC9" stroke-linecap="round" stroke-linejoin="round" stroke-width="3" d="M79 94.401V173l89-52.763V43zM7.043 53L79 94.633 78.986 173 7 132.956z"/><path fill="url(#e)" d="M69.907 126.006L70 152.665a2.327 2.327 0 0 1-3.064 2.215 4.489 4.489 0 0 1-3.067-4.268l.062-26.744a2.232 2.232 0 0 1 2.986-2.096 4.515 4.515 0 0 1 2.99 4.234zM57.962 99.378l-.027 46.169a1.974 1.974 0 0 1-2.99 1.69 6.171 6.171 0 0 1-2.993-5.282l-.059-46.076a2.023 2.023 0 0 1 3.034-1.756 6.06 6.06 0 0 1 3.035 5.255zm-12.02-8.7l.04 24.987a2.322 2.322 0 0 1-3.013 2.221 4.307 4.307 0 0 1-3.025-4.103l-.05-25.126a2.292 2.292 0 0 1 3.019-2.178 4.435 4.435 0 0 1 3.03 4.2zm-11.965 16.424l.068 24.823a2.307 2.307 0 0 1-3.069 2.184 4.583 4.583 0 0 1-3.07-4.334l.048-24.767a2.265 2.265 0 0 1 3.01-2.135 4.491 4.491 0 0 1 3.013 4.229zM22.18 78.548l-.157 46.082a2.01 2.01 0 0 1-3.018 1.732A6.03 6.03 0 0 1 16 121.143l.022-46.075a2.069 2.069 0 0 1 3.086-1.8 6.04 6.04 0 0 1 3.072 5.28zm71.774 19.21a1.959 1.959 0 0 1 2.96 1.68l.08 49.722a5.932 5.932 0 0 1-2.91 5.114 1.939 1.939 0 0 1-2.927-1.663l-.147-49.658a6.025 6.025 0 0 1 2.944-5.195zm11.894-7.118a1.912 1.912 0 0 1 2.866 1.647l.268 49.83a5.944 5.944 0 0 1-2.915 5.146 1.948 1.948 0 0 1-2.94-1.672l-.12-50.025a5.67 5.67 0 0 1 2.841-4.926zm12.032-6.9a1.908 1.908 0 0 1 2.894 1.625l.212 49.94a5.759 5.759 0 0 1-2.915 5.032 1.967 1.967 0 0 1-2.938-1.706l-.125-49.785a5.948 5.948 0 0 1 2.872-5.106zm10.976-6.926a1.87 1.87 0 0 1 2.873 1.57l.254 50.06a5.63 5.63 0 0 1-2.856 4.93 1.935 1.935 0 0 1-2.888-1.676l-.224-49.686a6.125 6.125 0 0 1 2.84-5.198zm13.14-7.028a1.981 1.981 0 0 1 2.995 1.701l.008 49.937a5.651 5.651 0 0 1-2.968 4.975 2.016 2.016 0 0 1-2.973-1.772l-.054-49.567a6.133 6.133 0 0 1 2.991-5.274zm10.833-6.092a1.882 1.882 0 0 1 2.849 1.603l.302 49.866a5.911 5.911 0 0 1-2.867 5.102 1.915 1.915 0 0 1-2.901-1.633l-.199-49.947a5.79 5.79 0 0 1 2.816-4.991z"/></g></svg>