<svg xmlns="http://www.w3.org/2000/svg" width="153" height="169" viewBox="0 0 153 169"><defs><filter id="a" width="153.6%" height="248%" x="-26.8%" y="-74%" filterUnits="objectBoundingBox"><feGaussianBlur in="SourceGraphic" stdDeviation="10.066"/></filter><linearGradient id="b" x1="-170.718%" x2="71.149%" y1="141.335%" y2="22.517%"><stop offset="0%"/><stop offset="100%" stop-opacity="0"/></linearGradient><linearGradient id="c" x1="-17.201%" x2="71.149%" y1="-40.489%" y2="22.517%"><stop offset="0%"/><stop offset="100%" stop-opacity="0"/></linearGradient><linearGradient id="d" x1="-208.23%" y1="-47.06%" y2="36.39%"><stop offset="0%"/><stop offset="100%" stop-opacity="0"/></linearGradient><linearGradient id="e" x1="76.727%" x2="76.727%" y1="0%" y2="105.404%"><stop offset="0%" stop-color="#0070FF"/><stop offset="100%" stop-color="#0E43EF"/></linearGradient></defs><g fill="none" fill-rule="evenodd"><path stroke="#0F1D66" stroke-linecap="round" stroke-linejoin="round" stroke-width="3.717" filter="url(#a)" d="M19.32 115.083l-8.755 5.015L63.921 151l66.28-37.899-9.352-5.421" transform="translate(6 1)"/><path fill="url(#b)" fill-opacity=".45" stroke="#FFF" stroke-linecap="round" stroke-linejoin="round" stroke-width="1.239" d="M61.978 80.473l76.949-43.999L76.936.543.035 44.597z" transform="translate(6 1)"/><path fill="url(#c)" fill-opacity=".45" stroke="#FFF" stroke-linecap="round" stroke-linejoin="round" stroke-width="1.239" d="M61.989 80.468v67.602l77.3-45.382v-66.43z" transform="translate(6 1)"/><path fill="url(#d)" fill-opacity=".45" stroke="#FFF" stroke-linecap="round" stroke-linejoin="round" stroke-width="1.239" d="M.037 44.569l61.94 35.913-.012 67.6L0 113.54z" transform="translate(6 1)"/><path stroke="#0070FF" stroke-linecap="round" stroke-linejoin="round" stroke-width="3" d="M67.978 81.473l76.949-43.999L82.936 1.543 6.035 45.597z"/><path stroke="#0070FF" stroke-linecap="round" stroke-linejoin="round" stroke-width="3" d="M67.989 81.468v67.602l77.3-45.382v-66.43zM6.037 45.569l61.94 35.913-.012 67.6L6 114.54z"/><path fill="url(#e)" d="M54.35 107.595l.08 23.042a2.011 2.011 0 0 1-2.648 1.914 3.88 3.88 0 0 1-2.651-3.689l.053-23.115a1.93 1.93 0 0 1 2.581-1.812 3.902 3.902 0 0 1 2.584 3.66zM44.025 84.58l-.024 39.905a1.706 1.706 0 0 1-2.584 1.46 5.334 5.334 0 0 1-2.586-4.564l-.05-39.826a1.749 1.749 0 0 1 2.62-1.517 5.238 5.238 0 0 1 2.624 4.542zm-10.388-7.52l.035 21.597a2.007 2.007 0 0 1-2.604 1.92 3.722 3.722 0 0 1-2.614-3.546l-.043-21.718a1.98 1.98 0 0 1 2.608-1.882 3.833 3.833 0 0 1 2.618 3.63zm-10.34 14.195l.058 21.456a1.994 1.994 0 0 1-2.652 1.888 3.96 3.96 0 0 1-2.653-3.747l.041-21.407a1.958 1.958 0 0 1 2.602-1.845 3.882 3.882 0 0 1 2.604 3.655zm-10.196-24.68l-.135 39.831a1.737 1.737 0 0 1-2.609 1.497 5.212 5.212 0 0 1-2.596-4.511l.019-39.824a1.788 1.788 0 0 1 2.667-1.557 5.22 5.22 0 0 1 2.654 4.565zM74.895 83.45a1.7 1.7 0 0 1 2.565 1.462l.069 42.728a5.11 5.11 0 0 1-2.523 4.415 1.684 1.684 0 0 1-2.536-1.447l-.127-42.673a5.19 5.19 0 0 1 2.552-4.485zm10.376-6.02a1.687 1.687 0 0 1 2.515 1.459l.235 42.796a5.14 5.14 0 0 1-2.558 4.472 1.718 1.718 0 0 1-2.581-1.481l-.104-42.965a4.904 4.904 0 0 1 2.493-4.282zm10.352-5.935a1.7 1.7 0 0 1 2.563 1.458l.187 42.925a5 5 0 0 1-2.581 4.398 1.753 1.753 0 0 1-2.602-1.53l-.11-42.792a5.158 5.158 0 0 1 2.543-4.46zm10.153-5.988a1.668 1.668 0 0 1 2.544 1.412l.224 42.862a4.875 4.875 0 0 1-2.528 4.299 1.726 1.726 0 0 1-2.556-1.505l-.197-42.54a5.29 5.29 0 0 1 2.513-4.528zm10.504-5.85a1.705 1.705 0 0 1 2.578 1.464l.007 42.95c0 1.788-.98 3.432-2.554 4.28a1.735 1.735 0 0 1-2.557-1.525l-.047-42.632a5.275 5.275 0 0 1 2.573-4.537zm10.232-5.873a1.704 1.704 0 0 1 2.552 1.467l.27 42.63a5.125 5.125 0 0 1-2.568 4.473 1.733 1.733 0 0 1-2.599-1.495l-.177-42.7a5.021 5.021 0 0 1 2.522-4.375z" transform="translate(6 1)"/></g></svg>