<svg width="132" height="23" viewBox="0 0 132 23" xmlns="http://www.w3.org/2000/svg" xmlns:xlink="http://www.w3.org/1999/xlink">
  <g id="Page-1" stroke="none" stroke-width="1" fill="none" fill-rule="evenodd">
    <g id="logo" fill="#1E3CC9">
      <path d="M12.3608142,0.442307692 L17.4319174,0.442307692 L17.4319174,22.5576923 L13.62859,22.5576923 L5.07110326,10.5521978 L5.07110326,22.5576923 L0,22.5576923 L0,0.442307692 L3.80332744,0.442307692 L12.3608142,12.4478022 L12.3608142,0.442307692 Z M32.4346129,23 C26.0640394,23 20.897853,18.0082418 20.897853,11.5 C20.897853,4.99175824 26.0640394,0 32.4346129,0 C38.8051863,0 43.9713728,4.99175824 43.9713728,11.5 C43.9713728,18.0082418 38.8051863,23 32.4346129,23 Z M32.4346129,18.0714286 C36.0477739,18.0714286 38.9002695,15.4491758 38.9002695,11.5 C38.9002695,7.55082418 36.0477739,4.92857143 32.4346129,4.92857143 C28.8214518,4.92857143 25.9689562,7.55082418 25.9689562,11.5 C25.9689562,15.4491758 28.8214518,18.0714286 32.4346129,18.0714286 Z M59.7981225,0.442307692 L64.8692258,0.442307692 L64.8692258,22.5576923 L61.0658983,22.5576923 L52.5084116,10.5521978 L52.5084116,22.5576923 L47.4373083,22.5576923 L47.4373083,0.442307692 L51.2406357,0.442307692 L59.7981225,12.4478022 L59.7981225,0.442307692 Z M83.3899991,22.5576923 L82.2806952,19.0824176 L74.0401524,19.0824176 L72.9308486,22.5576923 L67.3843294,22.5576923 L74.9275955,0.442307692 L81.3932522,0.442307692 L88.9365183,22.5576923 L83.3899991,22.5576923 Z M75.5614834,14.3434066 L80.7593643,14.3434066 L78.1604238,6.2239011 L75.5614834,14.3434066 Z M113.637699,0.442307692 L113.637699,22.5576923 L108.566595,22.5576923 L108.566595,9.69917582 L102.82991,19.0824176 L102.259411,19.0824176 L96.5227252,9.69917582 L96.5227252,22.5576923 L91.4516219,22.5576923 L91.4516219,0.442307692 L96.5227252,0.442307692 L102.54466,10.2678571 L108.566595,0.442307692 L113.637699,0.442307692 Z M123.125569,17.6923077 L132,17.6923077 L132,22.5576923 L118.054466,22.5576923 L118.054466,0.442307692 L131.841528,0.442307692 L131.841528,5.30769231 L123.125569,5.30769231 L123.125569,8.97252747 L131.049168,8.97252747 L131.049168,13.7747253 L123.125569,13.7747253 L123.125569,17.6923077 Z" id="NONAME"></path>
    </g>
  </g>
</svg>