<svg xmlns="http://www.w3.org/2000/svg">
    <symbol id="accountability" viewBox="0 0 65 65">
       <!-- Generator: Sketch 47.1 (45422) - http://www.bohemiancoding.com/sketch --> <title>noun_996175_cc</title> <desc>Created with Sketch.</desc>  <g id="Design" stroke="none" stroke-width="1"> <g id="Homepage" transform="translate(-768.000000, -1354.000000)"> <g id="Group-12" transform="translate(570.000000, 1120.000000)"> <g id="noun_996175_cc" transform="translate(198.000000, 234.000000)"> <g id="Group"> <polygon id="Shape" points="0.7 43 21.3 43 21.3 64.5 22.8 64.5 22.8 41.5 0.7 41.5"/> <path d="M17.1,56.6 L17.1,47.2 L8.5,47.2 C8.2,45.8 6.9,44.7 5.4,44.7 C3.6,44.7 2.2,46.1 2.2,47.9 C2.2,49.7 3.6,51.1 5.4,51.1 C6.9,51.1 8.2,50 8.5,48.6 L15.6,48.6 L15.6,56.5 C14.2,56.8 13.1,58.1 13.1,59.6 C13.1,61.4 14.5,62.8 16.3,62.8 C18.1,62.8 19.5,61.4 19.5,59.6 C19.5,58.2 18.5,57 17.1,56.6 Z M5.4,49.7 C4.4,49.7 3.7,48.9 3.7,48 C3.7,47.1 4.5,46.3 5.4,46.3 C6.3,46.3 7.1,47 7.1,48 C7.1,48.9 6.3,49.7 5.4,49.7 Z M16.3,61.5 C15.3,61.5 14.6,60.7 14.6,59.8 C14.6,58.8 15.4,58.1 16.3,58.1 C17.3,58.1 18,58.9 18,59.8 C18,60.7 17.3,61.5 16.3,61.5 Z" id="Shape"/> <polygon id="Shape" points="42.2 64.5 43.7 64.5 43.7 43 64.3 43 64.3 41.5 42.2 41.5"/> <path d="M59.6,44.8 C58.1,44.8 56.8,45.9 56.5,47.3 L47.9,47.3 L47.9,56.7 C46.5,57 45.4,58.3 45.4,59.8 C45.4,61.6 46.8,63 48.6,63 C50.4,63 51.8,61.6 51.8,59.8 C51.8,58.3 50.7,57 49.3,56.7 L49.3,48.8 L56.4,48.8 C56.7,50.2 58,51.3 59.5,51.3 C61.3,51.3 62.7,49.9 62.7,48.1 C62.8,46.2 61.4,44.8 59.6,44.8 Z M50.4,59.7 C50.4,60.7 49.6,61.4 48.7,61.4 C47.8,61.4 47,60.7 47,59.7 C47,58.7 47.8,58 48.7,58 C49.6,58 50.4,58.8 50.4,59.7 Z M59.6,49.7 C58.6,49.7 57.9,48.9 57.9,48 C57.9,47.1 58.7,46.3 59.6,46.3 C60.6,46.3 61.3,47.1 61.3,48 C61.3,48.9 60.6,49.7 59.6,49.7 Z" id="Shape"/> <polygon id="Shape" points="21.3 22 0.7 22 0.7 23.5 22.8 23.5 22.8 0.5 21.3 0.5"/> <path d="M5.4,20.2 C6.9,20.2 8.2,19.1 8.5,17.7 L17.1,17.7 L17.1,8.4 C18.5,8.1 19.6,6.8 19.6,5.3 C19.6,3.5 18.2,2.1 16.4,2.1 C14.6,2.1 13.2,3.5 13.2,5.3 C13.2,6.8 14.3,8.1 15.7,8.4 L15.7,16.3 L8.5,16.3 C8.2,14.9 6.9,13.8 5.4,13.8 C3.6,13.8 2.2,15.2 2.2,17 C2.2,18.8 3.6,20.2 5.4,20.2 Z M14.6,5.3 C14.6,4.3 15.4,3.6 16.3,3.6 C17.3,3.6 18,4.4 18,5.3 C18,6.2 17.3,7 16.3,7 C15.4,7 14.6,6.2 14.6,5.3 Z M5.4,15.3 C6.4,15.3 7.1,16.1 7.1,17 C7.1,18 6.3,18.7 5.4,18.7 C4.5,18.7 3.7,18 3.7,17 C3.7,16.1 4.4,15.3 5.4,15.3 Z" id="Shape"/> <polygon id="Shape" points="43.7 22 43.7 0.5 42.2 0.5 42.2 23.5 64.3 23.5 64.3 22"/> <path d="M47.9,8.4 L47.9,17.8 L56.5,17.8 C56.8,19.2 58.1,20.3 59.6,20.3 C61.4,20.3 62.8,18.9 62.8,17.1 C62.8,15.3 61.4,13.9 59.6,13.9 C58.1,13.9 56.8,15 56.5,16.4 L49.4,16.4 L49.4,8.4 C50.8,8.1 51.9,6.8 51.9,5.3 C51.9,3.5 50.5,2.1 48.7,2.1 C46.9,2.1 45.5,3.5 45.5,5.3 C45.5,6.8 46.5,8 47.9,8.4 Z M59.6,15.3 C60.6,15.3 61.3,16.1 61.3,17 C61.3,18 60.5,18.7 59.6,18.7 C58.6,18.7 57.9,17.9 57.9,17 C57.9,16.1 58.7,15.3 59.6,15.3 Z M48.7,3.5 C49.7,3.5 50.4,4.3 50.4,5.2 C50.4,6.1 49.6,7 48.7,7 C47.8,7 47,6.2 47,5.3 C47,4.4 47.7,3.5 48.7,3.5 Z" id="Shape"/> <rect id="Rectangle-path" x="28.1" y="29.7" width="1.5" height="1.5"/> <rect id="Rectangle-path" x="28.1" y="24.9" width="1.5" height="1.5"/> <rect id="Rectangle-path" x="28.1" y="34.5" width="1.5" height="1.5"/> <rect id="Rectangle-path" x="28.1" y="10.5" width="1.5" height="1.5"/> <rect id="Rectangle-path" x="28.1" y="15.3" width="1.5" height="1.5"/> <rect id="Rectangle-path" x="28.1" y="20.1" width="1.5" height="1.5"/> <rect id="Rectangle-path" x="28.1" y="53.7" width="1.5" height="1.5"/> <rect id="Rectangle-path" x="28.1" y="58.5" width="1.5" height="1.5"/> <rect id="Rectangle-path" x="28.1" y="44.1" width="1.5" height="1.5"/> <rect id="Rectangle-path" x="28.1" y="39.3" width="1.5" height="1.5"/> <rect id="Rectangle-path" x="28.1" y="48.9" width="1.5" height="1.5"/> <rect id="Rectangle-path" x="28.1" y="5.7" width="1.5" height="1.5"/> <rect id="Rectangle-path" x="34.9" y="20.1" width="1.5" height="1.5"/> <rect id="Rectangle-path" x="34.9" y="24.9" width="1.5" height="1.5"/> <rect id="Rectangle-path" x="34.9" y="29.7" width="1.5" height="1.5"/> <rect id="Rectangle-path" x="34.9" y="5.7" width="1.5" height="1.5"/> <rect id="Rectangle-path" x="34.9" y="34.5" width="1.5" height="1.5"/> <rect id="Rectangle-path" x="34.9" y="15.3" width="1.5" height="1.5"/> <rect id="Rectangle-path" x="34.9" y="10.5" width="1.5" height="1.5"/> <rect id="Rectangle-path" x="34.9" y="53.7" width="1.5" height="1.5"/> <rect id="Rectangle-path" x="34.9" y="39.3" width="1.5" height="1.5"/> <rect id="Rectangle-path" x="34.9" y="44.1" width="1.5" height="1.5"/> <rect id="Rectangle-path" x="34.9" y="48.9" width="1.5" height="1.5"/> <rect id="Rectangle-path" x="34.9" y="58.5" width="1.5" height="1.5"/> <rect id="Rectangle-path" x="12.6" y="34.7" width="1.5" height="1.5"/> <rect id="Rectangle-path" x="16.8" y="34.7" width="1.5" height="1.5"/> <rect id="Rectangle-path" x="4.2" y="34.7" width="1.5" height="1.5"/> <rect id="Rectangle-path" x="8.4" y="34.7" width="1.5" height="1.5"/> <rect id="Rectangle-path" x="21" y="34.7" width="1.5" height="1.5"/> <rect id="Rectangle-path" x="4.2" y="29" width="1.5" height="1.5"/> <rect id="Rectangle-path" x="16.8" y="29" width="1.5" height="1.5"/> <rect id="Rectangle-path" x="21" y="29" width="1.5" height="1.5"/> <rect id="Rectangle-path" x="8.4" y="29" width="1.5" height="1.5"/> <rect id="Rectangle-path" x="12.6" y="29" width="1.5" height="1.5"/> <rect id="Rectangle-path" x="55.2" y="29" width="1.5" height="1.5"/> <rect id="Rectangle-path" x="51" y="29" width="1.5" height="1.5"/> <rect id="Rectangle-path" x="42.6" y="29" width="1.5" height="1.5"/> <rect id="Rectangle-path" x="59.4" y="29" width="1.5" height="1.5"/> <rect id="Rectangle-path" x="46.8" y="29" width="1.5" height="1.5"/> <rect id="Rectangle-path" x="59.4" y="34.7" width="1.5" height="1.5"/> <rect id="Rectangle-path" x="42.6" y="34.7" width="1.5" height="1.5"/> <rect id="Rectangle-path" x="46.8" y="34.7" width="1.5" height="1.5"/> <rect id="Rectangle-path" x="51" y="34.7" width="1.5" height="1.5"/> <rect id="Rectangle-path" x="55.2" y="34.7" width="1.5" height="1.5"/> </g> </g> </g> </g> </g> 
    </symbol>
    <symbol id="cloud-based" viewBox="0 0 60 52">
       <!-- Generator: Sketch 47.1 (45422) - http://www.bohemiancoding.com/sketch --> <title>Group</title> <desc>Created with Sketch.</desc>  <g id="Design" stroke="none" stroke-width="1"> <g id="Homepage" transform="translate(-951.000000, -1360.000000)"> <g id="Group-12" transform="translate(570.000000, 1120.000000)"> <g id="Group" transform="translate(381.000000, 240.000000)"> <path d="M7.86,36.66 L16.68,36.66 L16.68,34.86 L7.86,34.86 C4.74,34.86 2.22,32.1 2.22,28.68 C2.22,23.76 5.4,19.32 9.84,18.12 L10.5,17.94 L10.5,17.28 C10.56,12.06 15,7.8 20.46,7.8 C21.66,7.8 22.86,8.04 24,8.46 L24.78,8.76 L25.14,7.98 C26.82,4.26 30.24,1.92 34.02,1.92 C39.48,1.92 43.98,6.78 43.98,12.78 C43.98,14.04 43.74,15.36 43.32,16.62 L42.9,17.82 L47.82,17.82 C53.28,17.82 57.78,22.68 57.78,28.68 C57.78,32.1 55.26,34.86 52.14,34.86 L43.38,34.86 L43.38,36.66 L52.14,36.66 C56.22,36.66 59.58,33.06 59.58,28.68 C59.58,21.66 54.3,16.02 47.82,16.02 L45.36,16.02 C45.6,14.94 45.78,13.86 45.78,12.78 C45.78,5.76 40.5,0.12 34.02,0.12 C29.76,0.12 25.92,2.52 23.82,6.48 C22.68,6.18 21.6,6 20.46,6 C14.28,6 9.18,10.68 8.76,16.62 C3.84,18.24 0.48,23.1 0.48,28.68 C0.42,33.06 3.78,36.66 7.86,36.66 Z" id="Shape"/> <polygon id="Shape" points="13.02 42.78 8.4 46.86 12.78 51.24 14.04 49.98 12 47.88 21.84 47.88 21.84 33.72 20.04 33.72 20.04 46.08 12 46.08 14.22 44.1"/> <polygon id="Shape" points="38.16 33.72 38.16 47.88 48 47.88 45.96 49.98 47.22 51.24 51.54 46.86 46.98 42.78 45.78 44.1 48 46.08 39.96 46.08 39.96 33.72"/> <polygon id="Shape" points="30.9 50.58 30.9 37.14 32.94 39.18 34.2 37.92 29.94 33.66 25.74 38.16 27.06 39.36 29.1 37.2 29.1 50.58"/> </g> </g> </g> </g> 
    </symbol>
    <symbol id="complete" viewBox="0 0 20 20">
       <g fill="#9C0" fill-rule="evenodd"> <path d="M8.01856114,12.2723047 L14.0401049,5.43665493 C14.4303038,4.99370154 15.1187622,4.93983884 15.5778198,5.31634922 C16.0368773,5.69285961 16.0926983,6.35716625 15.7024994,6.80011965 L8.74803157,14.6948238 C8.27976341,15.2264013 7.41485024,15.1793421 7.01148133,14.6003396 L4.14787695,10.4898738 C3.81175733,10.0074021 3.94461889,9.3533615 4.44463154,9.02903328 C4.94464419,8.70470505 5.62246332,8.8329057 5.95858294,9.31537744 L8.01856114,12.2723047 Z"/> </g> 
    </symbol>
    <symbol id="fail" viewBox="0 0 20 20">
       <g fill="#E62600" fill-rule="evenodd"> <path d="M10,8.30294373 L13.9514719,4.35147186 C14.420101,3.88284271 15.179899,3.88284271 15.6485281,4.35147186 C16.1171573,4.82010101 16.1171573,5.57989899 15.6485281,6.04852814 L11.6970563,10 L15.6485281,13.9514719 C16.1171573,14.420101 16.1171573,15.179899 15.6485281,15.6485281 C15.179899,16.1171573 14.420101,16.1171573 13.9514719,15.6485281 L10,11.6970563 L6.04852814,15.6485281 C5.57989899,16.1171573 4.82010101,16.1171573 4.35147186,15.6485281 C3.88284271,15.179899 3.88284271,14.420101 4.35147186,13.9514719 L8.30294373,10 L4.35147186,6.04852814 C3.88284271,5.57989899 3.88284271,4.82010101 4.35147186,4.35147186 C4.82010101,3.88284271 5.57989899,3.88284271 6.04852814,4.35147186 L10,8.30294373 Z"/> </g> 
    </symbol>
    <symbol id="feauture" viewBox="0 0 86 86">
       <g> <g transform="translate(23.22 20.21)"> <path d="M19.78043,45.38693 L0.21156,34.0904 L0.21113,11.49261 L19.78043,0.19694 L39.34844,11.49261 L39.34973,34.08954 L19.78043,45.38693 Z M2.98592,32.48908 L19.78043,42.18429 L36.57537,32.48779 L36.57408,13.0935 L19.78043,3.39958 L2.98549,13.0935 L2.98592,32.48908 Z"/> <polygon points="19.78 24.392 .906 13.494 2.293 11.092 19.78 21.189 37.269 11.092 38.656 13.494"/> <rect width="2.774" height="20.996" x="18.393" y="22.79"/> </g> <polygon points="24.125 33.704 19.197 30.859 13.508 30.859 13.508 28.085 19.941 28.085 25.512 31.302"/> <polygon points="61.875 33.704 60.488 31.302 66.059 28.085 72.492 28.085 72.492 30.859 66.803 30.859"/> <polygon points="72.492 57.916 66.059 57.916 60.488 54.699 61.875 52.297 66.803 55.142 72.492 55.142"/> <polygon points="19.941 57.916 13.508 57.916 13.508 55.142 19.197 55.142 24.125 52.297 25.512 54.699"/> <rect width="2.774" height="8.5" x="41.613" y="13.508"/> <rect width="2.774" height="8.499" x="41.613" y="63.996"/> <g transform="translate(13.33 10.32)"> <rect width="3.082" height="2.774" x=".178" y=".26"/> <rect width="3.083" height="2.774" x="56.079" y=".26"/> <rect width="3.082" height="2.774" x=".178" y="62.329"/> <rect width="3.083" height="2.774" x="56.079" y="62.329"/> </g> <path d="M50.44846 14.89563L35.55283 14.89563 35.55283 0 50.44889 0 50.44889 14.89563 50.44846 14.89563zM38.32676 12.12127L47.6741 12.12127 47.6741 2.77436 38.32676 2.77436 38.32676 12.12127zM50.44846 86L35.55283 86 35.55283 71.10437 50.44889 71.10437 50.44889 86 50.44846 86zM38.32676 83.22607L47.6741 83.22607 47.6741 73.87873 38.32676 73.87873 38.32676 83.22607zM14.89563 36.76758L0 36.76758 0 21.87195 14.89563 21.87195 14.89563 36.76758zM2.77436 33.99365L12.1217 33.99365 12.1217 24.64631 2.77436 24.64631 2.77436 33.99365zM14.89563 64.12934L0 64.12934 0 49.23328 14.89563 49.23328 14.89563 64.12934zM2.77436 61.35498L12.1217 61.35498 12.1217 52.00807 2.77436 52.00807 2.77436 61.35498zM86 36.76758L71.10437 36.76758 71.10437 21.87195 86 21.87195 86 36.76758zM73.87873 33.99365L83.22607 33.99365 83.22607 24.64631 73.87873 24.64631 73.87873 33.99365zM86 64.12934L71.10437 64.12934 71.10437 49.23328 86 49.23328 86 64.12934zM73.87873 61.35498L83.22607 61.35498 83.22607 52.00807 73.87873 52.00807 73.87873 61.35498z"/> </g> 
    </symbol>
    <symbol id="logo" viewBox="0 0 133 23">
       <g id="Page-1" stroke="none" stroke-width="1" fill="none" fill-rule="evenodd"><g id="logo" fill="#1E3CC9"><path d="M12.3608142,0.442307692 L17.4319174,0.442307692 L17.4319174,22.5576923 L13.62859,22.5576923 L5.07110326,10.5521978 L5.07110326,22.5576923 L0,22.5576923 L0,0.442307692 L3.80332744,0.442307692 L12.3608142,12.4478022 L12.3608142,0.442307692 Z M32.4346129,23 C26.0640394,23 20.897853,18.0082418 20.897853,11.5 C20.897853,4.99175824 26.0640394,0 32.4346129,0 C38.8051863,0 43.9713728,4.99175824 43.9713728,11.5 C43.9713728,18.0082418 38.8051863,23 32.4346129,23 Z M32.4346129,18.0714286 C36.0477739,18.0714286 38.9002695,15.4491758 38.9002695,11.5 C38.9002695,7.55082418 36.0477739,4.92857143 32.4346129,4.92857143 C28.8214518,4.92857143 25.9689562,7.55082418 25.9689562,11.5 C25.9689562,15.4491758 28.8214518,18.0714286 32.4346129,18.0714286 Z M59.7981225,0.442307692 L64.8692258,0.442307692 L64.8692258,22.5576923 L61.0658983,22.5576923 L52.5084116,10.5521978 L52.5084116,22.5576923 L47.4373083,22.5576923 L47.4373083,0.442307692 L51.2406357,0.442307692 L59.7981225,12.4478022 L59.7981225,0.442307692 Z M83.3899991,22.5576923 L82.2806952,19.0824176 L74.0401524,19.0824176 L72.9308486,22.5576923 L67.3843294,22.5576923 L74.9275955,0.442307692 L81.3932522,0.442307692 L88.9365183,22.5576923 L83.3899991,22.5576923 Z M75.5614834,14.3434066 L80.7593643,14.3434066 L78.1604238,6.2239011 L75.5614834,14.3434066 Z M113.637699,0.442307692 L113.637699,22.5576923 L108.566595,22.5576923 L108.566595,9.69917582 L102.82991,19.0824176 L102.259411,19.0824176 L96.5227252,9.69917582 L96.5227252,22.5576923 L91.4516219,22.5576923 L91.4516219,0.442307692 L96.5227252,0.442307692 L102.54466,10.2678571 L108.566595,0.442307692 L113.637699,0.442307692 Z M123.125569,17.6923077 L132,17.6923077 L132,22.5576923 L118.054466,22.5576923 L118.054466,0.442307692 L131.841528,0.442307692 L131.841528,5.30769231 L123.125569,5.30769231 L123.125569,8.97252747 L131.049168,8.97252747 L131.049168,13.7747253 L123.125569,13.7747253 L123.125569,17.6923077 Z" id="NONAME"></path></g></g>
    </symbol>
    <symbol id="scroll-down" viewBox="0 0 48 48">
       <g fill="none" fill-rule="evenodd" stroke="#1E3CC9" stroke-width="2"> <path d="M1,24 C1,36.7025492 11.2974508,47 24,47 C36.7025492,47 47,36.7025492 47,24 C47,11.2974508 36.7025492,1 24,1 C11.2974508,1 1,11.2974508 1,24 Z"/> <polyline class="scroll-down__arrow-1" stroke-linecap="square" points="13 26 24 33 35 26"/> <polyline class="scroll-down__arrow-2" stroke-linecap="square" points="13 17 24 24 35 17"/> </g> 
    </symbol>
    <symbol id="security" viewBox="0 0 55 55">
       <!-- Generator: Sketch 47.1 (45422) - http://www.bohemiancoding.com/sketch --> <title>noun_1291336_cc</title> <desc>Created with Sketch.</desc>  <g id="Design" stroke="none" stroke-width="1"> <g id="Homepage" transform="translate(-593.000000, -1359.000000)"> <g id="Group-12" transform="translate(570.000000, 1120.000000)"> <g id="noun_1291336_cc" transform="translate(23.000000, 239.000000)"> <g id="Group"> <g transform="translate(14.850000, 12.925000)"> <path d="M12.650275,29.026525 L0.1353,21.802 L0.135025,7.349925 L12.650275,0.12595 L25.1647,7.349925 L25.165525,21.80145 L12.650275,29.026525 Z M1.9096,20.7779 L12.650275,26.978325 L23.391225,20.777075 L23.3904,8.37375 L12.650275,2.17415 L1.909325,8.37375 L1.9096,20.7779 Z" id="Shape"/> <polygon id="Shape" points="12.65 15.599375 0.57915 8.629775 1.4663 7.093625 12.65 13.5509 23.834525 7.093625 24.721675 8.629775"/> <rect id="Rectangle-path" x="11.763125" y="14.575" width="1.7743" height="13.427425"/> </g> <polygon id="Shape" points="15.4286 21.554775 12.277375 19.73565 8.639125 19.73565 8.639125 17.96135 12.753125 17.96135 16.31575 20.018625"/> <polygon id="Shape" points="39.5714 21.554775 38.68425 20.018625 42.246875 17.96135 46.360875 17.96135 46.360875 19.73565 42.722625 19.73565"/> <polygon id="Shape" points="46.360875 37.0392 42.246875 37.0392 38.68425 34.9822 39.5714 33.445775 42.722625 35.265175 46.360875 35.265175"/> <polygon id="Shape" points="12.753125 37.0392 8.639125 37.0392 8.639125 35.265175 12.277375 35.265175 15.4286 33.445775 16.31575 34.9822"/> <rect id="Rectangle-path" x="26.613125" y="8.639125" width="1.7743" height="5.435925"/> <rect id="Rectangle-path" x="26.613125" y="40.927425" width="1.7743" height="5.43565"/> <g transform="translate(8.525000, 6.600000)" id="Rectangle-path"> <rect x="0.114125" y="0.166375" width="1.9712" height="1.7743"/> <rect x="35.8644" y="0.166375" width="1.971475" height="1.7743"/> <rect x="0.114125" y="39.861525" width="1.9712" height="1.7743"/> <rect x="35.8644" y="39.861525" width="1.971475" height="1.7743"/> </g> <g id="Shape"> <path d="M32.26355,9.526275 L22.737275,9.526275 L22.737275,0 L32.263825,0 L32.263825,9.526275 L32.26355,9.526275 Z M24.5113,7.751975 L30.48925,7.751975 L30.48925,1.7743 L24.5113,1.7743 L24.5113,7.751975 Z"/> <path d="M32.26355,55 L22.737275,55 L22.737275,45.473725 L32.263825,45.473725 L32.263825,55 L32.26355,55 Z M24.5113,53.225975 L30.48925,53.225975 L30.48925,47.248025 L24.5113,47.248025 L24.5113,53.225975 Z"/> <path d="M9.526275,23.51415 L0,23.51415 L0,13.987875 L9.526275,13.987875 L9.526275,23.51415 Z M1.7743,21.740125 L7.75225,21.740125 L7.75225,15.762175 L1.7743,15.762175 L1.7743,21.740125 Z"/> <path d="M9.526275,41.01295 L0,41.01295 L0,31.4864 L9.526275,31.4864 L9.526275,41.01295 Z M1.7743,39.23865 L7.75225,39.23865 L7.75225,33.260975 L1.7743,33.260975 L1.7743,39.23865 Z"/> <path d="M55,23.51415 L45.473725,23.51415 L45.473725,13.987875 L55,13.987875 L55,23.51415 Z M47.248025,21.740125 L53.225975,21.740125 L53.225975,15.762175 L47.248025,15.762175 L47.248025,21.740125 Z"/> <path d="M55,41.01295 L45.473725,41.01295 L45.473725,31.4864 L55,31.4864 L55,41.01295 Z M47.248025,39.23865 L53.225975,39.23865 L53.225975,33.260975 L47.248025,33.260975 L47.248025,39.23865 Z"/> </g> </g> </g> </g> </g> </g> 
    </symbol></svg>