<?xml version="1.0" standalone="no"?>
  <!DOCTYPE svg PUBLIC "-//W3C//DTD SVG 1.1//EN" "http://www.w3.org/Graphics/SVG/1.1/DTD/svg11.dtd" >
  <svg>
  <metadata>
  Created by font-carrier
  </metadata>
  <defs>
  <font id="Heebo-Black" horiz-adv-x="2012" vert-adv-y="2012" >
    <font-face
      
      font-family="Heebo Black"
      
      font-weight="400"
      
      font-stretch="normal"
      
      units-per-em="2048"
      
      ascent="2146"
      
      descent="-862"
      
    />
      <missing-glyph />

      

      
      <glyph glyph-name="uni41" unicode="&#x41;" d="M935 241L467 241L393 0L-8 0L523 1456L777 1456L877 1456L1411 0L1009 0L935 241M842 543L700 1003L559 543L842 543Z"  horiz-adv-x="1402" vert-adv-y="2048"  />

      
      <glyph glyph-name="unic1" unicode="&#xc1;" d="M0 0M935 241L467 241L393 0L-8 0L523 1456L777 1456L877 1456L1411 0L1009 0L935 241M842 543L700 1003L559 543L842 543M1095 1846L817 1527L524 1527L722 1846L1095 1846Z"  horiz-adv-x="1402" vert-adv-y="2048"  />

      
      <glyph glyph-name="unic2" unicode="&#xc2;" d="M0 0M935 241L467 241L393 0L-8 0L523 1456L777 1456L877 1456L1411 0L1009 0L935 241M842 543L700 1003L559 543L842 543M1146 1549L865 1549L703 1676L542 1549L267 1549L267 1568L601 1845L806 1845L1146 1563L1146 1549Z"  horiz-adv-x="1402" vert-adv-y="2048"  />

      
      <glyph glyph-name="unic4" unicode="&#xc4;" d="M0 0M935 241L467 241L393 0L-8 0L523 1456L777 1456L877 1456L1411 0L1009 0L935 241M842 543L700 1003L559 543L842 543M966 1815Q1008 1815 1044 1796.50Q1080 1778 1101.50 1746Q1123 1714 1123 1675Q1123 1636 1101.50 1604Q1080 1572 1044 1553.50Q1008 1535 966 1535Q924 1535 888.50 1553.50Q853 1572 831.50 1604Q810 1636 810 1675Q810 1714 831.50 1746Q853 1778 888.50 1796.50Q924 1815 966 1815M433 1814Q475 1814 511 1795.50Q547 1777 568.50 1745Q590 1713 590 1674Q590 1635 568.50 1603Q547 1571 511 1552.50Q475 1534 433 1534Q391 1534 355.50 1552.50Q320 1571 298.50 1603Q277 1635 277 1674Q277 1713 298.50 1745Q320 1777 355.50 1795.50Q391 1814 433 1814Z"  horiz-adv-x="1402" vert-adv-y="2048"  />

      
      <glyph glyph-name="unic0" unicode="&#xc0;" d="M0 0M935 241L467 241L393 0L-8 0L523 1456L777 1456L877 1456L1411 0L1009 0L935 241M842 543L700 1003L559 543L842 543M622 1527L337 1846L711 1846L911 1527L622 1527Z"  horiz-adv-x="1402" vert-adv-y="2048"  />

      
      <glyph glyph-name="unic5" unicode="&#xc5;" d="M0 0M935 241L467 241L393 0L-8 0L523 1456L777 1456L877 1456L1411 0L1009 0L935 241M842 543L700 1003L559 543L842 543M705 1929Q769 1929 821 1901.50Q873 1874 902 1828Q931 1782 931 1728Q931 1674 902 1629Q873 1584 821.50 1557.50Q770 1531 705 1531Q641 1531 589.50 1557.50Q538 1584 509 1629Q480 1674 480 1728Q480 1782 509 1828Q538 1874 589.50 1901.50Q641 1929 705 1929M705 1627Q752 1627 779.50 1655.50Q807 1684 807 1728Q807 1772 779.50 1801Q752 1830 705 1830Q658 1830 631 1801Q604 1772 604 1728Q604 1683 631 1655Q658 1627 705 1627Z"  horiz-adv-x="1402" vert-adv-y="2048"  />

      
      <glyph glyph-name="unic3" unicode="&#xc3;" d="M0 0M935 241L467 241L393 0L-8 0L523 1456L777 1456L877 1456L1411 0L1009 0L935 241M842 543L700 1003L559 543L842 543M1092 1844Q1092 1771 1062.50 1706.50Q1033 1642 979.50 1602.50Q926 1563 859 1563Q816 1563 782 1574Q748 1585 705 1607Q664 1627 637.50 1636Q611 1645 579 1645Q546 1645 526 1624.50Q506 1604 506 1561L310 1571Q310 1641 340 1705.50Q370 1770 423 1810Q476 1850 542 1850Q576 1850 607.50 1840Q639 1830 687 1809Q729 1790 759.50 1780Q790 1770 822 1770Q856 1770 877 1790.50Q898 1811 898 1854L1092 1844Z"  horiz-adv-x="1402" vert-adv-y="2048"  />

      
      <glyph glyph-name="unic6" unicode="&#xc6;" d="M1845 295L1845 0L1114 0L949 0L935 324L579 324L435 0L22 0L734 1456L960 1456L1246 1456L1785 1456L1785 1161L1258 1161L1270 887L1704 887L1704 592L1282 592L1295 295L1845 295M923 619L904 1055L710 619L923 619Z"  horiz-adv-x="1926" vert-adv-y="2048"  />

      
      <glyph glyph-name="uni42" unicode="&#x42;" d="M1021 737Q1140 707 1195 623Q1250 539 1250 434Q1250 0 693 0L245 0L102 0L102 1456L631 1456Q912 1456 1066 1353.50Q1220 1251 1220 1050Q1220 943 1173 860Q1126 777 1021 737M475 1154L475 851L628 851Q749 851 798 885Q847 919 847 995Q847 1080 796 1117Q745 1154 631 1154L475 1154M693 301Q789 301 833.50 340.50Q878 380 878 441Q878 601 708 601L475 601L475 301L693 301Z"  horiz-adv-x="1328" vert-adv-y="2048"  />

      
      <glyph glyph-name="uni43" unicode="&#x43;" d="M1295 502Q1290 346 1213 227.50Q1136 109 1000 44.50Q864-20 686-20Q490-20 349.50 66Q209 152 135.50 313.50Q62 475 62 697L62 758Q62 978 138.50 1140.50Q215 1303 354.50 1390Q494 1477 678 1477Q866 1477 1001 1409Q1136 1341 1210.50 1220.50Q1285 1100 1298 943L926 943Q925 1061 868 1115.50Q811 1170 678 1170Q595 1170 544 1131.50Q493 1093 467.50 1003.50Q442 914 442 760L442 697Q442 537 465.50 449Q489 361 541 324.50Q593 288 686 288Q801 288 862 339Q923 390 924 502L1295 502Z"  horiz-adv-x="1346" vert-adv-y="2048"  />

      
      <glyph glyph-name="unic7" unicode="&#xc7;" d="M686 288Q801 288 862 339Q923 390 924 502L1295 502Q1291 367 1232.50 259.50Q1174 152 1069 83Q964 14 824-9L818-48Q882-59 925-100.50Q968-142 968-221Q968-300 924-358Q880-416 793.50-448Q707-480 583-480L576-272Q612-272 633-254.50Q654-237 654-200Q654-166 624-151.50Q594-137 523-133L549-8Q394 20 285 112.50Q176 205 119 353.50Q62 502 62 697L62 758Q62 978 138.50 1140.50Q215 1303 354.50 1390Q494 1477 678 1477Q866 1477 1001 1409Q1136 1341 1210.50 1220.50Q1285 1100 1298 943L926 943Q925 1061 868 1115.50Q811 1170 678 1170Q595 1170 544 1131.50Q493 1093 467.50 1003.50Q442 914 442 760L442 697Q442 537 465.50 449Q489 361 541 324.50Q593 288 686 288Z"  horiz-adv-x="1346" vert-adv-y="2048"  />

      
      <glyph glyph-name="uni44" unicode="&#x44;" d="M579 1456Q775 1456 929.50 1366Q1084 1276 1171.50 1116Q1259 956 1259 755L1259 700Q1259 499 1172 339.50Q1085 180 932 90Q779 0 588 0L261 0L102 0L102 1456L475 1456L579 1456M877 757Q877 953 801 1053.50Q725 1154 579 1154L475 1154L475 301L588 301Q727 301 802 401Q877 501 877 700L877 757Z"  horiz-adv-x="1322" vert-adv-y="2048"  />

      
      <glyph glyph-name="unid0" unicode="&#xd0;" d="M579 1456Q775 1456 929.50 1366Q1084 1276 1171.50 1116Q1259 956 1259 755L1259 700Q1259 499 1172 339.50Q1085 180 932 90Q779 0 588 0L261 0L102 0L102 627L-35 627L-35 827L102 827L102 1456L475 1456L579 1456M877 757Q877 953 801 1053.50Q725 1154 579 1154L475 1154L475 827L709 827L709 627L475 627L475 301L588 301Q727 301 802 401Q877 501 877 700L877 757Z"  horiz-adv-x="1322" vert-adv-y="2048"  />

      
      <glyph glyph-name="uni45" unicode="&#x45;" d="M475 1154L475 891L1016 891L1016 601L475 601L475 301L1116 301L1116 0L338 0L102 0L102 1456L475 1456L1120 1456L1120 1154L475 1154Z"  horiz-adv-x="1143" vert-adv-y="2048"  />

      
      <glyph glyph-name="unic9" unicode="&#xc9;" d="M102 0M475 1154L475 891L1016 891L1016 601L475 601L475 301L1116 301L1116 0L338 0L102 0L102 1456L475 1456L1120 1456L1120 1154L475 1154M1040 1842L762 1523L469 1523L667 1842L1040 1842Z"  horiz-adv-x="1143" vert-adv-y="2048"  />

      
      <glyph glyph-name="unica" unicode="&#xca;" d="M102 0M475 1154L475 891L1016 891L1016 601L475 601L475 301L1116 301L1116 0L338 0L102 0L102 1456L475 1456L1120 1456L1120 1154L475 1154M1091 1545L810 1545L648 1672L487 1545L212 1545L212 1564L546 1841L751 1841L1091 1559L1091 1545Z"  horiz-adv-x="1143" vert-adv-y="2048"  />

      
      <glyph glyph-name="unicb" unicode="&#xcb;" d="M102 0M475 1154L475 891L1016 891L1016 601L475 601L475 301L1116 301L1116 0L338 0L102 0L102 1456L475 1456L1120 1456L1120 1154L475 1154M911 1811Q953 1811 989 1792.50Q1025 1774 1046.50 1742Q1068 1710 1068 1671Q1068 1632 1046.50 1600Q1025 1568 989 1549.50Q953 1531 911 1531Q869 1531 833.50 1549.50Q798 1568 776.50 1600Q755 1632 755 1671Q755 1710 776.50 1742Q798 1774 833.50 1792.50Q869 1811 911 1811M378 1810Q420 1810 456 1791.50Q492 1773 513.50 1741Q535 1709 535 1670Q535 1631 513.50 1599Q492 1567 456 1548.50Q420 1530 378 1530Q336 1530 300.50 1548.50Q265 1567 243.50 1599Q222 1631 222 1670Q222 1709 243.50 1741Q265 1773 300.50 1791.50Q336 1810 378 1810Z"  horiz-adv-x="1143" vert-adv-y="2048"  />

      
      <glyph glyph-name="unic8" unicode="&#xc8;" d="M102 0M475 1154L475 891L1016 891L1016 601L475 601L475 301L1116 301L1116 0L338 0L102 0L102 1456L475 1456L1120 1456L1120 1154L475 1154M567 1523L282 1842L656 1842L856 1523L567 1523Z"  horiz-adv-x="1143" vert-adv-y="2048"  />

      
      <glyph glyph-name="uni46" unicode="&#x46;" d="M475 1154L475 864L1037 864L1037 563L475 563L475 0L102 0L102 1456L475 1456L1088 1456L1088 1154L475 1154Z"  horiz-adv-x="1119" vert-adv-y="2048"  />

      
      <glyph glyph-name="uni47" unicode="&#x47;" d="M1311 176Q1267 129 1186 84.50Q1105 40 986.50 10Q868-20 722-20Q525-20 380 62.50Q235 145 156 305Q77 465 77 690L77 765Q77 988 157.50 1149Q238 1310 380 1393.50Q522 1477 703 1477Q998 1477 1142.50 1342Q1287 1207 1309 967L952 967Q937 1076 883.50 1126Q830 1176 717 1176Q597 1176 526.50 1074Q456 972 456 767L456 690Q456 480 525.50 380.50Q595 281 751 281Q818 281 865.50 295.50Q913 310 937 330L937 528L706 528L706 792L1311 792L1311 176Z"  horiz-adv-x="1397" vert-adv-y="2048"  />

      
      <glyph glyph-name="uni48" unicode="&#x48;" d="M1333 1456L1333 0L961 0L961 590L475 590L475 0L102 0L102 1456L475 1456L475 891L961 891L961 1456L1333 1456Z"  horiz-adv-x="1436" vert-adv-y="2048"  />

      
      <glyph glyph-name="uni49" unicode="&#x49;" d="M128 0L128 1456L499 1456L499 0L128 0Z"  horiz-adv-x="628" vert-adv-y="2048"  />

      
      <glyph glyph-name="unicd" unicode="&#xcd;" d="M128 0M128 0L128 1456L499 1456L499 0L128 0M705 1842L427 1523L134 1523L332 1842L705 1842Z"  horiz-adv-x="628" vert-adv-y="2048"  />

      
      <glyph glyph-name="unice" unicode="&#xce;" d="M0 0M128 0L128 1456L499 1456L499 0L128 0M756 1545L475 1545L313 1672L152 1545L-123 1545L-123 1564L211 1841L416 1841L756 1559L756 1545Z"  horiz-adv-x="628" vert-adv-y="2048"  />

      
      <glyph glyph-name="unicf" unicode="&#xcf;" d="M0 0M128 0L128 1456L499 1456L499 0L128 0M576 1811Q618 1811 654 1792.50Q690 1774 711.50 1742Q733 1710 733 1671Q733 1632 711.50 1600Q690 1568 654 1549.50Q618 1531 576 1531Q534 1531 498.50 1549.50Q463 1568 441.50 1600Q420 1632 420 1671Q420 1710 441.50 1742Q463 1774 498.50 1792.50Q534 1811 576 1811M43 1810Q85 1810 121 1791.50Q157 1773 178.50 1741Q200 1709 200 1670Q200 1631 178.50 1599Q157 1567 121 1548.50Q85 1530 43 1530Q1 1530-34.50 1548.50Q-70 1567-91.50 1599Q-113 1631-113 1670Q-113 1709-91.50 1741Q-70 1773-34.50 1791.50Q1 1810 43 1810Z"  horiz-adv-x="628" vert-adv-y="2048"  />

      
      <glyph glyph-name="unicc" unicode="&#xcc;" d="M0 0M128 0L128 1456L499 1456L499 0L128 0M232 1523L-53 1842L321 1842L521 1523L232 1523Z"  horiz-adv-x="628" vert-adv-y="2048"  />

      
      <glyph glyph-name="uni4a" unicode="&#x4a;" d="M1050 1456L1050 467Q1050 324 983 213Q916 102 800 41Q684-20 543-20Q391-20 277 31Q163 82 99 187.50Q35 293 35 451L409 451Q409 383 423.50 346Q438 309 466.50 295Q495 281 543 281Q608 281 643 330.50Q678 380 678 467L678 1456L1050 1456Z"  horiz-adv-x="1154" vert-adv-y="2048"  />

      
      <glyph glyph-name="uni4b" unicode="&#x4b;" d="M865 809L1338 0L896 0L614 512L475 359L475 0L102 0L102 1456L475 1456L475 833L593 1023L882 1456L1344 1456L865 809Z"  horiz-adv-x="1314" vert-adv-y="2048"  />

      
      <glyph glyph-name="uni4c" unicode="&#x4c;" d="M1075 301L1075 0L338 0L102 0L102 1456L475 1456L475 301L1075 301Z"  horiz-adv-x="1111" vert-adv-y="2048"  />

      
      <glyph glyph-name="uni4d" unicode="&#x4d;" d="M1691 0L1317 0L1317 275L1353 1015L1018 0L774 0L439 1015L476 275L476 0L102 0L102 1456L417 1456L593 1456L896 490L1199 1456L1691 1456L1691 0Z"  horiz-adv-x="1796" vert-adv-y="2048"  />

      
      <glyph glyph-name="uni4e" unicode="&#x4e;" d="M961 0L475 847L475 0L102 0L102 1456L475 1456L960 610L960 1456L1332 1456L1332 0L961 0Z"  horiz-adv-x="1435" vert-adv-y="2048"  />

      
      <glyph glyph-name="unid1" unicode="&#xd1;" d="M102 0M961 0L475 847L475 0L102 0L102 1456L475 1456L960 610L960 1456L1332 1456L1332 0L961 0M1116 1844Q1116 1771 1086.50 1706.50Q1057 1642 1003.50 1602.50Q950 1563 883 1563Q840 1563 806 1574Q772 1585 729 1607Q688 1627 661.50 1636Q635 1645 603 1645Q570 1645 550 1624.50Q530 1604 530 1561L334 1571Q334 1641 364 1705.50Q394 1770 447 1810Q500 1850 566 1850Q600 1850 631.50 1840Q663 1830 711 1809Q753 1790 783.50 1780Q814 1770 846 1770Q880 1770 901 1790.50Q922 1811 922 1854L1116 1844Z"  horiz-adv-x="1435" vert-adv-y="2048"  />

      
      <glyph glyph-name="uni4f" unicode="&#x4f;" d="M1351 701Q1351 482 1269 318.50Q1187 155 1041 67.50Q895-20 708-20Q518-20 371.50 67.50Q225 155 143.50 318.50Q62 482 62 701L62 754Q62 973 143.50 1136.50Q225 1300 371 1388Q517 1476 706 1476Q893 1476 1039.50 1388Q1186 1300 1268.50 1136.50Q1351 973 1351 754L1351 701M970 756Q970 958 901.50 1064.50Q833 1171 706 1171Q443 1171 443 756L443 701Q443 499 509.50 391.50Q576 284 708 284Q834 284 902 393Q970 502 970 701L970 756Z"  horiz-adv-x="1414" vert-adv-y="2048"  />

      
      <glyph glyph-name="unid3" unicode="&#xd3;" d="M62 0M1351 701Q1351 482 1269 318.50Q1187 155 1041 67.50Q895-20 708-20Q518-20 371.50 67.50Q225 155 143.50 318.50Q62 482 62 701L62 754Q62 973 143.50 1136.50Q225 1300 371 1388Q517 1476 706 1476Q893 1476 1039.50 1388Q1186 1300 1268.50 1136.50Q1351 973 1351 754L1351 701M970 756Q970 958 901.50 1064.50Q833 1171 706 1171Q443 1171 443 756L443 701Q443 499 509.50 391.50Q576 284 708 284Q834 284 902 393Q970 502 970 701L970 756M1096 1846L818 1527L525 1527L723 1846L1096 1846Z"  horiz-adv-x="1414" vert-adv-y="2048"  />

      
      <glyph glyph-name="unid4" unicode="&#xd4;" d="M62 0M1351 701Q1351 482 1269 318.50Q1187 155 1041 67.50Q895-20 708-20Q518-20 371.50 67.50Q225 155 143.50 318.50Q62 482 62 701L62 754Q62 973 143.50 1136.50Q225 1300 371 1388Q517 1476 706 1476Q893 1476 1039.50 1388Q1186 1300 1268.50 1136.50Q1351 973 1351 754L1351 701M970 756Q970 958 901.50 1064.50Q833 1171 706 1171Q443 1171 443 756L443 701Q443 499 509.50 391.50Q576 284 708 284Q834 284 902 393Q970 502 970 701L970 756M1147 1549L866 1549L704 1676L543 1549L268 1549L268 1568L602 1845L807 1845L1147 1563L1147 1549Z"  horiz-adv-x="1414" vert-adv-y="2048"  />

      
      <glyph glyph-name="unid6" unicode="&#xd6;" d="M62 0M1351 701Q1351 482 1269 318.50Q1187 155 1041 67.50Q895-20 708-20Q518-20 371.50 67.50Q225 155 143.50 318.50Q62 482 62 701L62 754Q62 973 143.50 1136.50Q225 1300 371 1388Q517 1476 706 1476Q893 1476 1039.50 1388Q1186 1300 1268.50 1136.50Q1351 973 1351 754L1351 701M970 756Q970 958 901.50 1064.50Q833 1171 706 1171Q443 1171 443 756L443 701Q443 499 509.50 391.50Q576 284 708 284Q834 284 902 393Q970 502 970 701L970 756M967 1815Q1009 1815 1045 1796.50Q1081 1778 1102.50 1746Q1124 1714 1124 1675Q1124 1636 1102.50 1604Q1081 1572 1045 1553.50Q1009 1535 967 1535Q925 1535 889.50 1553.50Q854 1572 832.50 1604Q811 1636 811 1675Q811 1714 832.50 1746Q854 1778 889.50 1796.50Q925 1815 967 1815M434 1814Q476 1814 512 1795.50Q548 1777 569.50 1745Q591 1713 591 1674Q591 1635 569.50 1603Q548 1571 512 1552.50Q476 1534 434 1534Q392 1534 356.50 1552.50Q321 1571 299.50 1603Q278 1635 278 1674Q278 1713 299.50 1745Q321 1777 356.50 1795.50Q392 1814 434 1814Z"  horiz-adv-x="1414" vert-adv-y="2048"  />

      
      <glyph glyph-name="unid2" unicode="&#xd2;" d="M62 0M1351 701Q1351 482 1269 318.50Q1187 155 1041 67.50Q895-20 708-20Q518-20 371.50 67.50Q225 155 143.50 318.50Q62 482 62 701L62 754Q62 973 143.50 1136.50Q225 1300 371 1388Q517 1476 706 1476Q893 1476 1039.50 1388Q1186 1300 1268.50 1136.50Q1351 973 1351 754L1351 701M970 756Q970 958 901.50 1064.50Q833 1171 706 1171Q443 1171 443 756L443 701Q443 499 509.50 391.50Q576 284 708 284Q834 284 902 393Q970 502 970 701L970 756M623 1527L338 1846L712 1846L912 1527L623 1527Z"  horiz-adv-x="1414" vert-adv-y="2048"  />

      
      <glyph glyph-name="unid8" unicode="&#xd8;" d="M1151 1314Q1253 1218 1308.50 1075.50Q1364 933 1364 754L1364 701Q1364 482 1282 318.50Q1200 155 1054 67.50Q908-20 721-20Q562-20 430 43L352-95L136-95L276 152Q179 247 127 387Q75 527 75 701L75 754Q75 973 156.50 1136.50Q238 1300 384 1388Q530 1476 719 1476Q868 1476 994 1419L1050 1518L1266 1518L1151 1314M456 701Q456 592 476 506L836 1141Q787 1171 719 1171Q456 1171 456 756L456 701M983 756Q983 883 956 971L588 322Q644 284 721 284Q847 284 915 393Q983 502 983 701L983 756Z"  horiz-adv-x="1409" vert-adv-y="2048"  />

      
      <glyph glyph-name="unid5" unicode="&#xd5;" d="M62 0M1351 701Q1351 482 1269 318.50Q1187 155 1041 67.50Q895-20 708-20Q518-20 371.50 67.50Q225 155 143.50 318.50Q62 482 62 701L62 754Q62 973 143.50 1136.50Q225 1300 371 1388Q517 1476 706 1476Q893 1476 1039.50 1388Q1186 1300 1268.50 1136.50Q1351 973 1351 754L1351 701M970 756Q970 958 901.50 1064.50Q833 1171 706 1171Q443 1171 443 756L443 701Q443 499 509.50 391.50Q576 284 708 284Q834 284 902 393Q970 502 970 701L970 756M1094 1844Q1094 1771 1064.50 1706.50Q1035 1642 981.50 1602.50Q928 1563 861 1563Q818 1563 784 1574Q750 1585 707 1607Q666 1627 639.50 1636Q613 1645 581 1645Q548 1645 528 1624.50Q508 1604 508 1561L312 1571Q312 1641 342 1705.50Q372 1770 425 1810Q478 1850 544 1850Q578 1850 609.50 1840Q641 1830 689 1809Q731 1790 761.50 1780Q792 1770 824 1770Q858 1770 879 1790.50Q900 1811 900 1854L1094 1844Z"  horiz-adv-x="1414" vert-adv-y="2048"  />

      
      <glyph glyph-name="uni0152" unicode="&#x0152;" d="M1296 1154L1296 891L1837 891L1837 601L1296 601L1296 301L1936 301L1936 0L1158 0L1019 0Q841-20 731-20Q544-20 398.50 55.50Q253 131 172 266Q91 401 91 576L91 880Q91 1055 171.50 1190Q252 1325 397 1400.50Q542 1476 729 1476Q857 1476 1019 1456L1296 1456L1941 1456L1941 1154L1296 1154M450 576Q450 426 524.50 348Q599 270 731 270Q818 270 923 282L923 1173Q824 1186 729 1186Q596 1186 523 1109.50Q450 1033 450 882L450 576Z"  horiz-adv-x="2000" vert-adv-y="2048"  />

      
      <glyph glyph-name="uni50" unicode="&#x50;" d="M689 1456Q861 1456 991 1390.50Q1121 1325 1191 1209.50Q1261 1094 1261 948Q1261 808 1191 700Q1121 592 991.50 532Q862 472 689 472L475 472L475 0L102 0L102 1456L689 1456M689 775Q787 775 835 821.50Q883 868 883 946Q883 1036 834 1095Q785 1154 689 1154L475 1154L475 775L689 775Z"  horiz-adv-x="1339" vert-adv-y="2048"  />

      
      <glyph glyph-name="unide" unicode="&#xde;" d="M657 1208Q838 1208 967 1148.50Q1096 1089 1162.50 983Q1229 877 1229 738Q1229 599 1162.50 493Q1096 387 967 327.50Q838 268 657 268L470 268L470 0L110 0L110 1456L470 1456L470 1208L657 1208M657 558Q764 558 816.50 608Q869 658 869 736Q869 815 816.50 866.50Q764 918 657 918L470 918L470 558L657 558Z"  horiz-adv-x="1275" vert-adv-y="2048"  />

      
      <glyph glyph-name="uni51" unicode="&#x51;" d="M1355 701Q1355 507 1290 356Q1225 205 1107 111L1333-72L1104-272L792-16Q757-20 712-20Q523-20 376.50 67.50Q230 155 148.50 318.50Q67 482 67 701L67 754Q67 973 148 1136.50Q229 1300 375 1388Q521 1476 710 1476Q897 1476 1043.50 1388Q1190 1300 1272.50 1136.50Q1355 973 1355 754L1355 701M447 701Q447 499 513.50 391.50Q580 284 712 284Q838 284 906.50 393Q975 502 975 701L975 756Q975 958 906 1064.50Q837 1171 710 1171Q447 1171 447 756L447 701Z"  horiz-adv-x="1414" vert-adv-y="2048"  />

      
      <glyph glyph-name="uni52" unicode="&#x52;" d="M1293 16L1293 0L893 0L648 492L475 492L475 0L102 0L102 1456L689 1456Q859 1456 984 1405.50Q1109 1355 1177.50 1256Q1246 1157 1246 1016Q1246 848 1182.50 751.50Q1119 655 996 594L1293 16M475 795L689 795Q780 795 826.50 840.50Q873 886 873 974Q873 1060 825 1107Q777 1154 689 1154L475 1154L475 795Z"  horiz-adv-x="1349" vert-adv-y="2048"  />

      
      <glyph glyph-name="uni53" unicode="&#x53;" d="M605 587Q457 637 350 695.50Q243 754 174.50 845Q106 936 106 1064Q106 1190 179.50 1283Q253 1376 383 1426Q513 1476 676 1476Q835 1476 959 1422Q1083 1368 1153.50 1265.50Q1224 1163 1224 1021L852 1021Q852 1095 804.50 1138.50Q757 1182 667 1182Q607 1182 564 1165Q521 1148 499 1120.50Q477 1093 477 1060Q477 1005 540.50 966Q604 927 735 884Q976 806 1099.50 690Q1223 574 1223 394Q1223 262 1156 169Q1089 76 967 28Q845-20 680-20Q519-20 378.50 33.50Q238 87 150 201Q62 315 62 487L437 487Q437 406 463.50 359Q490 312 543 292.50Q596 273 680 273Q767 273 808.50 307.50Q850 342 850 392Q850 435 832 464.50Q814 494 761.50 523Q709 552 605 587Z"  horiz-adv-x="1293" vert-adv-y="2048"  />

      
      <glyph glyph-name="uni1E9E" unicode="&#x1E9E;" d="M993 847Q1169 813 1262.50 706.50Q1356 600 1356 428Q1356 281 1288.50 180Q1221 79 1107 29Q993-21 855-21Q636-21 487 45L590 314Q698 269 798 269Q893 269 945.50 310Q998 351 998 429Q998 508 970 553.50Q942 599 887.50 618Q833 637 747 637L620 637L620 836L620 841L864 1098Q807 1141 744 1164Q681 1187 607 1187Q525 1187 472 1140.50Q419 1094 419 956L419 0L59 0L59 958Q60 1215 196.50 1346Q333 1477 607 1477Q796 1477 963.50 1411Q1131 1345 1317 1209L993 847Z"  horiz-adv-x="1441" vert-adv-y="2048"  />

      
      <glyph glyph-name="uni54" unicode="&#x54;" d="M1266 1154L832 1154L832 0L458 0L458 1154L35 1154L35 1456L832 1456L1266 1456L1266 1154Z"  horiz-adv-x="1303" vert-adv-y="2048"  />

      
      <glyph glyph-name="uni55" unicode="&#x55;" d="M1261 515Q1261 345 1191 224.50Q1121 104 991 42Q861-20 684-20Q509-20 377.50 42.50Q246 105 173.50 225.50Q101 346 101 515L101 1456L476 1456L476 515Q476 392 528 336.50Q580 281 684 281Q788 281 838 336.50Q888 392 888 515L888 1456L1261 1456L1261 515Z"  horiz-adv-x="1367" vert-adv-y="2048"  />

      
      <glyph glyph-name="unida" unicode="&#xda;" d="M101 0M1261 515Q1261 345 1191 224.50Q1121 104 991 42Q861-20 684-20Q509-20 377.50 42.50Q246 105 173.50 225.50Q101 346 101 515L101 1456L476 1456L476 515Q476 392 528 336.50Q580 281 684 281Q788 281 838 336.50Q888 392 888 515L888 1456L1261 1456L1261 515M1068 1846L790 1527L497 1527L695 1846L1068 1846Z"  horiz-adv-x="1367" vert-adv-y="2048"  />

      
      <glyph glyph-name="unidb" unicode="&#xdb;" d="M101 0M1261 515Q1261 345 1191 224.50Q1121 104 991 42Q861-20 684-20Q509-20 377.50 42.50Q246 105 173.50 225.50Q101 346 101 515L101 1456L476 1456L476 515Q476 392 528 336.50Q580 281 684 281Q788 281 838 336.50Q888 392 888 515L888 1456L1261 1456L1261 515M1119 1549L838 1549L676 1676L515 1549L240 1549L240 1568L574 1845L779 1845L1119 1563L1119 1549Z"  horiz-adv-x="1367" vert-adv-y="2048"  />

      
      <glyph glyph-name="unidc" unicode="&#xdc;" d="M101 0M1261 515Q1261 345 1191 224.50Q1121 104 991 42Q861-20 684-20Q509-20 377.50 42.50Q246 105 173.50 225.50Q101 346 101 515L101 1456L476 1456L476 515Q476 392 528 336.50Q580 281 684 281Q788 281 838 336.50Q888 392 888 515L888 1456L1261 1456L1261 515M939 1815Q981 1815 1017 1796.50Q1053 1778 1074.50 1746Q1096 1714 1096 1675Q1096 1636 1074.50 1604Q1053 1572 1017 1553.50Q981 1535 939 1535Q897 1535 861.50 1553.50Q826 1572 804.50 1604Q783 1636 783 1675Q783 1714 804.50 1746Q826 1778 861.50 1796.50Q897 1815 939 1815M406 1814Q448 1814 484 1795.50Q520 1777 541.50 1745Q563 1713 563 1674Q563 1635 541.50 1603Q520 1571 484 1552.50Q448 1534 406 1534Q364 1534 328.50 1552.50Q293 1571 271.50 1603Q250 1635 250 1674Q250 1713 271.50 1745Q293 1777 328.50 1795.50Q364 1814 406 1814Z"  horiz-adv-x="1367" vert-adv-y="2048"  />

      
      <glyph glyph-name="unid9" unicode="&#xd9;" d="M101 0M1261 515Q1261 345 1191 224.50Q1121 104 991 42Q861-20 684-20Q509-20 377.50 42.50Q246 105 173.50 225.50Q101 346 101 515L101 1456L476 1456L476 515Q476 392 528 336.50Q580 281 684 281Q788 281 838 336.50Q888 392 888 515L888 1456L1261 1456L1261 515M595 1527L310 1846L684 1846L884 1527L595 1527Z"  horiz-adv-x="1367" vert-adv-y="2048"  />

      
      <glyph glyph-name="uni56" unicode="&#x56;" d="M1369 1456L886 0L617 0L471 0L-8 1456L407 1456L679 430L951 1456L1369 1456Z"  horiz-adv-x="1360" vert-adv-y="2048"  />

      
      <glyph glyph-name="uni57" unicode="&#x57;" d="M1750 1456L1448 0L1216 0L1057 0L881 790L710 0L513 0L319 0L16 1456L386 1456L540 566L722 1456L898 1456L1040 1456L1227 563L1381 1456L1750 1456Z"  horiz-adv-x="1775" vert-adv-y="2048"  />

      
      <glyph glyph-name="uni58" unicode="&#x58;" d="M877 1456L1302 1456L903 734L1314 0L884 0L655 474L425 0L-4 0L406 734L7 1456L432 1456L655 991L877 1456Z"  horiz-adv-x="1311" vert-adv-y="2048"  />

      
      <glyph glyph-name="uni59" unicode="&#x59;" d="M901 1456L1302 1456L838 517L838 0L458 0L458 517L-7 1456L394 1456L648 850L901 1456Z"  horiz-adv-x="1295" vert-adv-y="2048"  />

      
      <glyph glyph-name="unidd" unicode="&#xdd;" d="M0 0M901 1456L1302 1456L838 517L838 0L458 0L458 517L-7 1456L394 1456L648 850L901 1456M1040 1846L762 1527L469 1527L667 1846L1040 1846Z"  horiz-adv-x="1295" vert-adv-y="2048"  />

      
      <glyph glyph-name="uni5a" unicode="&#x5a;" d="M1209 0L144 0L64 0L64 195L733 1154L57 1154L57 1456L1089 1456L1206 1456L1206 1267L544 301L1209 301L1209 0Z"  horiz-adv-x="1253" vert-adv-y="2048"  />

      
      <glyph glyph-name="uni61" unicode="&#x61;" d="M1000 284Q1000 171 1011 116.50Q1022 62 1046 17L1046 0L689 0Q672 35 659 93Q616 39 556 9.50Q496-20 402-20Q304-20 220 21Q136 62 86 136.50Q36 211 36 306Q36 476 161.50 568.50Q287 661 547 661L640 661L640 711Q640 776 612.50 810Q585 844 524 844Q471 844 445.50 819.50Q420 795 420 739L62 739Q62 846 121 928.50Q180 1011 289 1056.50Q398 1102 543 1102Q675 1102 778.50 1057.50Q882 1013 941 924.50Q1000 836 1000 709L1000 284M491 241Q545 241 583.50 260.50Q622 280 640 310L640 468L539 468Q461 468 427.50 424.50Q394 381 394 321Q394 285 422 263Q450 241 491 241Z"  horiz-adv-x="1083" vert-adv-y="2048"  />

      
      <glyph glyph-name="unie1" unicode="&#xe1;" d="M36 0M1000 284Q1000 171 1011 116.50Q1022 62 1046 17L1046 0L689 0Q672 35 659 93Q616 39 556 9.50Q496-20 402-20Q304-20 220 21Q136 62 86 136.50Q36 211 36 306Q36 476 161.50 568.50Q287 661 547 661L640 661L640 711Q640 776 612.50 810Q585 844 524 844Q471 844 445.50 819.50Q420 795 420 739L62 739Q62 846 121 928.50Q180 1011 289 1056.50Q398 1102 543 1102Q675 1102 778.50 1057.50Q882 1013 941 924.50Q1000 836 1000 709L1000 284M491 241Q545 241 583.50 260.50Q622 280 640 310L640 468L539 468Q461 468 427.50 424.50Q394 381 394 321Q394 285 422 263Q450 241 491 241M920 1536L642 1217L349 1217L547 1536L920 1536Z"  horiz-adv-x="1083" vert-adv-y="2048"  />

      
      <glyph glyph-name="unie2" unicode="&#xe2;" d="M36 0M1000 284Q1000 171 1011 116.50Q1022 62 1046 17L1046 0L689 0Q672 35 659 93Q616 39 556 9.50Q496-20 402-20Q304-20 220 21Q136 62 86 136.50Q36 211 36 306Q36 476 161.50 568.50Q287 661 547 661L640 661L640 711Q640 776 612.50 810Q585 844 524 844Q471 844 445.50 819.50Q420 795 420 739L62 739Q62 846 121 928.50Q180 1011 289 1056.50Q398 1102 543 1102Q675 1102 778.50 1057.50Q882 1013 941 924.50Q1000 836 1000 709L1000 284M491 241Q545 241 583.50 260.50Q622 280 640 310L640 468L539 468Q461 468 427.50 424.50Q394 381 394 321Q394 285 422 263Q450 241 491 241M970 1239L689 1239L527 1366L366 1239L91 1239L91 1258L425 1535L630 1535L970 1253L970 1239Z"  horiz-adv-x="1083" vert-adv-y="2048"  />

      
      <glyph glyph-name="unie4" unicode="&#xe4;" d="M36 0M1000 284Q1000 171 1011 116.50Q1022 62 1046 17L1046 0L689 0Q672 35 659 93Q616 39 556 9.50Q496-20 402-20Q304-20 220 21Q136 62 86 136.50Q36 211 36 306Q36 476 161.50 568.50Q287 661 547 661L640 661L640 711Q640 776 612.50 810Q585 844 524 844Q471 844 445.50 819.50Q420 795 420 739L62 739Q62 846 121 928.50Q180 1011 289 1056.50Q398 1102 543 1102Q675 1102 778.50 1057.50Q882 1013 941 924.50Q1000 836 1000 709L1000 284M491 241Q545 241 583.50 260.50Q622 280 640 310L640 468L539 468Q461 468 427.50 424.50Q394 381 394 321Q394 285 422 263Q450 241 491 241M791 1505Q833 1505 869 1486.50Q905 1468 926.50 1436Q948 1404 948 1365Q948 1326 926.50 1294Q905 1262 869 1243.50Q833 1225 791 1225Q749 1225 713.50 1243.50Q678 1262 656.50 1294Q635 1326 635 1365Q635 1404 656.50 1436Q678 1468 713.50 1486.50Q749 1505 791 1505M258 1504Q300 1504 336 1485.50Q372 1467 393.50 1435Q415 1403 415 1364Q415 1325 393.50 1293Q372 1261 336 1242.50Q300 1224 258 1224Q216 1224 180.50 1242.50Q145 1261 123.50 1293Q102 1325 102 1364Q102 1403 123.50 1435Q145 1467 180.50 1485.50Q216 1504 258 1504Z"  horiz-adv-x="1083" vert-adv-y="2048"  />

      
      <glyph glyph-name="unie0" unicode="&#xe0;" d="M36 0M1000 284Q1000 171 1011 116.50Q1022 62 1046 17L1046 0L689 0Q672 35 659 93Q616 39 556 9.50Q496-20 402-20Q304-20 220 21Q136 62 86 136.50Q36 211 36 306Q36 476 161.50 568.50Q287 661 547 661L640 661L640 711Q640 776 612.50 810Q585 844 524 844Q471 844 445.50 819.50Q420 795 420 739L62 739Q62 846 121 928.50Q180 1011 289 1056.50Q398 1102 543 1102Q675 1102 778.50 1057.50Q882 1013 941 924.50Q1000 836 1000 709L1000 284M491 241Q545 241 583.50 260.50Q622 280 640 310L640 468L539 468Q461 468 427.50 424.50Q394 381 394 321Q394 285 422 263Q450 241 491 241M447 1217L162 1536L536 1536L736 1217L447 1217Z"  horiz-adv-x="1083" vert-adv-y="2048"  />

      
      <glyph glyph-name="unie5" unicode="&#xe5;" d="M36 0M1000 284Q1000 171 1011 116.50Q1022 62 1046 17L1046 0L689 0Q672 35 659 93Q616 39 556 9.50Q496-20 402-20Q304-20 220 21Q136 62 86 136.50Q36 211 36 306Q36 476 161.50 568.50Q287 661 547 661L640 661L640 711Q640 776 612.50 810Q585 844 524 844Q471 844 445.50 819.50Q420 795 420 739L62 739Q62 846 121 928.50Q180 1011 289 1056.50Q398 1102 543 1102Q675 1102 778.50 1057.50Q882 1013 941 924.50Q1000 836 1000 709L1000 284M491 241Q545 241 583.50 260.50Q622 280 640 310L640 468L539 468Q461 468 427.50 424.50Q394 381 394 321Q394 285 422 263Q450 241 491 241M530 1619Q594 1619 646 1591.50Q698 1564 727 1518Q756 1472 756 1418Q756 1364 727 1319Q698 1274 646.50 1247.50Q595 1221 530 1221Q466 1221 414.50 1247.50Q363 1274 334 1319Q305 1364 305 1418Q305 1472 334 1518Q363 1564 414.50 1591.50Q466 1619 530 1619M530 1317Q577 1317 604.50 1345.50Q632 1374 632 1418Q632 1462 604.50 1491Q577 1520 530 1520Q483 1520 456 1491Q429 1462 429 1418Q429 1373 456 1345Q483 1317 530 1317Z"  horiz-adv-x="1083" vert-adv-y="2048"  />

      
      <glyph glyph-name="unie3" unicode="&#xe3;" d="M36 0M1000 284Q1000 171 1011 116.50Q1022 62 1046 17L1046 0L689 0Q672 35 659 93Q616 39 556 9.50Q496-20 402-20Q304-20 220 21Q136 62 86 136.50Q36 211 36 306Q36 476 161.50 568.50Q287 661 547 661L640 661L640 711Q640 776 612.50 810Q585 844 524 844Q471 844 445.50 819.50Q420 795 420 739L62 739Q62 846 121 928.50Q180 1011 289 1056.50Q398 1102 543 1102Q675 1102 778.50 1057.50Q882 1013 941 924.50Q1000 836 1000 709L1000 284M491 241Q545 241 583.50 260.50Q622 280 640 310L640 468L539 468Q461 468 427.50 424.50Q394 381 394 321Q394 285 422 263Q450 241 491 241M917 1534Q917 1461 887.50 1396.50Q858 1332 804.50 1292.50Q751 1253 684 1253Q641 1253 607 1264Q573 1275 530 1297Q489 1317 462.50 1326Q436 1335 404 1335Q371 1335 351 1314.50Q331 1294 331 1251L135 1261Q135 1331 165 1395.50Q195 1460 248 1500Q301 1540 367 1540Q401 1540 432.50 1530Q464 1520 512 1499Q554 1480 584.50 1470Q615 1460 647 1460Q681 1460 702 1480.50Q723 1501 723 1544L917 1534Z"  horiz-adv-x="1083" vert-adv-y="2048"  />

      
      <glyph glyph-name="unie6" unicode="&#xe6;" d="M1690 418L1065 418Q1079 348 1133.50 309Q1188 270 1288 270Q1377 270 1438.50 283Q1500 296 1568 326L1652 101Q1585 47 1470.50 13.50Q1356-20 1235-20Q1116-20 1020.50 13Q925 46 857 108Q797 51 705.50 15.50Q614-20 493-20Q355-20 257.50 22.50Q160 65 109.50 144Q59 223 59 329Q59 489 194.50 575Q330 661 589 661L713 661L713 695Q713 751 682 781.50Q651 812 592 812Q527 812 492 790.50Q457 769 457 734L99 753Q99 854 160 933.50Q221 1013 334 1057.50Q447 1102 597 1102Q794 1102 912 1018Q1039 1103 1229 1102Q1368 1102 1472.50 1042.50Q1577 983 1633.50 872Q1690 761 1690 612L1690 418M1340 672Q1340 742 1311 777Q1282 812 1229 812Q1149 812 1111.50 770Q1074 728 1064 648L1340 648L1340 672M417 325Q417 234 560 234Q599 234 640.50 247.50Q682 261 713 283L713 412L711 440L591 440Q536 440 496.50 424Q457 408 437 381.50Q417 355 417 325Z"  horiz-adv-x="1730" vert-adv-y="2048"  />

      
      <glyph glyph-name="uni62" unicode="&#x62;" d="M683 1102Q825 1102 919.50 1032Q1014 962 1059.50 838.50Q1105 715 1105 554L1105 533Q1105 275 1000.50 127.50Q896-20 685-20Q525-20 427 112L412 0L92 0L92 1536L450 1536L450 998Q543 1102 683 1102M746 554Q746 678 715 746Q684 814 593 814Q490 814 450 744L450 335Q470 300 505 283.50Q540 267 595 267Q661 267 693.50 298Q726 329 736 384Q746 439 746 533L746 554Z"  horiz-adv-x="1153" vert-adv-y="2048"  />

      
      <glyph glyph-name="uni63" unicode="&#x63;" d="M1017 399Q1018 272 959 177Q900 82 795 31Q690-20 557-20Q392-20 277 50Q162 120 104.50 244.50Q47 369 47 532L47 549Q47 712 104.50 837Q162 962 276.50 1032Q391 1102 555 1102Q692 1102 797 1050.50Q902 999 960 898.50Q1018 798 1017 656L681 656Q683 726 649 769Q615 812 546 812Q486 812 455.50 779Q425 746 415 690.50Q405 635 405 549L405 532Q405 444 415 389Q425 334 456 302Q487 270 548 270Q615 270 649 303Q683 336 681 399L1017 399Z"  horiz-adv-x="1063" vert-adv-y="2048"  />

      
      <glyph glyph-name="unie7" unicode="&#xe7;" d="M1017 399Q1018 298 980 216.50Q942 135 872 79.50Q802 24 709-1L702-48Q766-59 809-100.50Q852-142 852-221Q852-300 808-358Q764-416 677.50-448Q591-480 467-480L460-272Q496-272 517-254.50Q538-237 538-200Q538-166 508-151.50Q478-137 407-133L433-8Q307 16 220.50 90.50Q134 165 90.50 278Q47 391 47 532L47 549Q47 712 104.50 837Q162 962 276.50 1032Q391 1102 555 1102Q692 1102 797 1050.50Q902 999 960 898.50Q1018 798 1017 656L681 656Q683 726 649 769Q615 812 546 812Q486 812 455.50 779Q425 746 415 690.50Q405 635 405 549L405 532Q405 444 415 389Q425 334 456 302Q487 270 548 270Q615 270 649 303Q683 336 681 399L1017 399Z"  horiz-adv-x="1063" vert-adv-y="2048"  />

      
      <glyph glyph-name="uni64" unicode="&#x64;" d="M1062 1536L1062 0L740 0L722 120Q619-20 464-20Q329-20 235.50 50Q142 120 94.50 244Q47 368 47 528L47 549Q47 716 94 840.50Q141 965 235 1033.50Q329 1102 466 1102Q606 1102 702 988L702 1536L1062 1536M555 268Q606 268 643.50 289Q681 310 702 349L702 730Q662 814 557 814Q405 814 405 549L405 528Q405 405 438.50 336.50Q472 268 555 268Z"  horiz-adv-x="1151" vert-adv-y="2048"  />

      
      <glyph glyph-name="unif0" unicode="&#xf0;" d="M873 1307Q997 1184 1064.50 1020Q1132 856 1132 662L1132 610Q1132 426 1060 282.50Q988 139 862 59.50Q736-20 578-20Q425-20 306 44.50Q187 109 121.50 220.50Q56 332 56 468Q56 616 106.50 725.50Q157 835 259 895Q361 955 510 955Q635 955 732 899Q683 1030 577 1128L408 1026L330 1148L450 1221Q348 1280 224 1312L338 1578Q574 1532 756 1405L913 1499L989 1377L873 1307M582 270Q677 270 724.50 349Q772 428 772 558L772 637Q743 661 697 675.50Q651 690 588 690Q499 690 457 632.50Q415 575 415 468Q415 375 459.50 322.50Q504 270 582 270Z"  horiz-adv-x="1160" vert-adv-y="2048"  />

      
      <glyph glyph-name="uni65" unicode="&#x65;" d="M1083 421L426 421Q447 349 504.50 309.50Q562 270 647 270Q719 270 783.50 294Q848 318 893 372L1052 163Q1016 115 953.50 73.50Q891 32 806 6Q721-20 623-20Q449-20 320 52Q191 124 123.50 244.50Q56 365 56 506L56 543Q56 700 114 826.50Q172 953 291 1027.50Q410 1102 585 1102Q737 1102 849.50 1039Q962 976 1022.50 857Q1083 738 1083 574L1083 421M734 677Q738 812 582 812Q508 812 471 768Q434 724 422 648L734 648L734 677Z"  horiz-adv-x="1119" vert-adv-y="2048"  />

      
      <glyph glyph-name="unie9" unicode="&#xe9;" d="M56 0M1083 421L426 421Q447 349 504.50 309.50Q562 270 647 270Q719 270 783.50 294Q848 318 893 372L1052 163Q1016 115 953.50 73.50Q891 32 806 6Q721-20 623-20Q449-20 320 52Q191 124 123.50 244.50Q56 365 56 506L56 543Q56 700 114 826.50Q172 953 291 1027.50Q410 1102 585 1102Q737 1102 849.50 1039Q962 976 1022.50 857Q1083 738 1083 574L1083 421M734 677Q738 812 582 812Q508 812 471 768Q434 724 422 648L734 648L734 677M921 1537L643 1218L350 1218L548 1537L921 1537Z"  horiz-adv-x="1119" vert-adv-y="2048"  />

      
      <glyph glyph-name="uniea" unicode="&#xea;" d="M56 0M1083 421L426 421Q447 349 504.50 309.50Q562 270 647 270Q719 270 783.50 294Q848 318 893 372L1052 163Q1016 115 953.50 73.50Q891 32 806 6Q721-20 623-20Q449-20 320 52Q191 124 123.50 244.50Q56 365 56 506L56 543Q56 700 114 826.50Q172 953 291 1027.50Q410 1102 585 1102Q737 1102 849.50 1039Q962 976 1022.50 857Q1083 738 1083 574L1083 421M734 677Q738 812 582 812Q508 812 471 768Q434 724 422 648L734 648L734 677M972 1240L691 1240L529 1367L368 1240L93 1240L93 1259L427 1536L632 1536L972 1254L972 1240Z"  horiz-adv-x="1119" vert-adv-y="2048"  />

      
      <glyph glyph-name="unieb" unicode="&#xeb;" d="M56 0M1083 421L426 421Q447 349 504.50 309.50Q562 270 647 270Q719 270 783.50 294Q848 318 893 372L1052 163Q1016 115 953.50 73.50Q891 32 806 6Q721-20 623-20Q449-20 320 52Q191 124 123.50 244.50Q56 365 56 506L56 543Q56 700 114 826.50Q172 953 291 1027.50Q410 1102 585 1102Q737 1102 849.50 1039Q962 976 1022.50 857Q1083 738 1083 574L1083 421M734 677Q738 812 582 812Q508 812 471 768Q434 724 422 648L734 648L734 677M792 1506Q834 1506 870 1487.50Q906 1469 927.50 1437Q949 1405 949 1366Q949 1327 927.50 1295Q906 1263 870 1244.50Q834 1226 792 1226Q750 1226 714.50 1244.50Q679 1263 657.50 1295Q636 1327 636 1366Q636 1405 657.50 1437Q679 1469 714.50 1487.50Q750 1506 792 1506M259 1505Q301 1505 337 1486.50Q373 1468 394.50 1436Q416 1404 416 1365Q416 1326 394.50 1294Q373 1262 337 1243.50Q301 1225 259 1225Q217 1225 181.50 1243.50Q146 1262 124.50 1294Q103 1326 103 1365Q103 1404 124.50 1436Q146 1468 181.50 1486.50Q217 1505 259 1505Z"  horiz-adv-x="1119" vert-adv-y="2048"  />

      
      <glyph glyph-name="unie8" unicode="&#xe8;" d="M56 0M1083 421L426 421Q447 349 504.50 309.50Q562 270 647 270Q719 270 783.50 294Q848 318 893 372L1052 163Q1016 115 953.50 73.50Q891 32 806 6Q721-20 623-20Q449-20 320 52Q191 124 123.50 244.50Q56 365 56 506L56 543Q56 700 114 826.50Q172 953 291 1027.50Q410 1102 585 1102Q737 1102 849.50 1039Q962 976 1022.50 857Q1083 738 1083 574L1083 421M734 677Q738 812 582 812Q508 812 471 768Q434 724 422 648L734 648L734 677M448 1218L163 1537L537 1537L737 1218L448 1218Z"  horiz-adv-x="1119" vert-adv-y="2048"  />

      
      <glyph glyph-name="uni66" unicode="&#x66;" d="M520 1082L728 1082L728 823L520 823L520 0L160 0L160 823L5 823L5 1082L160 1082L160 1163Q160 1289 211.50 1377.50Q263 1466 358 1511.50Q453 1557 583 1557Q654 1557 746 1535L749 1260Q714 1269 668 1269Q597 1269 558.50 1242Q520 1215 520 1163L520 1082Z"  horiz-adv-x="746" vert-adv-y="2048"  />

      
      <glyph glyph-name="uni67" unicode="&#x67;" d="M1091 1082L1091 47Q1091-102 1021-208.50Q951-315 824-370.50Q697-426 527-426Q413-426 302-384Q191-342 126-272L273-50Q377-150 516-150Q621-150 676-97Q731-44 731 53L731 87Q637-20 494-20Q359-20 258.50 50.50Q158 121 104 245.50Q50 370 50 528L50 549Q50 713 104 838.50Q158 964 259 1033Q360 1102 496 1102Q663 1102 754 990L766 1082L1091 1082M585 268Q685 268 731 328L731 753Q686 814 587 814Q503 814 455.50 741Q408 668 408 549L408 528Q408 412 454 340Q500 268 585 268Z"  horiz-adv-x="1183" vert-adv-y="2048"  />

      
      <glyph glyph-name="uni68" unicode="&#x68;" d="M709 1102Q880 1102 977 997Q1074 892 1074 661L1074 0L714 0L714 663Q714 750 678 782Q642 814 569 814Q478 814 438 766L438 0L80 0L80 1536L438 1536L438 968Q489 1032 558 1067Q627 1102 709 1102Z"  horiz-adv-x="1160" vert-adv-y="2048"  />

      
      <glyph glyph-name="uni69" unicode="&#x69;" d="M284 1540Q341 1540 386 1517Q431 1494 456.50 1453Q482 1412 482 1360Q482 1307 457 1266Q432 1225 386.50 1202Q341 1179 284 1179Q226 1179 181 1202Q136 1225 110.50 1266Q85 1307 85 1360Q85 1412 110.50 1453Q136 1494 181 1517Q226 1540 284 1540M106 0L106 1082L466 1082L466 0L106 0Z"  horiz-adv-x="572" vert-adv-y="2048"  />

      
      <glyph glyph-name="uni0131" unicode="&#x0131;" d="M119 0L119 1082L479 1082L479 0L119 0Z"  horiz-adv-x="595" vert-adv-y="2048"  />

      
      <glyph glyph-name="unied" unicode="&#xed;" d="M119 0M119 0L119 1082L479 1082L479 0L119 0M691 1509L413 1190L120 1190L318 1509L691 1509Z"  horiz-adv-x="595" vert-adv-y="2048"  />

      
      <glyph glyph-name="uniee" unicode="&#xee;" d="M0 0M119 0L119 1082L479 1082L479 0L119 0M742 1212L461 1212L299 1339L138 1212L-137 1212L-137 1231L197 1508L402 1508L742 1226L742 1212Z"  horiz-adv-x="595" vert-adv-y="2048"  />

      
      <glyph glyph-name="unief" unicode="&#xef;" d="M0 0M119 0L119 1082L479 1082L479 0L119 0M562 1478Q604 1478 640 1459.50Q676 1441 697.50 1409Q719 1377 719 1338Q719 1299 697.50 1267Q676 1235 640 1216.50Q604 1198 562 1198Q520 1198 484.50 1216.50Q449 1235 427.50 1267Q406 1299 406 1338Q406 1377 427.50 1409Q449 1441 484.50 1459.50Q520 1478 562 1478M29 1477Q71 1477 107 1458.50Q143 1440 164.50 1408Q186 1376 186 1337Q186 1298 164.50 1266Q143 1234 107 1215.50Q71 1197 29 1197Q-13 1197-48.50 1215.50Q-84 1234-105.50 1266Q-127 1298-127 1337Q-127 1376-105.50 1408Q-84 1440-48.50 1458.50Q-13 1477 29 1477Z"  horiz-adv-x="595" vert-adv-y="2048"  />

      
      <glyph glyph-name="uniec" unicode="&#xec;" d="M0 0M119 0L119 1082L479 1082L479 0L119 0M218 1190L-67 1509L307 1509L507 1190L218 1190Z"  horiz-adv-x="595" vert-adv-y="2048"  />

      
      <glyph glyph-name="uni6a" unicode="&#x6a;" d="M289 1540Q346 1540 391 1517Q436 1494 461.50 1453Q487 1412 487 1360Q487 1307 462 1266Q437 1225 391.50 1202Q346 1179 289 1179Q231 1179 186 1202Q141 1225 116 1266Q91 1307 91 1360Q91 1412 116 1453Q141 1494 186 1517Q231 1540 289 1540M476-7Q476-144 423-240.50Q370-337 272-387Q174-437 41-437Q-8-437-45-433.50Q-82-430-126-420L-126-136L-101-139Q-53-145-29-145Q42-145 79-109.50Q116-74 116-7L116 1082L476 1082L476-7Z"  horiz-adv-x="563" vert-adv-y="2048"  />

      
      <glyph glyph-name="uni6b" unicode="&#x6b;" d="M541 386L450 297L450 0L91 0L91 1537L450 1537L450 743L474 775L718 1082L1147 1082L774 635L1168 0L759 0L541 386Z"  horiz-adv-x="1132" vert-adv-y="2048"  />

      
      <glyph glyph-name="uni6c" unicode="&#x6c;" d="M106 0L106 1536L466 1536L466 0L106 0Z"  horiz-adv-x="572" vert-adv-y="2048"  />

      
      <glyph glyph-name="uni6d" unicode="&#x6d;" d="M1334 1102Q1491 1102 1579.50 1002.50Q1668 903 1668 672L1668 0L1308 0L1308 671Q1308 730 1295 761Q1282 792 1258 803Q1234 814 1194 814Q1105 814 1059 738L1059 722L1059 0L700 0L700 669Q700 732 687 763Q674 794 650 804Q626 814 584 814Q543 814 508.50 793.50Q474 773 450 736L450 0L92 0L92 1082L427 1082L440 952Q494 1024 571.50 1063Q649 1102 748 1102Q949 1102 1020 939Q1072 1018 1151 1060Q1230 1102 1334 1102Z"  horiz-adv-x="1760" vert-adv-y="2048"  />

      
      <glyph glyph-name="uni6e" unicode="&#x6e;" d="M736 1102Q896 1102 985 1002Q1074 902 1074 672L1074 0L714 0L714 673Q714 731 697.50 762Q681 793 650.50 803.50Q620 814 570 814Q482 814 440 754L440 0L81 0L81 1082L417 1082L429 957Q484 1028 562 1065Q640 1102 736 1102Z"  horiz-adv-x="1159" vert-adv-y="2048"  />

      
      <glyph glyph-name="unif1" unicode="&#xf1;" d="M81 0M736 1102Q896 1102 985 1002Q1074 902 1074 672L1074 0L714 0L714 673Q714 731 697.50 762Q681 793 650.50 803.50Q620 814 570 814Q482 814 440 754L440 0L81 0L81 1082L417 1082L429 957Q484 1028 562 1065Q640 1102 736 1102M969 1534Q969 1461 939.50 1396.50Q910 1332 856.50 1292.50Q803 1253 736 1253Q693 1253 659 1264Q625 1275 582 1297Q541 1317 514.50 1326Q488 1335 456 1335Q423 1335 403 1314.50Q383 1294 383 1251L187 1261Q187 1331 217 1395.50Q247 1460 300 1500Q353 1540 419 1540Q453 1540 484.50 1530Q516 1520 564 1499Q606 1480 636.50 1470Q667 1460 699 1460Q733 1460 754 1480.50Q775 1501 775 1544L969 1534Z"  horiz-adv-x="1159" vert-adv-y="2048"  />

      
      <glyph glyph-name="uni6f" unicode="&#x6f;" d="M47 551Q47 711 107.50 836Q168 961 286.50 1031.50Q405 1102 572 1102Q741 1102 859.50 1031.50Q978 961 1038.50 836.50Q1099 712 1099 551L1099 530Q1099 369 1038.50 245Q978 121 860 50.50Q742-20 574-20Q406-20 287 50.50Q168 121 107.50 245Q47 369 47 530L47 551M405 530Q405 405 441.50 337.50Q478 270 574 270Q667 270 704 338Q741 406 741 530L741 551Q741 673 704 742.50Q667 812 572 812Q479 812 442 742Q405 672 405 551L405 530Z"  horiz-adv-x="1147" vert-adv-y="2048"  />

      
      <glyph glyph-name="unif3" unicode="&#xf3;" d="M47 0M47 551Q47 711 107.50 836Q168 961 286.50 1031.50Q405 1102 572 1102Q741 1102 859.50 1031.50Q978 961 1038.50 836.50Q1099 712 1099 551L1099 530Q1099 369 1038.50 245Q978 121 860 50.50Q742-20 574-20Q406-20 287 50.50Q168 121 107.50 245Q47 369 47 530L47 551M405 530Q405 405 441.50 337.50Q478 270 574 270Q667 270 704 338Q741 406 741 530L741 551Q741 673 704 742.50Q667 812 572 812Q479 812 442 742Q405 672 405 551L405 530M968 1536L690 1217L397 1217L595 1536L968 1536Z"  horiz-adv-x="1147" vert-adv-y="2048"  />

      
      <glyph glyph-name="unif4" unicode="&#xf4;" d="M47 0M47 551Q47 711 107.50 836Q168 961 286.50 1031.50Q405 1102 572 1102Q741 1102 859.50 1031.50Q978 961 1038.50 836.50Q1099 712 1099 551L1099 530Q1099 369 1038.50 245Q978 121 860 50.50Q742-20 574-20Q406-20 287 50.50Q168 121 107.50 245Q47 369 47 530L47 551M405 530Q405 405 441.50 337.50Q478 270 574 270Q667 270 704 338Q741 406 741 530L741 551Q741 673 704 742.50Q667 812 572 812Q479 812 442 742Q405 672 405 551L405 530M1019 1239L738 1239L576 1366L415 1239L140 1239L140 1258L474 1535L679 1535L1019 1253L1019 1239Z"  horiz-adv-x="1147" vert-adv-y="2048"  />

      
      <glyph glyph-name="unif6" unicode="&#xf6;" d="M47 0M47 551Q47 711 107.50 836Q168 961 286.50 1031.50Q405 1102 572 1102Q741 1102 859.50 1031.50Q978 961 1038.50 836.50Q1099 712 1099 551L1099 530Q1099 369 1038.50 245Q978 121 860 50.50Q742-20 574-20Q406-20 287 50.50Q168 121 107.50 245Q47 369 47 530L47 551M405 530Q405 405 441.50 337.50Q478 270 574 270Q667 270 704 338Q741 406 741 530L741 551Q741 673 704 742.50Q667 812 572 812Q479 812 442 742Q405 672 405 551L405 530M840 1505Q882 1505 918 1486.50Q954 1468 975.50 1436Q997 1404 997 1365Q997 1326 975.50 1294Q954 1262 918 1243.50Q882 1225 840 1225Q798 1225 762.50 1243.50Q727 1262 705.50 1294Q684 1326 684 1365Q684 1404 705.50 1436Q727 1468 762.50 1486.50Q798 1505 840 1505M307 1504Q349 1504 385 1485.50Q421 1467 442.50 1435Q464 1403 464 1364Q464 1325 442.50 1293Q421 1261 385 1242.50Q349 1224 307 1224Q265 1224 229.50 1242.50Q194 1261 172.50 1293Q151 1325 151 1364Q151 1403 172.50 1435Q194 1467 229.50 1485.50Q265 1504 307 1504Z"  horiz-adv-x="1147" vert-adv-y="2048"  />

      
      <glyph glyph-name="unif2" unicode="&#xf2;" d="M47 0M47 551Q47 711 107.50 836Q168 961 286.50 1031.50Q405 1102 572 1102Q741 1102 859.50 1031.50Q978 961 1038.50 836.50Q1099 712 1099 551L1099 530Q1099 369 1038.50 245Q978 121 860 50.50Q742-20 574-20Q406-20 287 50.50Q168 121 107.50 245Q47 369 47 530L47 551M405 530Q405 405 441.50 337.50Q478 270 574 270Q667 270 704 338Q741 406 741 530L741 551Q741 673 704 742.50Q667 812 572 812Q479 812 442 742Q405 672 405 551L405 530M495 1217L210 1536L584 1536L784 1217L495 1217Z"  horiz-adv-x="1147" vert-adv-y="2048"  />

      
      <glyph glyph-name="unif8" unicode="&#xf8;" d="M895 1009Q995 937 1047 818.50Q1099 700 1099 551L1099 530Q1099 369 1038.50 245Q978 121 860 50.50Q742-20 574-20Q484-20 407 1L335-148L151-148L256 70Q154 141 100.50 260.50Q47 380 47 530L47 551Q47 711 107.50 836Q168 961 286.50 1031.50Q405 1102 572 1102Q664 1102 744 1080L814 1222L998 1222L895 1009M405 530Q405 452 417 403L613 808Q597 812 572 812Q479 812 442 742Q405 672 405 551L405 530M741 551Q741 620 730 669L539 273Q556 270 574 270Q667 270 704 338Q741 406 741 530L741 551Z"  horiz-adv-x="1149" vert-adv-y="2048"  />

      
      <glyph glyph-name="unif5" unicode="&#xf5;" d="M47 0M47 551Q47 711 107.50 836Q168 961 286.50 1031.50Q405 1102 572 1102Q741 1102 859.50 1031.50Q978 961 1038.50 836.50Q1099 712 1099 551L1099 530Q1099 369 1038.50 245Q978 121 860 50.50Q742-20 574-20Q406-20 287 50.50Q168 121 107.50 245Q47 369 47 530L47 551M405 530Q405 405 441.50 337.50Q478 270 574 270Q667 270 704 338Q741 406 741 530L741 551Q741 673 704 742.50Q667 812 572 812Q479 812 442 742Q405 672 405 551L405 530M966 1534Q966 1461 936.50 1396.50Q907 1332 853.50 1292.50Q800 1253 733 1253Q690 1253 656 1264Q622 1275 579 1297Q538 1317 511.50 1326Q485 1335 453 1335Q420 1335 400 1314.50Q380 1294 380 1251L184 1261Q184 1331 214 1395.50Q244 1460 297 1500Q350 1540 416 1540Q450 1540 481.50 1530Q513 1520 561 1499Q603 1480 633.50 1470Q664 1460 696 1460Q730 1460 751 1480.50Q772 1501 772 1544L966 1534Z"  horiz-adv-x="1147" vert-adv-y="2048"  />

      
      <glyph glyph-name="uni0153" unicode="&#x0153;" d="M1762 418L1152 418Q1173 352 1226.50 311Q1280 270 1364 270Q1431 270 1479.50 277Q1528 284 1560.50 293.50Q1593 303 1661 326L1742 98Q1671 47 1556 13.50Q1441-20 1311-20Q1205-20 1115.50 11Q1026 42 958 100Q891 42 802 11Q713-20 603-20Q435-20 315 50.50Q195 121 133.50 245.50Q72 370 72 530L72 551Q72 711 133.50 836Q195 961 314.50 1031.50Q434 1102 601 1102Q709 1102 797.50 1072.50Q886 1043 952 987Q1081 1103 1288 1102Q1434 1102 1540.50 1043Q1647 984 1704.50 873.50Q1762 763 1762 611L1762 418M772 551Q772 672 734 742Q696 812 601 812Q508 812 469.50 741.50Q431 671 431 551L431 530Q431 406 469 338Q507 270 603 270Q696 270 734 338.50Q772 407 772 530L772 551M1412 671Q1412 744 1382.50 778Q1353 812 1288 812Q1220 812 1187.50 768Q1155 724 1146 645L1412 645L1412 671Z"  horiz-adv-x="1844" vert-adv-y="2048"  />

      
      <glyph glyph-name="uni70" unicode="&#x70;" d="M684 1102Q819 1102 913.50 1034.50Q1008 967 1056.50 844Q1105 721 1105 555L1105 534Q1105 374 1056.50 248.50Q1008 123 913.50 51.50Q819-20 686-20Q543-20 450 89L450-416L92-416L92 1082L427 1082L438 984Q532 1102 684 1102M747 555Q747 680 712.50 747Q678 814 597 814Q541 814 505 796Q469 778 450 741L450 347Q491 270 599 270Q681 270 714 340Q747 410 747 534L747 555Z"  horiz-adv-x="1153" vert-adv-y="2048"  />

      
      <glyph glyph-name="unife" unicode="&#xfe;" d="M680 1102Q815 1102 909.50 1034.50Q1004 967 1052.50 844Q1101 721 1101 555L1101 534Q1101 374 1052.50 248.50Q1004 123 909 51.50Q814-20 681-20Q541-20 447 87L447-416L87-416L87 1536L447 1536L447 1000Q539 1102 680 1102M742 555Q742 680 708 747Q674 814 593 814Q537 814 501.50 797Q466 780 447 744L447 345Q488 270 595 270Q676 270 709 340.50Q742 411 742 534L742 555Z"  horiz-adv-x="1143" vert-adv-y="2048"  />

      
      <glyph glyph-name="uni71" unicode="&#x71;" d="M1062 1082L1062-416L702-416L702 91Q609-20 463-20Q330-20 236.50 51Q143 122 95 247Q47 372 47 532L47 553Q47 719 95 842.50Q143 966 237 1034Q331 1102 465 1102Q629 1102 727 962L753 1082L1062 1082M554 270Q663 270 702 345L702 738Q684 776 648.50 794Q613 812 556 812Q474 812 439.50 745Q405 678 405 553L405 532Q405 409 438 339.50Q471 270 554 270Z"  horiz-adv-x="1148" vert-adv-y="2048"  />

      
      <glyph glyph-name="uni72" unicode="&#x72;" d="M674 1102Q732 1102 769 1091L763 739L735 741Q677 747 649 747Q569 747 520.50 725.50Q472 704 450 659L450 0L92 0L92 1082L426 1082L438 939Q478 1018 538.50 1060Q599 1102 674 1102Z"  horiz-adv-x="789" vert-adv-y="2048"  />

      
      <glyph glyph-name="uni73" unicode="&#x73;" d="M439 413Q268 450 164 533.50Q60 617 60 753Q60 848 113.50 927.50Q167 1007 269 1054.50Q371 1102 511 1102Q657 1102 766.50 1058Q876 1014 935 933.50Q994 853 994 746L635 746Q635 808 607.50 834.50Q580 861 510 861Q464 861 430.50 838Q397 815 397 774Q397 695 568 668Q690 649 781.50 612.50Q873 576 931.50 504Q990 432 990 317Q990 221 931 144.50Q872 68 763 24Q654-20 510-20Q360-20 250.50 34.50Q141 89 83.50 174.50Q26 260 26 349L359 349Q361 286 403 254Q445 222 520 222Q581 222 613.50 245.50Q646 269 646 309Q646 333 627.50 349.50Q609 366 565.50 380.50Q522 395 439 413Z"  horiz-adv-x="1048" vert-adv-y="2048"  />

      
      <glyph glyph-name="unidf" unicode="&#xdf;" d="M134 0L134 1096Q134 1324 273 1443.50Q412 1563 666 1563Q789 1563 892 1517Q995 1471 1056 1382Q1117 1293 1117 1171Q1117 1109 1105.50 1074.50Q1094 1040 1071 1001Q1049 964 1038 931Q1027 898 1027 840Q1027 814 1048.50 786Q1070 758 1116 712Q1171 657 1206 614Q1241 571 1267 512Q1293 453 1293 383Q1293 260 1238 169.50Q1183 79 1073 29.50Q963-20 802-20Q723-20 650.50-8.50Q578 3 538 25L600 305Q674 270 807 270Q862 270 898.50 299Q935 328 935 382Q935 424 909 457.50Q883 491 828 538Q777 583 745.50 617Q714 651 691.50 701Q669 751 669 816Q669 884 680.50 924Q692 964 715 1008Q735 1045 745 1076.50Q755 1108 755 1158Q755 1189 737.50 1215.50Q720 1242 689.50 1258Q659 1274 621 1274Q559 1274 526 1234Q493 1194 493 1088L493 0L134 0Z"  horiz-adv-x="1347" vert-adv-y="2048"  />

      
      <glyph glyph-name="uni017F" unicode="&#x017F;" d="M85 1163Q85 1354 200 1455.50Q315 1557 525 1557Q595 1557 696 1536L672 1257Q641 1262 620.50 1264.50Q600 1267 569 1267Q508 1267 476 1240.50Q444 1214 444 1163L444 0L85 0L85 1163Z"  horiz-adv-x="543" vert-adv-y="2048"  />

      
      <glyph glyph-name="uni74" unicode="&#x74;" d="M609 273Q669 273 693 277L693 11Q604-20 496-20Q321-20 231.50 63Q142 146 142 323L142 823L14 823L14 1082L142 1082L142 1354L501 1354L501 1082L675 1082L675 823L501 823L501 378Q501 337 510 314.50Q519 292 542 282.50Q565 273 609 273Z"  horiz-adv-x="708" vert-adv-y="2048"  />

      
      <glyph glyph-name="uni75" unicode="&#x75;" d="M1076 1082L1076 0L741 0L730 119Q679 52 606.50 16Q534-20 445-20Q276-20 179 78Q82 176 82 382L82 1082L441 1082L441 380Q441 328 473 298Q505 268 568 268Q675 268 716 338L716 1082L1076 1082Z"  horiz-adv-x="1160" vert-adv-y="2048"  />

      
      <glyph glyph-name="unifa" unicode="&#xfa;" d="M82 0M1076 1082L1076 0L741 0L730 119Q679 52 606.50 16Q534-20 445-20Q276-20 179 78Q82 176 82 382L82 1082L441 1082L441 380Q441 328 473 298Q505 268 568 268Q675 268 716 338L716 1082L1076 1082M970 1536L692 1217L399 1217L597 1536L970 1536Z"  horiz-adv-x="1160" vert-adv-y="2048"  />

      
      <glyph glyph-name="unifb" unicode="&#xfb;" d="M82 0M1076 1082L1076 0L741 0L730 119Q679 52 606.50 16Q534-20 445-20Q276-20 179 78Q82 176 82 382L82 1082L441 1082L441 380Q441 328 473 298Q505 268 568 268Q675 268 716 338L716 1082L1076 1082M1021 1239L740 1239L578 1366L417 1239L142 1239L142 1258L476 1535L681 1535L1021 1253L1021 1239Z"  horiz-adv-x="1160" vert-adv-y="2048"  />

      
      <glyph glyph-name="unifc" unicode="&#xfc;" d="M82 0M1076 1082L1076 0L741 0L730 119Q679 52 606.50 16Q534-20 445-20Q276-20 179 78Q82 176 82 382L82 1082L441 1082L441 380Q441 328 473 298Q505 268 568 268Q675 268 716 338L716 1082L1076 1082M841 1505Q883 1505 919 1486.50Q955 1468 976.50 1436Q998 1404 998 1365Q998 1326 976.50 1294Q955 1262 919 1243.50Q883 1225 841 1225Q799 1225 763.50 1243.50Q728 1262 706.50 1294Q685 1326 685 1365Q685 1404 706.50 1436Q728 1468 763.50 1486.50Q799 1505 841 1505M308 1504Q350 1504 386 1485.50Q422 1467 443.50 1435Q465 1403 465 1364Q465 1325 443.50 1293Q422 1261 386 1242.50Q350 1224 308 1224Q266 1224 230.50 1242.50Q195 1261 173.50 1293Q152 1325 152 1364Q152 1403 173.50 1435Q195 1467 230.50 1485.50Q266 1504 308 1504Z"  horiz-adv-x="1160" vert-adv-y="2048"  />

      
      <glyph glyph-name="unif9" unicode="&#xf9;" d="M82 0M1076 1082L1076 0L741 0L730 119Q679 52 606.50 16Q534-20 445-20Q276-20 179 78Q82 176 82 382L82 1082L441 1082L441 380Q441 328 473 298Q505 268 568 268Q675 268 716 338L716 1082L1076 1082M497 1217L212 1536L586 1536L786 1217L497 1217Z"  horiz-adv-x="1160" vert-adv-y="2048"  />

      
      <glyph glyph-name="uni76" unicode="&#x76;" d="M1068 1082L719 0L496 0L346 0L-2 1082L378 1082L532 432L689 1082L1068 1082Z"  horiz-adv-x="1068" vert-adv-y="2048"  />

      
      <glyph glyph-name="uni77" unicode="&#x77;" d="M1456 1082L1211 0L994 0L906 0L740 589L570 0L393 0L266 0L20 1082L362 1082L454 469L614 1082L838 1082L861 1082L1018 488L1114 1082L1456 1082Z"  horiz-adv-x="1480" vert-adv-y="2048"  />

      
      <glyph glyph-name="uni78" unicode="&#x78;" d="M684 1082L1052 1082L778 557L1067 0L695 0L536 297L380 0L8 0L297 557L24 1082L397 1082L538 811L684 1082Z"  horiz-adv-x="1060" vert-adv-y="2048"  />

      
      <glyph glyph-name="uni79" unicode="&#x79;" d="M1088 1082L653-160Q627-235 591-293Q555-351 481-394Q407-437 290-437Q240-437 220-434Q200-431 145-416L145-150L189-149Q262-149 295-131Q328-113 342-79L368-14L-9 1082L375 1082L535 506L704 1082L1088 1082Z"  horiz-adv-x="1076" vert-adv-y="2048"  />

      
      <glyph glyph-name="unifd" unicode="&#xfd;" d="M0 0M1088 1082L653-160Q627-235 591-293Q555-351 481-394Q407-437 290-437Q240-437 220-434Q200-431 145-416L145-150L189-149Q262-149 295-131Q328-113 342-79L368-14L-9 1082L375 1082L535 506L704 1082L1088 1082M924 1536L646 1217L353 1217L551 1536L924 1536Z"  horiz-adv-x="1076" vert-adv-y="2048"  />

      
      <glyph glyph-name="uniff" unicode="&#xff;" d="M0 0M1088 1082L653-160Q627-235 591-293Q555-351 481-394Q407-437 290-437Q240-437 220-434Q200-431 145-416L145-150L189-149Q262-149 295-131Q328-113 342-79L368-14L-9 1082L375 1082L535 506L704 1082L1088 1082M795 1505Q837 1505 873 1486.50Q909 1468 930.50 1436Q952 1404 952 1365Q952 1326 930.50 1294Q909 1262 873 1243.50Q837 1225 795 1225Q753 1225 717.50 1243.50Q682 1262 660.50 1294Q639 1326 639 1365Q639 1404 660.50 1436Q682 1468 717.50 1486.50Q753 1505 795 1505M262 1504Q304 1504 340 1485.50Q376 1467 397.50 1435Q419 1403 419 1364Q419 1325 397.50 1293Q376 1261 340 1242.50Q304 1224 262 1224Q220 1224 184.50 1242.50Q149 1261 127.50 1293Q106 1325 106 1364Q106 1403 127.50 1435Q149 1467 184.50 1485.50Q220 1504 262 1504Z"  horiz-adv-x="1076" vert-adv-y="2048"  />

      
      <glyph glyph-name="uni7a" unicode="&#x7a;" d="M991 290L991 0L144 0L63 0L63 201L514 792L86 792L86 1082L869 1082L983 1082L983 887L531 290L991 290Z"  horiz-adv-x="1060" vert-adv-y="2048"  />

      
      <glyph glyph-name="uniFB01" unicode="&#xFB01;" d="M530 1082L741 1082L741 823L530 823L530 0L170 0L170 823L15 823L15 1082L170 1082L170 1091Q170 1317 307 1437Q444 1557 697 1557Q785 1557 870.50 1542.50Q956 1528 1060 1500L1012 1204L989 1210Q913 1228 856.50 1237Q800 1246 719 1246Q631 1246 580.50 1205.50Q530 1165 530 1091L530 1082M1224 1082L1224 0L864 0L864 1082L1224 1082Z"  horiz-adv-x="1328" vert-adv-y="2048"  />

      
      <glyph glyph-name="uniaa" unicode="&#xaa;" d="M599 705Q588 739 582 773Q548 736 497.50 713.50Q447 691 381 691Q263 691 197.50 752.50Q132 814 132 919Q132 1031 217.50 1090.50Q303 1150 473 1150L575 1150L575 1201Q575 1263 546 1295.50Q517 1328 459 1328Q394 1328 357.50 1302.50Q321 1277 321 1229L148 1243Q148 1310 186.50 1363Q225 1416 296 1446Q367 1476 459 1476Q593 1476 671.50 1405Q750 1334 750 1200L750 886Q750 784 776 705L599 705M307 923Q307 881 336 858Q365 835 424 835Q462 835 504.50 853Q547 871 575 897L575 1033L474 1033Q392 1033 349.50 1001.50Q307 970 307 923Z"  horiz-adv-x="902" vert-adv-y="2048"  />

      
      <glyph glyph-name="uniba" unicode="&#xba;" d="M117 1121Q117 1224 159.50 1304.50Q202 1385 280.50 1430.50Q359 1476 463 1476Q569 1476 647.50 1431Q726 1386 768 1305Q810 1224 810 1121L810 1044Q810 941 768 860.50Q726 780 648 735Q570 690 465 690Q360 690 281 735Q202 780 159.50 860.50Q117 941 117 1044L117 1121M292 1044Q292 951 336 893.50Q380 836 465 836Q548 836 591.50 893.50Q635 951 635 1044L635 1121Q635 1213 591 1270.50Q547 1328 463 1328Q380 1328 336 1270.50Q292 1213 292 1121L292 1044Z"  horiz-adv-x="939" vert-adv-y="2048"  />

      
      <glyph glyph-name="uni03B1" unicode="&#x03B1;" d="M1153-5Q1122-15 1095-18Q1068-21 1029-21Q818-21 730 151Q638-20 476-20Q342-20 247 48.50Q152 117 103.50 240Q55 363 55 524L55 545Q55 709 104 835Q153 961 248 1031.50Q343 1102 478 1102Q620 1102 707 958L731 1082L1046 1082L1046 391Q1046 325 1062 296Q1078 267 1114 267Q1125 267 1128 269L1153-5M566 270Q648 270 687 313L687 758Q648 812 568 812Q487 812 451 739.50Q415 667 415 545L415 524Q415 401 449 335.50Q483 270 566 270Z"  horiz-adv-x="1151" vert-adv-y="2048"  />

      
      <glyph glyph-name="uni05F0" unicode="&#x05F0;" d="M62 0M834 918L745 918L745 1210L1213 1210L1213 0L834 0L834 918M151 918L62 918L62 1210L530 1210L530 0L151 0L151 918Z"  horiz-adv-x="1367" vert-adv-y="2048"  />

      
      <glyph glyph-name="uni05F1" unicode="&#x05F1;" d="M62 0M907 918L733 918L733 1210L1285 1210L1285 512L907 512L907 918M151 918L62 918L62 1210L530 1210L530 0L151 0L151 918Z"  horiz-adv-x="1432" vert-adv-y="2048"  />

      
      <glyph glyph-name="uni05F2" unicode="&#x05F2;" d="M49 512M971 918L797 918L797 1210L1349 1210L1349 512L971 512L971 918M223 918L49 918L49 1210L601 1210L601 512L223 512L223 918Z"  horiz-adv-x="1496" vert-adv-y="2048"  />

      
      <glyph glyph-name="uniFB4F" unicode="&#xFB4F;" d="M882 493L1217 0L795 0L56 1086L56 1447L435 1447L435 1151L651 833L816 1210L1239 1210L882 493Z"  horiz-adv-x="1303" vert-adv-y="2048"  />

      
      <glyph glyph-name="uni05D0" unicode="&#x05D0;" d="M988 500L1327 0L906 0L506 589Q502 574 502 551L502 0L137 0L137 382Q137 555 187.50 656.50Q238 758 354 814L85 1210L507 1210L757 841L919 1210L1342 1210L988 500Z"  horiz-adv-x="1406" vert-adv-y="2048"  />

      
      <glyph glyph-name="uni05D1" unicode="&#x05D1;" d="M1112 281L1112 0L48 0L48 293L595 293L595 792Q595 852 558.50 885Q522 918 455 918L114 918L114 1210L484 1210Q635 1210 745.50 1157.50Q856 1105 915 1006.50Q974 908 974 773L974 304L1112 281Z"  horiz-adv-x="1131" vert-adv-y="2048"  />

      
      <glyph glyph-name="uni05D2" unicode="&#x05D2;" d="M99-16Q58-16 7-9L7 330Q74 320 120 320Q218 320 283.50 354.50Q349 389 392 468L392 918L131 918L131 1210L764 1210L764 603Q764 504 784 404L864 0L518 0L445 289L439 289Q422 200 374 131Q326 62 254.50 23Q183-16 99-16Z"  horiz-adv-x="971" vert-adv-y="2048"  />

      
      <glyph glyph-name="uni05D3" unicode="&#x05D3;" d="M1137 1210L1137 918L920 918L920 0L541 0L541 918L60 918L60 1210L1137 1210Z"  horiz-adv-x="1207" vert-adv-y="2048"  />

      
      <glyph glyph-name="uni05D4" unicode="&#x05D4;" d="M814 792Q814 852 777.50 885Q741 918 674 918L145 918L145 1210L703 1210Q855 1210 965.50 1157.50Q1076 1105 1134.50 1006.50Q1193 908 1193 773L1193 0L814 0L814 792M138 416Q138 497 152.50 553Q167 609 185.50 638.50Q204 668 219 678L519 678Q503 582 503 460L503 0L138 0L138 416Z"  horiz-adv-x="1317" vert-adv-y="2048"  />

      
      <glyph glyph-name="uni05D5" unicode="&#x05D5;" d="M151 918L62 918L62 1210L530 1210L530 0L151 0L151 918Z"  horiz-adv-x="684" vert-adv-y="2048"  />

      
      <glyph glyph-name="uni05D6" unicode="&#x05D6;" d="M123 907L63 927L63 1210L776 1210L776 918L492 918L632 0L244 0L123 907Z"  horiz-adv-x="832" vert-adv-y="2048"  />

      
      <glyph glyph-name="uni05D7" unicode="&#x05D7;" d="M155 1210L717 1210Q953 1210 1076 1094Q1199 978 1201 754L1201 0L823 0L821 788Q821 850 793 884Q765 918 716 918L532 918L533 0L154 0L155 1210Z"  horiz-adv-x="1325" vert-adv-y="2048"  />

      
      <glyph glyph-name="uni05D8" unicode="&#x05D8;" d="M703-25Q540-25 415.50 42.50Q291 110 222.50 232Q154 354 154 514L154 1210L533 1210L533 466Q533 406 554 359.50Q575 313 613.50 287.50Q652 262 702 262Q778 262 825 318Q872 374 872 466L872 786Q872 856 843 888Q814 920 750 920Q698 920 658 916L628 1156Q684 1187 756 1206Q828 1225 889 1225Q1002 1225 1083.50 1176.50Q1165 1128 1208 1036Q1251 944 1251 816L1251 514Q1251 354 1182.50 232Q1114 110 990 42.50Q866-25 703-25Z"  horiz-adv-x="1330" vert-adv-y="2048"  />

      
      <glyph glyph-name="uni05D9" unicode="&#x05D9;" d="M223 918L49 918L49 1210L601 1210L601 512L223 512L223 918Z"  horiz-adv-x="748" vert-adv-y="2048"  />

      
      <glyph glyph-name="uni05DA" unicode="&#x05DA;" d="M569 918L72 918L72 1210L941 1210L941-416L569-416L569 918Z"  horiz-adv-x="1095" vert-adv-y="2048"  />

      
      <glyph glyph-name="uni05DB" unicode="&#x05DB;" d="M413-20Q260-20 56 23L113 297Q262 269 356 268Q494 269 554 323.50Q614 378 614 493L614 918L104 918L104 1210L993 1210L993 555Q993 256 841 118.50Q689-19 413-20Z"  horiz-adv-x="1147" vert-adv-y="2048"  />

      
      <glyph glyph-name="uni05DC" unicode="&#x05DC;" d="M1079 967L699 0L300 0L675 918L56 918L56 1536L435 1536L435 1210L1079 1210L1079 967Z"  horiz-adv-x="1148" vert-adv-y="2048"  />

      
      <glyph glyph-name="uni05DD" unicode="&#x05DD;" d="M154 1210L1218 1210L1218 0L154 0L154 1210M839 293L839 918L533 918L533 293L839 293Z"  horiz-adv-x="1372" vert-adv-y="2048"  />

      
      <glyph glyph-name="uni05DE" unicode="&#x05DE;" d="M217 637Q226 717 254.50 791Q283 865 321 908Q330 917 333 918L332 924Q296 918 248 903.50Q200 889 170 876L91 1147Q207 1191 368 1218Q529 1245 676 1245Q967 1245 1117 1098.50Q1267 952 1269 668L1269 0L724 0L724 292L890 292L889 720Q889 821 852 879.50Q815 938 751 938Q674 938 634.50 877Q595 816 583 689L521 0L147 0L217 637Z"  horiz-adv-x="1393" vert-adv-y="2048"  />

      
      <glyph glyph-name="uni05DF" unicode="&#x05DF;" d="M160 918L67 918L67 1210L532 1210L532-416L160-416L160 918Z"  horiz-adv-x="686" vert-adv-y="2048"  />

      
      <glyph glyph-name="uni05E0" unicode="&#x05E0;" d="M308-20Q247-20 192.50-13Q138-6 60 11L59 293Q134 284 203 284Q266 284 295.50 317.50Q325 351 325 420L325 918L121 918L121 1210L704 1210L704 390Q704 263 656.50 171Q609 79 520 29.50Q431-20 308-20Z"  horiz-adv-x="858" vert-adv-y="2048"  />

      
      <glyph glyph-name="uni05E1" unicode="&#x05E1;" d="M685-25Q523-25 397.50 46.50Q272 118 201 248Q130 378 127 548L126 598Q125 667 153 756.50Q181 846 216 899Q220 904 235 919L233 925Q201 918 105 894L35 1166Q157 1202 322.50 1223.50Q488 1245 636 1245Q933 1245 1088 1095.50Q1243 946 1243 654L1243 548Q1243 378 1173.50 248Q1104 118 977.50 46.50Q851-25 685-25M684 285Q737 285 778 317.50Q819 350 841.50 409.50Q864 469 864 546L864 647Q864 938 687 938Q595 938 549.50 859.50Q504 781 505 625L505 546Q505 469 527 409.50Q549 350 590 317.50Q631 285 684 285Z"  horiz-adv-x="1331" vert-adv-y="2048"  />

      
      <glyph glyph-name="uni05E2" unicode="&#x05E2;" d="M1179 1210L1179 532Q1179 350 1102.50 223.50Q1026 97 887.50 32.50Q749-32 564-32Q307-32 60 59L136 334Q266 284 380 264Q346 295 321 335.50Q296 376 287 417L107 1210L488 1210L658 375Q668 323 685 290Q800 355 800 512L800 1210L1179 1210Z"  horiz-adv-x="1333" vert-adv-y="2048"  />

      
      <glyph glyph-name="uni05E3" unicode="&#x05E3;" d="M1163-416L789-416L789 918L562 918Q535 818 535 705L535 627Q575 620 603 620L619 621L619 388Q553 369 473 369Q388 369 307 390Q226 411 170 448L171 573Q172 672 190 767.50Q208 863 240 918L127 918L127 1210L1163 1210L1163-416Z"  horiz-adv-x="1317" vert-adv-y="2048"  />

      
      <glyph glyph-name="uni05E4" unicode="&#x05E4;" d="M628-29Q517-29 387.50-8Q258 13 152 51L221 326Q321 299 423.50 283.50Q526 268 597 268Q730 269 795.50 324.50Q861 380 861 493L861 918L562 918Q546 860 540.50 820.50Q535 781 535 731L535 690Q575 683 603 683L619 684L619 451Q553 432 473 432Q388 432 307 453Q226 474 170 511L171 599Q171 694 189 777.50Q207 861 240 918L127 918L127 1210L1240 1210L1240 543Q1240 345 1158.50 217Q1077 89 939 30Q801-29 628-29Z"  horiz-adv-x="1394" vert-adv-y="2048"  />

      
      <glyph glyph-name="uni05E5" unicode="&#x05E5;" d="M862 512Q891 463 904 415.50Q917 368 917 309L917-416L556-416L556 351Q556 377 548 401Q540 425 521 454L13 1210L434 1210L640 856L787 1210L1210 1210L862 512Z"  horiz-adv-x="1232" vert-adv-y="2048"  />

      
      <glyph glyph-name="uni05E6" unicode="&#x05E6;" d="M867 522L1113 165L1113 0L127 0L127 293L628 293L13 1210L434 1210L643 864L787 1210L1210 1210L867 522Z"  horiz-adv-x="1250" vert-adv-y="2048"  />

      
      <glyph glyph-name="uni05E7" unicode="&#x05E7;" d="M609 285Q722 291 778.50 353.50Q835 416 835 543L835 918L154 918L154 1210L1214 1210L1214 551Q1214 291 1057.50 151Q901 11 609 0L609 285M157 409Q157 490 171 546Q185 602 204 631.50Q223 661 238 671L538 671Q521 589 521 453L521-416L157-416L157 409Z"  horiz-adv-x="1368" vert-adv-y="2048"  />

      
      <glyph glyph-name="uni05E8" unicode="&#x05E8;" d="M521 777Q521 918 365 918L21 918L21 1210L396 1210Q553 1210 666.50 1156.50Q780 1103 840 1001.50Q900 900 900 760L900 0L521 0L521 777Z"  horiz-adv-x="1024" vert-adv-y="2048"  />

      
      <glyph glyph-name="uni05E9" unicode="&#x05E9;" d="M519 329Q599 295 694.50 273.50Q790 252 868 252Q1083 252 1205 343Q1327 434 1327 622L1327 1210L1693 1210L1693 578Q1693 377 1585.50 237.50Q1478 98 1294.50 28.50Q1111-41 883-41Q705-41 514.50 1.50Q324 44 154 126L154 1210L519 1210L519 329M711 410Q721 447 727.50 519.50Q734 592 734 668L734 1210L1100 1210L1100 751Q1100 650 1076.50 554.50Q1053 459 1017 412L711 410Z"  horiz-adv-x="1847" vert-adv-y="2048"  />

      
      <glyph glyph-name="uni05EA" unicode="&#x05EA;" d="M737 1210Q974 1210 1097.50 1094Q1221 978 1221 754L1221 0L843 0L841 788Q841 850 814 884Q787 918 738 918L589 918Q576 808 576 706L576 389Q576 261 528.50 169Q481 77 392 28Q303-21 180-21Q99-21 10-6L10 283L74 282Q137 282 172.50 316.50Q208 351 208 419L208 670Q208 725 222.50 795Q237 865 266 918L96 918L96 1210L737 1210Z"  horiz-adv-x="1345" vert-adv-y="2048"  />

      
      <glyph glyph-name="uniFB1F" unicode="&#xFB1F;" d="M49 0M971 918L797 918L797 1210L1349 1210L1349 512L971 512L971 918M223 918L49 918L49 1210L601 1210L601 512L223 512L223 918M153-176L668-176L668-328L153-328L153-176Z"  horiz-adv-x="1496" vert-adv-y="2048"  />

      
      <glyph glyph-name="uniFB20" unicode="&#xFB20;" d="M1208 1210L1179 534Q1171 351 1095 222Q1019 93 883.50 26.50Q748-40 564-40Q338-40 60 61L136 336Q286 279 405 261Q370 293 344 334Q318 375 309 417L129 1210L510 1210L679 375Q690 331 701 303Q796 370 800 514L829 1210L1208 1210Z"  horiz-adv-x="1362" vert-adv-y="2048"  />

      
      <glyph glyph-name="uniFB21" unicode="&#xFB21;" d="M1444 370L1825 0L1314 0L559 743Q544 670 544 561L544 0L179 0L179 560Q179 693 223 786Q267 879 359 940L85 1210L582 1210L1177 631L1432 1210L1854 1210L1444 370Z"  horiz-adv-x="1918" vert-adv-y="2048"  />

      
      <glyph glyph-name="uniFB22" unicode="&#xFB22;" d="M1417 1210L1417 931L1148 900L1148 0L770 0L770 918L60 918L60 1210L1417 1210Z"  horiz-adv-x="1487" vert-adv-y="2048"  />

      
      <glyph glyph-name="uniFB23" unicode="&#xFB23;" d="M1177 777Q1177 918 1022 918L144 918L144 1210L1053 1210Q1210 1210 1323 1156.50Q1436 1103 1496 1001.50Q1556 900 1556 760L1556 0L1177 0L1177 777M138 399Q138 508 182 625L521 672L537 657Q537 654 530 600Q523 551 516.50 493.50Q510 436 510 398L510 0L138 0L138 399Z"  horiz-adv-x="1680" vert-adv-y="2048"  />

      
      <glyph glyph-name="uniFB24" unicode="&#xFB24;" d="M655-41Q526-41 364-20.50Q202 0 56 36L109 328Q255 297 399.50 280.50Q544 264 643 264Q840 264 927 332.50Q1014 401 1016 537L1016 918L109 918L109 1210L1395 1210L1395 534Q1393 343 1302.50 214.50Q1212 86 1046.50 22.50Q881-41 655-41Z"  horiz-adv-x="1549" vert-adv-y="2048"  />

      
      <glyph glyph-name="uniFB25" unicode="&#xFB25;" d="M1411 967L852 0L453 0L964 918L56 918L56 1447L435 1447L435 1210L1411 1210L1411 967Z"  horiz-adv-x="1480" vert-adv-y="2048"  />

      
      <glyph glyph-name="uniFB26" unicode="&#xFB26;" d="M175 1210L1694 1210L1694 0L175 0L175 1210M1315 293L1315 918L554 918L554 293L1315 293Z"  horiz-adv-x="1858" vert-adv-y="2048"  />

      
      <glyph glyph-name="uniFB27" unicode="&#xFB27;" d="M860 777Q860 918 705 918L21 918L21 1210L736 1210Q893 1210 1006 1156.50Q1119 1103 1179 1001.50Q1239 900 1239 760L1239 0L860 0L860 777Z"  horiz-adv-x="1363" vert-adv-y="2048"  />

      
      <glyph glyph-name="uniFB28" unicode="&#xFB28;" d="M1243 1210Q1479 1210 1602.50 1094Q1726 978 1726 754L1726 0L1349 0L1348 788Q1348 850 1320 884Q1292 918 1243 918L589 918Q576 808 576 706L576 389Q576 261 528.50 169Q481 77 392 28Q303-21 180-21Q99-21 10-6L10 283L74 282Q137 282 172.50 316.50Q208 351 208 419L208 670Q208 725 222.50 795Q237 865 266 918L96 918L96 1210L1243 1210Z"  horiz-adv-x="1850" vert-adv-y="2048"  />

      
      <glyph glyph-name="uniFB2A" unicode="&#xFB2A;" d="M154 0M519 329Q599 295 694.50 273.50Q790 252 868 252Q1083 252 1205 343Q1327 434 1327 622L1327 1210L1693 1210L1693 578Q1693 377 1585.50 237.50Q1478 98 1294.50 28.50Q1111-41 883-41Q705-41 514.50 1.50Q324 44 154 126L154 1210L519 1210L519 329M711 410Q721 447 727.50 519.50Q734 592 734 668L734 1210L1100 1210L1100 751Q1100 650 1076.50 554.50Q1053 459 1017 412L711 410M1491 1363Q1443 1363 1410 1391Q1377 1419 1377 1462Q1377 1505 1410 1534Q1443 1563 1491 1563Q1541 1563 1572.50 1534.50Q1604 1506 1604 1462Q1604 1418 1572.50 1390.50Q1541 1363 1491 1363Z"  horiz-adv-x="1847" vert-adv-y="2048"  />

      
      <glyph glyph-name="uniFB2B" unicode="&#xFB2B;" d="M154 0M519 329Q599 295 694.50 273.50Q790 252 868 252Q1083 252 1205 343Q1327 434 1327 622L1327 1210L1693 1210L1693 578Q1693 377 1585.50 237.50Q1478 98 1294.50 28.50Q1111-41 883-41Q705-41 514.50 1.50Q324 44 154 126L154 1210L519 1210L519 329M711 410Q721 447 727.50 519.50Q734 592 734 668L734 1210L1100 1210L1100 751Q1100 650 1076.50 554.50Q1053 459 1017 412L711 410M321 1363Q273 1363 240.50 1391Q208 1419 208 1462Q208 1505 240.50 1534Q273 1563 321 1563Q370 1563 402.50 1534.50Q435 1506 435 1462Q435 1419 403 1391Q371 1363 321 1363Z"  horiz-adv-x="1847" vert-adv-y="2048"  />

      
      <glyph glyph-name="uniFB2C" unicode="&#xFB2C;" d="M154 0M519 329Q599 295 694.50 273.50Q790 252 868 252Q1083 252 1205 343Q1327 434 1327 622L1327 1210L1693 1210L1693 578Q1693 377 1585.50 237.50Q1478 98 1294.50 28.50Q1111-41 883-41Q705-41 514.50 1.50Q324 44 154 126L154 1210L519 1210L519 329M711 410Q721 447 727.50 519.50Q734 592 734 668L734 1210L1100 1210L1100 751Q1100 650 1076.50 554.50Q1053 459 1017 412L711 410M1208 504Q1160 504 1127 532Q1094 560 1094 603Q1094 647 1126.50 675Q1159 703 1208 703Q1258 703 1289.50 675Q1321 647 1321 603Q1321 560 1289.50 532Q1258 504 1208 504M1491 1363Q1443 1363 1410 1391Q1377 1419 1377 1462Q1377 1505 1410 1534Q1443 1563 1491 1563Q1541 1563 1572.50 1534.50Q1604 1506 1604 1462Q1604 1418 1572.50 1390.50Q1541 1363 1491 1363Z"  horiz-adv-x="1847" vert-adv-y="2048"  />

      
      <glyph glyph-name="uniFB2D" unicode="&#xFB2D;" d="M154 0M519 329Q599 295 694.50 273.50Q790 252 868 252Q1083 252 1205 343Q1327 434 1327 622L1327 1210L1693 1210L1693 578Q1693 377 1585.50 237.50Q1478 98 1294.50 28.50Q1111-41 883-41Q705-41 514.50 1.50Q324 44 154 126L154 1210L519 1210L519 329M711 410Q721 447 727.50 519.50Q734 592 734 668L734 1210L1100 1210L1100 751Q1100 650 1076.50 554.50Q1053 459 1017 412L711 410M1208 504Q1160 504 1127 532Q1094 560 1094 603Q1094 647 1126.50 675Q1159 703 1208 703Q1258 703 1289.50 675Q1321 647 1321 603Q1321 560 1289.50 532Q1258 504 1208 504M321 1363Q273 1363 240.50 1391Q208 1419 208 1462Q208 1505 240.50 1534Q273 1563 321 1563Q370 1563 402.50 1534.50Q435 1506 435 1462Q435 1419 403 1391Q371 1363 321 1363Z"  horiz-adv-x="1847" vert-adv-y="2048"  />

      
      <glyph glyph-name="uniFB2E" unicode="&#xFB2E;" d="M85 0M988 500L1327 0L906 0L506 589Q502 574 502 551L502 0L137 0L137 382Q137 555 187.50 656.50Q238 758 354 814L85 1210L507 1210L757 841L919 1210L1342 1210L988 500M446-176L961-176L961-328L446-328L446-176Z"  horiz-adv-x="1406" vert-adv-y="2048"  />

      
      <glyph glyph-name="uniFB2F" unicode="&#xFB2F;" d="M85 0M988 500L1327 0L906 0L506 589Q502 574 502 551L502 0L137 0L137 382Q137 555 187.50 656.50Q238 758 354 814L85 1210L507 1210L757 841L919 1210L1342 1210L988 500M703-609Q655-609 622.50-581Q590-553 590-510Q590-491 596-477.50Q602-464 615-443Q632-417 642.50-392Q653-367 658-328L480-328L480-176L927-176L927-328L747-328Q752-366 762-390Q772-414 790-443Q803-463 809.50-477Q816-491 816-510Q816-553 784-581Q752-609 703-609Z"  horiz-adv-x="1406" vert-adv-y="2048"  />

      
      <glyph glyph-name="uniFB30" unicode="&#xFB30;" d="M85 0M988 500L1327 0L906 0L506 589Q502 574 502 551L502 0L137 0L137 382Q137 555 187.50 656.50Q238 758 354 814L85 1210L507 1210L757 841L919 1210L1342 1210L988 500M639 34Q591 34 558 62Q525 90 525 133Q525 177 557.50 205Q590 233 639 233Q689 233 720.50 205Q752 177 752 133Q752 90 720.50 62Q689 34 639 34Z"  horiz-adv-x="1406" vert-adv-y="2048"  />

      
      <glyph glyph-name="uniFB31" unicode="&#xFB31;" d="M48 0M1112 281L1112 0L48 0L48 293L595 293L595 792Q595 852 558.50 885Q522 918 455 918L114 918L114 1210L484 1210Q635 1210 745.50 1157.50Q856 1105 915 1006.50Q974 908 974 773L974 304L1112 281M332 504Q284 504 251 532Q218 560 218 603Q218 647 250.50 675Q283 703 332 703Q382 703 413.50 675Q445 647 445 603Q445 560 413.50 532Q382 504 332 504Z"  horiz-adv-x="1131" vert-adv-y="2048"  />

      
      <glyph glyph-name="uniFB32" unicode="&#xFB32;" d="M7 0M99-16Q58-16 7-9L7 330Q74 320 120 320Q218 320 283.50 354.50Q349 389 392 468L392 918L131 918L131 1210L764 1210L764 603Q764 504 784 404L864 0L518 0L445 289L439 289Q422 200 374 131Q326 62 254.50 23Q183-16 99-16M151 504Q103 504 70 532Q37 560 37 603Q37 647 69.50 675Q102 703 151 703Q201 703 232.50 675Q264 647 264 603Q264 560 232.50 532Q201 504 151 504Z"  horiz-adv-x="971" vert-adv-y="2048"  />

      
      <glyph glyph-name="uniFB33" unicode="&#xFB33;" d="M60 0M1137 1210L1137 918L920 918L920 0L541 0L541 918L60 918L60 1210L1137 1210M275 504Q227 504 194 532Q161 560 161 603Q161 647 193.50 675Q226 703 275 703Q325 703 356.50 675Q388 647 388 603Q388 560 356.50 532Q325 504 275 504Z"  horiz-adv-x="1207" vert-adv-y="2048"  />

      
      <glyph glyph-name="uniFB34" unicode="&#xFB34;" d="M814 792Q814 852 777.50 885Q741 918 674 918L145 918L145 1210L703 1210Q855 1210 965.50 1157.50Q1076 1105 1134.50 1006.50Q1193 908 1193 773L1193 0L814 0L814 792M659 504Q611 504 578 532Q545 560 545 603Q545 647 577.50 675Q610 703 659 703Q709 703 740.50 675Q772 647 772 603Q772 560 740.50 532Q709 504 659 504M138 416Q138 497 152.50 553Q167 609 185.50 638.50Q204 668 219 678L519 678Q503 582 503 460L503 0L138 0L138 416Z"  horiz-adv-x="1317" vert-adv-y="2048"  />

      
      <glyph glyph-name="uniFB35" unicode="&#xFB35;" d="M0 0M150 918L61 918L61 1210L529 1210L529 0L150 0L150 918M-1 504Q-49 504-82 532Q-115 560-115 603Q-115 647-82.50 675Q-50 703-1 703Q49 703 80.50 675Q112 647 112 603Q112 560 80.50 532Q49 504-1 504Z"  horiz-adv-x="684" vert-adv-y="2048"  />

      
      <glyph glyph-name="uniFB36" unicode="&#xFB36;" d="M63 0M123 907L63 927L63 1210L776 1210L776 918L492 918L632 0L244 0L123 907M687 504Q639 504 606 532Q573 560 573 603Q573 647 605.50 675Q638 703 687 703Q737 703 768.50 675Q800 647 800 603Q800 560 768.50 532Q737 504 687 504Z"  horiz-adv-x="832" vert-adv-y="2048"  />

      
      <glyph glyph-name="uniFB38" unicode="&#xFB38;" d="M154 0M703-25Q540-25 415.50 42.50Q291 110 222.50 232Q154 354 154 514L154 1210L533 1210L533 466Q533 406 554 359.50Q575 313 613.50 287.50Q652 262 702 262Q778 262 825 318Q872 374 872 466L872 786Q872 856 843 888Q814 920 750 920Q698 920 658 916L628 1156Q684 1187 756 1206Q828 1225 889 1225Q1002 1225 1083.50 1176.50Q1165 1128 1208 1036Q1251 944 1251 816L1251 514Q1251 354 1182.50 232Q1114 110 990 42.50Q866-25 703-25M704 504Q656 504 623 532Q590 560 590 603Q590 647 622.50 675Q655 703 704 703Q754 703 785.50 675Q817 647 817 603Q817 560 785.50 532Q754 504 704 504Z"  horiz-adv-x="1330" vert-adv-y="2048"  />

      
      <glyph glyph-name="uniFB39" unicode="&#xFB39;" d="M0 512M223 918L49 918L49 1210L601 1210L601 512L223 512L223 918M36 645Q-12 645-45 673Q-78 701-78 744Q-78 788-45.50 816Q-13 844 36 844Q86 844 117.50 816Q149 788 149 744Q149 701 117.50 673Q86 645 36 645Z"  horiz-adv-x="748" vert-adv-y="2048"  />

      
      <glyph glyph-name="uniFB3A" unicode="&#xFB3A;" d="M72 0M569 918L72 918L72 1210L941 1210L941-416L569-416L569 918M292 604Q244 604 211 632Q178 660 178 703Q178 747 210.50 775Q243 803 292 803Q342 803 373.50 775Q405 747 405 703Q405 660 373.50 632Q342 604 292 604Z"  horiz-adv-x="1095" vert-adv-y="2048"  />

      
      <glyph glyph-name="uniFB3B" unicode="&#xFB3B;" d="M56 0M413-20Q260-20 56 23L113 297Q262 269 356 268Q494 269 554 323.50Q614 378 614 493L614 918L104 918L104 1210L993 1210L993 555Q993 256 841 118.50Q689-19 413-20M338 504Q290 504 257 532Q224 560 224 603Q224 647 256.50 675Q289 703 338 703Q388 703 419.50 675Q451 647 451 603Q451 560 419.50 532Q388 504 338 504Z"  horiz-adv-x="1147" vert-adv-y="2048"  />

      
      <glyph glyph-name="uniFB3C" unicode="&#xFB3C;" d="M56 0M1079 967L699 0L300 0L675 918L56 918L56 1536L435 1536L435 1210L1079 1210L1079 967M286 550Q238 550 205 578Q172 606 172 649Q172 693 204.50 721Q237 749 286 749Q336 749 367.50 721Q399 693 399 649Q399 606 367.50 578Q336 550 286 550Z"  horiz-adv-x="1148" vert-adv-y="2048"  />

      
      <glyph glyph-name="uniFB3E" unicode="&#xFB3E;" d="M91 0M217 637Q226 717 254.50 791Q283 865 321 908Q330 917 333 918L332 924Q296 918 248 903.50Q200 889 170 876L91 1147Q207 1191 368 1218Q529 1245 676 1245Q967 1245 1117 1098.50Q1267 952 1269 668L1269 0L724 0L724 292L890 292L889 720Q889 821 852 879.50Q815 938 751 938Q674 938 634.50 877Q595 816 583 689L521 0L147 0L217 637M738 504Q690 504 657 532Q624 560 624 603Q624 647 656.50 675Q689 703 738 703Q788 703 819.50 675Q851 647 851 603Q851 560 819.50 532Q788 504 738 504Z"  horiz-adv-x="1393" vert-adv-y="2048"  />

      
      <glyph glyph-name="uniFB40" unicode="&#xFB40;" d="M6 0M308-20Q247-20 192.50-13Q138-6 60 11L59 293Q134 284 203 284Q266 284 295.50 317.50Q325 351 325 420L325 918L121 918L121 1210L704 1210L704 390Q704 263 656.50 171Q609 79 520 29.50Q431-20 308-20M120 504Q72 504 39 532Q6 560 6 603Q6 647 38.50 675Q71 703 120 703Q170 703 201.50 675Q233 647 233 603Q233 560 201.50 532Q170 504 120 504Z"  horiz-adv-x="858" vert-adv-y="2048"  />

      
      <glyph glyph-name="uniFB41" unicode="&#xFB41;" d="M35 0M685-25Q523-25 397.50 46.50Q272 118 201 248Q130 378 127 548L126 598Q125 667 153 756.50Q181 846 216 899Q220 904 235 919L233 925Q201 918 105 894L35 1166Q157 1202 322.50 1223.50Q488 1245 636 1245Q933 1245 1088 1095.50Q1243 946 1243 654L1243 548Q1243 378 1173.50 248Q1104 118 977.50 46.50Q851-25 685-25M684 285Q737 285 778 317.50Q819 350 841.50 409.50Q864 469 864 546L864 647Q864 938 687 938Q595 938 549.50 859.50Q504 781 505 625L505 546Q505 469 527 409.50Q549 350 590 317.50Q631 285 684 285M685 504Q637 504 604 532Q571 560 571 603Q571 647 603.50 675Q636 703 685 703Q735 703 766.50 675Q798 647 798 603Q798 560 766.50 532Q735 504 685 504Z"  horiz-adv-x="1331" vert-adv-y="2048"  />

      
      <glyph glyph-name="uniFB43" unicode="&#xFB43;" d="M127 0M1163-416L789-416L789 918L562 918Q535 818 535 705L535 627Q575 620 603 620L619 621L619 388Q553 369 473 369Q388 369 307 390Q226 411 170 448L171 573Q172 672 190 767.50Q208 863 240 918L127 918L127 1210L1163 1210L1163-416M664 655Q616 655 583 683Q550 711 550 754Q550 798 582.50 826Q615 854 664 854Q714 854 745.50 826Q777 798 777 754Q777 711 745.50 683Q714 655 664 655Z"  horiz-adv-x="1317" vert-adv-y="2048"  />

      
      <glyph glyph-name="uniFB44" unicode="&#xFB44;" d="M126 0M627-29Q516-29 386.50-8Q257 13 151 51L220 326Q320 299 422.50 283.50Q525 268 596 268Q729 269 794.50 324.50Q860 380 860 493L860 918L561 918Q545 860 539.50 820.50Q534 781 534 731L534 690Q574 683 602 683L618 684L618 451Q552 432 472 432Q387 432 306 453Q225 474 169 511L170 599Q170 694 188 777.50Q206 861 239 918L126 918L126 1210L1239 1210L1239 543Q1239 345 1157.50 217Q1076 89 938 30Q800-29 627-29M708 679Q660 679 627 707Q594 735 594 778Q594 822 626.50 850Q659 878 708 878Q758 878 789.50 850Q821 822 821 778Q821 735 789.50 707Q758 679 708 679Z"  horiz-adv-x="1394" vert-adv-y="2048"  />

      
      <glyph glyph-name="uniFB46" unicode="&#xFB46;" d="M867 522L1113 165L1113 0L127 0L127 293L628 293L13 1210L434 1210L643 864L787 1210L1210 1210L867 522M392 462Q392 419 360.50 391Q329 363 279 363Q231 363 198 391Q165 419 165 462Q165 506 197.50 534Q230 562 279 562Q329 562 360.50 534Q392 506 392 462Z"  horiz-adv-x="1250" vert-adv-y="2048"  />

      
      <glyph glyph-name="uniFB47" unicode="&#xFB47;" d="M153 0M608 285Q721 291 777.50 353.50Q834 416 834 543L834 918L153 918L153 1210L1213 1210L1213 551Q1213 291 1056.50 151Q900 11 608 0L608 285M156 409Q156 490 170 546Q184 602 203 631.50Q222 661 237 671L537 671Q520 589 520 453L520-416L156-416L156 409M681 504Q633 504 600 532Q567 560 567 603Q567 647 599.50 675Q632 703 681 703Q731 703 762.50 675Q794 647 794 603Q794 560 762.50 532Q731 504 681 504Z"  horiz-adv-x="1368" vert-adv-y="2048"  />

      
      <glyph glyph-name="uniFB48" unicode="&#xFB48;" d="M21 0M521 777Q521 918 365 918L21 918L21 1210L396 1210Q553 1210 666.50 1156.50Q780 1103 840 1001.50Q900 900 900 760L900 0L521 0L521 777M254 504Q206 504 173 532Q140 560 140 603Q140 647 172.50 675Q205 703 254 703Q304 703 335.50 675Q367 647 367 603Q367 560 335.50 532Q304 504 254 504Z"  horiz-adv-x="1024" vert-adv-y="2048"  />

      
      <glyph glyph-name="uniFB49" unicode="&#xFB49;" d="M154 0M519 329Q599 295 694.50 273.50Q790 252 868 252Q1083 252 1205 343Q1327 434 1327 622L1327 1210L1693 1210L1693 578Q1693 377 1585.50 237.50Q1478 98 1294.50 28.50Q1111-41 883-41Q705-41 514.50 1.50Q324 44 154 126L154 1210L519 1210L519 329M711 410Q721 447 727.50 519.50Q734 592 734 668L734 1210L1100 1210L1100 751Q1100 650 1076.50 554.50Q1053 459 1017 412L711 410M1208 504Q1160 504 1127 532Q1094 560 1094 603Q1094 647 1126.50 675Q1159 703 1208 703Q1258 703 1289.50 675Q1321 647 1321 603Q1321 560 1289.50 532Q1258 504 1208 504Z"  horiz-adv-x="1847" vert-adv-y="2048"  />

      
      <glyph glyph-name="uniFB4A" unicode="&#xFB4A;" d="M10 0M737 1210Q974 1210 1097.50 1094Q1221 978 1221 754L1221 0L843 0L841 788Q841 850 814 884Q787 918 738 918L589 918Q576 808 576 706L576 389Q576 261 528.50 169Q481 77 392 28Q303-21 180-21Q99-21 10-6L10 283L74 282Q137 282 172.50 316.50Q208 351 208 419L208 670Q208 725 222.50 795Q237 865 266 918L96 918L96 1210L737 1210M704 504Q656 504 623 532Q590 560 590 603Q590 647 622.50 675Q655 703 704 703Q754 703 785.50 675Q817 647 817 603Q817 560 785.50 532Q754 504 704 504Z"  horiz-adv-x="1345" vert-adv-y="2048"  />

      
      <glyph glyph-name="uniFB4B" unicode="&#xFB4B;" d="M61 0M150 918L61 918L61 1210L529 1210L529 0L150 0L150 918M300 1363Q251 1363 218.50 1391Q186 1419 186 1462Q186 1505 218.50 1534Q251 1563 300 1563Q349 1563 381 1534.50Q413 1506 413 1462Q413 1419 381.50 1391Q350 1363 300 1363Z"  horiz-adv-x="684" vert-adv-y="2048"  />

      
      <glyph glyph-name="uniFB4C" unicode="&#xFB4C;" d="M48 0M1112 281L1112 0L48 0L48 293L595 293L595 792Q595 852 558.50 885Q522 918 455 918L114 918L114 1210L484 1210Q635 1210 745.50 1157.50Q856 1105 915 1006.50Q974 908 974 773L974 304L1112 281M208 1557L839 1557L839 1372L208 1372L208 1557Z"  horiz-adv-x="1131" vert-adv-y="2048"  />

      
      <glyph glyph-name="uniFB4D" unicode="&#xFB4D;" d="M56 0M413-20Q260-20 56 23L113 297Q262 269 356 268Q494 269 554 323.50Q614 378 614 493L614 918L104 918L104 1210L993 1210L993 555Q993 256 841 118.50Q689-19 413-20M227 1557L858 1557L858 1372L227 1372L227 1557Z"  horiz-adv-x="1147" vert-adv-y="2048"  />

      
      <glyph glyph-name="uniFB4E" unicode="&#xFB4E;" d="M126 0M627-29Q516-29 386.50-8Q257 13 151 51L220 326Q320 299 422.50 283.50Q525 268 596 268Q729 269 794.50 324.50Q860 380 860 493L860 918L561 918Q545 860 539.50 820.50Q534 781 534 731L534 690Q574 683 602 683L618 684L618 451Q552 432 472 432Q387 432 306 453Q225 474 169 511L170 599Q170 694 188 777.50Q206 861 239 918L126 918L126 1210L1239 1210L1239 543Q1239 345 1157.50 217Q1076 89 938 30Q800-29 627-29M349 1557L980 1557L980 1372L349 1372L349 1557Z"  horiz-adv-x="1394" vert-adv-y="2048"  />

      
      <glyph glyph-name="uni30" unicode="&#x30;" d="M1111 586Q1111 391 1046.50 254.50Q982 118 866 49Q750-20 598-20Q444-20 327.50 49Q211 118 146.50 254Q82 390 82 586L82 867Q82 1063 146.50 1200Q211 1337 326.50 1406.50Q442 1476 596 1476Q748 1476 864.50 1406Q981 1336 1046 1199Q1111 1062 1111 867L1111 586M752 912Q752 1058 711.50 1122Q671 1186 596 1186Q519 1186 479.50 1122.50Q440 1059 440 912L440 543Q440 393 480 331.50Q520 270 598 270Q673 270 712.50 332Q752 394 752 543L752 912Z"  horiz-adv-x="1192" vert-adv-y="2048"  />

      
      <glyph glyph-name="uni31" unicode="&#x31;" d="M493 0L493 1033L166 947L166 1227L820 1454L851 1454L851 0L493 0Z"  horiz-adv-x="1192" vert-adv-y="2048"  />

      
      <glyph glyph-name="uni32" unicode="&#x32;" d="M86 0L86 244L552 725Q635 816 676.50 890Q718 964 718 1014Q718 1103 680.50 1145Q643 1187 570 1187Q525 1187 490 1159Q455 1131 435 1083Q415 1035 415 977L55 977Q55 1113 122.50 1227.50Q190 1342 310 1409.50Q430 1477 580 1477Q825 1477 951 1365.50Q1077 1254 1077 1045Q1077 943 1036 851.50Q995 760 921 670Q847 580 716 447L560 290L1110 290L1110 0L86 0Z"  horiz-adv-x="1192" vert-adv-y="2048"  />

      
      <glyph glyph-name="uni33" unicode="&#x33;" d="M879 748Q992 707 1055.50 622Q1119 537 1119 409Q1119 276 1047 179Q975 82 848.50 31Q722-20 563-20Q434-20 314.50 25.50Q195 71 118 168Q41 265 41 412L401 412Q401 374 425.50 341.50Q450 309 490.50 289.50Q531 270 576 270Q632 270 674.50 291.50Q717 313 739 347.50Q761 382 761 420Q761 519 712 562Q663 605 568 605L398 605L398 788L398 883L568 883Q652 883 694.50 926Q737 969 737 1050Q737 1084 719 1115.50Q701 1147 665 1167Q629 1187 576 1187Q539 1187 504 1174.50Q469 1162 446.50 1138Q424 1114 424 1083L65 1083Q65 1206 134 1295Q203 1384 316.50 1430.50Q430 1477 563 1477Q722 1477 842.50 1429Q963 1381 1029.50 1287Q1096 1193 1096 1060Q1096 959 1037.50 877.50Q979 796 879 748Z"  horiz-adv-x="1192" vert-adv-y="2048"  />

      
      <glyph glyph-name="uni34" unicode="&#x34;" d="M1131 302L991 302L991 0L632 0L632 302L84 302L60 535L632 1450L632 1456L918 1456L991 1456L991 592L1131 592L1131 302M632 592L632 969L610 931L398 592L632 592Z"  horiz-adv-x="1192" vert-adv-y="2048"  />

      
      <glyph glyph-name="uni35" unicode="&#x35;" d="M186 1456L1052 1456L1052 1170L477 1170L445 908Q476 925 533 942Q590 959 650 959Q869 959 985.50 833.50Q1102 708 1102 471Q1102 344 1045.50 231.50Q989 119 873.50 49.50Q758-20 591-20Q458-20 336.50 36.50Q215 93 141 194Q67 295 70 423L432 423Q435 355 478 312.50Q521 270 589 270Q677 270 710.50 333.50Q744 397 744 501Q744 604 697.50 656.50Q651 709 548 709Q485 709 441.50 686.50Q398 664 380 637L95 707L186 1456Z"  horiz-adv-x="1192" vert-adv-y="2048"  />

      
      <glyph glyph-name="uni36" unicode="&#x36;" d="M728 990Q856 990 949 926Q1042 862 1091 747.50Q1140 633 1140 484Q1140 342 1073 227Q1006 112 887.50 46Q769-20 623-20Q467-20 343.50 46.50Q220 113 148 246.50Q76 380 76 573L76 709Q76 961 186.50 1135.50Q297 1310 474.50 1396.50Q652 1483 852 1483L912 1483L912 1189L893 1189Q718 1189 595 1114.50Q472 1040 443 876Q495 928 567.50 959Q640 990 728 990M613 269Q660 269 698.50 298Q737 327 759 377Q781 427 781 487Q781 592 730 647.50Q679 703 598 703Q540 703 498 678.50Q456 654 434 615L434 510Q434 385 477 327Q520 269 613 269Z"  horiz-adv-x="1192" vert-adv-y="2048"  />

      
      <glyph glyph-name="uni37" unicode="&#x37;" d="M572 0L193 0L730 1166L48 1166L48 1456L1107 1456L1107 1255L572 0Z"  horiz-adv-x="1192" vert-adv-y="2048"  />

      
      <glyph glyph-name="uni38" unicode="&#x38;" d="M891 750Q995 699 1052.50 610Q1110 521 1110 403Q1110 265 1045 170Q980 75 864.50 27.50Q749-20 598-20Q447-20 330 27.50Q213 75 146.50 170Q80 265 80 403Q80 521 139 610Q198 699 303 751Q212 801 161.50 881.50Q111 962 111 1064Q111 1196 172.50 1289Q234 1382 343.50 1429.50Q453 1477 595 1477Q739 1477 848.50 1429.50Q958 1382 1019.50 1289Q1081 1196 1081 1064Q1081 961 1031.50 880.50Q982 800 891 750M595 1187Q534 1187 502.50 1149.50Q471 1112 471 1042Q471 971 503 930Q535 889 598 889Q660 889 691.50 930Q723 971 723 1042Q723 1112 691 1149.50Q659 1187 595 1187M598 270Q666 270 708 315Q750 360 750 436Q750 515 708.50 557Q667 599 596 599Q525 599 482.50 557Q440 515 440 436Q440 360 484 315Q528 270 598 270Z"  horiz-adv-x="1192" vert-adv-y="2048"  />

      
      <glyph glyph-name="uni39" unicode="&#x39;" d="M592 1477Q732 1477 849 1411Q966 1345 1036.50 1211Q1107 1077 1107 880L1107 746Q1107 479 1000.50 306Q894 133 718.50 53.50Q543-26 330-26L302-26L302 275L323 275Q503 275 611 333.50Q719 392 742 544Q693 504 633 481Q573 458 509 458Q378 458 280.50 516.50Q183 575 130 686Q77 797 77 952Q77 1094 144.50 1214.50Q212 1335 329.50 1406Q447 1477 592 1477M609 725Q660 725 694.50 745Q729 765 749 798L749 952Q749 1074 708.50 1131Q668 1188 589 1188Q543 1188 508 1151.50Q473 1115 454.50 1059.50Q436 1004 436 949Q436 846 480.50 785.50Q525 725 609 725Z"  horiz-adv-x="1192" vert-adv-y="2048"  />

      
      <glyph glyph-name="uni2044" unicode="&#x2044;" d="M8 191L719 1329L884 1247L173 109L8 191Z"  horiz-adv-x="898" vert-adv-y="2048"  />

      
      <glyph glyph-name="uni2080" unicode="&#x2080;" d="M66 0M704-59Q704-212 617.50-290.50Q531-369 386-369Q240-369 153-291Q66-213 66-59L66 127Q66 230 106 300.50Q146 371 217.50 406.50Q289 442 384 442Q479 442 551 406.50Q623 371 663.50 300.50Q704 230 704 127L704-59M471 130Q471 198 448.50 226Q426 254 384 254Q343 254 321.50 226Q300 198 300 130L300-61Q300-131 321-156Q342-181 386-181Q428-181 449.50-155.50Q471-130 471-61L471 130Z"  horiz-adv-x="770" vert-adv-y="2048"  />

      
      <glyph glyph-name="uni2081" unicode="&#x2081;" d="M147 0M317-358L317 158L147 127L147 304L530 427L549 427L549-358L317-358Z"  horiz-adv-x="770" vert-adv-y="2048"  />

      
      <glyph glyph-name="uni2082" unicode="&#x2082;" d="M50 0M68-358L68-201L353 47Q396 83 422.50 125.50Q449 168 449 188Q449 255 370 255Q330 255 307 226.50Q284 198 284 160L50 160Q50 237 88.50 302Q127 367 196.50 405Q266 443 357 443Q514 443 598 377.50Q682 312 682 187Q682 126 658.50 78.50Q635 31 586-13.50Q537-58 446-124L379-171L699-171L699-358L68-358Z"  horiz-adv-x="770" vert-adv-y="2048"  />

      
      <glyph glyph-name="uni2083" unicode="&#x2083;" d="M39 0M562 47Q633 29 672.50-14.50Q712-58 712-136Q712-208 666.50-261Q621-314 542-341.50Q463-369 364-369Q283-369 209.50-343.50Q136-318 87.50-260.50Q39-203 39-112L274-112Q274-138 304-159.50Q334-181 382-181Q432-181 455-159Q478-137 478-107Q478-65 451-47Q424-29 371-29L279-29L279 63L279 120L371 120Q417 120 440 139.50Q463 159 463 195Q463 217 441.50 236Q420 255 372 255Q337 255 312.50 244.50Q288 234 288 215L55 215Q55 290 98 341Q141 392 211.50 417.50Q282 443 364 443Q515 443 605.50 384Q696 325 696 216Q696 155 660 112.50Q624 70 562 47Z"  horiz-adv-x="770" vert-adv-y="2048"  />

      
      <glyph glyph-name="uni2084" unicode="&#x2084;" d="M54 0M708-204L632-204L632-358L398-358L398-204L70-204L54-48L398 430L398 431L582 431L632 431L632-14L708-14L708-204M398-14L398 154L382 130L272-14L398-14Z"  horiz-adv-x="770" vert-adv-y="2048"  />

      
      <glyph glyph-name="uni2085" unicode="&#x2085;" d="M55 0M128 431L648 431L648 251L316 251L297 137Q370 163 425 163Q559 163 627 99Q695 35 695-87Q695-159 659.50-223.50Q624-288 552.50-328.50Q481-369 377-369Q295-369 220.50-338.50Q146-308 100.50-253.50Q55-199 56-129L292-129Q291-159 312.50-170Q334-181 377-181Q428-181 445-156Q462-131 462-88Q462 8 361 8Q294 8 256-26L71 20L128 431Z"  horiz-adv-x="770" vert-adv-y="2048"  />

      
      <glyph glyph-name="uni2086" unicode="&#x2086;" d="M61 0M473 171Q590 171 656.50 100.50Q723 30 723-93Q723-171 680.50-234Q638-297 564.50-333Q491-369 402-369Q249-369 155-291.50Q61-214 61-41L61 8Q61 174 132.50 273.50Q204 373 312 413Q420 453 541 453L582 453L582 261L571 261Q496 261 446.50 253Q397 245 357 212.50Q317 180 302 112Q371 171 473 171M394-182Q433-182 461-154Q489-126 489-89Q489-46 464-30.50Q439-15 392-15Q359-15 333.50-25Q308-35 294-48L294-91Q294-141 316.50-161.50Q339-182 394-182Z"  horiz-adv-x="770" vert-adv-y="2048"  />

      
      <glyph glyph-name="uni2087" unicode="&#x2087;" d="M46 0M378-358L132-358L453 243L46 243L46 431L698 431L698 301L378-358Z"  horiz-adv-x="770" vert-adv-y="2048"  />

      
      <glyph glyph-name="uni2088" unicode="&#x2088;" d="M66 0M579 49Q638 20 671-27Q704-74 704-138Q704-252 617.50-310.50Q531-369 386-369Q242-369 154-310Q66-251 66-138Q66-74 99.50-27Q133 20 193 49Q141 76 112.50 118.50Q84 161 84 216Q84 326 166.50 384.50Q249 443 384 443Q522 443 604 384.50Q686 326 686 216Q686 161 658 118.50Q630 76 579 49M384 255Q318 255 318 199Q318 171 335 154Q352 137 386 137Q452 137 452 199Q452 229 436 242Q420 255 384 255M386-181Q425-181 448-162.50Q471-144 471-112Q471-50 384-50Q346-50 323-65Q300-80 300-112Q300-144 324-162.50Q348-181 386-181Z"  horiz-adv-x="770" vert-adv-y="2048"  />

      
      <glyph glyph-name="uni2089" unicode="&#x2089;" d="M64 0M384 443Q521 443 611.50 367Q702 291 702 118L702 58Q702-117 637-212.50Q572-308 470.50-341Q369-374 237-374L220-374L220-188L233-188Q311-188 351.50-183Q392-178 423.50-151Q455-124 465-63Q435-85 399.50-97Q364-109 329-109Q205-109 134.50-46Q64 17 64 152Q64 230 106.50 297Q149 364 222.50 403.50Q296 443 384 443M298 147Q298 101 322.50 81Q347 61 397 61Q442 61 469 84L469 168Q469 217 449.50 236Q430 255 384 255Q345 255 321.50 224Q298 193 298 147Z"  horiz-adv-x="770" vert-adv-y="2048"  />

      
      <glyph glyph-name="uni2070" unicode="&#x2070;" d="M66 656M704 966Q704 813 617.50 734.50Q531 656 386 656Q240 656 153 734Q66 812 66 966L66 1152Q66 1255 106 1325.50Q146 1396 217.50 1431.50Q289 1467 384 1467Q479 1467 551 1431.50Q623 1396 663.50 1325.50Q704 1255 704 1152L704 966M471 1155Q471 1223 448.50 1251Q426 1279 384 1279Q343 1279 321.50 1251Q300 1223 300 1155L300 964Q300 894 321 869Q342 844 386 844Q428 844 449.50 869.50Q471 895 471 964L471 1155Z"  horiz-adv-x="770" vert-adv-y="2048"  />

      
      <glyph glyph-name="unib9" unicode="&#xb9;" d="M147 667M317 667L317 1183L147 1152L147 1329L530 1452L549 1452L549 667L317 667Z"  horiz-adv-x="770" vert-adv-y="2048"  />

      
      <glyph glyph-name="unib2" unicode="&#xb2;" d="M50 667M68 667L68 824L353 1072Q396 1108 422.50 1150.50Q449 1193 449 1213Q449 1280 370 1280Q330 1280 307 1251.50Q284 1223 284 1185L50 1185Q50 1262 88.50 1327Q127 1392 196.50 1430Q266 1468 357 1468Q514 1468 598 1402.50Q682 1337 682 1212Q682 1151 658.50 1103.50Q635 1056 586 1011.50Q537 967 446 901L379 854L699 854L699 667L68 667Z"  horiz-adv-x="770" vert-adv-y="2048"  />

      
      <glyph glyph-name="unib3" unicode="&#xb3;" d="M39 656M562 1072Q633 1054 672.50 1010.50Q712 967 712 889Q712 817 666.50 764Q621 711 542 683.50Q463 656 364 656Q283 656 209.50 681.50Q136 707 87.50 764.50Q39 822 39 913L274 913Q274 887 304 865.50Q334 844 382 844Q432 844 455 866Q478 888 478 918Q478 960 451 978Q424 996 371 996L279 996L279 1088L279 1145L371 1145Q417 1145 440 1164.50Q463 1184 463 1220Q463 1242 441.50 1261Q420 1280 372 1280Q337 1280 312.50 1269.50Q288 1259 288 1240L55 1240Q55 1315 98 1366Q141 1417 211.50 1442.50Q282 1468 364 1468Q515 1468 605.50 1409Q696 1350 696 1241Q696 1180 660 1137.50Q624 1095 562 1072Z"  horiz-adv-x="770" vert-adv-y="2048"  />

      
      <glyph glyph-name="uni2074" unicode="&#x2074;" d="M54 667M708 821L632 821L632 667L398 667L398 821L70 821L54 977L398 1455L398 1456L582 1456L632 1456L632 1011L708 1011L708 821M398 1011L398 1179L382 1155L272 1011L398 1011Z"  horiz-adv-x="770" vert-adv-y="2048"  />

      
      <glyph glyph-name="uni2075" unicode="&#x2075;" d="M55 656M128 1456L648 1456L648 1276L316 1276L297 1162Q370 1188 425 1188Q559 1188 627 1124Q695 1060 695 938Q695 866 659.50 801.50Q624 737 552.50 696.50Q481 656 377 656Q295 656 220.50 686.50Q146 717 100.50 771.50Q55 826 56 896L292 896Q291 866 312.50 855Q334 844 377 844Q428 844 445 869Q462 894 462 937Q462 1033 361 1033Q294 1033 256 999L71 1045L128 1456Z"  horiz-adv-x="770" vert-adv-y="2048"  />

      
      <glyph glyph-name="uni2076" unicode="&#x2076;" d="M61 656M473 1196Q590 1196 656.50 1125.50Q723 1055 723 932Q723 854 680.50 791Q638 728 564.50 692Q491 656 402 656Q249 656 155 733.50Q61 811 61 984L61 1033Q61 1199 132.50 1298.50Q204 1398 312 1438Q420 1478 541 1478L582 1478L582 1286L571 1286Q496 1286 446.50 1278Q397 1270 357 1237.50Q317 1205 302 1137Q371 1196 473 1196M394 843Q433 843 461 871Q489 899 489 936Q489 979 464 994.50Q439 1010 392 1010Q359 1010 333.50 1000Q308 990 294 977L294 934Q294 884 316.50 863.50Q339 843 394 843Z"  horiz-adv-x="770" vert-adv-y="2048"  />

      
      <glyph glyph-name="uni2077" unicode="&#x2077;" d="M46 667M378 667L132 667L453 1268L46 1268L46 1456L698 1456L698 1326L378 667Z"  horiz-adv-x="770" vert-adv-y="2048"  />

      
      <glyph glyph-name="uni2078" unicode="&#x2078;" d="M66 656M579 1074Q638 1045 671 998Q704 951 704 887Q704 773 617.50 714.50Q531 656 386 656Q242 656 154 715Q66 774 66 887Q66 951 99.50 998Q133 1045 193 1074Q141 1101 112.50 1143.50Q84 1186 84 1241Q84 1351 166.50 1409.50Q249 1468 384 1468Q522 1468 604 1409.50Q686 1351 686 1241Q686 1186 658 1143.50Q630 1101 579 1074M384 1280Q318 1280 318 1224Q318 1196 335 1179Q352 1162 386 1162Q452 1162 452 1224Q452 1254 436 1267Q420 1280 384 1280M386 844Q425 844 448 862.50Q471 881 471 913Q471 975 384 975Q346 975 323 960Q300 945 300 913Q300 881 324 862.50Q348 844 386 844Z"  horiz-adv-x="770" vert-adv-y="2048"  />

      
      <glyph glyph-name="uni2079" unicode="&#x2079;" d="M64 651M384 1468Q521 1468 611.50 1392Q702 1316 702 1143L702 1083Q702 908 637 812.50Q572 717 470.50 684Q369 651 237 651L220 651L220 837L233 837Q311 837 351.50 842Q392 847 423.50 874Q455 901 465 962Q435 940 399.50 928Q364 916 329 916Q205 916 134.50 979Q64 1042 64 1177Q64 1255 106.50 1322Q149 1389 222.50 1428.50Q296 1468 384 1468M298 1172Q298 1126 322.50 1106Q347 1086 397 1086Q442 1086 469 1109L469 1193Q469 1242 449.50 1261Q430 1280 384 1280Q345 1280 321.50 1249Q298 1218 298 1172Z"  horiz-adv-x="770" vert-adv-y="2048"  />

      
      <glyph glyph-name="uni2a" unicode="&#x2a;" d="M27 1039L94 1237L416 1100L389 1456L611 1456L582 1093L895 1227L963 1027L628 936L851 672L673 548L488 845L303 558L125 677L357 949L27 1039Z"  horiz-adv-x="963" vert-adv-y="2048"  />

      
      </font>
</defs>
</svg>
