<?xml version="1.0" standalone="no"?>
  <!DOCTYPE svg PUBLIC "-//W3C//DTD SVG 1.1//EN" "http://www.w3.org/Graphics/SVG/1.1/DTD/svg11.dtd" >
  <svg>
  <metadata>
  Created by font-carrier
  </metadata>
  <defs>
  <font id="Heebo-Thin" horiz-adv-x="1924" vert-adv-y="1924" >
    <font-face
      
      font-family="Heebo Thin"
      
      font-weight="400"
      
      font-stretch="normal"
      
      units-per-em="2048"
      
      ascent="2146"
      
      descent="-862"
      
    />
      <missing-glyph />

      

      
      <glyph glyph-name="uni41" unicode="&#x41;" d="M968 435L254 435L92 0L33 0L578 1456L630 1456L644 1456L1189 0L1130 0L968 435M948 489L611 1391L274 489L948 489Z"  horiz-adv-x="1223" vert-adv-y="2048"  />

      
      <glyph glyph-name="unic1" unicode="&#xc1;" d="M33 0M968 435L254 435L92 0L33 0L578 1456L630 1456L644 1456L1189 0L1130 0L968 435M948 489L611 1391L274 489L948 489M821 1855L626 1589L566 1589L755 1855L821 1855Z"  horiz-adv-x="1223" vert-adv-y="2048"  />

      
      <glyph glyph-name="unic2" unicode="&#xc2;" d="M33 0M968 435L254 435L92 0L33 0L578 1456L630 1456L644 1456L1189 0L1130 0L968 435M948 489L611 1391L274 489L948 489M866 1583L798 1583L611 1779L426 1583L362 1583L362 1597L592 1836L632 1836L866 1593L866 1583Z"  horiz-adv-x="1223" vert-adv-y="2048"  />

      
      <glyph glyph-name="unic4" unicode="&#xc4;" d="M33 0M968 435L254 435L92 0L33 0L578 1456L630 1456L644 1456L1189 0L1130 0L968 435M948 489L611 1391L274 489L948 489M391 1796Q414 1796 430.50 1779.50Q447 1763 447 1740Q447 1717 430.50 1701Q414 1685 391 1685Q368 1685 352 1701Q336 1717 336 1740Q336 1763 352 1779.50Q368 1796 391 1796M836 1796Q859 1796 875.50 1779.50Q892 1763 892 1740Q892 1717 875.50 1701Q859 1685 836 1685Q813 1685 797 1701Q781 1717 781 1740Q781 1763 797 1779.50Q813 1796 836 1796Z"  horiz-adv-x="1223" vert-adv-y="2048"  />

      
      <glyph glyph-name="unic0" unicode="&#xc0;" d="M33 0M968 435L254 435L92 0L33 0L578 1456L630 1456L644 1456L1189 0L1130 0L968 435M948 489L611 1391L274 489L948 489M607 1589L412 1855L478 1855L666 1589L607 1589Z"  horiz-adv-x="1223" vert-adv-y="2048"  />

      
      <glyph glyph-name="unic5" unicode="&#xc5;" d="M33 0M968 435L254 435L92 0L33 0L578 1456L630 1456L644 1456L1189 0L1130 0L968 435M948 489L611 1391L274 489L948 489M614 1875Q661 1875 700 1852Q739 1829 762 1789Q785 1749 785 1701Q785 1653 762 1614Q739 1575 700 1553Q661 1531 614 1531Q567 1531 527.50 1553Q488 1575 465.50 1614Q443 1653 443 1701Q443 1749 465.50 1789Q488 1829 527.50 1852Q567 1875 614 1875M614 1585Q665 1585 698 1617.50Q731 1650 731 1701Q731 1754 698 1787.50Q665 1821 614 1821Q563 1821 530 1787.50Q497 1754 497 1701Q497 1650 530 1617.50Q563 1585 614 1585Z"  horiz-adv-x="1223" vert-adv-y="2048"  />

      
      <glyph glyph-name="unic3" unicode="&#xc3;" d="M33 0M968 435L254 435L92 0L33 0L578 1456L630 1456L644 1456L1189 0L1130 0L968 435M948 489L611 1391L274 489L948 489M940 1806Q940 1752 916.50 1709.50Q893 1667 853 1643.50Q813 1620 764 1620Q713 1620 679.50 1637Q646 1654 605 1687Q569 1716 541.50 1730.50Q514 1745 477 1745Q424 1745 390 1712.50Q356 1680 356 1620L301 1620Q301 1674 324 1714.50Q347 1755 387 1777Q427 1799 477 1799Q526 1799 560.50 1782Q595 1765 637 1732Q675 1703 702 1689Q729 1675 764 1675Q816 1675 850.50 1710Q885 1745 885 1806L940 1806Z"  horiz-adv-x="1223" vert-adv-y="2048"  />

      
      <glyph glyph-name="unic6" unicode="&#xc6;" d="M1768 54L1768 0L1035 0L1016 0L998 425L371 425L115 0L50 0L931 1456L974 1456L1009 1456L1707 1456L1707 1402L1011 1402L1037 786L1625 786L1625 732L1039 732L1068 54L1768 54M996 478L957 1399L403 478L996 478Z"  horiz-adv-x="1816" vert-adv-y="2048"  />

      
      <glyph glyph-name="uni42" unicode="&#x42;" d="M803 754Q893 742 966.50 691.50Q1040 641 1082.50 564.50Q1125 488 1125 401Q1125 274 1068.50 183.50Q1012 93 910 46.50Q808 0 675 0L231 0L200 0L200 1456L583 1456Q810 1456 934.50 1363.50Q1059 1271 1059 1083Q1059 954 992 865Q925 776 803 754M254 1402L254 773L603 773Q1004 773 1004 1087Q1004 1243 897.50 1322.50Q791 1402 583 1402L254 1402M675 54Q797 54 886 95Q975 136 1023 213.50Q1071 291 1071 399Q1071 485 1027 558Q983 631 896 675Q809 719 685 719L254 719L254 54L675 54Z"  horiz-adv-x="1235" vert-adv-y="2048"  />

      
      <glyph glyph-name="uni43" unicode="&#x43;" d="M1190 446Q1168 215 1031.50 97.50Q895-20 671-20Q513-20 393.50 60Q274 140 209 285Q144 430 144 619L144 837Q144 1026 209 1171Q274 1316 393.50 1396Q513 1476 671 1476Q895 1476 1031.50 1358.50Q1168 1241 1190 1012L1136 1012Q1113 1213 995 1317.50Q877 1422 671 1422Q531 1422 423.50 1349.50Q316 1277 257 1145Q198 1013 198 839L198 619Q198 444 257 311.50Q316 179 423.50 106.50Q531 34 671 34Q1093 34 1136 446L1190 446Z"  horiz-adv-x="1327" vert-adv-y="2048"  />

      
      <glyph glyph-name="unic7" unicode="&#xc7;" d="M671 34Q1093 34 1136 446L1190 446Q1169 224 1042 106.50Q915-11 705-19L695-86Q773-94 822.50-133Q872-172 872-255Q872-312 837.50-355Q803-398 738.50-421.50Q674-445 587-445L580-396Q637-396 691.50-380.50Q746-365 781.50-333.50Q817-302 817-255Q817-212 796-187.50Q775-163 735-150.50Q695-138 628-131L651-20Q498-15 383.50 66.50Q269 148 206.50 291Q144 434 144 619L144 837Q144 1026 209 1171Q274 1316 393.50 1396Q513 1476 671 1476Q895 1476 1031.50 1358.50Q1168 1241 1190 1012L1136 1012Q1113 1213 995 1317.50Q877 1422 671 1422Q531 1422 423.50 1349.50Q316 1277 257 1145Q198 1013 198 839L198 619Q198 444 257 311.50Q316 179 423.50 106.50Q531 34 671 34Z"  horiz-adv-x="1327" vert-adv-y="2048"  />

      
      <glyph glyph-name="uni44" unicode="&#x44;" d="M603 1456Q774 1456 911 1375Q1048 1294 1126 1148.50Q1204 1003 1204 817L1204 639Q1204 453 1126 307.50Q1048 162 911 81Q774 0 603 0L248 0L200 0L200 1456L254 1456L603 1456M1150 820Q1150 987 1079 1119.50Q1008 1252 883 1327Q758 1402 603 1402L254 1402L254 54L603 54Q758 54 883 129Q1008 204 1079 337.50Q1150 471 1150 639L1150 820Z"  horiz-adv-x="1340" vert-adv-y="2048"  />

      
      <glyph glyph-name="unid0" unicode="&#xd0;" d="M603 1456Q774 1456 911 1375Q1048 1294 1126 1148.50Q1204 1003 1204 817L1204 639Q1204 453 1126 307.50Q1048 162 911 81Q774 0 603 0L248 0L200 0L200 713L60 713L60 767L200 767L200 1456L254 1456L603 1456M1150 820Q1150 987 1079 1119.50Q1008 1252 883 1327Q758 1402 603 1402L254 1402L254 767L647 767L647 713L254 713L254 54L603 54Q758 54 883 129Q1008 204 1079 337.50Q1150 471 1150 639L1150 820Z"  horiz-adv-x="1340" vert-adv-y="2048"  />

      
      <glyph glyph-name="uni45" unicode="&#x45;" d="M254 1402L254 776L984 776L984 722L254 722L254 54L1086 54L1086 0L219 0L200 0L200 1456L254 1456L1086 1456L1086 1402L254 1402Z"  horiz-adv-x="1166" vert-adv-y="2048"  />

      
      <glyph glyph-name="unic9" unicode="&#xc9;" d="M200 0M254 1402L254 776L984 776L984 722L254 722L254 54L1086 54L1086 0L219 0L200 0L200 1456L254 1456L1086 1456L1086 1402L254 1402M828 1855L633 1589L573 1589L762 1855L828 1855Z"  horiz-adv-x="1166" vert-adv-y="2048"  />

      
      <glyph glyph-name="unica" unicode="&#xca;" d="M200 0M254 1402L254 776L984 776L984 722L254 722L254 54L1086 54L1086 0L219 0L200 0L200 1456L254 1456L1086 1456L1086 1402L254 1402M873 1583L805 1583L618 1779L433 1583L369 1583L369 1597L599 1836L639 1836L873 1593L873 1583Z"  horiz-adv-x="1166" vert-adv-y="2048"  />

      
      <glyph glyph-name="unicb" unicode="&#xcb;" d="M200 0M254 1402L254 776L984 776L984 722L254 722L254 54L1086 54L1086 0L219 0L200 0L200 1456L254 1456L1086 1456L1086 1402L254 1402M398 1796Q421 1796 437.50 1779.50Q454 1763 454 1740Q454 1717 437.50 1701Q421 1685 398 1685Q375 1685 359 1701Q343 1717 343 1740Q343 1763 359 1779.50Q375 1796 398 1796M843 1796Q866 1796 882.50 1779.50Q899 1763 899 1740Q899 1717 882.50 1701Q866 1685 843 1685Q820 1685 804 1701Q788 1717 788 1740Q788 1763 804 1779.50Q820 1796 843 1796Z"  horiz-adv-x="1166" vert-adv-y="2048"  />

      
      <glyph glyph-name="unic8" unicode="&#xc8;" d="M200 0M254 1402L254 776L984 776L984 722L254 722L254 54L1086 54L1086 0L219 0L200 0L200 1456L254 1456L1086 1456L1086 1402L254 1402M614 1589L419 1855L485 1855L673 1589L614 1589Z"  horiz-adv-x="1166" vert-adv-y="2048"  />

      
      <glyph glyph-name="uni46" unicode="&#x46;" d="M254 1402L254 772L1000 772L1000 716L254 716L254 0L200 0L200 1456L254 1456L1102 1456L1102 1402L254 1402Z"  horiz-adv-x="1172" vert-adv-y="2048"  />

      
      <glyph glyph-name="uni47" unicode="&#x47;" d="M1226 156Q1199 118 1133.50 77.50Q1068 37 964.50 8.50Q861-20 729-20Q565-20 437.50 60.50Q310 141 239 286.50Q168 432 168 620L168 858Q168 1039 237 1179.50Q306 1320 429.50 1398Q553 1476 712 1476Q865 1476 975.50 1422Q1086 1368 1148 1274.50Q1210 1181 1224 1062L1170 1062Q1145 1221 1034.50 1321.50Q924 1422 712 1422Q566 1422 454.50 1350.50Q343 1279 282.50 1151Q222 1023 222 860L222 620Q222 449 284.50 316Q347 183 462 108.50Q577 34 729 34Q840 34 932.50 57Q1025 80 1086 114Q1147 148 1172 181L1172 605L727 605L727 660L1226 660L1226 156Z"  horiz-adv-x="1406" vert-adv-y="2048"  />

      
      <glyph glyph-name="uni48" unicode="&#x48;" d="M1238 1456L1238 0L1184 0L1184 722L254 722L254 0L200 0L200 1456L254 1456L254 776L1184 776L1184 1456L1238 1456Z"  horiz-adv-x="1438" vert-adv-y="2048"  />

      
      <glyph glyph-name="uni49" unicode="&#x49;" d="M240 0L240 1456L294 1456L294 0L240 0Z"  horiz-adv-x="534" vert-adv-y="2048"  />

      
      <glyph glyph-name="unicd" unicode="&#xcd;" d="M222 0M240 0L240 1456L294 1456L294 0L240 0M477 1855L282 1589L222 1589L411 1855L477 1855Z"  horiz-adv-x="534" vert-adv-y="2048"  />

      
      <glyph glyph-name="unice" unicode="&#xce;" d="M18 0M240 0L240 1456L294 1456L294 0L240 0M522 1583L454 1583L267 1779L82 1583L18 1583L18 1597L248 1836L288 1836L522 1593L522 1583Z"  horiz-adv-x="534" vert-adv-y="2048"  />

      
      <glyph glyph-name="unicf" unicode="&#xcf;" d="M0 0M240 0L240 1456L294 1456L294 0L240 0M47 1796Q70 1796 86.50 1779.50Q103 1763 103 1740Q103 1717 86.50 1701Q70 1685 47 1685Q24 1685 8 1701Q-8 1717-8 1740Q-8 1763 8 1779.50Q24 1796 47 1796M492 1796Q515 1796 531.50 1779.50Q548 1763 548 1740Q548 1717 531.50 1701Q515 1685 492 1685Q469 1685 453 1701Q437 1717 437 1740Q437 1763 453 1779.50Q469 1796 492 1796Z"  horiz-adv-x="534" vert-adv-y="2048"  />

      
      <glyph glyph-name="unicc" unicode="&#xcc;" d="M68 0M240 0L240 1456L294 1456L294 0L240 0M263 1589L68 1855L134 1855L322 1589L263 1589Z"  horiz-adv-x="534" vert-adv-y="2048"  />

      
      <glyph glyph-name="uni4a" unicode="&#x4a;" d="M930 1456L930 442Q930 297 875.50 192.50Q821 88 725.50 34Q630-20 510-20Q312-20 201 86Q90 192 90 401L144 401Q144 223 236.50 128.50Q329 34 510 34Q612 34 695 81Q778 128 827 220Q876 312 876 442L876 1456L930 1456Z"  horiz-adv-x="1125" vert-adv-y="2048"  />

      
      <glyph glyph-name="uni4b" unicode="&#x4b;" d="M487 766L254 551L254 0L200 0L200 1456L254 1456L254 615L492 847L1098 1456L1176 1456L528 804L1226 0L1156 0L487 766Z"  horiz-adv-x="1300" vert-adv-y="2048"  />

      
      <glyph glyph-name="uni4c" unicode="&#x4c;" d="M1002 54L1002 0L220 0L200 0L200 1456L255 1456L255 54L1002 54Z"  horiz-adv-x="1057" vert-adv-y="2048"  />

      
      <glyph glyph-name="uni4d" unicode="&#x4d;" d="M1556 0L1502 0L1502 1376L898 0L855 0L254 1369L254 0L200 0L200 1456L254 1456L277 1456L876 79L1477 1456L1556 1456L1556 0Z"  horiz-adv-x="1756" vert-adv-y="2048"  />

      
      <glyph glyph-name="uni4e" unicode="&#x4e;" d="M1195 0L255 1364L255 0L200 0L200 1456L255 1456L1195 95L1195 1456L1249 1456L1249 0L1195 0Z"  horiz-adv-x="1449" vert-adv-y="2048"  />

      
      <glyph glyph-name="unid1" unicode="&#xd1;" d="M200 0M1195 0L255 1364L255 0L200 0L200 1456L255 1456L1195 95L1195 1456L1249 1456L1249 0L1195 0M1054 1806Q1054 1752 1030.50 1709.50Q1007 1667 967 1643.50Q927 1620 878 1620Q827 1620 793.50 1637Q760 1654 719 1687Q683 1716 655.50 1730.50Q628 1745 591 1745Q538 1745 504 1712.50Q470 1680 470 1620L415 1620Q415 1674 438 1714.50Q461 1755 501 1777Q541 1799 591 1799Q640 1799 674.50 1782Q709 1765 751 1732Q789 1703 816 1689Q843 1675 878 1675Q930 1675 964.50 1710Q999 1745 999 1806L1054 1806Z"  horiz-adv-x="1449" vert-adv-y="2048"  />

      
      <glyph glyph-name="uni4f" unicode="&#x4f;" d="M1231 619Q1231 430 1163.50 285Q1096 140 972 60Q848-20 683-20Q518-20 393.50 60Q269 140 201 285Q133 430 133 619L133 837Q133 1026 200.50 1171Q268 1316 392 1396Q516 1476 681 1476Q846 1476 971 1396Q1096 1316 1163.50 1171Q1231 1026 1231 837L1231 619M1177 839Q1177 1010 1118 1142Q1059 1274 947 1348Q835 1422 681 1422Q528 1422 416.50 1348Q305 1274 246.50 1142Q188 1010 188 839L188 619Q188 447 247 314.50Q306 182 418 108Q530 34 683 34Q837 34 948.50 108Q1060 182 1118.50 314.50Q1177 447 1177 619L1177 839Z"  horiz-adv-x="1364" vert-adv-y="2048"  />

      
      <glyph glyph-name="unid3" unicode="&#xd3;" d="M133 0M1231 619Q1231 430 1163.50 285Q1096 140 972 60Q848-20 683-20Q518-20 393.50 60Q269 140 201 285Q133 430 133 619L133 837Q133 1026 200.50 1171Q268 1316 392 1396Q516 1476 681 1476Q846 1476 971 1396Q1096 1316 1163.50 1171Q1231 1026 1231 837L1231 619M1177 839Q1177 1010 1118 1142Q1059 1274 947 1348Q835 1422 681 1422Q528 1422 416.50 1348Q305 1274 246.50 1142Q188 1010 188 839L188 619Q188 447 247 314.50Q306 182 418 108Q530 34 683 34Q837 34 948.50 108Q1060 182 1118.50 314.50Q1177 447 1177 619L1177 839M885 1876L690 1610L630 1610L819 1876L885 1876Z"  horiz-adv-x="1364" vert-adv-y="2048"  />

      
      <glyph glyph-name="unid4" unicode="&#xd4;" d="M133 0M1231 619Q1231 430 1163.50 285Q1096 140 972 60Q848-20 683-20Q518-20 393.50 60Q269 140 201 285Q133 430 133 619L133 837Q133 1026 200.50 1171Q268 1316 392 1396Q516 1476 681 1476Q846 1476 971 1396Q1096 1316 1163.50 1171Q1231 1026 1231 837L1231 619M1177 839Q1177 1010 1118 1142Q1059 1274 947 1348Q835 1422 681 1422Q528 1422 416.50 1348Q305 1274 246.50 1142Q188 1010 188 839L188 619Q188 447 247 314.50Q306 182 418 108Q530 34 683 34Q837 34 948.50 108Q1060 182 1118.50 314.50Q1177 447 1177 619L1177 839M930 1604L862 1604L675 1800L490 1604L426 1604L426 1618L656 1857L696 1857L930 1614L930 1604Z"  horiz-adv-x="1364" vert-adv-y="2048"  />

      
      <glyph glyph-name="unid6" unicode="&#xd6;" d="M133 0M1231 619Q1231 430 1163.50 285Q1096 140 972 60Q848-20 683-20Q518-20 393.50 60Q269 140 201 285Q133 430 133 619L133 837Q133 1026 200.50 1171Q268 1316 392 1396Q516 1476 681 1476Q846 1476 971 1396Q1096 1316 1163.50 1171Q1231 1026 1231 837L1231 619M1177 839Q1177 1010 1118 1142Q1059 1274 947 1348Q835 1422 681 1422Q528 1422 416.50 1348Q305 1274 246.50 1142Q188 1010 188 839L188 619Q188 447 247 314.50Q306 182 418 108Q530 34 683 34Q837 34 948.50 108Q1060 182 1118.50 314.50Q1177 447 1177 619L1177 839M455 1817Q478 1817 494.50 1800.50Q511 1784 511 1761Q511 1738 494.50 1722Q478 1706 455 1706Q432 1706 416 1722Q400 1738 400 1761Q400 1784 416 1800.50Q432 1817 455 1817M900 1817Q923 1817 939.50 1800.50Q956 1784 956 1761Q956 1738 939.50 1722Q923 1706 900 1706Q877 1706 861 1722Q845 1738 845 1761Q845 1784 861 1800.50Q877 1817 900 1817Z"  horiz-adv-x="1364" vert-adv-y="2048"  />

      
      <glyph glyph-name="unid2" unicode="&#xd2;" d="M133 0M1231 619Q1231 430 1163.50 285Q1096 140 972 60Q848-20 683-20Q518-20 393.50 60Q269 140 201 285Q133 430 133 619L133 837Q133 1026 200.50 1171Q268 1316 392 1396Q516 1476 681 1476Q846 1476 971 1396Q1096 1316 1163.50 1171Q1231 1026 1231 837L1231 619M1177 839Q1177 1010 1118 1142Q1059 1274 947 1348Q835 1422 681 1422Q528 1422 416.50 1348Q305 1274 246.50 1142Q188 1010 188 839L188 619Q188 447 247 314.50Q306 182 418 108Q530 34 683 34Q837 34 948.50 108Q1060 182 1118.50 314.50Q1177 447 1177 619L1177 839M671 1610L476 1876L542 1876L730 1610L671 1610Z"  horiz-adv-x="1364" vert-adv-y="2048"  />

      
      <glyph glyph-name="unid8" unicode="&#xd8;" d="M1101 1275Q1164 1192 1197.50 1080Q1231 968 1231 837L1231 619Q1231 430 1163.50 285Q1096 140 972 60Q848-20 683-20Q487-20 349 92L243-75L177-75L307 130Q223 215 178 340.50Q133 466 133 619L133 837Q133 1026 200.50 1171Q268 1316 392 1396Q516 1476 681 1476Q797 1476 894 1435.50Q991 1395 1063 1320L1174 1495L1240 1495L1101 1275M188 619Q188 481 226 368Q264 255 337 177L1034 1274Q969 1345 880 1383.50Q791 1422 681 1422Q528 1422 416.50 1348Q305 1274 246.50 1142Q188 1010 188 839L188 619M1177 839Q1177 954 1150 1053Q1123 1152 1070 1227L378 138Q502 34 683 34Q837 34 948.50 108Q1060 182 1118.50 314.50Q1177 447 1177 619L1177 839Z"  horiz-adv-x="1364" vert-adv-y="2048"  />

      
      <glyph glyph-name="unid5" unicode="&#xd5;" d="M133 0M1231 619Q1231 430 1163.50 285Q1096 140 972 60Q848-20 683-20Q518-20 393.50 60Q269 140 201 285Q133 430 133 619L133 837Q133 1026 200.50 1171Q268 1316 392 1396Q516 1476 681 1476Q846 1476 971 1396Q1096 1316 1163.50 1171Q1231 1026 1231 837L1231 619M1177 839Q1177 1010 1118 1142Q1059 1274 947 1348Q835 1422 681 1422Q528 1422 416.50 1348Q305 1274 246.50 1142Q188 1010 188 839L188 619Q188 447 247 314.50Q306 182 418 108Q530 34 683 34Q837 34 948.50 108Q1060 182 1118.50 314.50Q1177 447 1177 619L1177 839M1004 1827Q1004 1773 980.50 1730.50Q957 1688 917 1664.50Q877 1641 828 1641Q777 1641 743.50 1658Q710 1675 669 1708Q633 1737 605.50 1751.50Q578 1766 541 1766Q488 1766 454 1733.50Q420 1701 420 1641L365 1641Q365 1695 388 1735.50Q411 1776 451 1798Q491 1820 541 1820Q590 1820 624.50 1803Q659 1786 701 1753Q739 1724 766 1710Q793 1696 828 1696Q880 1696 914.50 1731Q949 1766 949 1827L1004 1827Z"  horiz-adv-x="1364" vert-adv-y="2048"  />

      
      <glyph glyph-name="uni0152" unicode="&#x0152;" d="M969 1402L969 776L1699 776L1699 722L969 722L969 54L1801 54L1801 0L961 0Q858-10 783.50-15.50Q709-21 631-21Q479-21 361 54.50Q243 130 177.50 265.50Q112 401 112 576L112 880Q112 1055 177 1190Q242 1325 359.50 1400.50Q477 1476 629 1476Q777 1476 961 1456L1801 1456L1801 1402L969 1402M166 576Q166 419 223.50 295.50Q281 172 386.50 102.50Q492 33 631 33Q796 33 915 47L915 1409Q812 1422 629 1422Q490 1422 385 1354.50Q280 1287 223 1164.50Q166 1042 166 882L166 576Z"  horiz-adv-x="1873" vert-adv-y="2048"  />

      
      <glyph glyph-name="uni50" unicode="&#x50;" d="M655 1456Q807 1456 912.50 1403.50Q1018 1351 1071.50 1255.50Q1125 1160 1125 1031Q1125 902 1072 808.50Q1019 715 913.50 665Q808 615 655 615L254 615L254 0L200 0L200 1456L655 1456M655 669Q796 669 889.50 716.50Q983 764 1027 845Q1071 926 1071 1029Q1071 1136 1027 1220Q983 1304 890 1353Q797 1402 655 1402L254 1402L254 669L655 669Z"  horiz-adv-x="1230" vert-adv-y="2048"  />

      
      <glyph glyph-name="unide" unicode="&#xde;" d="M625 1143Q767 1143 868.50 1091Q970 1039 1022.50 947Q1075 855 1075 738Q1075 620 1022.50 528.50Q970 437 868.50 385.50Q767 334 625 334L254 334L254 0L200 0L200 1456L254 1456L254 1143L625 1143M625 388Q758 388 847 438.50Q936 489 978.50 568.50Q1021 648 1021 736Q1021 828 979 908.50Q937 989 847.50 1039Q758 1089 625 1089L254 1089L254 388L625 388Z"  horiz-adv-x="1219" vert-adv-y="2048"  />

      
      <glyph glyph-name="uni51" unicode="&#x51;" d="M1231 619Q1231 411 1150 258Q1069 105 924 33L1191-228L1152-263L869 10Q784-20 683-20Q518-20 393.50 60Q269 140 201 285Q133 430 133 619L133 837Q133 1026 200.50 1171Q268 1316 392 1396Q516 1476 681 1476Q846 1476 971 1396Q1096 1316 1163.50 1171Q1231 1026 1231 837L1231 619M683 34Q837 34 948.50 108Q1060 182 1118.50 314.50Q1177 447 1177 619L1177 839Q1177 1010 1118 1142Q1059 1274 947 1348Q835 1422 681 1422Q528 1422 416.50 1348Q305 1274 246.50 1142Q188 1010 188 839L188 619Q188 447 247 314.50Q306 182 418 108Q530 34 683 34Z"  horiz-adv-x="1364" vert-adv-y="2048"  />

      
      <glyph glyph-name="uni52" unicode="&#x52;" d="M1198 14L1198 0L1141 0L754 623L249 623L249 0L195 0L195 1456L659 1456Q799 1456 907 1407Q1015 1358 1076 1263Q1137 1168 1137 1036Q1137 935 1093.50 850Q1050 765 975.50 709.50Q901 654 809 637L1198 14M708 677Q827 677 912 727.50Q997 778 1040 860Q1083 942 1083 1036Q1083 1149 1031 1231.50Q979 1314 883.50 1358Q788 1402 659 1402L249 1402L249 677L708 677Z"  horiz-adv-x="1340" vert-adv-y="2048"  />

      
      <glyph glyph-name="uni53" unicode="&#x53;" d="M623 718Q458 763 356.50 811Q255 859 199 933Q143 1007 143 1120Q143 1228 205.50 1309Q268 1390 378 1433Q488 1476 626 1476Q766 1476 876.50 1422Q987 1368 1049 1270.50Q1111 1173 1111 1046L1057 1046Q1057 1153 1003 1238.50Q949 1324 851 1373Q753 1422 626 1422Q493 1422 396 1381Q299 1340 248 1271.50Q197 1203 197 1122Q197 1040 236 978.50Q275 917 371.50 865.50Q468 814 638 770Q797 729 902 678Q1007 627 1067 547.50Q1127 468 1127 351Q1127 236 1061.50 152Q996 68 883.50 24Q771-20 633-20Q496-20 374.50 22.50Q253 65 174.50 161.50Q96 258 96 411L150 411Q150 275 223 190.50Q296 106 405.50 70Q515 34 633 34Q760 34 860 74Q960 114 1016 185.50Q1072 257 1072 349Q1072 442 1028.50 507Q985 572 888 622Q791 672 623 718Z"  horiz-adv-x="1211" vert-adv-y="2048"  />

      
      <glyph glyph-name="uni1E9E" unicode="&#x1E9E;" d="M730 829Q889 829 995.50 776.50Q1102 724 1154 629.50Q1206 535 1206 408Q1206 272 1152 176Q1098 80 995.50 30Q893-20 750-20Q679-20 615.50-8.50Q552 3 482 29L514 87Q562 64 623 49Q684 34 750 34Q937 34 1044.50 128Q1152 222 1152 408Q1152 579 1051 677Q950 775 730 775L579 775L579 829L579 833L979 1236Q916 1322 820.50 1372Q725 1422 613 1422Q485 1422 406 1378.50Q327 1335 290 1242Q253 1149 253 996L253 0L200 0L200 998Q200 1151 237 1255.50Q274 1360 365 1418Q456 1476 613 1476Q755 1476 864 1413.50Q973 1351 1061 1234L660 829L730 829Z"  horiz-adv-x="1325" vert-adv-y="2048"  />

      
      <glyph glyph-name="uni54" unicode="&#x54;" d="M1169 1402L639 1402L639 0L585 0L585 1402L55 1402L55 1456L639 1456L1169 1456L1169 1402Z"  horiz-adv-x="1224" vert-adv-y="2048"  />

      
      <glyph glyph-name="uni55" unicode="&#x55;" d="M1180 469Q1180 310 1116 200Q1052 90 940 35Q828-20 683-20Q538-20 425.50 35Q313 90 249 200Q185 310 185 469L185 1456L239 1456L239 469Q239 332 296.50 234Q354 136 455 85Q556 34 683 34Q810 34 910.50 85Q1011 136 1068.50 234Q1126 332 1126 469L1126 1456L1180 1456L1180 469Z"  horiz-adv-x="1365" vert-adv-y="2048"  />

      
      <glyph glyph-name="unida" unicode="&#xda;" d="M185 0M1180 469Q1180 310 1116 200Q1052 90 940 35Q828-20 683-20Q538-20 425.50 35Q313 90 249 200Q185 310 185 469L185 1456L239 1456L239 469Q239 332 296.50 234Q354 136 455 85Q556 34 683 34Q810 34 910.50 85Q1011 136 1068.50 234Q1126 332 1126 469L1126 1456L1180 1456L1180 469M906 1855L711 1589L651 1589L840 1855L906 1855Z"  horiz-adv-x="1365" vert-adv-y="2048"  />

      
      <glyph glyph-name="unidb" unicode="&#xdb;" d="M185 0M1180 469Q1180 310 1116 200Q1052 90 940 35Q828-20 683-20Q538-20 425.50 35Q313 90 249 200Q185 310 185 469L185 1456L239 1456L239 469Q239 332 296.50 234Q354 136 455 85Q556 34 683 34Q810 34 910.50 85Q1011 136 1068.50 234Q1126 332 1126 469L1126 1456L1180 1456L1180 469M951 1583L883 1583L696 1779L511 1583L447 1583L447 1597L677 1836L717 1836L951 1593L951 1583Z"  horiz-adv-x="1365" vert-adv-y="2048"  />

      
      <glyph glyph-name="unidc" unicode="&#xdc;" d="M185 0M1180 469Q1180 310 1116 200Q1052 90 940 35Q828-20 683-20Q538-20 425.50 35Q313 90 249 200Q185 310 185 469L185 1456L239 1456L239 469Q239 332 296.50 234Q354 136 455 85Q556 34 683 34Q810 34 910.50 85Q1011 136 1068.50 234Q1126 332 1126 469L1126 1456L1180 1456L1180 469M476 1796Q499 1796 515.50 1779.50Q532 1763 532 1740Q532 1717 515.50 1701Q499 1685 476 1685Q453 1685 437 1701Q421 1717 421 1740Q421 1763 437 1779.50Q453 1796 476 1796M921 1796Q944 1796 960.50 1779.50Q977 1763 977 1740Q977 1717 960.50 1701Q944 1685 921 1685Q898 1685 882 1701Q866 1717 866 1740Q866 1763 882 1779.50Q898 1796 921 1796Z"  horiz-adv-x="1365" vert-adv-y="2048"  />

      
      <glyph glyph-name="unid9" unicode="&#xd9;" d="M185 0M1180 469Q1180 310 1116 200Q1052 90 940 35Q828-20 683-20Q538-20 425.50 35Q313 90 249 200Q185 310 185 469L185 1456L239 1456L239 469Q239 332 296.50 234Q354 136 455 85Q556 34 683 34Q810 34 910.50 85Q1011 136 1068.50 234Q1126 332 1126 469L1126 1456L1180 1456L1180 469M692 1589L497 1855L563 1855L751 1589L692 1589Z"  horiz-adv-x="1365" vert-adv-y="2048"  />

      
      <glyph glyph-name="uni56" unicode="&#x56;" d="M1189 1456L645 0L594 0L579 0L35 1456L94 1456L583 142L612 54L641 142L1130 1456L1189 1456Z"  horiz-adv-x="1223" vert-adv-y="2048"  />

      
      <glyph glyph-name="uni57" unicode="&#x57;" d="M1793 1456L1401 0L1341 0L1340 0L979 1214L929 1368L879 1214L515 0L464 0L454 0L61 1456L121 1456L423 330L489 91L555 330L899 1456L957 1456L959 1456L1301 330L1366 90L1434 330L1734 1456L1793 1456Z"  horiz-adv-x="1855" vert-adv-y="2048"  />

      
      <glyph glyph-name="uni58" unicode="&#x58;" d="M1081 1456L1149 1456L645 743L1168 0L1101 0L611 701L119 0L54 0L577 743L73 1456L141 1456L611 785L1081 1456Z"  horiz-adv-x="1223" vert-adv-y="2048"  />

      
      <glyph glyph-name="uni59" unicode="&#x59;" d="M1119 1456L1185 1456L636 553L636 0L582 0L582 553L33 1456L105 1456L609 602L1119 1456Z"  horiz-adv-x="1223" vert-adv-y="2048"  />

      
      <glyph glyph-name="unidd" unicode="&#xdd;" d="M33 0M1119 1456L1185 1456L636 553L636 0L582 0L582 553L33 1456L105 1456L609 602L1119 1456M817 1844L622 1578L562 1578L751 1844L817 1844Z"  horiz-adv-x="1223" vert-adv-y="2048"  />

      
      <glyph glyph-name="uni5a" unicode="&#x5a;" d="M1130 54L1130 0L111 0L94 0L94 44L1023 1403L134 1403L134 1456L1072 1456L1098 1456L1098 1418L168 54L1130 54Z"  horiz-adv-x="1224" vert-adv-y="2048"  />

      
      <glyph glyph-name="uni61" unicode="&#x61;" d="M905 218Q905 157 912.50 99Q920 41 933 9L933 0L871 0Q851 73 851 198Q792 102 684 41Q576-20 425-20Q326-20 250 17.50Q174 55 133 121.50Q92 188 92 274Q92 371 152 445.50Q212 520 325 562Q438 604 592 604L851 604L851 762Q851 898 765 973Q679 1048 521 1048Q424 1048 345 1013.50Q266 979 220.50 918.50Q175 858 175 784L121 786Q121 870 173 942.50Q225 1015 316.50 1058.50Q408 1102 521 1102Q635 1102 721.50 1063.50Q808 1025 856.50 948Q905 871 905 760L905 218M425 33Q578 33 687 101.50Q796 170 851 292L851 549L595 549Q458 549 356.50 513.50Q255 478 200.50 415Q146 352 146 270Q146 205 181.50 150.50Q217 96 281 64.50Q345 33 425 33Z"  horiz-adv-x="1081" vert-adv-y="2048"  />

      
      <glyph glyph-name="unie1" unicode="&#xe1;" d="M92 0M905 218Q905 157 912.50 99Q920 41 933 9L933 0L871 0Q851 73 851 198Q792 102 684 41Q576-20 425-20Q326-20 250 17.50Q174 55 133 121.50Q92 188 92 274Q92 371 152 445.50Q212 520 325 562Q438 604 592 604L851 604L851 762Q851 898 765 973Q679 1048 521 1048Q424 1048 345 1013.50Q266 979 220.50 918.50Q175 858 175 784L121 786Q121 870 173 942.50Q225 1015 316.50 1058.50Q408 1102 521 1102Q635 1102 721.50 1063.50Q808 1025 856.50 948Q905 871 905 760L905 218M425 33Q578 33 687 101.50Q796 170 851 292L851 549L595 549Q458 549 356.50 513.50Q255 478 200.50 415Q146 352 146 270Q146 205 181.50 150.50Q217 96 281 64.50Q345 33 425 33M786 1535L591 1269L531 1269L720 1535L786 1535Z"  horiz-adv-x="1081" vert-adv-y="2048"  />

      
      <glyph glyph-name="unie2" unicode="&#xe2;" d="M92 0M905 218Q905 157 912.50 99Q920 41 933 9L933 0L871 0Q851 73 851 198Q792 102 684 41Q576-20 425-20Q326-20 250 17.50Q174 55 133 121.50Q92 188 92 274Q92 371 152 445.50Q212 520 325 562Q438 604 592 604L851 604L851 762Q851 898 765 973Q679 1048 521 1048Q424 1048 345 1013.50Q266 979 220.50 918.50Q175 858 175 784L121 786Q121 870 173 942.50Q225 1015 316.50 1058.50Q408 1102 521 1102Q635 1102 721.50 1063.50Q808 1025 856.50 948Q905 871 905 760L905 218M425 33Q578 33 687 101.50Q796 170 851 292L851 549L595 549Q458 549 356.50 513.50Q255 478 200.50 415Q146 352 146 270Q146 205 181.50 150.50Q217 96 281 64.50Q345 33 425 33M831 1263L763 1263L576 1459L391 1263L327 1263L327 1277L557 1516L597 1516L831 1273L831 1263Z"  horiz-adv-x="1081" vert-adv-y="2048"  />

      
      <glyph glyph-name="unie4" unicode="&#xe4;" d="M92 0M905 218Q905 157 912.50 99Q920 41 933 9L933 0L871 0Q851 73 851 198Q792 102 684 41Q576-20 425-20Q326-20 250 17.50Q174 55 133 121.50Q92 188 92 274Q92 371 152 445.50Q212 520 325 562Q438 604 592 604L851 604L851 762Q851 898 765 973Q679 1048 521 1048Q424 1048 345 1013.50Q266 979 220.50 918.50Q175 858 175 784L121 786Q121 870 173 942.50Q225 1015 316.50 1058.50Q408 1102 521 1102Q635 1102 721.50 1063.50Q808 1025 856.50 948Q905 871 905 760L905 218M425 33Q578 33 687 101.50Q796 170 851 292L851 549L595 549Q458 549 356.50 513.50Q255 478 200.50 415Q146 352 146 270Q146 205 181.50 150.50Q217 96 281 64.50Q345 33 425 33M356 1476Q379 1476 395.50 1459.50Q412 1443 412 1420Q412 1397 395.50 1381Q379 1365 356 1365Q333 1365 317 1381Q301 1397 301 1420Q301 1443 317 1459.50Q333 1476 356 1476M801 1476Q824 1476 840.50 1459.50Q857 1443 857 1420Q857 1397 840.50 1381Q824 1365 801 1365Q778 1365 762 1381Q746 1397 746 1420Q746 1443 762 1459.50Q778 1476 801 1476Z"  horiz-adv-x="1081" vert-adv-y="2048"  />

      
      <glyph glyph-name="unie0" unicode="&#xe0;" d="M92 0M905 218Q905 157 912.50 99Q920 41 933 9L933 0L871 0Q851 73 851 198Q792 102 684 41Q576-20 425-20Q326-20 250 17.50Q174 55 133 121.50Q92 188 92 274Q92 371 152 445.50Q212 520 325 562Q438 604 592 604L851 604L851 762Q851 898 765 973Q679 1048 521 1048Q424 1048 345 1013.50Q266 979 220.50 918.50Q175 858 175 784L121 786Q121 870 173 942.50Q225 1015 316.50 1058.50Q408 1102 521 1102Q635 1102 721.50 1063.50Q808 1025 856.50 948Q905 871 905 760L905 218M425 33Q578 33 687 101.50Q796 170 851 292L851 549L595 549Q458 549 356.50 513.50Q255 478 200.50 415Q146 352 146 270Q146 205 181.50 150.50Q217 96 281 64.50Q345 33 425 33M572 1269L377 1535L443 1535L631 1269L572 1269Z"  horiz-adv-x="1081" vert-adv-y="2048"  />

      
      <glyph glyph-name="unie5" unicode="&#xe5;" d="M92 0M905 218Q905 157 912.50 99Q920 41 933 9L933 0L871 0Q851 73 851 198Q792 102 684 41Q576-20 425-20Q326-20 250 17.50Q174 55 133 121.50Q92 188 92 274Q92 371 152 445.50Q212 520 325 562Q438 604 592 604L851 604L851 762Q851 898 765 973Q679 1048 521 1048Q424 1048 345 1013.50Q266 979 220.50 918.50Q175 858 175 784L121 786Q121 870 173 942.50Q225 1015 316.50 1058.50Q408 1102 521 1102Q635 1102 721.50 1063.50Q808 1025 856.50 948Q905 871 905 760L905 218M425 33Q578 33 687 101.50Q796 170 851 292L851 549L595 549Q458 549 356.50 513.50Q255 478 200.50 415Q146 352 146 270Q146 205 181.50 150.50Q217 96 281 64.50Q345 33 425 33M579 1555Q626 1555 665 1532Q704 1509 727 1469Q750 1429 750 1381Q750 1333 727 1294Q704 1255 665 1233Q626 1211 579 1211Q532 1211 492.50 1233Q453 1255 430.50 1294Q408 1333 408 1381Q408 1429 430.50 1469Q453 1509 492.50 1532Q532 1555 579 1555M579 1265Q630 1265 663 1297.50Q696 1330 696 1381Q696 1434 663 1467.50Q630 1501 579 1501Q528 1501 495 1467.50Q462 1434 462 1381Q462 1330 495 1297.50Q528 1265 579 1265Z"  horiz-adv-x="1081" vert-adv-y="2048"  />

      
      <glyph glyph-name="unie3" unicode="&#xe3;" d="M92 0M905 218Q905 157 912.50 99Q920 41 933 9L933 0L871 0Q851 73 851 198Q792 102 684 41Q576-20 425-20Q326-20 250 17.50Q174 55 133 121.50Q92 188 92 274Q92 371 152 445.50Q212 520 325 562Q438 604 592 604L851 604L851 762Q851 898 765 973Q679 1048 521 1048Q424 1048 345 1013.50Q266 979 220.50 918.50Q175 858 175 784L121 786Q121 870 173 942.50Q225 1015 316.50 1058.50Q408 1102 521 1102Q635 1102 721.50 1063.50Q808 1025 856.50 948Q905 871 905 760L905 218M425 33Q578 33 687 101.50Q796 170 851 292L851 549L595 549Q458 549 356.50 513.50Q255 478 200.50 415Q146 352 146 270Q146 205 181.50 150.50Q217 96 281 64.50Q345 33 425 33M905 1486Q905 1432 881.50 1389.50Q858 1347 818 1323.50Q778 1300 729 1300Q678 1300 644.50 1317Q611 1334 570 1367Q534 1396 506.50 1410.50Q479 1425 442 1425Q389 1425 355 1392.50Q321 1360 321 1300L266 1300Q266 1354 289 1394.50Q312 1435 352 1457Q392 1479 442 1479Q491 1479 525.50 1462Q560 1445 602 1412Q640 1383 667 1369Q694 1355 729 1355Q781 1355 815.50 1390Q850 1425 850 1486L905 1486Z"  horiz-adv-x="1081" vert-adv-y="2048"  />

      
      <glyph glyph-name="unie6" unicode="&#xe6;" d="M870 564L870 500Q870 366 912.50 261Q955 156 1044 95Q1133 34 1268 34Q1371 34 1455.50 68.50Q1540 103 1600 164L1630 122Q1566 57 1482.50 18.50Q1399-20 1268-20Q1125-20 1023 46Q921 112 868 230L868 218L869 218Q842 159 786 105Q730 51 643.50 15.50Q557-20 448-20Q336-20 256 17.50Q176 55 134.50 123.50Q93 192 93 284Q93 388 142.50 466Q192 544 288.50 587Q385 630 523 630L813 630L813 720Q813 879 740 963.50Q667 1048 521 1048Q413 1048 334.50 1012Q256 976 215 913.50Q174 851 174 771L121 778Q121 871 170 945Q219 1019 310 1060.50Q401 1102 521 1102Q660 1102 749 1029Q838 956 861 815Q914 948 1018 1025Q1122 1102 1253 1102Q1378 1102 1469 1048.50Q1560 995 1608.50 895.50Q1657 796 1657 660L1657 577L870 577L870 564M1253 1048Q1147 1048 1065 994Q983 940 934 845.50Q885 751 873 632L1603 632L1603 664Q1603 774 1563 861Q1523 948 1444 998Q1365 1048 1253 1048M447 32Q536 32 615.50 64Q695 96 747.50 142Q800 188 813 226L813 575L525 575Q401 575 316 535.50Q231 496 189.50 429Q148 362 148 280Q148 163 226 97.50Q304 32 447 32Z"  horiz-adv-x="1735" vert-adv-y="2048"  />

      
      <glyph glyph-name="uni62" unicode="&#x62;" d="M591 1102Q718 1102 810 1036Q902 970 950.50 846Q999 722 999 552L999 531Q999 366 950.50 241.50Q902 117 810.50 48.50Q719-20 593-20Q466-20 372 32Q278 84 224 171L224 0L170 0L170 1536L224 1536L224 886Q278 987 371 1044.50Q464 1102 591 1102M943 552Q943 699 904 810.50Q865 922 786.50 985Q708 1048 592 1048Q434 1048 347.50 967.50Q261 887 224 770L224 274Q264 165 357 99.50Q450 34 594 34Q709 34 787.50 97Q866 160 904.50 272Q943 384 943 531L943 552Z"  horiz-adv-x="1121" vert-adv-y="2048"  />

      
      <glyph glyph-name="uni63" unicode="&#x63;" d="M940 328Q935 221 880 142Q825 63 735.50 21.50Q646-20 539-20Q401-20 301.50 48Q202 116 149.50 238.50Q97 361 97 520L97 562Q97 721 149 843Q201 965 300.50 1033.50Q400 1102 537 1102Q644 1102 734 1058.50Q824 1015 879.50 930Q935 845 940 725L886 725Q881 829 832.50 901.50Q784 974 706 1011Q628 1048 537 1048Q409 1048 322.50 984Q236 920 193.50 810.50Q151 701 151 562L151 520Q151 380 193.50 270.50Q236 161 323 97.50Q410 34 539 34Q628 34 704.50 65.50Q781 97 830.50 163Q880 229 886 328L940 328Z"  horiz-adv-x="1039" vert-adv-y="2048"  />

      
      <glyph glyph-name="unie7" unicode="&#xe7;" d="M539 34Q628 34 704.50 65.50Q781 97 830.50 163Q880 229 886 328L940 328Q935 227 885.50 150.50Q836 74 754.50 31Q673-12 574-19L564-86Q642-94 691.50-133Q741-172 741-255Q741-312 706.50-355Q672-398 607.50-421.50Q543-445 456-445L449-396Q506-396 560.50-380.50Q615-365 650.50-333.50Q686-302 686-255Q686-212 665-187.50Q644-163 604-150.50Q564-138 497-131L520-20Q388-15 292.50 54.50Q197 124 147 244.50Q97 365 97 520L97 562Q97 721 149 843Q201 965 300.50 1033.50Q400 1102 537 1102Q644 1102 734 1058.50Q824 1015 879.50 930Q935 845 940 725L886 725Q881 829 832.50 901.50Q784 974 706 1011Q628 1048 537 1048Q409 1048 322.50 984Q236 920 193.50 810.50Q151 701 151 562L151 520Q151 380 193.50 270.50Q236 161 323 97.50Q410 34 539 34Z"  horiz-adv-x="1039" vert-adv-y="2048"  />

      
      <glyph glyph-name="uni64" unicode="&#x64;" d="M951 1536L951 0L897 0L897 174Q844 85 750 32.50Q656-20 528-20Q402-20 310.50 48.50Q219 117 170.50 241.50Q122 366 122 531L122 552Q122 722 170.50 846Q219 970 311 1036Q403 1102 530 1102Q659 1102 751.50 1044Q844 986 897 883L897 1536L951 1536M527 34Q669 34 762.50 98Q856 162 897 269L897 775Q859 891 772 969.50Q685 1048 529 1048Q413 1048 334.50 985Q256 922 217 810.50Q178 699 178 552L178 531Q178 384 216.50 272Q255 160 333.50 97Q412 34 527 34Z"  horiz-adv-x="1121" vert-adv-y="2048"  />

      
      <glyph glyph-name="unif0" unicode="&#xf0;" d="M802 1308Q923 1183 982 1012.50Q1041 842 1041 615L1041 535Q1041 373 988 246.50Q935 120 841.50 50Q748-20 629-20Q498-20 394 44.50Q290 109 231.50 219.50Q173 330 173 465Q173 619 224 728.50Q275 838 371 895.50Q467 953 601 953Q716 953 817.50 907.50Q919 862 978 780Q959 942 901.50 1064.50Q844 1187 752 1280L517 1149L489 1197L709 1320Q569 1441 338 1527L358 1577Q608 1486 760 1348L962 1461L991 1413L802 1308M987 617Q987 654 986 672Q961 731 910 781.50Q859 832 780.50 863.50Q702 895 601 895Q475 895 391 839Q307 783 267.50 686Q228 589 228 465Q228 355 276 257Q324 159 416 98.50Q508 38 633 38Q740 38 820 101.50Q900 165 943.50 278Q987 391 987 535L987 617Z"  horiz-adv-x="1183" vert-adv-y="2048"  />

      
      <glyph glyph-name="uni65" unicode="&#x65;" d="M141 562L141 518Q141 385 196.50 273.50Q252 162 348 97.50Q444 33 561 33Q661 33 739.50 66.50Q818 100 882 182L920 155Q863 73 774 26.50Q685-20 561-20Q430-20 321.50 49.50Q213 119 150 241.50Q87 364 87 518L87 562Q87 717 148 840Q209 963 313 1032.50Q417 1102 541 1102Q660 1102 753.50 1044Q847 986 899.50 881Q952 776 952 640L952 577L141 577L141 562M541 1048Q435 1048 349 993.50Q263 939 210.50 844Q158 749 145 631L898 631L898 644Q898 753 853.50 845.50Q809 938 727.50 993Q646 1048 541 1048Z"  horiz-adv-x="1032" vert-adv-y="2048"  />

      
      <glyph glyph-name="unie9" unicode="&#xe9;" d="M87 0M141 562L141 518Q141 385 196.50 273.50Q252 162 348 97.50Q444 33 561 33Q661 33 739.50 66.50Q818 100 882 182L920 155Q863 73 774 26.50Q685-20 561-20Q430-20 321.50 49.50Q213 119 150 241.50Q87 364 87 518L87 562Q87 717 148 840Q209 963 313 1032.50Q417 1102 541 1102Q660 1102 753.50 1044Q847 986 899.50 881Q952 776 952 640L952 577L141 577L141 562M541 1048Q435 1048 349 993.50Q263 939 210.50 844Q158 749 145 631L898 631L898 644Q898 753 853.50 845.50Q809 938 727.50 993Q646 1048 541 1048M776 1534L581 1268L521 1268L710 1534L776 1534Z"  horiz-adv-x="1032" vert-adv-y="2048"  />

      
      <glyph glyph-name="uniea" unicode="&#xea;" d="M87 0M141 562L141 518Q141 385 196.50 273.50Q252 162 348 97.50Q444 33 561 33Q661 33 739.50 66.50Q818 100 882 182L920 155Q863 73 774 26.50Q685-20 561-20Q430-20 321.50 49.50Q213 119 150 241.50Q87 364 87 518L87 562Q87 717 148 840Q209 963 313 1032.50Q417 1102 541 1102Q660 1102 753.50 1044Q847 986 899.50 881Q952 776 952 640L952 577L141 577L141 562M541 1048Q435 1048 349 993.50Q263 939 210.50 844Q158 749 145 631L898 631L898 644Q898 753 853.50 845.50Q809 938 727.50 993Q646 1048 541 1048M821 1262L753 1262L566 1458L381 1262L317 1262L317 1276L547 1515L587 1515L821 1272L821 1262Z"  horiz-adv-x="1032" vert-adv-y="2048"  />

      
      <glyph glyph-name="unieb" unicode="&#xeb;" d="M87 0M141 562L141 518Q141 385 196.50 273.50Q252 162 348 97.50Q444 33 561 33Q661 33 739.50 66.50Q818 100 882 182L920 155Q863 73 774 26.50Q685-20 561-20Q430-20 321.50 49.50Q213 119 150 241.50Q87 364 87 518L87 562Q87 717 148 840Q209 963 313 1032.50Q417 1102 541 1102Q660 1102 753.50 1044Q847 986 899.50 881Q952 776 952 640L952 577L141 577L141 562M541 1048Q435 1048 349 993.50Q263 939 210.50 844Q158 749 145 631L898 631L898 644Q898 753 853.50 845.50Q809 938 727.50 993Q646 1048 541 1048M346 1475Q369 1475 385.50 1458.50Q402 1442 402 1419Q402 1396 385.50 1380Q369 1364 346 1364Q323 1364 307 1380Q291 1396 291 1419Q291 1442 307 1458.50Q323 1475 346 1475M791 1475Q814 1475 830.50 1458.50Q847 1442 847 1419Q847 1396 830.50 1380Q814 1364 791 1364Q768 1364 752 1380Q736 1396 736 1419Q736 1442 752 1458.50Q768 1475 791 1475Z"  horiz-adv-x="1032" vert-adv-y="2048"  />

      
      <glyph glyph-name="unie8" unicode="&#xe8;" d="M87 0M141 562L141 518Q141 385 196.50 273.50Q252 162 348 97.50Q444 33 561 33Q661 33 739.50 66.50Q818 100 882 182L920 155Q863 73 774 26.50Q685-20 561-20Q430-20 321.50 49.50Q213 119 150 241.50Q87 364 87 518L87 562Q87 717 148 840Q209 963 313 1032.50Q417 1102 541 1102Q660 1102 753.50 1044Q847 986 899.50 881Q952 776 952 640L952 577L141 577L141 562M541 1048Q435 1048 349 993.50Q263 939 210.50 844Q158 749 145 631L898 631L898 644Q898 753 853.50 845.50Q809 938 727.50 993Q646 1048 541 1048M562 1268L367 1534L433 1534L621 1268L562 1268Z"  horiz-adv-x="1032" vert-adv-y="2048"  />

      
      <glyph glyph-name="uni66" unicode="&#x66;" d="M538 1503Q431 1503 369.50 1432.50Q308 1362 308 1236L308 1082L594 1082L594 1027L308 1027L308 0L254 0L254 1027L66 1027L66 1082L254 1082L254 1236Q254 1390 329 1473.50Q404 1557 537 1557Q610 1557 665 1540L657 1488Q626 1496 601 1499.50Q576 1503 538 1503Z"  horiz-adv-x="645" vert-adv-y="2048"  />

      
      <glyph glyph-name="uni67" unicode="&#x67;" d="M950 1082L950 15Q950-123 901-224.50Q852-326 759.50-381Q667-436 541-436Q427-436 338-387.50Q249-339 187-254L225-218Q290-300 365.50-341.50Q441-383 539-383Q712-383 803.50-277Q895-171 895 15L895 172Q842 84 748.50 32Q655-20 527-20Q401-20 309.50 48.50Q218 117 169.50 241.50Q121 366 121 531L121 552Q121 722 169.50 846Q218 970 310 1036Q402 1102 529 1102Q657 1102 749 1044.50Q841 987 895 885L895 1082L950 1082M526 34Q670 34 763 100Q856 166 895 276L895 767Q859 886 773 967Q687 1048 528 1048Q412 1048 333 985Q254 922 215 810Q176 698 176 552L176 531Q176 384 215 272Q254 160 332.50 97Q411 34 526 34Z"  horiz-adv-x="1123" vert-adv-y="2048"  />

      
      <glyph glyph-name="uni68" unicode="&#x68;" d="M610 1102Q779 1102 866.50 1006Q954 910 954 700L954 0L900 0L900 700Q900 894 824 971.50Q748 1049 607 1049Q497 1049 417.50 993Q338 937 291.50 856Q245 775 226 693L226 0L172 0L172 1536L226 1536L226 831Q277 951 378 1026.50Q479 1102 610 1102Z"  horiz-adv-x="1121" vert-adv-y="2048"  />

      
      <glyph glyph-name="uni69" unicode="&#x69;" d="M212 1476Q235 1476 251.50 1459.50Q268 1443 268 1420Q268 1397 251.50 1381Q235 1365 212 1365Q189 1365 173 1381Q157 1397 157 1420Q157 1443 173 1459.50Q189 1476 212 1476M185 0L185 1082L239 1082L239 0L185 0Z"  horiz-adv-x="422" vert-adv-y="2048"  />

      
      <glyph glyph-name="uni0131" unicode="&#x0131;" d="M181 0L181 1082L235 1082L235 0L181 0Z"  horiz-adv-x="406" vert-adv-y="2048"  />

      
      <glyph glyph-name="unied" unicode="&#xed;" d="M163 0M181 0L181 1082L235 1082L235 0L181 0M418 1512L223 1246L163 1246L352 1512L418 1512Z"  horiz-adv-x="406" vert-adv-y="2048"  />

      
      <glyph glyph-name="uniee" unicode="&#xee;" d="M0 0M181 0L181 1082L235 1082L235 0L181 0M463 1240L395 1240L208 1436L23 1240L-41 1240L-41 1254L189 1493L229 1493L463 1250L463 1240Z"  horiz-adv-x="406" vert-adv-y="2048"  />

      
      <glyph glyph-name="unief" unicode="&#xef;" d="M0 0M181 0L181 1082L235 1082L235 0L181 0M-12 1453Q11 1453 27.50 1436.50Q44 1420 44 1397Q44 1374 27.50 1358Q11 1342-12 1342Q-35 1342-51 1358Q-67 1374-67 1397Q-67 1420-51 1436.50Q-35 1453-12 1453M433 1453Q456 1453 472.50 1436.50Q489 1420 489 1397Q489 1374 472.50 1358Q456 1342 433 1342Q410 1342 394 1358Q378 1374 378 1397Q378 1420 394 1436.50Q410 1453 433 1453Z"  horiz-adv-x="406" vert-adv-y="2048"  />

      
      <glyph glyph-name="uniec" unicode="&#xec;" d="M9 0M181 0L181 1082L235 1082L235 0L181 0M204 1246L9 1512L75 1512L263 1246L204 1246Z"  horiz-adv-x="406" vert-adv-y="2048"  />

      
      <glyph glyph-name="uni6a" unicode="&#x6a;" d="M218 1476Q241 1476 257.50 1459.50Q274 1443 274 1420Q274 1397 257.50 1381Q241 1365 218 1365Q195 1365 179 1381Q163 1397 163 1420Q163 1443 179 1459.50Q195 1476 218 1476M240-129Q240-277 165-357Q90-437-45-437Q-94-437-143-417L-140-365Q-93-383-45-383Q66-383 126-316.50Q186-250 186-129L186 1082L240 1082L240-129Z"  horiz-adv-x="445" vert-adv-y="2048"  />

      
      <glyph glyph-name="uni6b" unicode="&#x6b;" d="M883 0L385 585L383 583L226 449L226 0L172 0L172 1536L226 1536L226 507L353 627L845 1082L922 1082L425 622L953 0L883 0Z"  horiz-adv-x="969" vert-adv-y="2048"  />

      
      <glyph glyph-name="uni6c" unicode="&#x6c;" d="M185 0L185 1536L239 1536L239 0L185 0Z"  horiz-adv-x="422" vert-adv-y="2048"  />

      
      <glyph glyph-name="uni6d" unicode="&#x6d;" d="M1333 1102Q1503 1102 1591.50 1005.50Q1680 909 1680 700L1680 0L1626 0L1626 700Q1626 892 1550.50 970.50Q1475 1049 1337 1049Q1217 1049 1130 994.50Q1043 940 997.50 863Q952 786 946 720L946 0L892 0L892 720Q892 902 815 975.50Q738 1049 596 1049Q484 1049 403.50 991Q323 933 277.50 849.50Q232 766 216 684L216 0L161 0L161 1082L216 1082L216 827Q267 949 367 1025.50Q467 1102 599 1102Q739 1102 824 1040Q909 978 935 846Q965 919 1022.50 977Q1080 1035 1159.50 1068.50Q1239 1102 1333 1102Z"  horiz-adv-x="1836" vert-adv-y="2048"  />

      
      <glyph glyph-name="uni6e" unicode="&#x6e;" d="M610 1102Q779 1102 866.50 1006Q954 910 954 700L954 0L900 0L900 700Q900 894 824 971.50Q748 1049 607 1049Q497 1049 417.50 993Q338 937 291.50 856Q245 775 226 693L226 0L172 0L172 1082L226 1082L226 831Q277 951 378 1026.50Q479 1102 610 1102Z"  horiz-adv-x="1121" vert-adv-y="2048"  />

      
      <glyph glyph-name="unif1" unicode="&#xf1;" d="M172 0M610 1102Q779 1102 866.50 1006Q954 910 954 700L954 0L900 0L900 700Q900 894 824 971.50Q748 1049 607 1049Q497 1049 417.50 993Q338 937 291.50 856Q245 775 226 693L226 0L172 0L172 1082L226 1082L226 831Q277 951 378 1026.50Q479 1102 610 1102M906 1484Q906 1430 882.50 1387.50Q859 1345 819 1321.50Q779 1298 730 1298Q679 1298 645.50 1315Q612 1332 571 1365Q535 1394 507.50 1408.50Q480 1423 443 1423Q390 1423 356 1390.50Q322 1358 322 1298L267 1298Q267 1352 290 1392.50Q313 1433 353 1455Q393 1477 443 1477Q492 1477 526.50 1460Q561 1443 603 1410Q641 1381 668 1367Q695 1353 730 1353Q782 1353 816.50 1388Q851 1423 851 1484L906 1484Z"  horiz-adv-x="1121" vert-adv-y="2048"  />

      
      <glyph glyph-name="uni6f" unicode="&#x6f;" d="M90 562Q90 719 150 842Q210 965 317.50 1033.50Q425 1102 563 1102Q703 1102 810.50 1033.50Q918 965 977.50 842Q1037 719 1037 562L1037 520Q1037 363 977.50 240Q918 117 811 48.50Q704-20 565-20Q426-20 318 48.50Q210 117 150 240Q90 363 90 520L90 562M144 520Q144 389 194.50 277.50Q245 166 340.50 100Q436 34 565 34Q692 34 787 100Q882 166 932.50 277.50Q983 389 983 520L983 562Q983 691 932.50 802Q882 913 786.50 980.50Q691 1048 563 1048Q436 1048 340.50 980.50Q245 913 194.50 802Q144 691 144 562L144 520Z"  horiz-adv-x="1127" vert-adv-y="2048"  />

      
      <glyph glyph-name="unif3" unicode="&#xf3;" d="M90 0M90 562Q90 719 150 842Q210 965 317.50 1033.50Q425 1102 563 1102Q703 1102 810.50 1033.50Q918 965 977.50 842Q1037 719 1037 562L1037 520Q1037 363 977.50 240Q918 117 811 48.50Q704-20 565-20Q426-20 318 48.50Q210 117 150 240Q90 363 90 520L90 562M144 520Q144 389 194.50 277.50Q245 166 340.50 100Q436 34 565 34Q692 34 787 100Q882 166 932.50 277.50Q983 389 983 520L983 562Q983 691 932.50 802Q882 913 786.50 980.50Q691 1048 563 1048Q436 1048 340.50 980.50Q245 913 194.50 802Q144 691 144 562L144 520M776 1533L581 1267L521 1267L710 1533L776 1533Z"  horiz-adv-x="1127" vert-adv-y="2048"  />

      
      <glyph glyph-name="unif4" unicode="&#xf4;" d="M90 0M90 562Q90 719 150 842Q210 965 317.50 1033.50Q425 1102 563 1102Q703 1102 810.50 1033.50Q918 965 977.50 842Q1037 719 1037 562L1037 520Q1037 363 977.50 240Q918 117 811 48.50Q704-20 565-20Q426-20 318 48.50Q210 117 150 240Q90 363 90 520L90 562M144 520Q144 389 194.50 277.50Q245 166 340.50 100Q436 34 565 34Q692 34 787 100Q882 166 932.50 277.50Q983 389 983 520L983 562Q983 691 932.50 802Q882 913 786.50 980.50Q691 1048 563 1048Q436 1048 340.50 980.50Q245 913 194.50 802Q144 691 144 562L144 520M821 1261L753 1261L566 1457L381 1261L317 1261L317 1275L547 1514L587 1514L821 1271L821 1261Z"  horiz-adv-x="1127" vert-adv-y="2048"  />

      
      <glyph glyph-name="unif6" unicode="&#xf6;" d="M90 0M90 562Q90 719 150 842Q210 965 317.50 1033.50Q425 1102 563 1102Q703 1102 810.50 1033.50Q918 965 977.50 842Q1037 719 1037 562L1037 520Q1037 363 977.50 240Q918 117 811 48.50Q704-20 565-20Q426-20 318 48.50Q210 117 150 240Q90 363 90 520L90 562M144 520Q144 389 194.50 277.50Q245 166 340.50 100Q436 34 565 34Q692 34 787 100Q882 166 932.50 277.50Q983 389 983 520L983 562Q983 691 932.50 802Q882 913 786.50 980.50Q691 1048 563 1048Q436 1048 340.50 980.50Q245 913 194.50 802Q144 691 144 562L144 520M346 1474Q369 1474 385.50 1457.50Q402 1441 402 1418Q402 1395 385.50 1379Q369 1363 346 1363Q323 1363 307 1379Q291 1395 291 1418Q291 1441 307 1457.50Q323 1474 346 1474M791 1474Q814 1474 830.50 1457.50Q847 1441 847 1418Q847 1395 830.50 1379Q814 1363 791 1363Q768 1363 752 1379Q736 1395 736 1418Q736 1441 752 1457.50Q768 1474 791 1474Z"  horiz-adv-x="1127" vert-adv-y="2048"  />

      
      <glyph glyph-name="unif2" unicode="&#xf2;" d="M90 0M90 562Q90 719 150 842Q210 965 317.50 1033.50Q425 1102 563 1102Q703 1102 810.50 1033.50Q918 965 977.50 842Q1037 719 1037 562L1037 520Q1037 363 977.50 240Q918 117 811 48.50Q704-20 565-20Q426-20 318 48.50Q210 117 150 240Q90 363 90 520L90 562M144 520Q144 389 194.50 277.50Q245 166 340.50 100Q436 34 565 34Q692 34 787 100Q882 166 932.50 277.50Q983 389 983 520L983 562Q983 691 932.50 802Q882 913 786.50 980.50Q691 1048 563 1048Q436 1048 340.50 980.50Q245 913 194.50 802Q144 691 144 562L144 520M562 1267L367 1533L433 1533L621 1267L562 1267Z"  horiz-adv-x="1127" vert-adv-y="2048"  />

      
      <glyph glyph-name="unif8" unicode="&#xf8;" d="M832 1016Q928 946 981 828Q1034 710 1034 562L1034 520Q1034 363 974.50 240Q915 117 808 48.50Q701-20 562-20Q448-20 352 28L268-145L205-145L303 57Q201 126 144 246.50Q87 367 87 520L87 562Q87 719 147 842Q207 965 314.50 1033.50Q422 1102 560 1102Q685 1102 784 1047L868 1219L931 1219L832 1016M141 520Q141 391 189.50 281.50Q238 172 328 107L759 996Q671 1048 560 1048Q433 1048 337.50 980.50Q242 913 191.50 802Q141 691 141 562L141 520M980 562Q980 683 934.50 789.50Q889 896 807 963L376 77Q462 34 562 34Q689 34 784 100Q879 166 929.50 277.50Q980 389 980 520L980 562Z"  horiz-adv-x="1121" vert-adv-y="2048"  />

      
      <glyph glyph-name="unif5" unicode="&#xf5;" d="M90 0M90 562Q90 719 150 842Q210 965 317.50 1033.50Q425 1102 563 1102Q703 1102 810.50 1033.50Q918 965 977.50 842Q1037 719 1037 562L1037 520Q1037 363 977.50 240Q918 117 811 48.50Q704-20 565-20Q426-20 318 48.50Q210 117 150 240Q90 363 90 520L90 562M144 520Q144 389 194.50 277.50Q245 166 340.50 100Q436 34 565 34Q692 34 787 100Q882 166 932.50 277.50Q983 389 983 520L983 562Q983 691 932.50 802Q882 913 786.50 980.50Q691 1048 563 1048Q436 1048 340.50 980.50Q245 913 194.50 802Q144 691 144 562L144 520M895 1484Q895 1430 871.50 1387.50Q848 1345 808 1321.50Q768 1298 719 1298Q668 1298 634.50 1315Q601 1332 560 1365Q524 1394 496.50 1408.50Q469 1423 432 1423Q379 1423 345 1390.50Q311 1358 311 1298L256 1298Q256 1352 279 1392.50Q302 1433 342 1455Q382 1477 432 1477Q481 1477 515.50 1460Q550 1443 592 1410Q630 1381 657 1367Q684 1353 719 1353Q771 1353 805.50 1388Q840 1423 840 1484L895 1484Z"  horiz-adv-x="1127" vert-adv-y="2048"  />

      
      <glyph glyph-name="uni0153" unicode="&#x0153;" d="M1044 564L1044 500Q1044 372 1096.50 265Q1149 158 1241 96Q1333 34 1444 34Q1566 34 1647.50 67Q1729 100 1786 165L1815 123Q1686-20 1444-20Q1349-20 1261.50 24Q1174 68 1109.50 147.50Q1045 227 1014 331Q983 224 920 145Q857 66 766.50 23Q676-20 567-20Q428-20 320 48.50Q212 117 152 240Q92 363 92 520L92 562Q92 719 152 842Q212 965 319.50 1033.50Q427 1102 565 1102Q675 1102 766.50 1058.50Q858 1015 921.50 935.50Q985 856 1015 748Q1045 855 1108 935Q1171 1015 1257 1058.50Q1343 1102 1441 1102Q1561 1102 1655 1048.50Q1749 995 1802 895Q1855 795 1855 660L1855 577L1044 577L1044 564M985 562Q985 691 934.50 802Q884 913 788.50 980.50Q693 1048 565 1048Q438 1048 342.50 980.50Q247 913 196.50 802Q146 691 146 562L146 520Q146 389 196.50 277.50Q247 166 342.50 100Q438 34 567 34Q694 34 789 100Q884 166 934.50 277.50Q985 389 985 520L985 562M1441 1048Q1334 1048 1249 993.50Q1164 939 1111.50 844Q1059 749 1047 631L1801 631L1801 664Q1801 772 1756 859.50Q1711 947 1629 997.50Q1547 1048 1441 1048Z"  horiz-adv-x="1924" vert-adv-y="2048"  />

      
      <glyph glyph-name="uni70" unicode="&#x70;" d="M591 1102Q718 1102 810 1036Q902 970 950.50 846Q999 722 999 552L999 531Q999 366 950.50 241.50Q902 117 810.50 48.50Q719-20 593-20Q466-20 372 31.50Q278 83 224 169L224-416L170-416L170 745L170 1082L224 1082L224 889Q279 989 371.50 1045.50Q464 1102 591 1102M944 552Q944 698 905 810Q866 922 787 985Q708 1048 592 1048Q436 1048 349 969.50Q262 891 224 775L224 269Q265 162 358.50 98Q452 34 594 34Q709 34 787.50 97Q866 160 905 272Q944 384 944 531L944 552Z"  horiz-adv-x="1121" vert-adv-y="2048"  />

      
      <glyph glyph-name="unife" unicode="&#xfe;" d="M591 1102Q718 1102 810 1036Q902 970 950.50 846Q999 722 999 552L999 531Q999 366 950.50 241.50Q902 117 810.50 48.50Q719-20 593-20Q466-20 372 31.50Q278 83 224 169L224-416L170-416L170 745L170 1536L224 1536L224 889Q279 989 371.50 1045.50Q464 1102 591 1102M944 552Q944 698 905 810Q866 922 787 985Q708 1048 592 1048Q436 1048 349 969.50Q262 891 224 775L224 269Q265 162 358.50 98Q452 34 594 34Q709 34 787.50 97Q866 160 905 272Q944 384 944 531L944 552Z"  horiz-adv-x="1121" vert-adv-y="2048"  />

      
      <glyph glyph-name="uni71" unicode="&#x71;" d="M951 1082L951 304L951-416L897-416L897 168Q843 82 748.50 31Q654-20 528-20Q402-20 310.50 48.50Q219 117 170.50 241.50Q122 366 122 531L122 552Q122 722 170.50 846Q219 970 311 1036Q403 1102 530 1102Q657 1102 749.50 1045.50Q842 989 897 889L897 1082L951 1082M527 34Q669 34 762.50 98Q856 162 897 269L897 775Q858 888 770 968Q682 1048 529 1048Q413 1048 334.50 985Q256 922 217 810.50Q178 699 178 552L178 531Q178 384 216.50 272Q255 160 333.50 97Q412 34 527 34Z"  horiz-adv-x="1121" vert-adv-y="2048"  />

      
      <glyph glyph-name="uni72" unicode="&#x72;" d="M579 1102Q624 1102 655 1091L649 1043Q607 1049 579 1049Q434 1049 344 955.50Q254 862 226 708L226 0L172 0L172 1082L226 1082L226 857Q273 973 361.50 1037.50Q450 1102 579 1102Z"  horiz-adv-x="685" vert-adv-y="2048"  />

      
      <glyph glyph-name="uni73" unicode="&#x73;" d="M509 532Q380 560 301.50 595Q223 630 183 686Q143 742 143 829Q143 905 187 967.50Q231 1030 313 1066Q395 1102 505 1102Q624 1102 711.50 1063.50Q799 1025 845.50 955Q892 885 892 793L837 793Q837 861 798 919.50Q759 978 683.50 1013Q608 1048 505 1048Q402 1048 332.50 1016Q263 984 230 934.50Q197 885 197 831Q197 770 222 726.50Q247 683 318 646.50Q389 610 525 579Q656 549 736.50 508Q817 467 855 408Q893 349 893 264Q893 181 846.50 116.50Q800 52 714 16Q628-20 513-20Q386-20 294.50 20Q203 60 155.50 127Q108 194 108 275L162 275Q171 147 273 90.50Q375 34 513 34Q615 34 689 67Q763 100 801 153.50Q839 207 839 265Q839 460 509 532Z"  horiz-adv-x="1019" vert-adv-y="2048"  />

      
      <glyph glyph-name="unidf" unicode="&#xdf;" d="M164 0L164 1143Q164 1333 249 1434Q334 1535 493 1535Q573 1535 644.50 1500Q716 1465 760 1401.50Q804 1338 804 1257Q804 1195 790 1152Q776 1109 747 1054Q717 997 701 948.50Q685 900 685 829Q685 784 707.50 745.50Q730 707 763.50 676.50Q797 646 855 602Q922 550 963.50 511Q1005 472 1033.50 418.50Q1062 365 1062 297Q1062 201 1006.50 128.50Q951 56 865.50 17.50Q780-21 695-21Q608-21 516 5.50Q424 32 383 68L408 117Q450 84 530.50 58Q611 32 687 32Q779 32 852 69.50Q925 107 966.50 170Q1008 233 1008 306Q1008 359 983 402Q958 445 922 478.50Q886 512 824 559Q760 608 722 643Q684 678 657.50 725.50Q631 773 631 831Q631 902 646 950.50Q661 999 690 1061Q717 1116 730.50 1158.50Q744 1201 744 1259Q744 1320 709.50 1371Q675 1422 619.50 1451.50Q564 1481 503 1481Q218 1481 218 1143L218 0L164 0Z"  horiz-adv-x="1183" vert-adv-y="2048"  />

      
      <glyph glyph-name="uni017F" unicode="&#x017F;" d="M174 1236Q174 1390 248.50 1473.50Q323 1557 456 1557Q530 1557 584 1540L576 1488Q546 1496 520.50 1499.50Q495 1503 457 1503Q350 1503 289 1432.50Q228 1362 228 1236L228 0L174 0L174 1236Z"  horiz-adv-x="422" vert-adv-y="2048"  />

      
      <glyph glyph-name="uni74" unicode="&#x74;" d="M572-8Q537-20 459-20Q386-20 338 5.50Q290 31 264 92Q238 153 238 259L238 1027L38 1027L38 1082L238 1082L238 1374L293 1374L293 1082L539 1082L539 1027L293 1027L293 259Q293 128 336.50 81Q380 34 456 34Q496 34 563 43L572-8Z"  horiz-adv-x="648" vert-adv-y="2048"  />

      
      <glyph glyph-name="uni75" unicode="&#x75;" d="M952 1082L952 0L897 0L897 175Q847 82 754 31Q661-20 524-20Q356-20 262 79Q168 178 168 395L168 1082L222 1082L222 393Q222 204 302.50 119Q383 34 522 34Q691 34 782 113Q873 192 897 321L897 1082L952 1082Z"  horiz-adv-x="1121" vert-adv-y="2048"  />

      
      <glyph glyph-name="unifa" unicode="&#xfa;" d="M168 0M952 1082L952 0L897 0L897 175Q847 82 754 31Q661-20 524-20Q356-20 262 79Q168 178 168 395L168 1082L222 1082L222 393Q222 204 302.50 119Q383 34 522 34Q691 34 782 113Q873 192 897 321L897 1082L952 1082M789 1536L594 1270L534 1270L723 1536L789 1536Z"  horiz-adv-x="1121" vert-adv-y="2048"  />

      
      <glyph glyph-name="unifb" unicode="&#xfb;" d="M168 0M952 1082L952 0L897 0L897 175Q847 82 754 31Q661-20 524-20Q356-20 262 79Q168 178 168 395L168 1082L222 1082L222 393Q222 204 302.50 119Q383 34 522 34Q691 34 782 113Q873 192 897 321L897 1082L952 1082M834 1264L766 1264L579 1460L394 1264L330 1264L330 1278L560 1517L600 1517L834 1274L834 1264Z"  horiz-adv-x="1121" vert-adv-y="2048"  />

      
      <glyph glyph-name="unifc" unicode="&#xfc;" d="M168 0M952 1082L952 0L897 0L897 175Q847 82 754 31Q661-20 524-20Q356-20 262 79Q168 178 168 395L168 1082L222 1082L222 393Q222 204 302.50 119Q383 34 522 34Q691 34 782 113Q873 192 897 321L897 1082L952 1082M359 1477Q382 1477 398.50 1460.50Q415 1444 415 1421Q415 1398 398.50 1382Q382 1366 359 1366Q336 1366 320 1382Q304 1398 304 1421Q304 1444 320 1460.50Q336 1477 359 1477M804 1477Q827 1477 843.50 1460.50Q860 1444 860 1421Q860 1398 843.50 1382Q827 1366 804 1366Q781 1366 765 1382Q749 1398 749 1421Q749 1444 765 1460.50Q781 1477 804 1477Z"  horiz-adv-x="1121" vert-adv-y="2048"  />

      
      <glyph glyph-name="unif9" unicode="&#xf9;" d="M168 0M952 1082L952 0L897 0L897 175Q847 82 754 31Q661-20 524-20Q356-20 262 79Q168 178 168 395L168 1082L222 1082L222 393Q222 204 302.50 119Q383 34 522 34Q691 34 782 113Q873 192 897 321L897 1082L952 1082M575 1270L380 1536L446 1536L634 1270L575 1270Z"  horiz-adv-x="1121" vert-adv-y="2048"  />

      
      <glyph glyph-name="uni76" unicode="&#x76;" d="M937 1082L516 0L465 0L463 0L43 1082L101 1082L490 87L879 1082L937 1082Z"  horiz-adv-x="978" vert-adv-y="2048"  />

      
      <glyph glyph-name="uni77" unicode="&#x77;" d="M1456 1082L1141 0L1092 0L1087 0L820 813L769 1007L714 813L451 0L400 0L397 0L83 1082L145 1082L366 313L425 80L499 313L742 1082L790 1082L797 1082L1039 313L1113 80L1173 313L1393 1082L1456 1082Z"  horiz-adv-x="1550" vert-adv-y="2048"  />

      
      <glyph glyph-name="uni78" unicode="&#x78;" d="M834 1082L902 1082L522 555L922 0L855 0L488 508L122 0L55 0L455 555L75 1082L143 1082L489 602L834 1082Z"  horiz-adv-x="978" vert-adv-y="2048"  />

      
      <glyph glyph-name="uni79" unicode="&#x79;" d="M944 1082L463-180Q433-258 407.50-306Q382-354 325-395.50Q268-437 178-437Q159-437 134-434Q109-431 98-426L97-375Q111-378 133.50-381Q156-384 170-384Q263-384 316.50-329.50Q370-275 409-170L474 6L43 1082L102 1082L503 84L510 104L884 1082L944 1082Z"  horiz-adv-x="978" vert-adv-y="2048"  />

      
      <glyph glyph-name="unifd" unicode="&#xfd;" d="M43 0M944 1082L463-180Q433-258 407.50-306Q382-354 325-395.50Q268-437 178-437Q159-437 134-434Q109-431 98-426L97-375Q111-378 133.50-381Q156-384 170-384Q263-384 316.50-329.50Q370-275 409-170L474 6L43 1082L102 1082L503 84L510 104L884 1082L944 1082M728 1536L533 1270L473 1270L662 1536L728 1536Z"  horiz-adv-x="978" vert-adv-y="2048"  />

      
      <glyph glyph-name="uniff" unicode="&#xff;" d="M43 0M944 1082L463-180Q433-258 407.50-306Q382-354 325-395.50Q268-437 178-437Q159-437 134-434Q109-431 98-426L97-375Q111-378 133.50-381Q156-384 170-384Q263-384 316.50-329.50Q370-275 409-170L474 6L43 1082L102 1082L503 84L510 104L884 1082L944 1082M298 1477Q321 1477 337.50 1460.50Q354 1444 354 1421Q354 1398 337.50 1382Q321 1366 298 1366Q275 1366 259 1382Q243 1398 243 1421Q243 1444 259 1460.50Q275 1477 298 1477M743 1477Q766 1477 782.50 1460.50Q799 1444 799 1421Q799 1398 782.50 1382Q766 1366 743 1366Q720 1366 704 1382Q688 1398 688 1421Q688 1444 704 1460.50Q720 1477 743 1477Z"  horiz-adv-x="978" vert-adv-y="2048"  />

      
      <glyph glyph-name="uni7a" unicode="&#x7a;" d="M930 54L930 0L102 0L87 0L87 44L798 1027L118 1027L118 1082L846 1082L871 1082L871 1034L160 54L930 54Z"  horiz-adv-x="978" vert-adv-y="2048"  />

      
      <glyph glyph-name="uniFB01" unicode="&#xFB01;" d="M308 1082L594 1082L594 1027L308 1027L308 0L254 0L254 1027L66 1027L66 1082L254 1082L254 1216Q254 1379 339.50 1468Q425 1557 577 1557Q724 1557 845 1500L837 1448Q772 1477 716.50 1490Q661 1503 578 1503Q453 1503 380.50 1427Q308 1351 308 1216L308 1082M884 1082L884 0L830 0L830 1082L884 1082Z"  horiz-adv-x="1067" vert-adv-y="2048"  />

      
      <glyph glyph-name="uniaa" unicode="&#xaa;" d="M680 705Q663 757 658 824Q620 767 556.50 729Q493 691 417 691Q298 691 233 747.50Q168 804 168 900Q168 1009 252 1070.50Q336 1132 487 1132L657 1132L657 1201Q657 1306 606.50 1364Q556 1422 458 1422Q346 1422 283.50 1377Q221 1332 221 1243L167 1243Q167 1310 203.50 1363Q240 1416 306 1446Q372 1476 458 1476Q573 1476 642.50 1405Q712 1334 712 1200L712 886Q712 794 738 705L680 705M418 746Q468 746 519 769Q570 792 607.50 828Q645 864 657 900L657 1078L488 1078Q358 1078 290 1035Q222 992 222 904Q222 830 269.50 788Q317 746 418 746Z"  horiz-adv-x="898" vert-adv-y="2048"  />

      
      <glyph glyph-name="uniba" unicode="&#xba;" d="M148 1141Q148 1238 185 1314Q222 1390 291 1433Q360 1476 452 1476Q545 1476 614 1433.50Q683 1391 720 1315Q757 1239 757 1141L757 1024Q757 927 720 851Q683 775 614.50 732.50Q546 690 454 690Q361 690 291.50 732.50Q222 775 185 851Q148 927 148 1024L148 1141M202 1024Q202 900 265 822Q328 744 454 744Q535 744 591.50 781Q648 818 676 881.50Q704 945 704 1024L704 1141Q704 1220 676 1283.50Q648 1347 591 1384.50Q534 1422 452 1422Q371 1422 314.50 1384.50Q258 1347 230 1283.50Q202 1220 202 1141L202 1024Z"  horiz-adv-x="914" vert-adv-y="2048"  />

      
      <glyph glyph-name="uni03B1" unicode="&#x03B1;" d="M1149-7Q1121-21 1076-21Q989-21 945.50 35Q902 91 897 217Q845 108 751.50 43.50Q658-21 528-21Q402-21 310.50 45.50Q219 112 170.50 234Q122 356 122 521L122 542Q122 712 170.50 838.50Q219 965 311 1033.50Q403 1102 530 1102Q660 1102 751.50 1031.50Q843 961 896 837L896 854L902 1082L950 1082L950 255Q950 133 982 82.50Q1014 32 1073 32Q1095 32 1114.50 36.50Q1134 41 1138 42L1149-7M527 33Q676 33 768 118Q860 203 896 343L896 695Q874 783 828.50 862.50Q783 942 708 995Q633 1048 529 1048Q414 1048 335 982.50Q256 917 217 803Q178 689 178 542L178 521Q178 374 216.50 264.50Q255 155 333.50 94Q412 33 527 33Z"  horiz-adv-x="1149" vert-adv-y="2048"  />

      
      <glyph glyph-name="uni05F0" unicode="&#x05F0;" d="M100 0M787 1102L618 1102L618 1157L846 1157L846 0L787 0L787 1102M269 1102L100 1102L100 1157L328 1157L328 0L269 0L269 1102Z"  horiz-adv-x="1036" vert-adv-y="2048"  />

      
      <glyph glyph-name="uni05F1" unicode="&#x05F1;" d="M100 0M821 1102L578 1102L578 1157L880 1157L880 526L821 526L821 1102M269 1102L100 1102L100 1157L328 1157L328 0L269 0L269 1102Z"  horiz-adv-x="1060" vert-adv-y="2048"  />

      
      <glyph glyph-name="uni05F2" unicode="&#x05F2;" d="M60 526M845 1102L602 1102L602 1157L904 1157L904 526L845 526L845 1102M303 1102L60 1102L60 1157L362 1157L362 526L303 526L303 1102Z"  horiz-adv-x="1084" vert-adv-y="2048"  />

      
      <glyph glyph-name="uniFB4F" unicode="&#xFB4F;" d="M604 513L981 0L918 0L100 1108L100 1536L159 1536L159 1118L567 563L938 1157L1007 1157L604 513Z"  horiz-adv-x="1122" vert-adv-y="2048"  />

      
      <glyph glyph-name="uni05D0" unicode="&#x05D0;" d="M1045 0L445 793Q265 711 265 456L265 0L206 0L206 456Q206 596 259.50 691Q313 786 416 832L170 1157L238 1157L677 576L1041 1157L1110 1157L715 526L1113 0L1045 0Z"  horiz-adv-x="1228" vert-adv-y="2048"  />

      
      <glyph glyph-name="uni05D1" unicode="&#x05D1;" d="M975 50L975 0L70 0L70 55L771 55L771 704Q771 847 731.50 934Q692 1021 607 1061.50Q522 1102 381 1102L133 1102L133 1157L378 1157Q610 1157 720 1048Q830 939 830 709L830 61L975 50Z"  horiz-adv-x="1025" vert-adv-y="2048"  />

      
      <glyph glyph-name="uni05D2" unicode="&#x05D2;" d="M33-3Q21-3 15-2L15 58L27 57L38 58Q156 63 243.50 119Q331 175 380 265Q429 355 436 460L436 1102L166 1102L166 1157L495 1157L495 547Q495 508 500 463Q505 418 513 381L598 0L535 0L469 356L460 356Q451 267 391.50 183.50Q332 100 237.50 48.50Q143-3 33-3Z"  horiz-adv-x="728" vert-adv-y="2048"  />

      
      <glyph glyph-name="uni05D3" unicode="&#x05D3;" d="M915 1157L915 1102L731 1102L731 0L672 0L672 1102L60 1102L60 1157L915 1157Z"  horiz-adv-x="975" vert-adv-y="2048"  />

      
      <glyph glyph-name="uni05D4" unicode="&#x05D4;" d="M919 704Q919 847 879.50 934Q840 1021 755 1061.50Q670 1102 529 1102L170 1102L170 1157L526 1157Q758 1157 868 1048Q978 939 978 709L978 0L919 0L919 704M176 393Q176 475 183 525.50Q190 576 209 633L265 633Q248 582 241.50 526Q235 470 235 383L235 0L176 0L176 393Z"  horiz-adv-x="1158" vert-adv-y="2048"  />

      
      <glyph glyph-name="uni05D5" unicode="&#x05D5;" d="M269 1102L100 1102L100 1157L328 1157L328 0L269 0L269 1102Z"  horiz-adv-x="518" vert-adv-y="2048"  />

      
      <glyph glyph-name="uni05D6" unicode="&#x05D6;" d="M182 1096L84 1106L84 1157L563 1157L562 1102L245 1102L429 0L367 0L182 1096Z"  horiz-adv-x="653" vert-adv-y="2048"  />

      
      <glyph glyph-name="uni05D7" unicode="&#x05D7;" d="M191 1157L557 1157Q789 1157 899 1048Q1009 939 1009 709L1009 0L950 0L950 704Q950 847 910.50 934Q871 1021 786 1061.50Q701 1102 560 1102L250 1102L249 0L190 0L191 1157Z"  horiz-adv-x="1189" vert-adv-y="2048"  />

      
      <glyph glyph-name="uni05D8" unicode="&#x05D8;" d="M609-20Q485-20 390 33.50Q295 87 242.50 184.50Q190 282 190 410L190 1157L249 1157L249 420Q249 306 294 219Q339 132 420.50 84Q502 36 609 36Q715 36 796.50 84Q878 132 923 219Q968 306 968 420L968 864Q968 990 924 1049.50Q880 1109 787 1109Q735 1109 689 1097Q643 1085 585 1059L563 1109Q623 1138 674 1151.50Q725 1165 784 1165Q909 1165 968 1093Q1027 1021 1027 868L1027 410Q1027 282 975 184.50Q923 87 828 33.50Q733-20 609-20Z"  horiz-adv-x="1197" vert-adv-y="2048"  />

      
      <glyph glyph-name="uni05D9" unicode="&#x05D9;" d="M303 1102L60 1102L60 1157L362 1157L362 526L303 526L303 1102Z"  horiz-adv-x="542" vert-adv-y="2048"  />

      
      <glyph glyph-name="uni05DA" unicode="&#x05DA;" d="M705 1102L60 1102L60 1157L764 1157L764-416L705-416L705 1102Z"  horiz-adv-x="944" vert-adv-y="2048"  />

      
      <glyph glyph-name="uni05DB" unicode="&#x05DB;" d="M420-14Q347-14 271.50 0Q196 14 106 43L119 94Q282 43 414 43Q538 43 628 87Q718 131 766.50 215Q815 299 815 417L815 1102L126 1102L126 1157L874 1157L874 441Q874 297 819.50 194.50Q765 92 662.50 39Q560-14 420-14Z"  horiz-adv-x="1064" vert-adv-y="2048"  />

      
      <glyph glyph-name="uni05DC" unicode="&#x05DC;" d="M912 1122L446 0L379 0L840 1102L100 1102L100 1536L159 1536L159 1157L912 1157L912 1122Z"  horiz-adv-x="1012" vert-adv-y="2048"  />

      
      <glyph glyph-name="uni05DD" unicode="&#x05DD;" d="M180 1157L1039 1157L1039 0L180 0L180 1157M980 55L980 1102L239 1102L239 55L980 55Z"  horiz-adv-x="1229" vert-adv-y="2048"  />

      
      <glyph glyph-name="uni05DE" unicode="&#x05DE;" d="M281 822Q292 908 334 981Q376 1054 434 1088Q441 1092 468 1102L467 1108Q410 1099 341 1081.50Q272 1064 170 1032L150 1085Q264 1123 397.50 1146.50Q531 1170 635 1170Q840 1170 949.50 1056Q1059 942 1059 724L1059 0L613 0L613 55L1000 55L1000 724Q1000 918 907 1015Q814 1112 633 1112Q558 1112 496.50 1075.50Q435 1039 394.50 972Q354 905 343 818L237 0L178 0L281 822Z"  horiz-adv-x="1229" vert-adv-y="2048"  />

      
      <glyph glyph-name="uni05DF" unicode="&#x05DF;" d="M269 1102L100 1102L100 1157L328 1157L328-416L269-416L269 1102Z"  horiz-adv-x="518" vert-adv-y="2048"  />

      
      <glyph glyph-name="uni05E0" unicode="&#x05E0;" d="M213-20Q128-20 60-4L69 51Q122 36 216 36Q407 36 407 263L407 1102L124 1102L124 1157L466 1157L466 259Q466 117 402.50 48.50Q339-20 213-20Z"  horiz-adv-x="656" vert-adv-y="2048"  />

      
      <glyph glyph-name="uni05E1" unicode="&#x05E1;" d="M640-20Q504-20 400 45Q296 110 238.50 228Q181 346 181 500L181 664Q181 804 236.50 918Q292 1032 384 1086Q391 1090 403.50 1095Q416 1100 427 1102L426 1108Q350 1101 144 1040L130 1095Q243 1129 378.50 1149.50Q514 1170 622 1170Q764 1170 872 1107Q980 1044 1039.50 929Q1099 814 1099 664L1099 500Q1099 346 1041.50 228Q984 110 880 45Q776-20 640-20M640 37Q759 37 849.50 94.50Q940 152 990 257Q1040 362 1040 500L1040 664Q1040 797 987.50 898.50Q935 1000 840 1056Q745 1112 620 1112Q512 1112 427 1056Q342 1000 293 898.50Q244 797 240 664L240 500Q240 362 290 257Q340 152 430.50 94.50Q521 37 640 37Z"  horiz-adv-x="1229" vert-adv-y="2048"  />

      
      <glyph glyph-name="uni05E2" unicode="&#x05E2;" d="M898 1157L898 433Q898 290 839 187.50Q780 85 675.50 32.50Q571-20 434-20Q268-20 70 57L94 106Q276 34 428 32Q400 83 383.50 131Q367 179 350 254L145 1157L204 1157L407 264Q425 183 442 131Q459 79 483 34Q590 44 670 93Q750 142 794.50 228.50Q839 315 839 433L839 1157L898 1157Z"  horiz-adv-x="1088" vert-adv-y="2048"  />

      
      <glyph glyph-name="uni05E3" unicode="&#x05E3;" d="M915-416L856-416L856 1102L348 1102Q300 1041 269 911Q238 781 238 665L238 550Q284 528 334.50 520.50Q385 513 493 513L493 456Q372 456 309 467.50Q246 479 179 513L179 669Q179 779 211 908Q243 1037 291 1102L170 1102L170 1157L915 1157L915-416Z"  horiz-adv-x="1105" vert-adv-y="2048"  />

      
      <glyph glyph-name="uni05E4" unicode="&#x05E4;" d="M514-14Q371-14 197 43L210 94Q372 43 512 43Q637 43 728 86.50Q819 130 867.50 214Q916 298 916 417L916 1102L338 1102Q289 1038 258.50 931.50Q228 825 228 715L228 600Q274 578 324.50 570.50Q375 563 483 563L483 506Q362 506 299 517.50Q236 529 169 563L169 719Q169 824 200 929Q231 1034 281 1102L160 1102L160 1157L975 1157L975 441Q975 295 919.50 193Q864 91 760.50 38.50Q657-14 514-14Z"  horiz-adv-x="1165" vert-adv-y="2048"  />

      
      <glyph glyph-name="uni05E5" unicode="&#x05E5;" d="M606 513Q640 463 640 349L640-416L581-416L581 349Q581 398 576 428.50Q571 459 559 477L89 1157L159 1157L538 611L879 1157L948 1157L574 559L606 513Z"  horiz-adv-x="1007" vert-adv-y="2048"  />

      
      <glyph glyph-name="uni05E6" unicode="&#x05E6;" d="M574 558L929 47L929 0L131 0L131 55L850 55L89 1157L159 1157L538 611L879 1157L948 1157L574 558Z"  horiz-adv-x="1033" vert-adv-y="2048"  />

      
      <glyph glyph-name="uni05E7" unicode="&#x05E7;" d="M542 56Q654 61 739.50 104Q825 147 871.50 221.50Q918 296 918 391L918 1102L170 1102L170 1157L977 1157L977 391Q977 273 925.50 186.50Q874 100 776 52Q678 4 542 0L542 56M197 463Q197 543 204 593.50Q211 644 229 700L285 700Q269 650 262.50 595Q256 540 256 453L256-416L197-416L197 463Z"  horiz-adv-x="1167" vert-adv-y="2048"  />

      
      <glyph glyph-name="uni05E8" unicode="&#x05E8;" d="M735 850Q735 925 704.50 982Q674 1039 618.50 1070.50Q563 1102 490 1102L59 1102L59 1157L477 1157Q626 1157 710 1073Q794 989 794 839L794 0L735 0L735 850Z"  horiz-adv-x="974" vert-adv-y="2048"  />

      
      <glyph glyph-name="uni05E9" unicode="&#x05E9;" d="M249 131Q354 85 467.50 60.50Q581 36 689 36Q835 36 954.50 79Q1074 122 1144.50 208Q1215 294 1215 417L1215 1157L1274 1157L1274 417Q1274 274 1196 176Q1118 78 986.50 29Q855-20 693-20Q568-20 438.50 9.50Q309 39 190 95L190 1157L249 1157L249 131M590 259Q646 300 673 366Q700 432 700 530L700 1157L759 1157L759 530Q759 430 733.50 367Q708 304 644 246L590 259Z"  horiz-adv-x="1464" vert-adv-y="2048"  />

      
      <glyph glyph-name="uni05EA" unicode="&#x05EA;" d="M600 1157Q832 1157 942 1048Q1052 939 1052 709L1052 0L993 0L993 704Q993 847 953.50 934Q914 1021 829 1061.50Q744 1102 603 1102L423 1102Q373 1050 343 946Q313 842 313 724L313 274Q313 132 254 65Q195-2 74-2Q37-2-5 4L-5 59Q34 53 68 53Q170 53 212 105Q254 157 254 274L254 724Q254 840 285 944Q316 1048 366 1102L111 1102L111 1157L600 1157Z"  horiz-adv-x="1232" vert-adv-y="2048"  />

      
      <glyph glyph-name="uniFB1F" unicode="&#xFB1F;" d="M60 0M845 1102L602 1102L602 1157L904 1157L904 526L845 526L845 1102M303 1102L60 1102L60 1157L362 1157L362 526L303 526L303 1102M177-207L508-207L508-263L177-263L177-207Z"  horiz-adv-x="1084" vert-adv-y="2048"  />

      
      <glyph glyph-name="uniFB20" unicode="&#xFB20;" d="M933 1157L894 416Q887 271 829 169.50Q771 68 670.50 15.50Q570-37 434-37Q268-37 70 40L94 89Q279 15 432 15L447 15Q416 71 397.50 121.50Q379 172 360 254L155 1157L214 1157L417 264Q437 178 455.50 123Q474 68 501 19Q653 38 741 140Q829 242 839 416L878 1157L933 1157Z"  horiz-adv-x="1123" vert-adv-y="2048"  />

      
      <glyph glyph-name="uniFB21" unicode="&#xFB21;" d="M1122 393L1567 0L1476 0L411 943Q285 819 285 579L285 0L226 0L226 589Q226 712 264.50 811.50Q303 911 372 978L170 1157L255 1157L1077 432L1531 1157L1600 1157L1122 393Z"  horiz-adv-x="1715" vert-adv-y="2048"  />

      
      <glyph glyph-name="uniFB22" unicode="&#xFB22;" d="M1195 1157L1195 1109L977 1093L977 0L918 0L918 1102L60 1102L60 1157L1195 1157Z"  horiz-adv-x="1255" vert-adv-y="2048"  />

      
      <glyph glyph-name="uniFB23" unicode="&#xFB23;" d="M1386 850Q1386 925 1355.50 982Q1325 1039 1269.50 1070.50Q1214 1102 1141 1102L170 1102L170 1157L1128 1157Q1277 1157 1361 1073Q1445 989 1445 839L1445 0L1386 0L1386 850M173 393Q173 476 180 527Q187 578 207 635L260 643L264 639Q246 587 239 530Q232 473 232 383L232 0L173 0L173 393Z"  horiz-adv-x="1625" vert-adv-y="2048"  />

      
      <glyph glyph-name="uniFB24" unicode="&#xFB24;" d="M713-29Q454-29 106 38L117 93Q462 27 711 27Q1015 27 1169.50 125Q1324 223 1324 417L1324 1102L128 1102L128 1157L1383 1157L1383 417Q1383 195 1214 83Q1045-29 713-29Z"  horiz-adv-x="1573" vert-adv-y="2048"  />

      
      <glyph glyph-name="uniFB25" unicode="&#xFB25;" d="M1297 1122L644 0L577 0L1216 1102L100 1102L100 1536L159 1536L159 1157L1297 1157L1297 1122Z"  horiz-adv-x="1397" vert-adv-y="2048"  />

      
      <glyph glyph-name="uniFB26" unicode="&#xFB26;" d="M150 1157L1639 1157L1639 0L150 0L150 1157M1580 55L1580 1102L209 1102L209 55L1580 55Z"  horiz-adv-x="1809" vert-adv-y="2048"  />

      
      <glyph glyph-name="uniFB27" unicode="&#xFB27;" d="M1225 850Q1225 925 1194.50 982Q1164 1039 1108.50 1070.50Q1053 1102 980 1102L59 1102L59 1157L967 1157Q1116 1157 1200 1073Q1284 989 1284 839L1284 0L1225 0L1225 850Z"  horiz-adv-x="1464" vert-adv-y="2048"  />

      
      <glyph glyph-name="uniFB28" unicode="&#xFB28;" d="M1057 1157Q1289 1157 1399 1048Q1509 939 1509 709L1509 0L1450 0L1450 704Q1450 847 1410.50 934Q1371 1021 1286 1061.50Q1201 1102 1060 1102L423 1102Q373 1050 343 946Q313 842 313 724L313 274Q313 132 254 65Q195-2 74-2Q37-2-5 4L-5 59Q34 53 68 53Q170 53 212 105Q254 157 254 274L254 724Q254 840 285 944Q316 1048 366 1102L111 1102L111 1157L1057 1157Z"  horiz-adv-x="1689" vert-adv-y="2048"  />

      
      <glyph glyph-name="uniFB2A" unicode="&#xFB2A;" d="M190 0M249 131Q354 85 467.50 60.50Q581 36 689 36Q835 36 954.50 79Q1074 122 1144.50 208Q1215 294 1215 417L1215 1157L1274 1157L1274 417Q1274 274 1196 176Q1118 78 986.50 29Q855-20 693-20Q568-20 438.50 9.50Q309 39 190 95L190 1157L249 1157L249 131M590 259Q646 300 673 366Q700 432 700 530L700 1157L759 1157L759 530Q759 430 733.50 367Q708 304 644 246L590 259M1244 1309Q1222 1309 1205.50 1326.50Q1189 1344 1189 1364Q1189 1387 1205 1403.50Q1221 1420 1244 1420Q1267 1420 1283.50 1403.50Q1300 1387 1300 1364Q1300 1341 1283.50 1325Q1267 1309 1244 1309Z"  horiz-adv-x="1464" vert-adv-y="2048"  />

      
      <glyph glyph-name="uniFB2B" unicode="&#xFB2B;" d="M152 0M249 131Q354 85 467.50 60.50Q581 36 689 36Q835 36 954.50 79Q1074 122 1144.50 208Q1215 294 1215 417L1215 1157L1274 1157L1274 417Q1274 274 1196 176Q1118 78 986.50 29Q855-20 693-20Q568-20 438.50 9.50Q309 39 190 95L190 1157L249 1157L249 131M590 259Q646 300 673 366Q700 432 700 530L700 1157L759 1157L759 530Q759 430 733.50 367Q708 304 644 246L590 259M207 1309Q185 1309 168.50 1326.50Q152 1344 152 1364Q152 1387 168 1403.50Q184 1420 207 1420Q230 1420 246.50 1403.50Q263 1387 263 1364Q263 1341 246.50 1325Q230 1309 207 1309Z"  horiz-adv-x="1464" vert-adv-y="2048"  />

      
      <glyph glyph-name="uniFB2C" unicode="&#xFB2C;" d="M190 0M249 131Q354 85 467.50 60.50Q581 36 689 36Q835 36 954.50 79Q1074 122 1144.50 208Q1215 294 1215 417L1215 1157L1274 1157L1274 417Q1274 274 1196 176Q1118 78 986.50 29Q855-20 693-20Q568-20 438.50 9.50Q309 39 190 95L190 1157L249 1157L249 131M590 259Q646 300 673 366Q700 432 700 530L700 1157L759 1157L759 530Q759 430 733.50 367Q708 304 644 246L590 259M986 548Q964 548 947.50 565.50Q931 583 931 603Q931 626 947 642.50Q963 659 986 659Q1009 659 1025.50 642.50Q1042 626 1042 603Q1042 580 1025.50 564Q1009 548 986 548M1244 1309Q1222 1309 1205.50 1326.50Q1189 1344 1189 1364Q1189 1387 1205 1403.50Q1221 1420 1244 1420Q1267 1420 1283.50 1403.50Q1300 1387 1300 1364Q1300 1341 1283.50 1325Q1267 1309 1244 1309Z"  horiz-adv-x="1464" vert-adv-y="2048"  />

      
      <glyph glyph-name="uniFB2D" unicode="&#xFB2D;" d="M152 0M249 131Q354 85 467.50 60.50Q581 36 689 36Q835 36 954.50 79Q1074 122 1144.50 208Q1215 294 1215 417L1215 1157L1274 1157L1274 417Q1274 274 1196 176Q1118 78 986.50 29Q855-20 693-20Q568-20 438.50 9.50Q309 39 190 95L190 1157L249 1157L249 131M590 259Q646 300 673 366Q700 432 700 530L700 1157L759 1157L759 530Q759 430 733.50 367Q708 304 644 246L590 259M986 548Q964 548 947.50 565.50Q931 583 931 603Q931 626 947 642.50Q963 659 986 659Q1009 659 1025.50 642.50Q1042 626 1042 603Q1042 580 1025.50 564Q1009 548 986 548M207 1309Q185 1309 168.50 1326.50Q152 1344 152 1364Q152 1387 168 1403.50Q184 1420 207 1420Q230 1420 246.50 1403.50Q263 1387 263 1364Q263 1341 246.50 1325Q230 1309 207 1309Z"  horiz-adv-x="1464" vert-adv-y="2048"  />

      
      <glyph glyph-name="uniFB2E" unicode="&#xFB2E;" d="M170 0M1045 0L445 793Q265 711 265 456L265 0L206 0L206 456Q206 596 259.50 691Q313 786 416 832L170 1157L238 1157L677 576L1041 1157L1110 1157L715 526L1113 0L1045 0M474-207L805-207L805-263L474-263L474-207Z"  horiz-adv-x="1228" vert-adv-y="2048"  />

      
      <glyph glyph-name="uniFB2F" unicode="&#xFB2F;" d="M170 0M1045 0L445 793Q265 711 265 456L265 0L206 0L206 456Q206 596 259.50 691Q313 786 416 832L170 1157L238 1157L677 576L1041 1157L1110 1157L715 526L1113 0L1045 0M643-451Q621-451 604.50-433.50Q588-416 588-396Q588-385 590.50-377Q593-369 599-357Q608-336 613.50-317.50Q619-299 620-263L474-263L474-207L805-207L805-263L666-263Q667-299 672.50-318.50Q678-338 688-357Q694-369 696.50-377Q699-385 699-396Q699-419 682.50-435Q666-451 643-451Z"  horiz-adv-x="1228" vert-adv-y="2048"  />

      
      <glyph glyph-name="uniFB30" unicode="&#xFB30;" d="M170 0M1045 0L445 793Q265 711 265 456L265 0L206 0L206 456Q206 596 259.50 691Q313 786 416 832L170 1157L238 1157L677 576L1041 1157L1110 1157L715 526L1113 0L1045 0M515 225Q493 225 476.50 242.50Q460 260 460 280Q460 303 476 319.50Q492 336 515 336Q538 336 554.50 319.50Q571 303 571 280Q571 257 554.50 241Q538 225 515 225Z"  horiz-adv-x="1228" vert-adv-y="2048"  />

      
      <glyph glyph-name="uniFB31" unicode="&#xFB31;" d="M70 0M975 50L975 0L70 0L70 55L771 55L771 704Q771 847 731.50 934Q692 1021 607 1061.50Q522 1102 381 1102L133 1102L133 1157L378 1157Q610 1157 720 1048Q830 939 830 709L830 61L975 50M414 548Q392 548 375.50 565.50Q359 583 359 603Q359 626 375 642.50Q391 659 414 659Q437 659 453.50 642.50Q470 626 470 603Q470 580 453.50 564Q437 548 414 548Z"  horiz-adv-x="1025" vert-adv-y="2048"  />

      
      <glyph glyph-name="uniFB32" unicode="&#xFB32;" d="M15 0M33-3Q21-3 15-2L15 58L27 57L38 58Q156 63 243.50 119Q331 175 380 265Q429 355 436 460L436 1102L166 1102L166 1157L495 1157L495 547Q495 508 500 463Q505 418 513 381L598 0L535 0L469 356L460 356Q451 267 391.50 183.50Q332 100 237.50 48.50Q143-3 33-3M220 548Q198 548 181.50 565.50Q165 583 165 603Q165 626 181 642.50Q197 659 220 659Q243 659 259.50 642.50Q276 626 276 603Q276 580 259.50 564Q243 548 220 548Z"  horiz-adv-x="728" vert-adv-y="2048"  />

      
      <glyph glyph-name="uniFB33" unicode="&#xFB33;" d="M60 0M915 1157L915 1102L731 1102L731 0L672 0L672 1102L60 1102L60 1157L915 1157M353 548Q331 548 314.50 565.50Q298 583 298 603Q298 626 314 642.50Q330 659 353 659Q376 659 392.50 642.50Q409 626 409 603Q409 580 392.50 564Q376 548 353 548Z"  horiz-adv-x="975" vert-adv-y="2048"  />

      
      <glyph glyph-name="uniFB34" unicode="&#xFB34;" d="M170 0M919 704Q919 847 879.50 934Q840 1021 755 1061.50Q670 1102 529 1102L170 1102L170 1157L526 1157Q758 1157 868 1048Q978 939 978 709L978 0L919 0L919 704M176 393Q176 475 183 525.50Q190 576 209 633L265 633Q248 582 241.50 526Q235 470 235 383L235 0L176 0L176 393M577 548Q555 548 538.50 565.50Q522 583 522 603Q522 626 538 642.50Q554 659 577 659Q600 659 616.50 642.50Q633 626 633 603Q633 580 616.50 564Q600 548 577 548Z"  horiz-adv-x="1158" vert-adv-y="2048"  />

      
      <glyph glyph-name="uniFB35" unicode="&#xFB35;" d="M45 0M269 1102L100 1102L100 1157L328 1157L328 0L269 0L269 1102M100 548Q78 548 61.50 565.50Q45 583 45 603Q45 626 61 642.50Q77 659 100 659Q123 659 139.50 642.50Q156 626 156 603Q156 580 139.50 564Q123 548 100 548Z"  horiz-adv-x="518" vert-adv-y="2048"  />

      
      <glyph glyph-name="uniFB36" unicode="&#xFB36;" d="M84 0M182 1096L84 1106L84 1157L563 1157L562 1102L245 1102L429 0L367 0L182 1096M485 548Q463 548 446.50 565.50Q430 583 430 603Q430 626 446 642.50Q462 659 485 659Q508 659 524.50 642.50Q541 626 541 603Q541 580 524.50 564Q508 548 485 548Z"  horiz-adv-x="653" vert-adv-y="2048"  />

      
      <glyph glyph-name="uniFB38" unicode="&#xFB38;" d="M190 0M609-20Q485-20 390 33.50Q295 87 242.50 184.50Q190 282 190 410L190 1157L249 1157L249 420Q249 306 294 219Q339 132 420.50 84Q502 36 609 36Q715 36 796.50 84Q878 132 923 219Q968 306 968 420L968 864Q968 990 924 1049.50Q880 1109 787 1109Q735 1109 689 1097Q643 1085 585 1059L563 1109Q623 1138 674 1151.50Q725 1165 784 1165Q909 1165 968 1093Q1027 1021 1027 868L1027 410Q1027 282 975 184.50Q923 87 828 33.50Q733-20 609-20M621 548Q599 548 582.50 565.50Q566 583 566 603Q566 626 582 642.50Q598 659 621 659Q644 659 660.50 642.50Q677 626 677 603Q677 580 660.50 564Q644 548 621 548Z"  horiz-adv-x="1197" vert-adv-y="2048"  />

      
      <glyph glyph-name="uniFB39" unicode="&#xFB39;" d="M60 526M303 1102L60 1102L60 1157L362 1157L362 526L303 526L303 1102M127 798Q105 798 88.50 815.50Q72 833 72 853Q72 876 88 892.50Q104 909 127 909Q150 909 166.50 892.50Q183 876 183 853Q183 830 166.50 814Q150 798 127 798Z"  horiz-adv-x="542" vert-adv-y="2048"  />

      
      <glyph glyph-name="uniFB3A" unicode="&#xFB3A;" d="M60 0M705 1102L60 1102L60 1157L764 1157L764-416L705-416L705 1102M349 548Q327 548 310.50 565.50Q294 583 294 603Q294 626 310 642.50Q326 659 349 659Q372 659 388.50 642.50Q405 626 405 603Q405 580 388.50 564Q372 548 349 548Z"  horiz-adv-x="944" vert-adv-y="2048"  />

      
      <glyph glyph-name="uniFB3B" unicode="&#xFB3B;" d="M106 0M420-14Q347-14 271.50 0Q196 14 106 43L119 94Q282 43 414 43Q538 43 628 87Q718 131 766.50 215Q815 299 815 417L815 1102L126 1102L126 1157L874 1157L874 441Q874 297 819.50 194.50Q765 92 662.50 39Q560-14 420-14M439 548Q417 548 400.50 565.50Q384 583 384 603Q384 626 400 642.50Q416 659 439 659Q462 659 478.50 642.50Q495 626 495 603Q495 580 478.50 564Q462 548 439 548Z"  horiz-adv-x="1064" vert-adv-y="2048"  />

      
      <glyph glyph-name="uniFB3C" unicode="&#xFB3C;" d="M100 0M912 1122L446 0L379 0L840 1102L100 1102L100 1536L159 1536L159 1157L912 1157L912 1122M352 664Q330 664 313.50 681.50Q297 699 297 719Q297 742 313 758.50Q329 775 352 775Q375 775 391.50 758.50Q408 742 408 719Q408 696 391.50 680Q375 664 352 664Z"  horiz-adv-x="1012" vert-adv-y="2048"  />

      
      <glyph glyph-name="uniFB3E" unicode="&#xFB3E;" d="M150 0M281 822Q292 908 334 981Q376 1054 434 1088Q441 1092 468 1102L467 1108Q410 1099 341 1081.50Q272 1064 170 1032L150 1085Q264 1123 397.50 1146.50Q531 1170 635 1170Q840 1170 949.50 1056Q1059 942 1059 724L1059 0L613 0L613 55L1000 55L1000 724Q1000 918 907 1015Q814 1112 633 1112Q558 1112 496.50 1075.50Q435 1039 394.50 972Q354 905 343 818L237 0L178 0L281 822M651 548Q629 548 612.50 565.50Q596 583 596 603Q596 626 612 642.50Q628 659 651 659Q674 659 690.50 642.50Q707 626 707 603Q707 580 690.50 564Q674 548 651 548Z"  horiz-adv-x="1229" vert-adv-y="2048"  />

      
      <glyph glyph-name="uniFB40" unicode="&#xFB40;" d="M60 0M213-20Q128-20 60-4L69 51Q122 36 216 36Q407 36 407 263L407 1102L124 1102L124 1157L466 1157L466 259Q466 117 402.50 48.50Q339-20 213-20M189 548Q167 548 150.50 565.50Q134 583 134 603Q134 626 150 642.50Q166 659 189 659Q212 659 228.50 642.50Q245 626 245 603Q245 580 228.50 564Q212 548 189 548Z"  horiz-adv-x="656" vert-adv-y="2048"  />

      
      <glyph glyph-name="uniFB41" unicode="&#xFB41;" d="M130 0M640-20Q504-20 400 45Q296 110 238.50 228Q181 346 181 500L181 664Q181 804 236.50 918Q292 1032 384 1086Q391 1090 403.50 1095Q416 1100 427 1102L426 1108Q350 1101 144 1040L130 1095Q243 1129 378.50 1149.50Q514 1170 622 1170Q764 1170 872 1107Q980 1044 1039.50 929Q1099 814 1099 664L1099 500Q1099 346 1041.50 228Q984 110 880 45Q776-20 640-20M640 37Q759 37 849.50 94.50Q940 152 990 257Q1040 362 1040 500L1040 664Q1040 797 987.50 898.50Q935 1000 840 1056Q745 1112 620 1112Q512 1112 427 1056Q342 1000 293 898.50Q244 797 240 664L240 500Q240 362 290 257Q340 152 430.50 94.50Q521 37 640 37M640 548Q618 548 601.50 565.50Q585 583 585 603Q585 626 601 642.50Q617 659 640 659Q663 659 679.50 642.50Q696 626 696 603Q696 580 679.50 564Q663 548 640 548Z"  horiz-adv-x="1229" vert-adv-y="2048"  />

      
      <glyph glyph-name="uniFB43" unicode="&#xFB43;" d="M170 0M915-416L856-416L856 1102L348 1102Q300 1041 269 911Q238 781 238 665L238 550Q284 528 334.50 520.50Q385 513 493 513L493 456Q372 456 309 467.50Q246 479 179 513L179 669Q179 779 211 908Q243 1037 291 1102L170 1102L170 1157L915 1157L915-416M564 718Q542 718 525.50 735.50Q509 753 509 773Q509 796 525 812.50Q541 829 564 829Q587 829 603.50 812.50Q620 796 620 773Q620 750 603.50 734Q587 718 564 718Z"  horiz-adv-x="1105" vert-adv-y="2048"  />

      
      <glyph glyph-name="uniFB44" unicode="&#xFB44;" d="M160 0M514-14Q371-14 197 43L210 94Q372 43 512 43Q637 43 728 86.50Q819 130 867.50 214Q916 298 916 417L916 1102L338 1102Q289 1038 258.50 931.50Q228 825 228 715L228 600Q274 578 324.50 570.50Q375 563 483 563L483 506Q362 506 299 517.50Q236 529 169 563L169 719Q169 824 200 929Q231 1034 281 1102L160 1102L160 1157L975 1157L975 441Q975 295 919.50 193Q864 91 760.50 38.50Q657-14 514-14M579 746Q557 746 540.50 763.50Q524 781 524 801Q524 824 540 840.50Q556 857 579 857Q602 857 618.50 840.50Q635 824 635 801Q635 778 618.50 762Q602 746 579 746Z"  horiz-adv-x="1165" vert-adv-y="2048"  />

      
      <glyph glyph-name="uniFB46" unicode="&#xFB46;" d="M574 558L929 47L929 0L131 0L131 55L850 55L89 1157L159 1157L538 611L879 1157L948 1157L574 558M416 299Q416 276 399.50 260Q383 244 360 244Q338 244 321.50 261.50Q305 279 305 299Q305 322 321 338.50Q337 355 360 355Q383 355 399.50 338.50Q416 322 416 299Z"  horiz-adv-x="1033" vert-adv-y="2048"  />

      
      <glyph glyph-name="uniFB47" unicode="&#xFB47;" d="M170 0M542 56Q654 61 739.50 104Q825 147 871.50 221.50Q918 296 918 391L918 1102L170 1102L170 1157L977 1157L977 391Q977 273 925.50 186.50Q874 100 776 52Q678 4 542 0L542 56M197 463Q197 543 204 593.50Q211 644 229 700L285 700Q269 650 262.50 595Q256 540 256 453L256-416L197-416L197 463M587 548Q565 548 548.50 565.50Q532 583 532 603Q532 626 548 642.50Q564 659 587 659Q610 659 626.50 642.50Q643 626 643 603Q643 580 626.50 564Q610 548 587 548Z"  horiz-adv-x="1167" vert-adv-y="2048"  />

      
      <glyph glyph-name="uniFB48" unicode="&#xFB48;" d="M59 0M735 850Q735 925 704.50 982Q674 1039 618.50 1070.50Q563 1102 490 1102L59 1102L59 1157L477 1157Q626 1157 710 1073Q794 989 794 839L794 0L735 0L735 850M372 548Q350 548 333.50 565.50Q317 583 317 603Q317 626 333 642.50Q349 659 372 659Q395 659 411.50 642.50Q428 626 428 603Q428 580 411.50 564Q395 548 372 548Z"  horiz-adv-x="974" vert-adv-y="2048"  />

      
      <glyph glyph-name="uniFB49" unicode="&#xFB49;" d="M190 0M249 131Q354 85 467.50 60.50Q581 36 689 36Q835 36 954.50 79Q1074 122 1144.50 208Q1215 294 1215 417L1215 1157L1274 1157L1274 417Q1274 274 1196 176Q1118 78 986.50 29Q855-20 693-20Q568-20 438.50 9.50Q309 39 190 95L190 1157L249 1157L249 131M590 259Q646 300 673 366Q700 432 700 530L700 1157L759 1157L759 530Q759 430 733.50 367Q708 304 644 246L590 259M986 548Q964 548 947.50 565.50Q931 583 931 603Q931 626 947 642.50Q963 659 986 659Q1009 659 1025.50 642.50Q1042 626 1042 603Q1042 580 1025.50 564Q1009 548 986 548Z"  horiz-adv-x="1464" vert-adv-y="2048"  />

      
      <glyph glyph-name="uniFB4A" unicode="&#xFB4A;" d="M0 0M600 1157Q832 1157 942 1048Q1052 939 1052 709L1052 0L993 0L993 704Q993 847 953.50 934Q914 1021 829 1061.50Q744 1102 603 1102L423 1102Q373 1050 343 946Q313 842 313 724L313 274Q313 132 254 65Q195-2 74-2Q37-2-5 4L-5 59Q34 53 68 53Q170 53 212 105Q254 157 254 274L254 724Q254 840 285 944Q316 1048 366 1102L111 1102L111 1157L600 1157M654 548Q632 548 615.50 565.50Q599 583 599 603Q599 626 615 642.50Q631 659 654 659Q677 659 693.50 642.50Q710 626 710 603Q710 580 693.50 564Q677 548 654 548Z"  horiz-adv-x="1232" vert-adv-y="2048"  />

      
      <glyph glyph-name="uniFB4B" unicode="&#xFB4B;" d="M100 0M269 1102L100 1102L100 1157L328 1157L328 0L269 0L269 1102M212 1309Q190 1309 173.50 1326.50Q157 1344 157 1364Q157 1387 173 1403.50Q189 1420 212 1420Q235 1420 251.50 1403.50Q268 1387 268 1364Q268 1341 251.50 1325Q235 1309 212 1309Z"  horiz-adv-x="518" vert-adv-y="2048"  />

      
      <glyph glyph-name="uniFB4C" unicode="&#xFB4C;" d="M70 0M975 50L975 0L70 0L70 55L771 55L771 704Q771 847 731.50 934Q692 1021 607 1061.50Q522 1102 381 1102L133 1102L133 1157L378 1157Q610 1157 720 1048Q830 939 830 709L830 61L975 50M262 1403L653 1403L653 1347L262 1347L262 1403Z"  horiz-adv-x="1025" vert-adv-y="2048"  />

      
      <glyph glyph-name="uniFB4D" unicode="&#xFB4D;" d="M106 0M420-14Q347-14 271.50 0Q196 14 106 43L119 94Q282 43 414 43Q538 43 628 87Q718 131 766.50 215Q815 299 815 417L815 1102L126 1102L126 1157L874 1157L874 441Q874 297 819.50 194.50Q765 92 662.50 39Q560-14 420-14M276 1403L667 1403L667 1347L276 1347L276 1403Z"  horiz-adv-x="1064" vert-adv-y="2048"  />

      
      <glyph glyph-name="uniFB4E" unicode="&#xFB4E;" d="M160 0M514-14Q371-14 197 43L210 94Q372 43 512 43Q637 43 728 86.50Q819 130 867.50 214Q916 298 916 417L916 1102L338 1102Q289 1038 258.50 931.50Q228 825 228 715L228 600Q274 578 324.50 570.50Q375 563 483 563L483 506Q362 506 299 517.50Q236 529 169 563L169 719Q169 824 200 929Q231 1034 281 1102L160 1102L160 1157L975 1157L975 441Q975 295 919.50 193Q864 91 760.50 38.50Q657-14 514-14M387 1403L778 1403L778 1347L387 1347L387 1403Z"  horiz-adv-x="1165" vert-adv-y="2048"  />

      
      <glyph glyph-name="uni30" unicode="&#x30;" d="M996 594Q996 403 946 265.50Q896 128 798.50 54Q701-20 562-20Q424-20 325.50 54Q227 128 176 266Q125 404 125 594L125 862Q125 1052 175.50 1190.50Q226 1329 324 1403Q422 1477 560 1477Q699 1477 797 1403Q895 1329 945.50 1190.50Q996 1052 996 862L996 594M942 862Q942 1032 899.50 1158Q857 1284 771.50 1353.50Q686 1423 560 1423Q434 1423 349 1353.50Q264 1284 221.50 1158Q179 1032 179 862L179 596Q179 429 222 302.50Q265 176 351 105Q437 34 562 34Q688 34 773 105Q858 176 900 302.50Q942 429 942 596L942 862Z"  horiz-adv-x="1121" vert-adv-y="2048"  />

      
      <glyph glyph-name="uni31" unicode="&#x31;" d="M605 0L605 1388L187 1231L187 1290L648 1460L659 1460L659 0L605 0Z"  horiz-adv-x="1121" vert-adv-y="2048"  />

      
      <glyph glyph-name="uni32" unicode="&#x32;" d="M153 0L153 54L630 604Q767 762 829 875.50Q891 989 891 1085Q891 1242 799.50 1332Q708 1422 536 1422Q433 1422 349.50 1373Q266 1324 218.50 1238Q171 1152 171 1045L117 1045Q117 1163 170.50 1261.50Q224 1360 319.50 1418Q415 1476 536 1476Q662 1476 754 1431Q846 1386 896 1298.50Q946 1211 946 1085Q946 1001 904.50 911.50Q863 822 801.50 739Q740 656 646 546L224 54L1024 54L1024 0L153 0Z"  horiz-adv-x="1121" vert-adv-y="2048"  />

      
      <glyph glyph-name="uni33" unicode="&#x33;" d="M703 745Q848 712 927.50 620Q1007 528 1007 386Q1007 260 951.50 168Q896 76 797.50 28Q699-20 573-20Q457-20 349 27Q241 74 172 170Q103 266 103 405L157 405Q157 299 211.50 214Q266 129 361 81.50Q456 34 573 34Q693 34 778.50 75.50Q864 117 908.50 195.50Q953 274 953 382Q953 553 839 633.50Q725 714 528 714L417 714L417 763L417 770L528 770Q651 770 740 813Q829 856 875 927.50Q921 999 921 1085Q921 1180 882.50 1256Q844 1332 763.50 1377Q683 1422 564 1422Q459 1422 373 1379.50Q287 1337 237.50 1258Q188 1179 188 1074L134 1074Q134 1195 192 1286.50Q250 1378 348 1427Q446 1476 564 1476Q688 1476 781 1428.50Q874 1381 924.50 1291.50Q975 1202 975 1081Q975 966 902 875.50Q829 785 703 745Z"  horiz-adv-x="1121" vert-adv-y="2048"  />

      
      <glyph glyph-name="uni34" unicode="&#x34;" d="M1094 397L842 397L842 0L788 0L788 397L82 397L82 427L777 1456L827 1456L842 1456L842 451L1094 451L1094 397M788 451L788 1392L704 1253L166 451L788 451Z"  horiz-adv-x="1121" vert-adv-y="2048"  />

      
      <glyph glyph-name="uni35" unicode="&#x35;" d="M299 1456L1009 1456L1009 1403L348 1403L289 819Q331 855 416 885.50Q501 916 594 916Q720 916 817.50 862Q915 808 969.50 705.50Q1024 603 1024 464Q1024 241 924 110.50Q824-20 614-20Q497-20 403.50 24.50Q310 69 251.50 159.50Q193 250 182 383L237 383Q253 213 349.50 123.50Q446 34 614 34Q792 34 880.50 142Q969 250 969 462Q969 577 925 668Q881 759 796.50 810.50Q712 862 595 862Q485 862 409 832.50Q333 803 272 746L231 762L299 1456Z"  horiz-adv-x="1121" vert-adv-y="2048"  />

      
      <glyph glyph-name="uni36" unicode="&#x36;" d="M592 957Q723 957 818 895.50Q913 834 963 726Q1013 618 1013 480Q1013 340 960.50 225.50Q908 111 814.50 45.50Q721-20 602-20Q467-20 359 43Q251 106 189.50 222Q128 338 128 492L128 660Q128 939 219.50 1122Q311 1305 467.50 1390.50Q624 1476 821 1476L840 1476L840 1422L821 1422Q647 1422 506.50 1349Q366 1276 279 1121.50Q192 967 183 733Q240 833 348 895Q456 957 592 957M602 33Q708 33 789.50 94.50Q871 156 915 258.50Q959 361 959 480Q959 601 917 696.50Q875 792 791 847.50Q707 903 585 903Q493 903 407.50 866Q322 829 261.50 765Q201 701 182 622L182 493Q182 356 235.50 251.50Q289 147 384.50 90Q480 33 602 33Z"  horiz-adv-x="1121" vert-adv-y="2048"  />

      
      <glyph glyph-name="uni37" unicode="&#x37;" d="M366 0L311 0L945 1402L77 1402L77 1456L1007 1456L1007 1422L366 0Z"  horiz-adv-x="1121" vert-adv-y="2048"  />

      
      <glyph glyph-name="uni38" unicode="&#x38;" d="M716 745Q807 721 878 669Q949 617 988.50 542.50Q1028 468 1028 379Q1028 251 967 161Q906 71 801 25.50Q696-20 565-20Q431-20 326 25.50Q221 71 160.50 160.50Q100 250 100 379Q100 468 139 542Q178 616 248 668Q318 720 409 745Q287 782 214 873Q141 964 141 1086Q141 1209 195.50 1297Q250 1385 345 1430.50Q440 1476 561 1476Q680 1476 777 1430.50Q874 1385 930 1297Q986 1209 986 1086Q986 964 911.50 873.50Q837 783 716 745M195 1091Q195 995 242.50 922.50Q290 850 373.50 811Q457 772 563 772Q666 772 750 811Q834 850 883 922.50Q932 995 932 1091Q932 1186 882.50 1261.50Q833 1337 748 1379.50Q663 1422 561 1422Q456 1422 373 1382Q290 1342 242.50 1267Q195 1192 195 1091M565 34Q680 34 773 74Q866 114 919.50 190.50Q973 267 973 374Q973 476 918.50 554.50Q864 633 770.50 675.50Q677 718 563 718Q448 718 354.50 675.50Q261 633 207.50 555Q154 477 154 374Q154 267 207.50 190Q261 113 354 73.50Q447 34 565 34Z"  horiz-adv-x="1121" vert-adv-y="2048"  />

      
      <glyph glyph-name="uni39" unicode="&#x39;" d="M531 1476Q753 1476 873 1331Q993 1186 993 903L993 740Q993 371 827.50 175.50Q662-20 332-20L298-20L300 34L332 34Q637 34 788 213.50Q939 393 939 718L939 724Q884 606 773 537Q662 468 523 468Q399 468 303 534.50Q207 601 155 713.50Q103 826 103 958Q103 1099 157 1217.50Q211 1336 308.50 1406Q406 1476 531 1476M523 522Q637 522 724 569Q811 616 864.50 689Q918 762 939 841L939 902Q939 1158 833.50 1290Q728 1422 535 1422Q423 1422 337 1356.50Q251 1291 204 1184.50Q157 1078 157 958Q157 844 201 744Q245 644 328.50 583Q412 522 523 522Z"  horiz-adv-x="1121" vert-adv-y="2048"  />

      
      <glyph glyph-name="uni2044" unicode="&#x2044;" d="M65 162L776 1300L821 1269L110 131L65 162Z"  horiz-adv-x="905" vert-adv-y="2048"  />

      
      <glyph glyph-name="uni2080" unicode="&#x2080;" d="M94 0M632-47Q632-209 562.50-297Q493-385 364-385Q236-385 165-296.50Q94-208 94-47L94 88Q94 250 164.50 338Q235 426 363 426Q492 426 562 338Q632 250 632 88L632-47M579 93Q579 227 524 302Q469 377 363 377Q257 377 202 301.50Q147 226 147 93L147-52Q147-184 202.50-260.50Q258-337 364-337Q470-337 524.50-261Q579-185 579-52L579 93Z"  horiz-adv-x="728" vert-adv-y="2048"  />

      
      <glyph glyph-name="uni2081" unicode="&#x2081;" d="M131 0M379-362L379 360L131 279L131 332L424 429L433 429L433-362L379-362Z"  horiz-adv-x="728" vert-adv-y="2048"  />

      
      <glyph glyph-name="uni2082" unicode="&#x2082;" d="M86 0M108-362L108-318L398-23Q480 58 515.50 115Q551 172 551 221Q551 299 501 344Q451 389 356 389Q253 389 196.50 337Q140 285 140 200L86 200Q86 265 119 319.50Q152 374 213 406Q274 438 356 438Q469 438 537 380.50Q605 323 605 222Q605 156 559.50 91Q514 26 426-65L175-313L651-313L651-362L108-362Z"  horiz-adv-x="728" vert-adv-y="2048"  />

      
      <glyph glyph-name="uni2083" unicode="&#x2083;" d="M80 0M464 42Q548 22 592.50-28Q637-78 637-151Q637-220 602-270Q567-320 506-346.50Q445-373 367-373Q294-373 228.50-347.50Q163-322 121.50-270.50Q80-219 80-145L134-145Q134-197 164-238Q194-279 247.50-302Q301-325 367-325Q469-325 526-279Q583-233 583-152Q583-66 518-25.50Q453 15 341 15L270 15L270 54L270 64L341 64Q412 64 462 85Q512 106 538 142.50Q564 179 564 223Q564 296 513 342.50Q462 389 362 389Q302 389 254 368.50Q206 348 178 309.50Q150 271 150 220L97 220Q97 284 132 333.50Q167 383 228 410.50Q289 438 362 438Q480 438 549 380Q618 322 618 220Q618 162 577 113.50Q536 65 464 42Z"  horiz-adv-x="728" vert-adv-y="2048"  />

      
      <glyph glyph-name="uni2084" unicode="&#x2084;" d="M65 0M689-158L542-158L542-362L489-362L489-158L66-158L65-126L482 427L527 427L542 427L542-109L689-109L689-158M489-109L489 365L445 294L135-109L489-109Z"  horiz-adv-x="728" vert-adv-y="2048"  />

      
      <glyph glyph-name="uni2085" unicode="&#x2085;" d="M125 0M192 427L639 427L639 376L237 376L200 93Q228 111 276 125Q324 139 381 139Q459 139 520 109Q581 79 615.50 22Q650-35 650-111Q650-230 584.50-301.50Q519-373 384-373Q321-373 264-348.50Q207-324 169-274.50Q131-225 125-154L179-154Q187-235 244.50-280Q302-325 384-325Q597-325 597-111Q597-19 538.50 36Q480 91 376 91Q308 91 267 76.50Q226 62 186 32L145 45L192 427Z"  horiz-adv-x="728" vert-adv-y="2048"  />

      
      <glyph glyph-name="uni2086" unicode="&#x2086;" d="M107 0M387 157Q468 157 525.50 122.50Q583 88 613 29Q643-30 643-103Q643-179 611-240.50Q579-302 520.50-337.50Q462-373 387-373Q305-373 241.50-336.50Q178-300 142.50-235.50Q107-171 107-88L107-8Q107 135 158 234.50Q209 334 302.50 384.50Q396 435 521 435L534 435L534 385L522 385Q420 385 341 347Q262 309 214.50 233.50Q167 158 161 49Q195 97 254.50 127Q314 157 387 157M387-325Q448-325 494-295Q540-265 565-214.50Q590-164 590-104Q590-11 535.50 48.50Q481 108 378 108Q304 108 241.50 69Q179 30 160-29L160-88Q160-160 189-213.50Q218-267 270-296Q322-325 387-325Z"  horiz-adv-x="728" vert-adv-y="2048"  />

      
      <glyph glyph-name="uni2087" unicode="&#x2087;" d="M66 0M257-362L201-362L583 377L66 377L66 427L641 427L641 395L257-362Z"  horiz-adv-x="728" vert-adv-y="2048"  />

      
      <glyph glyph-name="uni2088" unicode="&#x2088;" d="M80 0M472 42Q551 20 599-32.50Q647-85 647-154Q647-224 610-273.50Q573-323 509-348Q445-373 365-373Q283-373 218.50-348Q154-323 117-273.50Q80-224 80-154Q80-84 127.50-32Q175 20 255 43Q186 65 145.50 113Q105 161 105 224Q105 291 138.50 339.50Q172 388 230.50 413Q289 438 363 438Q437 438 496 413Q555 388 589 339.50Q623 291 623 224Q623 161 582 112.50Q541 64 472 42M158 225Q158 153 216 109.50Q274 66 365 66Q423 66 469.50 85.50Q516 105 543 141Q570 177 570 225Q570 272 542.50 309.50Q515 347 468 368Q421 389 363 389Q273 389 215.50 344.50Q158 300 158 225M365-325Q465-325 529-280Q593-235 593-155Q593-104 562.50-65Q532-26 480-4.50Q428 17 363 17Q298 17 245.50-4Q193-25 163.50-64.50Q134-104 134-155Q134-235 198-280Q262-325 365-325Z"  horiz-adv-x="728" vert-adv-y="2048"  />

      
      <glyph glyph-name="uni2089" unicode="&#x2089;" d="M78 0M347 438Q478 438 549 355.50Q620 273 620 124L620 49Q620-147 522-258.50Q424-370 221-370L202-370L203-322L221-322Q394-322 479-233.50Q564-145 566 10Q533-43 472.50-75Q412-107 337-107Q260-107 201-70.50Q142-34 110 27Q78 88 78 159Q78 235 112 299Q146 363 207 400.50Q268 438 347 438M342-58Q428-58 486.50-14Q545 30 566 91L566 129Q566 256 508.50 322Q451 388 348 388Q284 388 235.50 356Q187 324 160.50 272Q134 220 134 160Q134 102 159 52Q184 2 231-28Q278-58 342-58Z"  horiz-adv-x="728" vert-adv-y="2048"  />

      
      <glyph glyph-name="uni2070" unicode="&#x2070;" d="M94 653M632 991Q632 829 562.50 741Q493 653 364 653Q236 653 165 741.50Q94 830 94 991L94 1126Q94 1288 164.50 1376Q235 1464 363 1464Q492 1464 562 1376Q632 1288 632 1126L632 991M579 1131Q579 1265 524 1340Q469 1415 363 1415Q257 1415 202 1339.50Q147 1264 147 1131L147 986Q147 854 202.50 777.50Q258 701 364 701Q470 701 524.50 777Q579 853 579 986L579 1131Z"  horiz-adv-x="728" vert-adv-y="2048"  />

      
      <glyph glyph-name="unib9" unicode="&#xb9;" d="M131 664M379 664L379 1386L131 1305L131 1358L424 1455L433 1455L433 664L379 664Z"  horiz-adv-x="728" vert-adv-y="2048"  />

      
      </font>
</defs>
</svg>
