<?xml version="1.0" standalone="no"?>
  <!DOCTYPE svg PUBLIC "-//W3C//DTD SVG 1.1//EN" "http://www.w3.org/Graphics/SVG/1.1/DTD/svg11.dtd" >
  <svg>
  <metadata>
  Created by font-carrier
  </metadata>
  <defs>
  <font id="Heebo-Medium" horiz-adv-x="1974" vert-adv-y="1974" >
    <font-face
      
      font-family="Heebo Medium"
      
      font-weight="400"
      
      font-stretch="normal"
      
      units-per-em="2048"
      
      ascent="2146"
      
      descent="-862"
      
    />
      <missing-glyph />

      

      
      <glyph glyph-name="uni41" unicode="&#x41;" d="M963 334L404 334L288 0L17 0L566 1456L738 1456L799 1456L1350 0L1079 0L963 334M890 543L683 1140L476 543L890 543Z"  horiz-adv-x="1365" vert-adv-y="2048"  />

      
      <glyph glyph-name="unic1" unicode="&#xc1;" d="M17 0M963 334L404 334L288 0L17 0L566 1456L738 1456L799 1456L1350 0L1079 0L963 334M890 543L683 1140L476 543L890 543M1041 1846L764 1543L564 1543L759 1846L1041 1846Z"  horiz-adv-x="1365" vert-adv-y="2048"  />

      
      <glyph glyph-name="unic2" unicode="&#xc2;" d="M17 0M963 334L404 334L288 0L17 0L566 1456L738 1456L799 1456L1350 0L1079 0L963 334M890 543L683 1140L476 543L890 543M1036 1558L837 1558L686 1713L536 1558L340 1558L340 1571L613 1847L759 1847L1036 1569L1036 1558Z"  horiz-adv-x="1365" vert-adv-y="2048"  />

      
      <glyph glyph-name="unic4" unicode="&#xc4;" d="M17 0M963 334L404 334L288 0L17 0L566 1456L738 1456L799 1456L1350 0L1079 0L963 334M890 543L683 1140L476 543L890 543M457 1796Q514 1796 549.50 1761.50Q585 1727 585 1676Q585 1625 549.50 1591.50Q514 1558 457 1558Q399 1558 364 1591.50Q329 1625 329 1676Q329 1728 364 1762Q399 1796 457 1796M918 1795Q975 1795 1010.50 1760.50Q1046 1726 1046 1675Q1046 1624 1010.50 1590Q975 1556 918 1556Q860 1556 825 1590Q790 1624 790 1675Q790 1727 825 1761Q860 1795 918 1795Z"  horiz-adv-x="1365" vert-adv-y="2048"  />

      
      <glyph glyph-name="unic0" unicode="&#xc0;" d="M17 0M963 334L404 334L288 0L17 0L566 1456L738 1456L799 1456L1350 0L1079 0L963 334M890 543L683 1140L476 543L890 543M608 1543L337 1846L618 1846L814 1543L608 1543Z"  horiz-adv-x="1365" vert-adv-y="2048"  />

      
      <glyph glyph-name="unic5" unicode="&#xc5;" d="M17 0M963 334L404 334L288 0L17 0L566 1456L738 1456L799 1456L1350 0L1079 0L963 334M890 543L683 1140L476 543L890 543M687 1939Q749 1939 800 1911Q851 1883 880 1835Q909 1787 909 1731Q909 1674 880 1627.50Q851 1581 800 1554Q749 1527 687 1527Q625 1527 574.50 1554Q524 1581 495 1627.50Q466 1674 466 1731Q466 1788 495 1835.50Q524 1883 574.50 1911Q625 1939 687 1939M687 1621Q736 1621 767.50 1653.50Q799 1686 799 1731Q799 1778 767.50 1811Q736 1844 687 1844Q639 1844 607.50 1811Q576 1778 576 1731Q576 1686 607.50 1653.50Q639 1621 687 1621Z"  horiz-adv-x="1365" vert-adv-y="2048"  />

      
      <glyph glyph-name="unic3" unicode="&#xc3;" d="M17 0M963 334L404 334L288 0L17 0L566 1456L738 1456L799 1456L1350 0L1079 0L963 334M890 543L683 1140L476 543L890 543M1054 1825Q1054 1752 1025 1693Q996 1634 944.50 1600.50Q893 1567 830 1567Q784 1567 753 1579Q722 1591 680 1615Q646 1636 620 1646Q594 1656 560 1656Q521 1656 495.50 1627.50Q470 1599 470 1554L318 1562Q318 1634 347 1694Q376 1754 427 1788.50Q478 1823 541 1823Q578 1823 608 1812Q638 1801 681 1778Q721 1756 749.50 1745Q778 1734 812 1734Q850 1734 876.50 1762.50Q903 1791 903 1837L1054 1825Z"  horiz-adv-x="1365" vert-adv-y="2048"  />

      
      <glyph glyph-name="unic6" unicode="&#xc6;" d="M1878 202L1878 0L1145 0L980 0L966 340L470 340L288 0L-8 0L821 1456L978 1456L1168 1456L1816 1456L1816 1254L1176 1254L1193 853L1735 853L1735 652L1202 652L1220 202L1878 202M957 559L930 1197L588 559L957 559Z"  horiz-adv-x="1925" vert-adv-y="2048"  />

      
      <glyph glyph-name="uni42" unicode="&#x42;" d="M945 758Q1066 726 1128 635.50Q1190 545 1190 426Q1190 219 1057 109.50Q924 0 683 0L244 0L146 0L146 1456L646 1456Q892 1456 1024 1358.50Q1156 1261 1156 1062Q1156 960 1101.50 880Q1047 800 945 758M405 1247L405 844L648 844Q767 844 832.50 897Q898 950 898 1046Q898 1152 837 1199.50Q776 1247 646 1247L405 1247M683 208Q803 208 867.50 267.50Q932 327 932 426Q932 654 694 654L405 654L405 208L683 208Z"  horiz-adv-x="1295" vert-adv-y="2048"  />

      
      <glyph glyph-name="uni43" unicode="&#x43;" d="M1261 476Q1248 330 1179.50 218Q1111 106 987 43Q863-20 689-20Q510-20 377 64.50Q244 149 172 305Q100 461 100 670L100 785Q100 994 173.50 1150Q247 1306 382.50 1391Q518 1476 699 1476Q870 1476 991 1412.50Q1112 1349 1179.50 1235.50Q1247 1122 1262 973L1004 973Q987 1119 917.50 1192.50Q848 1266 699 1266Q532 1266 446.50 1142.50Q361 1019 361 787L361 670Q361 442 440.50 316Q520 190 689 190Q793 190 858.50 222.50Q924 255 957.50 317.50Q991 380 1003 476L1261 476Z"  horiz-adv-x="1338" vert-adv-y="2048"  />

      
      <glyph glyph-name="unic7" unicode="&#xc7;" d="M689 190Q793 190 858.50 222.50Q924 255 957.50 317.50Q991 380 1003 476L1261 476Q1249 343 1191 238Q1133 133 1028 66.50Q923 0 776-16L768-57Q832-68 875-109.50Q918-151 918-230Q918-298 880.50-349Q843-400 768.50-428Q694-456 588-456L581-314Q642-314 678.50-292.50Q715-271 715-226Q715-183 681-165.50Q647-148 565-142L594-14Q442 8 331 97.50Q220 187 160 333.50Q100 480 100 670L100 785Q100 994 173.50 1150Q247 1306 382.50 1391Q518 1476 699 1476Q870 1476 991 1412.50Q1112 1349 1179.50 1235.50Q1247 1122 1262 973L1004 973Q987 1119 917.50 1192.50Q848 1266 699 1266Q532 1266 446.50 1142.50Q361 1019 361 787L361 670Q361 442 440.50 316Q520 190 689 190Z"  horiz-adv-x="1338" vert-adv-y="2048"  />

      
      <glyph glyph-name="uni44" unicode="&#x44;" d="M578 1456Q772 1456 921 1370Q1070 1284 1152.50 1127Q1235 970 1235 763L1235 692Q1235 484 1152.50 327.50Q1070 171 919 85.50Q768 0 568 0L260 0L146 0L146 1456L405 1456L578 1456M975 765Q975 999 873 1123Q771 1247 578 1247L405 1247L405 208L568 208Q768 208 871.50 334.50Q975 461 975 692L975 765Z"  horiz-adv-x="1337" vert-adv-y="2048"  />

      
      <glyph glyph-name="unid0" unicode="&#xd0;" d="M578 1456Q772 1456 921 1370Q1070 1284 1152.50 1127Q1235 970 1235 763L1235 692Q1235 484 1152.50 327.50Q1070 171 919 85.50Q768 0 568 0L260 0L146 0L146 650L-10 650L-10 823L146 823L146 1456L405 1456L578 1456M975 765Q975 999 873 1123Q771 1247 578 1247L405 1247L405 823L663 823L663 650L405 650L405 208L568 208Q768 208 871.50 334.50Q975 461 975 692L975 765Z"  horiz-adv-x="1337" vert-adv-y="2048"  />

      
      <glyph glyph-name="uni45" unicode="&#x45;" d="M1101 208L1101 0L336 0L146 0L146 1456L405 1456L1095 1456L1095 1247L405 1247L405 852L1000 852L1000 648L405 648L405 208L1101 208Z"  horiz-adv-x="1158" vert-adv-y="2048"  />

      
      <glyph glyph-name="unic9" unicode="&#xc9;" d="M146 0M1101 208L1101 0L336 0L146 0L146 1456L405 1456L1095 1456L1095 1247L405 1247L405 852L1000 852L1000 648L405 648L405 208L1101 208M983 1853L706 1550L506 1550L701 1853L983 1853Z"  horiz-adv-x="1158" vert-adv-y="2048"  />

      
      <glyph glyph-name="unica" unicode="&#xca;" d="M146 0M1101 208L1101 0L336 0L146 0L146 1456L405 1456L1095 1456L1095 1247L405 1247L405 852L1000 852L1000 648L405 648L405 208L1101 208M978 1565L779 1565L628 1720L478 1565L282 1565L282 1578L555 1854L701 1854L978 1576L978 1565Z"  horiz-adv-x="1158" vert-adv-y="2048"  />

      
      <glyph glyph-name="unicb" unicode="&#xcb;" d="M146 0M1101 208L1101 0L336 0L146 0L146 1456L405 1456L1095 1456L1095 1247L405 1247L405 852L1000 852L1000 648L405 648L405 208L1101 208M399 1803Q456 1803 491.50 1768.50Q527 1734 527 1683Q527 1632 491.50 1598.50Q456 1565 399 1565Q341 1565 306 1598.50Q271 1632 271 1683Q271 1735 306 1769Q341 1803 399 1803M860 1802Q917 1802 952.50 1767.50Q988 1733 988 1682Q988 1631 952.50 1597Q917 1563 860 1563Q802 1563 767 1597Q732 1631 732 1682Q732 1734 767 1768Q802 1802 860 1802Z"  horiz-adv-x="1158" vert-adv-y="2048"  />

      
      <glyph glyph-name="unic8" unicode="&#xc8;" d="M146 0M1101 208L1101 0L336 0L146 0L146 1456L405 1456L1095 1456L1095 1247L405 1247L405 852L1000 852L1000 648L405 648L405 208L1101 208M550 1550L279 1853L560 1853L756 1550L550 1550Z"  horiz-adv-x="1158" vert-adv-y="2048"  />

      
      <glyph glyph-name="uni46" unicode="&#x46;" d="M405 1247L405 822L990 822L990 614L405 614L405 0L146 0L146 1456L405 1456L1074 1456L1074 1247L405 1247Z"  horiz-adv-x="1125" vert-adv-y="2048"  />

      
      <glyph glyph-name="uni47" unicode="&#x47;" d="M1267 189Q1203 106 1073.50 43Q944-20 728-20Q543-20 402.50 63Q262 146 183.50 304Q105 462 105 680L105 775Q105 996 177 1153.50Q249 1311 384 1393.50Q519 1476 706 1476Q963 1476 1100.50 1350.50Q1238 1225 1266 1009L1012 1009Q971 1268 711 1268Q539 1268 452.50 1141.50Q366 1015 366 777L366 680Q366 523 410 412.50Q454 302 537.50 245Q621 188 737 188Q851 188 912.50 212.50Q974 237 1008 273L1008 554L712 554L712 750L1267 750L1267 189Z"  horiz-adv-x="1395" vert-adv-y="2048"  />

      
      <glyph glyph-name="uni48" unicode="&#x48;" d="M1306 1456L1306 0L1048 0L1048 645L405 645L405 0L146 0L146 1456L405 1456L405 852L1048 852L1048 1456L1306 1456Z"  horiz-adv-x="1455" vert-adv-y="2048"  />

      
      <glyph glyph-name="uni49" unicode="&#x49;" d="M162 0L162 1456L420 1456L420 0L162 0Z"  horiz-adv-x="581" vert-adv-y="2048"  />

      
      <glyph glyph-name="unicd" unicode="&#xcd;" d="M162 0M162 0L162 1456L420 1456L420 0L162 0M645 1853L368 1550L168 1550L363 1853L645 1853Z"  horiz-adv-x="581" vert-adv-y="2048"  />

      
      <glyph glyph-name="unice" unicode="&#xce;" d="M0 0M162 0L162 1456L420 1456L420 0L162 0M640 1565L441 1565L290 1720L140 1565L-56 1565L-56 1578L217 1854L363 1854L640 1576L640 1565Z"  horiz-adv-x="581" vert-adv-y="2048"  />

      
      <glyph glyph-name="unicf" unicode="&#xcf;" d="M0 0M162 0L162 1456L420 1456L420 0L162 0M61 1803Q118 1803 153.50 1768.50Q189 1734 189 1683Q189 1632 153.50 1598.50Q118 1565 61 1565Q3 1565-32 1598.50Q-67 1632-67 1683Q-67 1735-32 1769Q3 1803 61 1803M522 1802Q579 1802 614.50 1767.50Q650 1733 650 1682Q650 1631 614.50 1597Q579 1563 522 1563Q464 1563 429 1597Q394 1631 394 1682Q394 1734 429 1768Q464 1802 522 1802Z"  horiz-adv-x="581" vert-adv-y="2048"  />

      
      <glyph glyph-name="unicc" unicode="&#xcc;" d="M0 0M162 0L162 1456L420 1456L420 0L162 0M212 1550L-59 1853L222 1853L418 1550L212 1550Z"  horiz-adv-x="581" vert-adv-y="2048"  />

      
      <glyph glyph-name="uni4a" unicode="&#x4a;" d="M999 1456L999 437Q999 296 938 192.50Q877 89 768.50 34.50Q660-20 522-20Q380-20 273 28Q166 76 105.50 174.50Q45 273 45 418L304 418Q304 298 362 243Q420 188 522 188Q621 188 681 253.50Q741 319 741 437L741 1456L999 1456Z"  horiz-adv-x="1138" vert-adv-y="2048"  />

      
      <glyph glyph-name="uni4b" unicode="&#x4b;" d="M569 624L405 450L405 0L146 0L146 1456L405 1456L405 776L545 950L963 1456L1278 1456L740 812L1306 0L998 0L569 624Z"  horiz-adv-x="1293" vert-adv-y="2048"  />

      
      <glyph glyph-name="uni4c" unicode="&#x4c;" d="M1063 208L1063 0L336 0L146 0L146 1456L405 1456L405 208L1063 208Z"  horiz-adv-x="1109" vert-adv-y="2048"  />

      
      <glyph glyph-name="uni4d" unicode="&#x4d;" d="M1645 0L1387 0L1387 470L1412 1117L988 0L803 0L379 1116L405 470L405 0L146 0L146 1456L366 1456L482 1456L896 348L1309 1456L1645 1456L1645 0Z"  horiz-adv-x="1793" vert-adv-y="2048"  />

      
      <glyph glyph-name="uni4e" unicode="&#x4e;" d="M1046 0L405 1024L405 0L146 0L146 1456L405 1456L1048 430L1048 1456L1305 1456L1305 0L1046 0Z"  horiz-adv-x="1454" vert-adv-y="2048"  />

      
      <glyph glyph-name="unid1" unicode="&#xd1;" d="M146 0M1046 0L405 1024L405 0L146 0L146 1456L405 1456L1048 430L1048 1456L1305 1456L1305 0L1046 0M1094 1825Q1094 1752 1065 1693Q1036 1634 984.50 1600.50Q933 1567 870 1567Q824 1567 793 1579Q762 1591 720 1615Q686 1636 660 1646Q634 1656 600 1656Q561 1656 535.50 1627.50Q510 1599 510 1554L358 1562Q358 1634 387 1694Q416 1754 467 1788.50Q518 1823 581 1823Q618 1823 648 1812Q678 1801 721 1778Q761 1756 789.50 1745Q818 1734 852 1734Q890 1734 916.50 1762.50Q943 1791 943 1837L1094 1825Z"  horiz-adv-x="1454" vert-adv-y="2048"  />

      
      <glyph glyph-name="uni4f" unicode="&#x4f;" d="M1313 691Q1313 473 1237.50 312.50Q1162 152 1025 66Q888-20 708-20Q530-20 392 66Q254 152 177 313Q100 474 100 691L100 764Q100 981 176.50 1142Q253 1303 390.50 1389.50Q528 1476 706 1476Q886 1476 1023.50 1390Q1161 1304 1237 1143Q1313 982 1313 764L1313 691M1053 766Q1053 1007 962.50 1134.50Q872 1262 706 1262Q599 1262 521 1205Q443 1148 401.50 1036.50Q360 925 360 766L360 691Q360 532 402 420Q444 308 522.50 250.50Q601 193 708 193Q874 193 963.50 321Q1053 449 1053 691L1053 766Z"  horiz-adv-x="1414" vert-adv-y="2048"  />

      
      <glyph glyph-name="unid3" unicode="&#xd3;" d="M100 0M1313 691Q1313 473 1237.50 312.50Q1162 152 1025 66Q888-20 708-20Q530-20 392 66Q254 152 177 313Q100 474 100 691L100 764Q100 981 176.50 1142Q253 1303 390.50 1389.50Q528 1476 706 1476Q886 1476 1023.50 1390Q1161 1304 1237 1143Q1313 982 1313 764L1313 691M1053 766Q1053 1007 962.50 1134.50Q872 1262 706 1262Q599 1262 521 1205Q443 1148 401.50 1036.50Q360 925 360 766L360 691Q360 532 402 420Q444 308 522.50 250.50Q601 193 708 193Q874 193 963.50 321Q1053 449 1053 691L1053 766M1063 1846L786 1543L586 1543L781 1846L1063 1846Z"  horiz-adv-x="1414" vert-adv-y="2048"  />

      
      <glyph glyph-name="unid4" unicode="&#xd4;" d="M100 0M1313 691Q1313 473 1237.50 312.50Q1162 152 1025 66Q888-20 708-20Q530-20 392 66Q254 152 177 313Q100 474 100 691L100 764Q100 981 176.50 1142Q253 1303 390.50 1389.50Q528 1476 706 1476Q886 1476 1023.50 1390Q1161 1304 1237 1143Q1313 982 1313 764L1313 691M1053 766Q1053 1007 962.50 1134.50Q872 1262 706 1262Q599 1262 521 1205Q443 1148 401.50 1036.50Q360 925 360 766L360 691Q360 532 402 420Q444 308 522.50 250.50Q601 193 708 193Q874 193 963.50 321Q1053 449 1053 691L1053 766M1058 1558L859 1558L708 1713L558 1558L362 1558L362 1571L635 1847L781 1847L1058 1569L1058 1558Z"  horiz-adv-x="1414" vert-adv-y="2048"  />

      
      <glyph glyph-name="unid6" unicode="&#xd6;" d="M100 0M1313 691Q1313 473 1237.50 312.50Q1162 152 1025 66Q888-20 708-20Q530-20 392 66Q254 152 177 313Q100 474 100 691L100 764Q100 981 176.50 1142Q253 1303 390.50 1389.50Q528 1476 706 1476Q886 1476 1023.50 1390Q1161 1304 1237 1143Q1313 982 1313 764L1313 691M1053 766Q1053 1007 962.50 1134.50Q872 1262 706 1262Q599 1262 521 1205Q443 1148 401.50 1036.50Q360 925 360 766L360 691Q360 532 402 420Q444 308 522.50 250.50Q601 193 708 193Q874 193 963.50 321Q1053 449 1053 691L1053 766M479 1796Q536 1796 571.50 1761.50Q607 1727 607 1676Q607 1625 571.50 1591.50Q536 1558 479 1558Q421 1558 386 1591.50Q351 1625 351 1676Q351 1728 386 1762Q421 1796 479 1796M940 1795Q997 1795 1032.50 1760.50Q1068 1726 1068 1675Q1068 1624 1032.50 1590Q997 1556 940 1556Q882 1556 847 1590Q812 1624 812 1675Q812 1727 847 1761Q882 1795 940 1795Z"  horiz-adv-x="1414" vert-adv-y="2048"  />

      
      <glyph glyph-name="unid2" unicode="&#xd2;" d="M100 0M1313 691Q1313 473 1237.50 312.50Q1162 152 1025 66Q888-20 708-20Q530-20 392 66Q254 152 177 313Q100 474 100 691L100 764Q100 981 176.50 1142Q253 1303 390.50 1389.50Q528 1476 706 1476Q886 1476 1023.50 1390Q1161 1304 1237 1143Q1313 982 1313 764L1313 691M1053 766Q1053 1007 962.50 1134.50Q872 1262 706 1262Q599 1262 521 1205Q443 1148 401.50 1036.50Q360 925 360 766L360 691Q360 532 402 420Q444 308 522.50 250.50Q601 193 708 193Q874 193 963.50 321Q1053 449 1053 691L1053 766M630 1543L359 1846L640 1846L836 1543L630 1543Z"  horiz-adv-x="1414" vert-adv-y="2048"  />

      
      <glyph glyph-name="unid8" unicode="&#xd8;" d="M1156 1278Q1234 1184 1275.50 1054Q1317 924 1317 764L1317 691Q1317 473 1241.50 312.50Q1166 152 1029 66Q892-20 712-20Q549-20 416 54L326-95L155-95L299 143Q206 237 155 376.50Q104 516 104 691L104 764Q104 981 180.50 1142Q257 1303 394.50 1389.50Q532 1476 710 1476Q903 1476 1047 1378L1132 1518L1301 1518L1156 1278M364 691Q364 488 432 363L927 1180Q842 1262 710 1262Q603 1262 525 1205Q447 1148 405.50 1036.50Q364 925 364 766L364 691M1057 766Q1057 929 1014 1043L532 246Q609 193 712 193Q878 193 967.50 321Q1057 449 1057 691L1057 766Z"  horiz-adv-x="1412" vert-adv-y="2048"  />

      
      <glyph glyph-name="unid5" unicode="&#xd5;" d="M100 0M1313 691Q1313 473 1237.50 312.50Q1162 152 1025 66Q888-20 708-20Q530-20 392 66Q254 152 177 313Q100 474 100 691L100 764Q100 981 176.50 1142Q253 1303 390.50 1389.50Q528 1476 706 1476Q886 1476 1023.50 1390Q1161 1304 1237 1143Q1313 982 1313 764L1313 691M1053 766Q1053 1007 962.50 1134.50Q872 1262 706 1262Q599 1262 521 1205Q443 1148 401.50 1036.50Q360 925 360 766L360 691Q360 532 402 420Q444 308 522.50 250.50Q601 193 708 193Q874 193 963.50 321Q1053 449 1053 691L1053 766M1076 1825Q1076 1752 1047 1693Q1018 1634 966.50 1600.50Q915 1567 852 1567Q806 1567 775 1579Q744 1591 702 1615Q668 1636 642 1646Q616 1656 582 1656Q543 1656 517.50 1627.50Q492 1599 492 1554L340 1562Q340 1634 369 1694Q398 1754 449 1788.50Q500 1823 563 1823Q600 1823 630 1812Q660 1801 703 1778Q743 1756 771.50 1745Q800 1734 834 1734Q872 1734 898.50 1762.50Q925 1791 925 1837L1076 1825Z"  horiz-adv-x="1414" vert-adv-y="2048"  />

      
      <glyph glyph-name="uni0152" unicode="&#x0152;" d="M1843 208L1843 0L1077 0L973 0Q882-10 817-15.50Q752-21 685-21Q514-21 381 54.50Q248 130 174 265.50Q100 401 100 576L100 880Q100 1055 173.50 1190.50Q247 1326 379.50 1401.50Q512 1477 683 1477Q803 1477 973 1456L1146 1456L1836 1456L1836 1247L1146 1247L1146 852L1741 852L1741 648L1146 648L1146 208L1843 208M349 576Q349 382 438.50 280.50Q528 179 685 179Q776 179 888 193L888 1262Q781 1277 683 1277Q526 1277 437.50 1176Q349 1075 349 882L349 576Z"  horiz-adv-x="1974" vert-adv-y="2048"  />

      
      <glyph glyph-name="uni50" unicode="&#x50;" d="M705 1456Q870 1456 990.50 1396.50Q1111 1337 1174 1231.50Q1237 1126 1237 991Q1237 850 1174.50 748Q1112 646 992.50 592Q873 538 705 538L405 538L405 0L146 0L146 1456L705 1456M705 746Q844 746 910.50 811Q977 876 977 989Q977 1059 948 1117.50Q919 1176 858 1211.50Q797 1247 705 1247L405 1247L405 746L705 746Z"  horiz-adv-x="1311" vert-adv-y="2048"  />

      
      <glyph glyph-name="unide" unicode="&#xde;" d="M638 1178Q801 1178 917.50 1122Q1034 1066 1094.50 966.50Q1155 867 1155 738Q1155 610 1094.50 510.50Q1034 411 917.50 354.50Q801 298 638 298L396 298L396 0L147 0L147 1456L396 1456L396 1178L638 1178M638 498Q729 498 789 531Q849 564 877.50 618Q906 672 906 736Q906 802 878 856.50Q850 911 789.50 944.50Q729 978 638 978L396 978L396 498L638 498Z"  horiz-adv-x="1229" vert-adv-y="2048"  />

      
      <glyph glyph-name="uni51" unicode="&#x51;" d="M1140-253L831-8Q770-20 702-20Q524-20 386.50 66Q249 152 172 313Q95 474 95 691L95 764Q95 981 171.50 1142Q248 1303 385 1389.50Q522 1476 700 1476Q881 1476 1018.50 1390Q1156 1304 1232 1143Q1308 982 1308 764L1308 691Q1308 489 1243 336Q1178 183 1059 92L1308-103L1140-253M355 691Q355 532 397 420Q439 308 517 250.50Q595 193 702 193Q868 193 958 321.50Q1048 450 1048 691L1048 766Q1048 1007 957.50 1134.50Q867 1262 700 1262Q593 1262 515.50 1205Q438 1148 396.50 1036.50Q355 925 355 766L355 691Z"  horiz-adv-x="1414" vert-adv-y="2048"  />

      
      <glyph glyph-name="uni52" unicode="&#x52;" d="M1249 13L1249 0L971 0L682 558L405 558L405 0L146 0L146 1456L662 1456Q914 1456 1051.50 1343Q1189 1230 1189 1017Q1189 873 1120 773Q1051 673 924 619L1249 13M405 766L663 766Q793 766 861.50 831Q930 896 930 1004Q930 1119 864 1183Q798 1247 662 1247L405 1247L405 766Z"  horiz-adv-x="1283" vert-adv-y="2048"  />

      
      <glyph glyph-name="uni53" unicode="&#x53;" d="M599 626Q369 697 244 801Q119 905 119 1072Q119 1189 184.50 1281Q250 1373 368 1424.50Q486 1476 638 1476Q797 1476 916.50 1416.50Q1036 1357 1100 1255.50Q1164 1154 1164 1031L906 1031Q906 1140 837.50 1205Q769 1270 635 1270Q509 1270 443.50 1215.50Q378 1161 378 1073Q378 995 452 941Q526 887 685 841Q851 792 956.50 729Q1062 666 1114 580Q1166 494 1166 379Q1166 257 1102 167Q1038 77 920.50 28.50Q803-20 646-20Q500-20 368.50 32.50Q237 85 155.50 190Q74 295 74 443L333 443Q333 312 418.50 248.50Q504 185 646 185Q772 185 839 237Q906 289 906 377Q906 437 881 477.50Q856 518 790.50 553Q725 588 599 626Z"  horiz-adv-x="1240" vert-adv-y="2048"  />

      
      <glyph glyph-name="uni1E9E" unicode="&#x1E9E;" d="M842 849Q1048 829 1160 717Q1272 605 1272 414Q1272 276 1207.50 178Q1143 80 1030 29.50Q917-21 774-21Q604-21 466 34L536 228Q645 179 756 179Q839 179 899.50 208Q960 237 991.50 290Q1023 343 1023 412Q1023 552 948.50 614Q874 676 724 676L583 676L583 845L583 849L865 1185Q806 1228 743.50 1252Q681 1276 596 1276Q471 1276 416.50 1193Q362 1110 362 956L362 0L113 0L113 958Q115 1476 596 1476Q758 1476 894 1415Q1030 1354 1167 1240L842 849Z"  horiz-adv-x="1359" vert-adv-y="2048"  />

      
      <glyph glyph-name="uni54" unicode="&#x54;" d="M1204 1247L751 1247L751 0L493 0L493 1247L45 1247L45 1456L751 1456L1204 1456L1204 1247Z"  horiz-adv-x="1247" vert-adv-y="2048"  />

      
      <glyph glyph-name="uni55" unicode="&#x55;" d="M1216 485Q1216 323 1144.50 209Q1073 95 949 37.50Q825-20 670-20Q511-20 387.50 37.50Q264 95 194.50 208.50Q125 322 125 485L125 1456L383 1456L383 485Q383 335 458.50 261.50Q534 188 670 188Q808 188 882.50 261Q957 334 957 485L957 1456L1216 1456L1216 485Z"  horiz-adv-x="1337" vert-adv-y="2048"  />

      
      <glyph glyph-name="unida" unicode="&#xda;" d="M125 0M1216 485Q1216 323 1144.50 209Q1073 95 949 37.50Q825-20 670-20Q511-20 387.50 37.50Q264 95 194.50 208.50Q125 322 125 485L125 1456L383 1456L383 485Q383 335 458.50 261.50Q534 188 670 188Q808 188 882.50 261Q957 334 957 485L957 1456L1216 1456L1216 485M1023 1846L746 1543L546 1543L741 1846L1023 1846Z"  horiz-adv-x="1337" vert-adv-y="2048"  />

      
      <glyph glyph-name="unidb" unicode="&#xdb;" d="M125 0M1216 485Q1216 323 1144.50 209Q1073 95 949 37.50Q825-20 670-20Q511-20 387.50 37.50Q264 95 194.50 208.50Q125 322 125 485L125 1456L383 1456L383 485Q383 335 458.50 261.50Q534 188 670 188Q808 188 882.50 261Q957 334 957 485L957 1456L1216 1456L1216 485M1017 1558L818 1558L667 1713L517 1558L321 1558L321 1571L594 1847L740 1847L1017 1569L1017 1558Z"  horiz-adv-x="1337" vert-adv-y="2048"  />

      
      <glyph glyph-name="unidc" unicode="&#xdc;" d="M125 0M1216 485Q1216 323 1144.50 209Q1073 95 949 37.50Q825-20 670-20Q511-20 387.50 37.50Q264 95 194.50 208.50Q125 322 125 485L125 1456L383 1456L383 485Q383 335 458.50 261.50Q534 188 670 188Q808 188 882.50 261Q957 334 957 485L957 1456L1216 1456L1216 485M438 1796Q495 1796 530.50 1761.50Q566 1727 566 1676Q566 1625 530.50 1591.50Q495 1558 438 1558Q380 1558 345 1591.50Q310 1625 310 1676Q310 1728 345 1762Q380 1796 438 1796M899 1795Q956 1795 991.50 1760.50Q1027 1726 1027 1675Q1027 1624 991.50 1590Q956 1556 899 1556Q841 1556 806 1590Q771 1624 771 1675Q771 1727 806 1761Q841 1795 899 1795Z"  horiz-adv-x="1337" vert-adv-y="2048"  />

      
      <glyph glyph-name="unid9" unicode="&#xd9;" d="M125 0M1216 485Q1216 323 1144.50 209Q1073 95 949 37.50Q825-20 670-20Q511-20 387.50 37.50Q264 95 194.50 208.50Q125 322 125 485L125 1456L383 1456L383 485Q383 335 458.50 261.50Q534 188 670 188Q808 188 882.50 261Q957 334 957 485L957 1456L1216 1456L1216 485M590 1543L319 1846L600 1846L796 1543L590 1543Z"  horiz-adv-x="1337" vert-adv-y="2048"  />

      
      <glyph glyph-name="uni56" unicode="&#x56;" d="M1312 1456L790 0L597 0L537 0L17 1456L301 1456L663 323L1027 1456L1312 1456Z"  horiz-adv-x="1327" vert-adv-y="2048"  />

      
      <glyph glyph-name="uni57" unicode="&#x57;" d="M1765 1456L1431 0L1258 0L1180 0L909 1053L632 0L468 0L381 0L47 1456L304 1456L527 370L800 1456L958 1456L1017 1456L1287 367L1507 1456L1765 1456Z"  horiz-adv-x="1801" vert-adv-y="2048"  />

      
      <glyph glyph-name="uni58" unicode="&#x58;" d="M951 1456L1250 1456L812 734L1261 0L959 0L650 531L341 0L39 0L488 734L49 1456L348 1456L650 934L951 1456Z"  horiz-adv-x="1297" vert-adv-y="2048"  />

      
      <glyph glyph-name="uni59" unicode="&#x59;" d="M955 1456L1242 1456L755 535L755 0L494 0L494 535L7 1456L294 1456L624 771L955 1456Z"  horiz-adv-x="1251" vert-adv-y="2048"  />

      
      <glyph glyph-name="unidd" unicode="&#xdd;" d="M7 0M955 1456L1242 1456L755 535L755 0L494 0L494 535L7 1456L294 1456L624 771L955 1456M983 1846L706 1543L506 1543L701 1846L983 1846Z"  horiz-adv-x="1251" vert-adv-y="2048"  />

      
      <glyph glyph-name="uni5a" unicode="&#x5a;" d="M1167 208L1167 0L159 0L79 0L79 166L829 1247L84 1247L84 1456L1047 1456L1144 1456L1144 1295L395 208L1167 208Z"  horiz-adv-x="1235" vert-adv-y="2048"  />

      
      <glyph glyph-name="uni61" unicode="&#x61;" d="M980 252Q980 104 1021 17L1021 0L767 0Q751 35 739 101Q688 46 617 13Q546-20 456-20Q350-20 266 22Q182 64 135 138Q88 212 88 304Q88 477 216.50 569Q345 661 581 661L731 661L731 731Q731 817 684 865.50Q637 914 545 914Q490 914 448 895Q406 876 383 843Q360 810 360 769L111 769Q111 856 166.50 932.50Q222 1009 324.50 1055.50Q427 1102 559 1102Q683 1102 778 1060Q873 1018 926.50 934Q980 850 980 729L980 252M504 179Q582 179 642.50 216Q703 253 731 305L731 507L601 507Q471 507 404 460Q337 413 337 328Q337 262 381 220.50Q425 179 504 179Z"  horiz-adv-x="1107" vert-adv-y="2048"  />

      
      <glyph glyph-name="unie1" unicode="&#xe1;" d="M88 0M980 252Q980 104 1021 17L1021 0L767 0Q751 35 739 101Q688 46 617 13Q546-20 456-20Q350-20 266 22Q182 64 135 138Q88 212 88 304Q88 477 216.50 569Q345 661 581 661L731 661L731 731Q731 817 684 865.50Q637 914 545 914Q490 914 448 895Q406 876 383 843Q360 810 360 769L111 769Q111 856 166.50 932.50Q222 1009 324.50 1055.50Q427 1102 559 1102Q683 1102 778 1060Q873 1018 926.50 934Q980 850 980 729L980 252M504 179Q582 179 642.50 216Q703 253 731 305L731 507L601 507Q471 507 404 460Q337 413 337 328Q337 262 381 220.50Q425 179 504 179M920 1536L643 1233L443 1233L638 1536L920 1536Z"  horiz-adv-x="1107" vert-adv-y="2048"  />

      
      <glyph glyph-name="unie2" unicode="&#xe2;" d="M88 0M980 252Q980 104 1021 17L1021 0L767 0Q751 35 739 101Q688 46 617 13Q546-20 456-20Q350-20 266 22Q182 64 135 138Q88 212 88 304Q88 477 216.50 569Q345 661 581 661L731 661L731 731Q731 817 684 865.50Q637 914 545 914Q490 914 448 895Q406 876 383 843Q360 810 360 769L111 769Q111 856 166.50 932.50Q222 1009 324.50 1055.50Q427 1102 559 1102Q683 1102 778 1060Q873 1018 926.50 934Q980 850 980 729L980 252M504 179Q582 179 642.50 216Q703 253 731 305L731 507L601 507Q471 507 404 460Q337 413 337 328Q337 262 381 220.50Q425 179 504 179M915 1248L716 1248L565 1403L415 1248L219 1248L219 1261L492 1537L638 1537L915 1259L915 1248Z"  horiz-adv-x="1107" vert-adv-y="2048"  />

      
      <glyph glyph-name="unie4" unicode="&#xe4;" d="M88 0M980 252Q980 104 1021 17L1021 0L767 0Q751 35 739 101Q688 46 617 13Q546-20 456-20Q350-20 266 22Q182 64 135 138Q88 212 88 304Q88 477 216.50 569Q345 661 581 661L731 661L731 731Q731 817 684 865.50Q637 914 545 914Q490 914 448 895Q406 876 383 843Q360 810 360 769L111 769Q111 856 166.50 932.50Q222 1009 324.50 1055.50Q427 1102 559 1102Q683 1102 778 1060Q873 1018 926.50 934Q980 850 980 729L980 252M504 179Q582 179 642.50 216Q703 253 731 305L731 507L601 507Q471 507 404 460Q337 413 337 328Q337 262 381 220.50Q425 179 504 179M336 1486Q393 1486 428.50 1451.50Q464 1417 464 1366Q464 1315 428.50 1281.50Q393 1248 336 1248Q278 1248 243 1281.50Q208 1315 208 1366Q208 1418 243 1452Q278 1486 336 1486M797 1485Q854 1485 889.50 1450.50Q925 1416 925 1365Q925 1314 889.50 1280Q854 1246 797 1246Q739 1246 704 1280Q669 1314 669 1365Q669 1417 704 1451Q739 1485 797 1485Z"  horiz-adv-x="1107" vert-adv-y="2048"  />

      
      <glyph glyph-name="unie0" unicode="&#xe0;" d="M88 0M980 252Q980 104 1021 17L1021 0L767 0Q751 35 739 101Q688 46 617 13Q546-20 456-20Q350-20 266 22Q182 64 135 138Q88 212 88 304Q88 477 216.50 569Q345 661 581 661L731 661L731 731Q731 817 684 865.50Q637 914 545 914Q490 914 448 895Q406 876 383 843Q360 810 360 769L111 769Q111 856 166.50 932.50Q222 1009 324.50 1055.50Q427 1102 559 1102Q683 1102 778 1060Q873 1018 926.50 934Q980 850 980 729L980 252M504 179Q582 179 642.50 216Q703 253 731 305L731 507L601 507Q471 507 404 460Q337 413 337 328Q337 262 381 220.50Q425 179 504 179M487 1233L216 1536L497 1536L693 1233L487 1233Z"  horiz-adv-x="1107" vert-adv-y="2048"  />

      
      <glyph glyph-name="unie5" unicode="&#xe5;" d="M88 0M980 252Q980 104 1021 17L1021 0L767 0Q751 35 739 101Q688 46 617 13Q546-20 456-20Q350-20 266 22Q182 64 135 138Q88 212 88 304Q88 477 216.50 569Q345 661 581 661L731 661L731 731Q731 817 684 865.50Q637 914 545 914Q490 914 448 895Q406 876 383 843Q360 810 360 769L111 769Q111 856 166.50 932.50Q222 1009 324.50 1055.50Q427 1102 559 1102Q683 1102 778 1060Q873 1018 926.50 934Q980 850 980 729L980 252M504 179Q582 179 642.50 216Q703 253 731 305L731 507L601 507Q471 507 404 460Q337 413 337 328Q337 262 381 220.50Q425 179 504 179M566 1629Q628 1629 679 1601Q730 1573 759 1525Q788 1477 788 1421Q788 1364 759 1317.50Q730 1271 679 1244Q628 1217 566 1217Q504 1217 453.50 1244Q403 1271 374 1317.50Q345 1364 345 1421Q345 1478 374 1525.50Q403 1573 453.50 1601Q504 1629 566 1629M566 1311Q615 1311 646.50 1343.50Q678 1376 678 1421Q678 1468 646.50 1501Q615 1534 566 1534Q518 1534 486.50 1501Q455 1468 455 1421Q455 1376 486.50 1343.50Q518 1311 566 1311Z"  horiz-adv-x="1107" vert-adv-y="2048"  />

      
      <glyph glyph-name="unie3" unicode="&#xe3;" d="M88 0M980 252Q980 104 1021 17L1021 0L767 0Q751 35 739 101Q688 46 617 13Q546-20 456-20Q350-20 266 22Q182 64 135 138Q88 212 88 304Q88 477 216.50 569Q345 661 581 661L731 661L731 731Q731 817 684 865.50Q637 914 545 914Q490 914 448 895Q406 876 383 843Q360 810 360 769L111 769Q111 856 166.50 932.50Q222 1009 324.50 1055.50Q427 1102 559 1102Q683 1102 778 1060Q873 1018 926.50 934Q980 850 980 729L980 252M504 179Q582 179 642.50 216Q703 253 731 305L731 507L601 507Q471 507 404 460Q337 413 337 328Q337 262 381 220.50Q425 179 504 179M933 1515Q933 1442 904 1383Q875 1324 823.50 1290.50Q772 1257 709 1257Q663 1257 632 1269Q601 1281 559 1305Q525 1326 499 1336Q473 1346 439 1346Q400 1346 374.50 1317.50Q349 1289 349 1244L197 1252Q197 1324 226 1384Q255 1444 306 1478.50Q357 1513 420 1513Q457 1513 487 1502Q517 1491 560 1468Q600 1446 628.50 1435Q657 1424 691 1424Q729 1424 755.50 1452.50Q782 1481 782 1527L933 1515Z"  horiz-adv-x="1107" vert-adv-y="2048"  />

      
      <glyph glyph-name="unie6" unicode="&#xe6;" d="M1670 469L978 469Q988 337 1060.50 258Q1133 179 1270 179Q1339 179 1393.50 192Q1448 205 1484 222Q1520 239 1574 269L1646 100Q1590 55 1488.50 17Q1387-21 1254-21Q1127-21 1028 20.50Q929 62 862 139Q802 70 698 24.50Q594-21 451-21Q330-21 244.50 20Q159 61 115 136.50Q71 212 71 313Q71 472 192.50 558Q314 644 546 644L733 644L733 712Q733 801 686.50 851.50Q640 902 554 902Q493 902 447 881.50Q401 861 376 826.50Q351 792 351 751L103 770Q103 865 159.50 941Q216 1017 319 1059.50Q422 1102 555 1102Q664 1102 749.50 1069.50Q835 1037 889 973Q951 1036 1035 1069.50Q1119 1103 1219 1102Q1361 1102 1462.50 1042.50Q1564 983 1617 872.50Q1670 762 1670 612L1670 469M1424 672Q1424 776 1374 839Q1324 902 1219 902Q1117 902 1057 831.50Q997 761 982 643L1424 643L1424 672M320 309Q320 245 365 206.50Q410 168 499 168Q559 168 624 197Q689 226 733 267L733 474L548 474Q476 474 424.50 451.50Q373 429 346.50 391.50Q320 354 320 309Z"  horiz-adv-x="1729" vert-adv-y="2048"  />

      
      <glyph glyph-name="uni62" unicode="&#x62;" d="M653 1102Q789 1102 884.50 1032.50Q980 963 1028 839Q1076 715 1076 551L1076 530Q1076 368 1027.50 244Q979 120 884 50Q789-20 655-20Q467-20 360 117L348 0L123 0L123 1536L372 1536L372 979Q476 1102 653 1102M827 551Q827 708 772.50 803.50Q718 899 590 899Q435 899 372 763L372 321Q436 183 592 183Q717 183 772 276.50Q827 370 827 530L827 551Z"  horiz-adv-x="1153" vert-adv-y="2048"  />

      
      <glyph glyph-name="uni63" unicode="&#x63;" d="M1014 360Q1011 256 951 169Q891 82 791 31Q691-20 572-20Q411-20 299.50 52Q188 124 133 247.50Q78 371 78 524L78 558Q78 711 133.50 834.50Q189 958 300 1030Q411 1102 571 1102Q700 1102 799.50 1050.50Q899 999 955 906Q1011 813 1014 693L779 693Q776 751 750 798.50Q724 846 677.50 874Q631 902 568 902Q435 902 381 805Q327 708 327 558L327 524Q327 180 569 180Q626 180 673 203Q720 226 748 267Q776 308 779 360L1014 360Z"  horiz-adv-x="1072" vert-adv-y="2048"  />

      
      <glyph glyph-name="unie7" unicode="&#xe7;" d="M569 180Q626 180 673 203Q720 226 748 267Q776 308 779 360L1014 360Q1011 266 961 185Q911 104 826 51Q741-2 637-16L629-57Q693-68 736-109.50Q779-151 779-230Q779-298 741.50-349Q704-400 629.50-428Q555-456 449-456L442-314Q503-314 539.50-292.50Q576-271 576-226Q576-183 542-165.50Q508-148 426-142L456-9Q332 15 247 91Q162 167 120 278.50Q78 390 78 524L78 558Q78 711 133.50 834.50Q189 958 300 1030Q411 1102 571 1102Q700 1102 799.50 1050.50Q899 999 955 906Q1011 813 1014 693L779 693Q776 751 750 798.50Q724 846 677.50 874Q631 902 568 902Q435 902 381 805Q327 708 327 558L327 524Q327 180 569 180Z"  horiz-adv-x="1072" vert-adv-y="2048"  />

      
      <glyph glyph-name="uni64" unicode="&#x64;" d="M1029 1536L1029 0L804 0L792 113Q684-20 503-20Q375-20 278.50 51Q182 122 130 247Q78 372 78 529L78 550Q78 714 129.50 839Q181 964 277.50 1033Q374 1102 505 1102Q675 1102 780 983L780 1536L1029 1536M566 184Q714 184 780 314L780 772Q715 899 568 899Q446 899 386.50 802Q327 705 327 550L327 529Q327 375 385.50 279.50Q444 184 566 184Z"  horiz-adv-x="1157" vert-adv-y="2048"  />

      
      <glyph glyph-name="unif0" unicode="&#xf0;" d="M837 1304Q959 1178 1025 1010Q1091 842 1091 643L1091 558Q1091 389 1026.50 257.50Q962 126 848.50 53Q735-20 593-20Q450-20 338 44.50Q226 109 163.50 221Q101 333 101 468Q101 618 157 732.50Q213 847 315 909.50Q417 972 552 972Q625 972 690.50 949Q756 926 809 884Q759 1050 636 1172L433 1038L355 1147L525 1260Q402 1339 239 1381L317 1580Q553 1532 732 1396L911 1514L988 1405L837 1304M842 645Q842 668 841 679Q811 723 752 751.50Q693 780 610 780Q485 780 417.50 697Q350 614 350 468Q350 392 379.50 326Q409 260 465 220Q521 180 597 180Q673 180 728.50 227Q784 274 813 356Q842 438 842 542L842 645Z"  horiz-adv-x="1190" vert-adv-y="2048"  />

      
      <glyph glyph-name="uni65" unicode="&#x65;" d="M1038 463L333 463Q340 380 376 316Q412 252 473.50 216Q535 180 617 180Q785 180 887 312L1020 183Q961 96 856 38Q751-20 602-20Q444-20 326 48.50Q208 117 145 236Q82 355 82 503L82 544Q82 711 146 837.50Q210 964 322 1033Q434 1102 574 1102Q727 1102 831 1035Q935 968 986.50 847.50Q1038 727 1038 568L1038 463M792 662Q787 767 735 834.50Q683 902 573 902Q475 902 415 834Q355 766 338 643L792 643L792 662Z"  horiz-adv-x="1100" vert-adv-y="2048"  />

      
      <glyph glyph-name="unie9" unicode="&#xe9;" d="M82 0M1038 463L333 463Q340 380 376 316Q412 252 473.50 216Q535 180 617 180Q785 180 887 312L1020 183Q961 96 856 38Q751-20 602-20Q444-20 326 48.50Q208 117 145 236Q82 355 82 503L82 544Q82 711 146 837.50Q210 964 322 1033Q434 1102 574 1102Q727 1102 831 1035Q935 968 986.50 847.50Q1038 727 1038 568L1038 463M792 662Q787 767 735 834.50Q683 902 573 902Q475 902 415 834Q355 766 338 643L792 643L792 662M909 1536L632 1233L432 1233L627 1536L909 1536Z"  horiz-adv-x="1100" vert-adv-y="2048"  />

      
      <glyph glyph-name="uniea" unicode="&#xea;" d="M82 0M1038 463L333 463Q340 380 376 316Q412 252 473.50 216Q535 180 617 180Q785 180 887 312L1020 183Q961 96 856 38Q751-20 602-20Q444-20 326 48.50Q208 117 145 236Q82 355 82 503L82 544Q82 711 146 837.50Q210 964 322 1033Q434 1102 574 1102Q727 1102 831 1035Q935 968 986.50 847.50Q1038 727 1038 568L1038 463M792 662Q787 767 735 834.50Q683 902 573 902Q475 902 415 834Q355 766 338 643L792 643L792 662M904 1248L705 1248L554 1403L404 1248L208 1248L208 1261L481 1537L627 1537L904 1259L904 1248Z"  horiz-adv-x="1100" vert-adv-y="2048"  />

      
      <glyph glyph-name="unieb" unicode="&#xeb;" d="M82 0M1038 463L333 463Q340 380 376 316Q412 252 473.50 216Q535 180 617 180Q785 180 887 312L1020 183Q961 96 856 38Q751-20 602-20Q444-20 326 48.50Q208 117 145 236Q82 355 82 503L82 544Q82 711 146 837.50Q210 964 322 1033Q434 1102 574 1102Q727 1102 831 1035Q935 968 986.50 847.50Q1038 727 1038 568L1038 463M792 662Q787 767 735 834.50Q683 902 573 902Q475 902 415 834Q355 766 338 643L792 643L792 662M325 1486Q382 1486 417.50 1451.50Q453 1417 453 1366Q453 1315 417.50 1281.50Q382 1248 325 1248Q267 1248 232 1281.50Q197 1315 197 1366Q197 1418 232 1452Q267 1486 325 1486M786 1485Q843 1485 878.50 1450.50Q914 1416 914 1365Q914 1314 878.50 1280Q843 1246 786 1246Q728 1246 693 1280Q658 1314 658 1365Q658 1417 693 1451Q728 1485 786 1485Z"  horiz-adv-x="1100" vert-adv-y="2048"  />

      
      <glyph glyph-name="unie8" unicode="&#xe8;" d="M82 0M1038 463L333 463Q340 380 376 316Q412 252 473.50 216Q535 180 617 180Q785 180 887 312L1020 183Q961 96 856 38Q751-20 602-20Q444-20 326 48.50Q208 117 145 236Q82 355 82 503L82 544Q82 711 146 837.50Q210 964 322 1033Q434 1102 574 1102Q727 1102 831 1035Q935 968 986.50 847.50Q1038 727 1038 568L1038 463M792 662Q787 767 735 834.50Q683 902 573 902Q475 902 415 834Q355 766 338 643L792 643L792 662M476 1233L205 1536L486 1536L682 1233L476 1233Z"  horiz-adv-x="1100" vert-adv-y="2048"  />

      
      <glyph glyph-name="uni66" unicode="&#x66;" d="M629 1353Q547 1353 502 1309Q457 1265 457 1184L457 1082L676 1082L676 898L457 898L457 0L208 0L208 898L43 898L43 1082L208 1082L208 1184Q208 1303 254 1387Q300 1471 386 1514Q472 1557 590 1557Q656 1557 728 1539L722 1344Q683 1353 629 1353Z"  horiz-adv-x="727" vert-adv-y="2048"  />

      
      <glyph glyph-name="uni67" unicode="&#x67;" d="M1040 1082L1040 31Q1040-113 978-216Q916-319 804-372.50Q692-426 545-426Q479-426 403-407.50Q327-389 256.50-349Q186-309 141-248L257-99Q314-165 384-197.50Q454-230 531-230Q653-230 722-163.50Q791-97 791 26L791 98Q686-20 513-20Q383-20 285 51Q187 122 133.50 247Q80 372 80 529L80 550Q80 714 133 839Q186 964 284.50 1033Q383 1102 515 1102Q701 1102 804 975L814 1082L1040 1082M576 184Q724 184 791 307L791 778Q724 899 578 899Q495 899 439 853Q383 807 356 728Q329 649 329 550L329 529Q329 376 391 280Q453 184 576 184Z"  horiz-adv-x="1162" vert-adv-y="2048"  />

      
      <glyph glyph-name="uni68" unicode="&#x68;" d="M667 1102Q1020 1102 1020 695L1020 0L771 0L771 697Q771 806 724.50 852.50Q678 899 582 899Q510 899 455.50 866Q401 833 368 774L368 0L119 0L119 1536L368 1536L368 964Q424 1030 500.50 1066Q577 1102 667 1102Z"  horiz-adv-x="1139" vert-adv-y="2048"  />

      
      <glyph glyph-name="uni69" unicode="&#x69;" d="M264 1496Q329 1496 367 1458.50Q405 1421 405 1363Q405 1306 367 1269Q329 1232 264 1232Q199 1232 161 1268.50Q123 1305 123 1363Q123 1421 161 1458.50Q199 1496 264 1496M139 0L139 1082L388 1082L388 0L139 0Z"  horiz-adv-x="526" vert-adv-y="2048"  />

      
      <glyph glyph-name="uni0131" unicode="&#x0131;" d="M143 0L143 1082L392 1082L392 0L143 0Z"  horiz-adv-x="542" vert-adv-y="2048"  />

      
      <glyph glyph-name="unied" unicode="&#xed;" d="M143 0M143 0L143 1082L392 1082L392 0L143 0M625 1528L348 1225L148 1225L343 1528L625 1528Z"  horiz-adv-x="542" vert-adv-y="2048"  />

      
      <glyph glyph-name="uniee" unicode="&#xee;" d="M0 0M143 0L143 1082L392 1082L392 0L143 0M620 1240L421 1240L270 1395L120 1240L-76 1240L-76 1253L197 1529L343 1529L620 1251L620 1240Z"  horiz-adv-x="542" vert-adv-y="2048"  />

      
      <glyph glyph-name="unief" unicode="&#xef;" d="M0 0M143 0L143 1082L392 1082L392 0L143 0M41 1478Q98 1478 133.50 1443.50Q169 1409 169 1358Q169 1307 133.50 1273.50Q98 1240 41 1240Q-17 1240-52 1273.50Q-87 1307-87 1358Q-87 1410-52 1444Q-17 1478 41 1478M502 1477Q559 1477 594.50 1442.50Q630 1408 630 1357Q630 1306 594.50 1272Q559 1238 502 1238Q444 1238 409 1272Q374 1306 374 1357Q374 1409 409 1443Q444 1477 502 1477Z"  horiz-adv-x="542" vert-adv-y="2048"  />

      
      <glyph glyph-name="uniec" unicode="&#xec;" d="M0 0M143 0L143 1082L392 1082L392 0L143 0M192 1225L-79 1528L202 1528L398 1225L192 1225Z"  horiz-adv-x="542" vert-adv-y="2048"  />

      
      <glyph glyph-name="uni6a" unicode="&#x6a;" d="M254 1496Q319 1496 357 1458.50Q395 1421 395 1363Q395 1306 357 1269Q319 1232 254 1232Q189 1232 151 1268.50Q113 1305 113 1363Q113 1421 151 1458.50Q189 1496 254 1496M383-91Q383-259 298.50-348Q214-437 53-437Q-16-437-78-420L-78-224Q-32-232 10-232Q72-232 103-198.50Q134-165 134-91L134 1082L383 1082L383-91Z"  horiz-adv-x="516" vert-adv-y="2048"  />

      
      <glyph glyph-name="uni6b" unicode="&#x6b;" d="M481 462L372 351L372 0L124 0L124 1536L372 1536L372 655L446 747L742 1082L1042 1082L641 632L1084 0L796 0L481 462Z"  horiz-adv-x="1072" vert-adv-y="2048"  />

      
      <glyph glyph-name="uni6c" unicode="&#x6c;" d="M139 0L139 1536L388 1536L388 0L139 0Z"  horiz-adv-x="526" vert-adv-y="2048"  />

      
      <glyph glyph-name="uni6d" unicode="&#x6d;" d="M1304 1102Q1476 1102 1567 1005.50Q1658 909 1658 700L1658 0L1409 0L1409 701Q1409 812 1361.50 855.50Q1314 899 1219 899Q1141 899 1088.50 857Q1036 815 1014 744L1015 721L1015 0L766 0L766 698Q766 807 717.50 853Q669 899 575 899Q432 899 372 782L372 0L123 0L123 1082L357 1082L365 968Q420 1033 498.50 1067.50Q577 1102 677 1102Q779 1102 855 1061.50Q931 1021 972 937Q1027 1015 1111 1058.50Q1195 1102 1304 1102Z"  horiz-adv-x="1781" vert-adv-y="2048"  />

      
      <glyph glyph-name="uni6e" unicode="&#x6e;" d="M676 1102Q841 1102 930.50 1006.50Q1020 911 1020 698L1020 0L771 0L771 700Q771 808 724.50 853.50Q678 899 582 899Q512 899 457 865Q402 831 369 770L369 0L120 0L120 1082L354 1082L362 957Q420 1027 500 1064.50Q580 1102 676 1102Z"  horiz-adv-x="1140" vert-adv-y="2048"  />

      
      <glyph glyph-name="unif1" unicode="&#xf1;" d="M120 0M676 1102Q841 1102 930.50 1006.50Q1020 911 1020 698L1020 0L771 0L771 700Q771 808 724.50 853.50Q678 899 582 899Q512 899 457 865Q402 831 369 770L369 0L120 0L120 1082L354 1082L362 957Q420 1027 500 1064.50Q580 1102 676 1102M942 1515Q942 1442 913 1383Q884 1324 832.50 1290.50Q781 1257 718 1257Q672 1257 641 1269Q610 1281 568 1305Q534 1326 508 1336Q482 1346 448 1346Q409 1346 383.50 1317.50Q358 1289 358 1244L206 1252Q206 1324 235 1384Q264 1444 315 1478.50Q366 1513 429 1513Q466 1513 496 1502Q526 1491 569 1468Q609 1446 637.50 1435Q666 1424 700 1424Q738 1424 764.50 1452.50Q791 1481 791 1527L942 1515Z"  horiz-adv-x="1140" vert-adv-y="2048"  />

      
      <glyph glyph-name="uni6f" unicode="&#x6f;" d="M78 551Q78 709 138.50 834Q199 959 313 1030.50Q427 1102 581 1102Q737 1102 851.50 1030.50Q966 959 1026.50 834Q1087 709 1087 551L1087 530Q1087 372 1026.50 247Q966 122 852 51Q738-20 583-20Q428-20 313.50 51Q199 122 138.50 247Q78 372 78 530L78 551M327 530Q327 376 391 278Q455 180 583 180Q668 180 725.50 226.50Q783 273 810.50 352Q838 431 838 530L838 551Q838 649 810.50 728.50Q783 808 725 855Q667 902 581 902Q496 902 439 855Q382 808 354.50 728.50Q327 649 327 551L327 530Z"  horiz-adv-x="1165" vert-adv-y="2048"  />

      
      <glyph glyph-name="unif3" unicode="&#xf3;" d="M78 0M78 551Q78 709 138.50 834Q199 959 313 1030.50Q427 1102 581 1102Q737 1102 851.50 1030.50Q966 959 1026.50 834Q1087 709 1087 551L1087 530Q1087 372 1026.50 247Q966 122 852 51Q738-20 583-20Q428-20 313.50 51Q199 122 138.50 247Q78 372 78 530L78 551M327 530Q327 376 391 278Q455 180 583 180Q668 180 725.50 226.50Q783 273 810.50 352Q838 431 838 530L838 551Q838 649 810.50 728.50Q783 808 725 855Q667 902 581 902Q496 902 439 855Q382 808 354.50 728.50Q327 649 327 551L327 530M931 1536L654 1233L454 1233L649 1536L931 1536Z"  horiz-adv-x="1165" vert-adv-y="2048"  />

      
      <glyph glyph-name="unif4" unicode="&#xf4;" d="M78 0M78 551Q78 709 138.50 834Q199 959 313 1030.50Q427 1102 581 1102Q737 1102 851.50 1030.50Q966 959 1026.50 834Q1087 709 1087 551L1087 530Q1087 372 1026.50 247Q966 122 852 51Q738-20 583-20Q428-20 313.50 51Q199 122 138.50 247Q78 372 78 530L78 551M327 530Q327 376 391 278Q455 180 583 180Q668 180 725.50 226.50Q783 273 810.50 352Q838 431 838 530L838 551Q838 649 810.50 728.50Q783 808 725 855Q667 902 581 902Q496 902 439 855Q382 808 354.50 728.50Q327 649 327 551L327 530M926 1248L727 1248L576 1403L426 1248L230 1248L230 1261L503 1537L649 1537L926 1259L926 1248Z"  horiz-adv-x="1165" vert-adv-y="2048"  />

      
      <glyph glyph-name="unif6" unicode="&#xf6;" d="M78 0M78 551Q78 709 138.50 834Q199 959 313 1030.50Q427 1102 581 1102Q737 1102 851.50 1030.50Q966 959 1026.50 834Q1087 709 1087 551L1087 530Q1087 372 1026.50 247Q966 122 852 51Q738-20 583-20Q428-20 313.50 51Q199 122 138.50 247Q78 372 78 530L78 551M327 530Q327 376 391 278Q455 180 583 180Q668 180 725.50 226.50Q783 273 810.50 352Q838 431 838 530L838 551Q838 649 810.50 728.50Q783 808 725 855Q667 902 581 902Q496 902 439 855Q382 808 354.50 728.50Q327 649 327 551L327 530M347 1486Q404 1486 439.50 1451.50Q475 1417 475 1366Q475 1315 439.50 1281.50Q404 1248 347 1248Q289 1248 254 1281.50Q219 1315 219 1366Q219 1418 254 1452Q289 1486 347 1486M808 1485Q865 1485 900.50 1450.50Q936 1416 936 1365Q936 1314 900.50 1280Q865 1246 808 1246Q750 1246 715 1280Q680 1314 680 1365Q680 1417 715 1451Q750 1485 808 1485Z"  horiz-adv-x="1165" vert-adv-y="2048"  />

      
      <glyph glyph-name="unif2" unicode="&#xf2;" d="M78 0M78 551Q78 709 138.50 834Q199 959 313 1030.50Q427 1102 581 1102Q737 1102 851.50 1030.50Q966 959 1026.50 834Q1087 709 1087 551L1087 530Q1087 372 1026.50 247Q966 122 852 51Q738-20 583-20Q428-20 313.50 51Q199 122 138.50 247Q78 372 78 530L78 551M327 530Q327 376 391 278Q455 180 583 180Q668 180 725.50 226.50Q783 273 810.50 352Q838 431 838 530L838 551Q838 649 810.50 728.50Q783 808 725 855Q667 902 581 902Q496 902 439 855Q382 808 354.50 728.50Q327 649 327 551L327 530M498 1233L227 1536L508 1536L704 1233L498 1233Z"  horiz-adv-x="1165" vert-adv-y="2048"  />

      
      <glyph glyph-name="unif8" unicode="&#xf8;" d="M890 1004Q985 932 1036 814Q1087 696 1087 551L1087 530Q1087 372 1026.50 247Q966 122 852 51Q738-20 583-20Q485-20 401 9L329-138L182-138L284 70Q185 142 131.50 262Q78 382 78 530L78 551Q78 709 138.50 834Q199 959 313 1030.50Q427 1102 581 1102Q686 1102 774 1068L845 1212L992 1212L890 1004M327 530Q327 374 388 282L682 881Q639 902 581 902Q496 902 439 855Q382 808 354.50 728.50Q327 649 327 551L327 530M838 551Q838 619 824 680Q810 741 783 787L493 196Q535 180 583 180Q668 180 725.50 226.50Q783 273 810.50 352Q838 431 838 530L838 551Z"  horiz-adv-x="1160" vert-adv-y="2048"  />

      
      <glyph glyph-name="unif5" unicode="&#xf5;" d="M78 0M78 551Q78 709 138.50 834Q199 959 313 1030.50Q427 1102 581 1102Q737 1102 851.50 1030.50Q966 959 1026.50 834Q1087 709 1087 551L1087 530Q1087 372 1026.50 247Q966 122 852 51Q738-20 583-20Q428-20 313.50 51Q199 122 138.50 247Q78 372 78 530L78 551M327 530Q327 376 391 278Q455 180 583 180Q668 180 725.50 226.50Q783 273 810.50 352Q838 431 838 530L838 551Q838 649 810.50 728.50Q783 808 725 855Q667 902 581 902Q496 902 439 855Q382 808 354.50 728.50Q327 649 327 551L327 530M944 1515Q944 1442 915 1383Q886 1324 834.50 1290.50Q783 1257 720 1257Q674 1257 643 1269Q612 1281 570 1305Q536 1326 510 1336Q484 1346 450 1346Q411 1346 385.50 1317.50Q360 1289 360 1244L208 1252Q208 1324 237 1384Q266 1444 317 1478.50Q368 1513 431 1513Q468 1513 498 1502Q528 1491 571 1468Q611 1446 639.50 1435Q668 1424 702 1424Q740 1424 766.50 1452.50Q793 1481 793 1527L944 1515Z"  horiz-adv-x="1165" vert-adv-y="2048"  />

      
      <glyph glyph-name="uni0153" unicode="&#x0153;" d="M1778 469L1099 469Q1110 340 1179.50 259.50Q1249 179 1370 179Q1468 179 1537 202.50Q1606 226 1672 270L1751 108Q1689 53 1587.50 16Q1486-21 1353-21Q1231-21 1133 24Q1035 69 968 150Q903 68 807 23.50Q711-21 589-21Q434-21 321 50.50Q208 122 149 247Q90 372 90 530L90 551Q90 709 149 834Q208 959 320.50 1030.50Q433 1102 587 1102Q710 1102 807 1057Q904 1012 969 930Q1034 1012 1125.50 1057.50Q1217 1103 1325 1102Q1472 1102 1573.50 1041.50Q1675 981 1726.50 871Q1778 761 1778 614L1778 469M838 551Q838 705 776 803.50Q714 902 587 902Q462 902 400.50 803.50Q339 705 339 551L339 530Q339 374 400 276.50Q461 179 589 179Q715 179 776.50 277Q838 375 838 530L838 551M1532 674Q1532 776 1480.50 839Q1429 902 1325 902Q1237 902 1179.50 832Q1122 762 1104 649L1532 649L1532 674Z"  horiz-adv-x="1850" vert-adv-y="2048"  />

      
      <glyph glyph-name="uni70" unicode="&#x70;" d="M651 1102Q786 1102 881.50 1034Q977 966 1026 842Q1075 718 1075 552L1075 531Q1075 372 1025.50 247Q976 122 881 51Q786-20 654-20Q480-20 372 97L372-416L123-416L123 1082L352 1082L362 973Q471 1102 651 1102M826 552Q826 706 765.50 802.50Q705 899 582 899Q436 899 372 778L372 303Q437 180 584 180Q706 180 766 278Q826 376 826 531L826 552Z"  horiz-adv-x="1153" vert-adv-y="2048"  />

      
      <glyph glyph-name="unife" unicode="&#xfe;" d="M657 1102Q792 1102 887 1034Q982 966 1031 841.50Q1080 717 1080 552L1080 531Q1080 372 1030.50 247Q981 122 886.50 51Q792-20 660-20Q485-20 378 96L378-416L129-416L129 1536L378 1536L378 985Q484 1102 657 1102M831 552Q831 706 771 802.50Q711 899 588 899Q441 899 378 778L378 303Q443 180 590 180Q712 180 771.50 278Q831 376 831 531L831 552Z"  horiz-adv-x="1173" vert-adv-y="2048"  />

      
      <glyph glyph-name="uni71" unicode="&#x71;" d="M1029 1082L1029-416L780-416L780 93Q673-20 505-20Q373-20 276.50 51Q180 122 129 247Q78 372 78 530L78 551Q78 716 128.50 840.50Q179 965 276 1033.50Q373 1102 507 1102Q686 1102 793 975L807 1082L1029 1082M569 180Q712 180 780 301L780 786Q748 841 696 871.50Q644 902 571 902Q448 902 387.50 804Q327 706 327 551L327 530Q327 376 387 278Q447 180 569 180Z"  horiz-adv-x="1163" vert-adv-y="2048"  />

      
      <glyph glyph-name="uni72" unicode="&#x72;" d="M610 1102Q631 1102 657.50 1098Q684 1094 697 1089L695 854Q645 862 596 862Q429 862 372 737L372 0L123 0L123 1082L360 1082L367 960Q408 1028 469 1065Q530 1102 610 1102Z"  horiz-adv-x="724" vert-adv-y="2048"  />

      
      <glyph glyph-name="uni73" unicode="&#x73;" d="M497 452Q311 491 210 567Q109 643 109 773Q109 862 160.50 937.50Q212 1013 307.50 1057.50Q403 1102 528 1102Q661 1102 759.50 1057Q858 1012 911 933.50Q964 855 964 757L715 757Q715 800 693.50 836.50Q672 873 630 895Q588 917 528 917Q443 917 397 879Q351 841 351 784Q351 748 370.50 723Q390 698 438 678Q486 658 571 640Q703 612 790 572Q877 532 924 468Q971 404 971 308Q971 213 916.50 138Q862 63 762 21.50Q662-20 531-20Q389-20 285 32Q181 84 127 167Q73 250 73 342L314 342Q318 251 381.50 208Q445 165 535 165Q626 165 676.50 200.50Q727 236 727 295Q727 333 709 360Q691 387 640.50 410Q590 433 497 452Z"  horiz-adv-x="1057" vert-adv-y="2048"  />

      
      <glyph glyph-name="unidf" unicode="&#xdf;" d="M136 0L136 1105Q136 1252 190 1353.50Q244 1455 343.50 1506.50Q443 1558 577 1558Q694 1558 785.50 1518Q877 1478 929 1397.50Q981 1317 981 1200Q981 1148 971.50 1108Q962 1068 949.50 1041Q937 1014 915 977Q889 934 876.50 901.50Q864 869 864 825Q864 793 881 763.50Q898 734 924 708.50Q950 683 996 644Q1056 593 1094 553Q1132 513 1159 459Q1186 405 1186 339Q1186 165 1075.50 72.50Q965-20 767-20Q688-20 603.50-1.50Q519 17 479 43L529 243Q569 219 629.50 199.50Q690 180 754 180Q846 180 891.50 220.50Q937 261 937 331Q937 367 919.50 398.50Q902 430 875 455.50Q848 481 802 519Q741 569 704.50 606.50Q668 644 642 697.50Q616 751 616 819Q616 877 632 917Q648 957 680 1011Q710 1060 725 1097Q740 1134 740 1184Q740 1266 693 1312Q646 1358 570 1358Q384 1358 384 1103L384 0L136 0Z"  horiz-adv-x="1260" vert-adv-y="2048"  />

      
      <glyph glyph-name="uni017F" unicode="&#x017F;" d="M136 1184Q136 1363 235 1460Q334 1557 510 1557Q574 1557 663 1536L639 1346Q591 1357 546 1357Q468 1357 426.50 1311.50Q385 1266 385 1184L385 0L136 0L136 1184Z"  horiz-adv-x="526" vert-adv-y="2048"  />

      
      <glyph glyph-name="uni74" unicode="&#x74;" d="M545 186Q585 186 630 196L630 4Q558-20 468-20Q336-20 260 53Q184 126 184 286L184 898L8 898L8 1082L184 1082L184 1346L433 1346L433 1082L623 1082L623 898L433 898L433 303Q433 235 461 210.50Q489 186 545 186Z"  horiz-adv-x="683" vert-adv-y="2048"  />

      
      <glyph glyph-name="uni75" unicode="&#x75;" d="M1019 1082L1019 0L784 0L778 107Q672-20 475-20Q307-20 212 78Q117 176 117 383L117 1082L366 1082L366 381Q366 275 412.50 229.50Q459 184 535 184Q708 184 769 307L769 1082L1019 1082Z"  horiz-adv-x="1139" vert-adv-y="2048"  />

      
      <glyph glyph-name="unifa" unicode="&#xfa;" d="M117 0M1019 1082L1019 0L784 0L778 107Q672-20 475-20Q307-20 212 78Q117 176 117 383L117 1082L366 1082L366 381Q366 275 412.50 229.50Q459 184 535 184Q708 184 769 307L769 1082L1019 1082M925 1536L648 1233L448 1233L643 1536L925 1536Z"  horiz-adv-x="1139" vert-adv-y="2048"  />

      
      <glyph glyph-name="unifb" unicode="&#xfb;" d="M117 0M1019 1082L1019 0L784 0L778 107Q672-20 475-20Q307-20 212 78Q117 176 117 383L117 1082L366 1082L366 381Q366 275 412.50 229.50Q459 184 535 184Q708 184 769 307L769 1082L1019 1082M919 1248L720 1248L569 1403L419 1248L223 1248L223 1261L496 1537L642 1537L919 1259L919 1248Z"  horiz-adv-x="1139" vert-adv-y="2048"  />

      
      <glyph glyph-name="unifc" unicode="&#xfc;" d="M117 0M1019 1082L1019 0L784 0L778 107Q672-20 475-20Q307-20 212 78Q117 176 117 383L117 1082L366 1082L366 381Q366 275 412.50 229.50Q459 184 535 184Q708 184 769 307L769 1082L1019 1082M340 1486Q397 1486 432.50 1451.50Q468 1417 468 1366Q468 1315 432.50 1281.50Q397 1248 340 1248Q282 1248 247 1281.50Q212 1315 212 1366Q212 1418 247 1452Q282 1486 340 1486M801 1485Q858 1485 893.50 1450.50Q929 1416 929 1365Q929 1314 893.50 1280Q858 1246 801 1246Q743 1246 708 1280Q673 1314 673 1365Q673 1417 708 1451Q743 1485 801 1485Z"  horiz-adv-x="1139" vert-adv-y="2048"  />

      
      <glyph glyph-name="unif9" unicode="&#xf9;" d="M117 0M1019 1082L1019 0L784 0L778 107Q672-20 475-20Q307-20 212 78Q117 176 117 383L117 1082L366 1082L366 381Q366 275 412.50 229.50Q459 184 535 184Q708 184 769 307L769 1082L1019 1082M492 1233L221 1536L502 1536L698 1233L492 1233Z"  horiz-adv-x="1139" vert-adv-y="2048"  />

      
      <glyph glyph-name="uni76" unicode="&#x76;" d="M991 1082L617 0L457 0L398 0L22 1082L280 1082L509 315L733 1082L991 1082Z"  horiz-adv-x="1017" vert-adv-y="2048"  />

      
      <glyph glyph-name="uni77" unicode="&#x77;" d="M1483 1082L1190 0L1032 0L985 0L756 734L531 0L390 0L326 0L33 1082L275 1082L446 351L665 1082L824 1082L851 1082L1072 342L1241 1082L1483 1082Z"  horiz-adv-x="1520" vert-adv-y="2048"  />

      
      <glyph glyph-name="uni78" unicode="&#x78;" d="M718 1082L992 1082L665 550L1004 0L730 0L517 366L305 0L30 0L369 550L42 1082L316 1082L515 731L718 1082Z"  horiz-adv-x="1032" vert-adv-y="2048"  />

      
      <glyph glyph-name="uni79" unicode="&#x79;" d="M988 1082L557-164Q516-276 439.50-356.50Q363-437 221-437Q172-437 102-419L102-228L148-230Q237-230 283.50-198.50Q330-167 357-88L391 4L11 1082L280 1082L505 356L723 1082L988 1082Z"  horiz-adv-x="1001" vert-adv-y="2048"  />

      
      <glyph glyph-name="unifd" unicode="&#xfd;" d="M11 0M988 1082L557-164Q516-276 439.50-356.50Q363-437 221-437Q172-437 102-419L102-228L148-230Q237-230 283.50-198.50Q330-167 357-88L391 4L11 1082L280 1082L505 356L723 1082L988 1082M870 1536L593 1233L393 1233L588 1536L870 1536Z"  horiz-adv-x="1001" vert-adv-y="2048"  />

      
      <glyph glyph-name="uniff" unicode="&#xff;" d="M11 0M988 1082L557-164Q516-276 439.50-356.50Q363-437 221-437Q172-437 102-419L102-228L148-230Q237-230 283.50-198.50Q330-167 357-88L391 4L11 1082L280 1082L505 356L723 1082L988 1082M285 1486Q342 1486 377.50 1451.50Q413 1417 413 1366Q413 1315 377.50 1281.50Q342 1248 285 1248Q227 1248 192 1281.50Q157 1315 157 1366Q157 1418 192 1452Q227 1486 285 1486M746 1485Q803 1485 838.50 1450.50Q874 1416 874 1365Q874 1314 838.50 1280Q803 1246 746 1246Q688 1246 653 1280Q618 1314 618 1365Q618 1417 653 1451Q688 1485 746 1485Z"  horiz-adv-x="1001" vert-adv-y="2048"  />

      
      <glyph glyph-name="uni7a" unicode="&#x7a;" d="M962 200L962 0L159 0L81 0L81 162L625 881L92 881L92 1082L845 1082L941 1082L941 926L393 200L962 200Z"  horiz-adv-x="1032" vert-adv-y="2048"  />

      
      <glyph glyph-name="uniFB01" unicode="&#xFB01;" d="M438 1082L651 1082L651 898L438 898L438 0L189 0L189 898L24 898L24 1082L189 1082L189 1148Q189 1345 305.50 1451Q422 1557 631 1557Q704 1557 775 1542Q846 1527 940 1497L901 1292Q838 1313 778 1326Q718 1339 648 1339Q540 1339 489 1291.50Q438 1244 438 1148L438 1082M1057 1082L1057 0L808 0L808 1082L1057 1082Z"  horiz-adv-x="1199" vert-adv-y="2048"  />

      
      <glyph glyph-name="uniaa" unicode="&#xaa;" d="M608 706Q597 740 591 774Q557 737 507 714.50Q457 692 390 692Q272 692 206.50 753.50Q141 815 141 920Q141 1032 226.50 1091.50Q312 1151 482 1151L584 1151L584 1202Q584 1264 555 1296.50Q526 1329 468 1329Q403 1329 366.50 1303.50Q330 1278 330 1230L157 1244Q157 1311 195.50 1364Q234 1417 305 1447Q376 1477 468 1477Q603 1477 681 1406Q759 1335 759 1201L759 887Q759 785 785 706L608 706M316 924Q316 882 345 859Q374 836 433 836Q472 836 514 853.50Q556 871 584 897L584 1034L483 1034Q401 1034 358.50 1002.50Q316 971 316 924Z"  horiz-adv-x="913" vert-adv-y="2048"  />

      
      <glyph glyph-name="uniba" unicode="&#xba;" d="M119 1122Q119 1225 161.50 1305.50Q204 1386 282.50 1431.50Q361 1477 465 1477Q571 1477 649.50 1432Q728 1387 770 1306Q812 1225 812 1122L812 1045Q812 942 770 861.50Q728 781 650 736Q572 691 467 691Q362 691 283 736Q204 781 161.50 861.50Q119 942 119 1045L119 1122M294 1045Q294 952 338 894.50Q382 837 467 837Q550 837 593.50 894.50Q637 952 637 1045L637 1122Q637 1214 593 1271.50Q549 1329 465 1329Q382 1329 338 1271.50Q294 1214 294 1122L294 1045Z"  horiz-adv-x="936" vert-adv-y="2048"  />

      
      <glyph glyph-name="uni03B1" unicode="&#x03B1;" d="M1146 9Q1116-9 1087-15Q1058-21 1019-21Q855-21 800 143Q697-21 506-21Q374-21 279 46Q184 113 134.50 232.50Q85 352 85 507L85 528Q85 697 134.50 827Q184 957 279 1029.50Q374 1102 508 1102Q688 1102 790 951L809 1082L1023 1082L1023 327Q1023 250 1042 219.50Q1061 189 1096 189Q1107 189 1122 194L1146 9M569 179Q708 179 774 310L774 767Q707 902 571 902Q449 902 391.50 798Q334 694 334 528L334 507Q334 358 390.50 268.50Q447 179 569 179Z"  horiz-adv-x="1157" vert-adv-y="2048"  />

      
      <glyph glyph-name="uni05F0" unicode="&#x05F0;" d="M88 0M842 990L722 990L722 1189L1096 1189L1096 0L842 0L842 990M208 990L88 990L88 1189L462 1189L462 0L208 0L208 990Z"  horiz-adv-x="1268" vert-adv-y="2048"  />

      
      <glyph glyph-name="uni05F1" unicode="&#x05F1;" d="M88 0M888 990L687 990L687 1189L1142 1189L1142 518L888 518L888 990M208 990L88 990L88 1189L462 1189L462 0L208 0L208 990Z"  horiz-adv-x="1298" vert-adv-y="2048"  />

      
      <glyph glyph-name="uni05F2" unicode="&#x05F2;" d="M53 518M917 990L716 990L716 1189L1171 1189L1171 518L917 518L917 990M254 990L53 990L53 1189L508 1189L508 518L254 518L254 990Z"  horiz-adv-x="1327" vert-adv-y="2048"  />

      
      <glyph glyph-name="uniFB4F" unicode="&#xFB4F;" d="M774 501L1125 0L843 0L73 1095L73 1482L327 1482L327 1139L619 722L864 1189L1148 1189L774 501Z"  horiz-adv-x="1233" vert-adv-y="2048"  />

      
      <glyph glyph-name="uni05D0" unicode="&#x05D0;" d="M894 510L1255 0L972 0L488 684Q454 655 437.50 613Q421 571 421 514L421 0L176 0L176 411Q176 571 227.50 670Q279 769 390 822L130 1189L414 1189L738 730L979 1189L1264 1189L894 510Z"  horiz-adv-x="1349" vert-adv-y="2048"  />

      
      <glyph glyph-name="uni05D1" unicode="&#x05D1;" d="M1058 191L1058 0L56 0L56 200L664 200L664 758Q664 878 606.50 934Q549 990 426 990L121 990L121 1189L442 1189Q672 1189 794.50 1075.50Q917 962 917 748L917 209L1058 191Z"  horiz-adv-x="1098" vert-adv-y="2048"  />

      
      <glyph glyph-name="uni05D2" unicode="&#x05D2;" d="M79-11Q41-11 16-6L16 224Q50 218 94 218Q220 221 301.50 286.50Q383 352 416 465L416 990L151 990L151 1189L665 1189L665 582Q665 488 684 395L766 0L530 0L460 315L454 315Q440 226 387.50 151.50Q335 77 254.50 33Q174-11 79-11Z"  horiz-adv-x="851" vert-adv-y="2048"  />

      
      <glyph glyph-name="uni05D3" unicode="&#x05D3;" d="M1050 1189L1050 990L846 990L846 0L592 0L592 990L60 990L60 1189L1050 1189Z"  horiz-adv-x="1116" vert-adv-y="2048"  />

      
      <glyph glyph-name="uni05D4" unicode="&#x05D4;" d="M847 758Q847 878 789 934Q731 990 608 990L146 990L146 1189L625 1189Q855 1189 977.50 1075.50Q1100 962 1100 748L1100 0L847 0L847 758M144 407Q144 506 161.50 561Q179 616 207 661L411 661Q389 573 389 430L389 0L144 0L144 407Z"  horiz-adv-x="1242" vert-adv-y="2048"  />

      
      <glyph glyph-name="uni05D5" unicode="&#x05D5;" d="M208 990L88 990L88 1189L462 1189L462 0L208 0L208 990Z"  horiz-adv-x="634" vert-adv-y="2048"  />

      
      <glyph glyph-name="uni05D6" unicode="&#x05D6;" d="M147 981L71 997L71 1189L693 1189L692 990L396 990L553 0L292 0L147 981Z"  horiz-adv-x="762" vert-adv-y="2048"  />

      
      <glyph glyph-name="uni05D7" unicode="&#x05D7;" d="M173 1189L658 1189Q1127 1189 1130 737L1130 0L877 0L876 755Q876 876 823.50 933Q771 990 659 990L426 990L426 0L172 0L173 1189Z"  horiz-adv-x="1272" vert-adv-y="2048"  />

      
      <glyph glyph-name="uni05D8" unicode="&#x05D8;" d="M670-23Q523-23 410 39Q297 101 234.50 213.50Q172 326 172 473L172 1189L426 1189L426 448Q426 367 456.50 304.50Q487 242 542 208Q597 174 669 174Q742 174 797.50 208Q853 242 883.50 304.50Q914 367 914 448L914 816Q914 902 875.50 948Q837 994 765 994Q710 994 640 967L611 1132Q662 1163 726.50 1182Q791 1201 848 1201Q946 1201 1018 1157Q1090 1113 1128.50 1031Q1167 949 1167 837L1167 473Q1167 326 1105 213.50Q1043 101 930.50 39Q818-23 670-23Z"  horiz-adv-x="1288" vert-adv-y="2048"  />

      
      <glyph glyph-name="uni05D9" unicode="&#x05D9;" d="M254 990L53 990L53 1189L508 1189L508 518L254 518L254 990Z"  horiz-adv-x="664" vert-adv-y="2048"  />

      
      <glyph glyph-name="uni05DA" unicode="&#x05DA;" d="M622 990L67 990L67 1189L872 1189L872-416L622-416L622 990Z"  horiz-adv-x="1044" vert-adv-y="2048"  />

      
      <glyph glyph-name="uni05DB" unicode="&#x05DB;" d="M414-18Q261-18 71 31L111 218Q266 180 385 180Q539 182 615.50 253.50Q692 325 692 463L692 990L116 990L116 1189L946 1189L946 511Q946 243 805.50 112.50Q665-18 414-18Z"  horiz-adv-x="1118" vert-adv-y="2048"  />

      
      <glyph glyph-name="uni05DC" unicode="&#x05DC;" d="M1013 1028L600 0L330 0L739 990L73 990L73 1536L327 1536L327 1189L1013 1189L1013 1028Z"  horiz-adv-x="1084" vert-adv-y="2048"  />

      
      <glyph glyph-name="uni05DD" unicode="&#x05DD;" d="M172 1189L1156 1189L1156 0L172 0L172 1189M902 200L902 990L426 990L426 200L902 200Z"  horiz-adv-x="1328" vert-adv-y="2048"  />

      
      <glyph glyph-name="uni05DE" unicode="&#x05DE;" d="M246 710Q256 791 289.50 863.50Q323 936 368 977Q375 984 385 990L383 994Q342 987 281 970.50Q220 954 174 937L118 1123Q234 1165 384 1190.50Q534 1216 664 1216Q921 1216 1055.50 1082.50Q1190 949 1191 690L1191 0L685 0L685 199L937 199L937 722Q937 860 878 933.50Q819 1007 709 1007Q619 1007 563 937Q507 867 493 740L414 0L163 0L246 710Z"  horiz-adv-x="1333" vert-adv-y="2048"  />

      
      <glyph glyph-name="uni05DF" unicode="&#x05DF;" d="M202 990L79 990L79 1189L452 1189L452-416L202-416L202 990Z"  horiz-adv-x="624" vert-adv-y="2048"  />

      
      <glyph glyph-name="uni05E0" unicode="&#x05E0;" d="M271-20Q217-20 168.50-14Q120-8 60 5L63 198Q131 187 209 187Q284 187 321 229Q358 271 358 359L358 990L138 990L138 1189L611 1189L611 339Q611 167 522 73.50Q433-20 271-20Z"  horiz-adv-x="783" vert-adv-y="2048"  />

      
      <glyph glyph-name="uni05E1" unicode="&#x05E1;" d="M675-23Q523-23 406 46Q289 115 223.50 240Q158 365 156 529L156 624Q155 690 174 760Q193 830 225.50 888.50Q258 947 296 979Q303 985 310 990L308 994Q277 989 225 976.50Q173 964 129 951L80 1138Q199 1173 353 1194.50Q507 1216 639 1216Q814 1216 939 1151Q1064 1086 1129.50 960.50Q1195 835 1195 658L1195 529Q1195 365 1130 240Q1065 115 947 46Q829-23 675-23M675 188Q754 188 814.50 230.50Q875 273 908.50 350Q942 427 942 528L942 654Q942 821 870 914Q798 1007 669 1007Q549 1007 480 910.50Q411 814 409 640L409 528Q409 427 442.50 350Q476 273 536 230.50Q596 188 675 188Z"  horiz-adv-x="1319" vert-adv-y="2048"  />

      
      <glyph glyph-name="uni05E2" unicode="&#x05E2;" d="M1065 1189L1065 493Q1065 326 995.50 209.50Q926 93 800.50 33Q675-27 509-27Q288-27 60 58L116 245Q279 183 410 169Q374 205 347 252Q320 299 308 353L118 1189L373 1189L556 332Q576 240 607 183Q705 214 758.50 289.50Q812 365 812 482L812 1189L1065 1189Z"  horiz-adv-x="1237" vert-adv-y="2048"  />

      
      <glyph glyph-name="uni05E3" unicode="&#x05E3;" d="M1082-416L831-416L831 990L489 990Q463 934 448.50 861Q434 788 434 717L434 597Q476 584 562 584L562 395Q521 391 474 391Q387 391 317.50 408Q248 425 188 460L186 638Q184 737 207.50 833Q231 929 271 990L136 990L136 1189L1082 1189L1082-416Z"  horiz-adv-x="1254" vert-adv-y="2048"  />

      
      <glyph glyph-name="uni05E4" unicode="&#x05E4;" d="M607-23Q510-23 396.50-4.50Q283 14 185 48L232 235Q325 208 419.50 194Q514 180 586 180Q739 182 819.50 253.50Q900 325 900 463L900 990L489 990Q463 934 448.50 864.50Q434 795 434 725L434 651Q476 638 562 638L562 449Q521 445 474 445Q387 445 317.50 462Q248 479 188 514L186 646Q186 745 208.50 837Q231 929 271 990L136 990L136 1189L1154 1189L1154 504Q1154 327 1083.50 209Q1013 91 890 34Q767-23 607-23Z"  horiz-adv-x="1326" vert-adv-y="2048"  />

      
      <glyph glyph-name="uni05E5" unicode="&#x05E5;" d="M760 517Q794 468 809 415.50Q824 363 824 297L824-416L584-416L584 323Q584 391 546 448L43 1189L327 1189L602 752L823 1189L1108 1189L750 531L760 517Z"  horiz-adv-x="1144" vert-adv-y="2048"  />

      
      <glyph glyph-name="uni05E6" unicode="&#x05E6;" d="M753 536L1041 119L1041 0L129 0L129 200L715 200L43 1189L327 1189L604 757L823 1189L1108 1189L753 536Z"  horiz-adv-x="1166" vert-adv-y="2048"  />

      
      <glyph glyph-name="uni05E7" unicode="&#x05E7;" d="M589 195Q726 200 804.50 280.50Q883 361 883 507L883 990L172 990L172 1189L1137 1189L1137 512Q1137 355 1070.50 241Q1004 127 880.50 66Q757 5 589 0L589 195M188 430Q188 528 205.50 582.50Q223 637 250 683L455 683Q433 601 433 453L433-416L188-416L188 430Z"  horiz-adv-x="1309" vert-adv-y="2048"  />

      
      <glyph glyph-name="uni05E8" unicode="&#x05E8;" d="M617 806Q617 893 567 941.50Q517 990 426 990L48 990L48 1189L440 1189Q574 1189 671 1141.50Q768 1094 819.50 1004.50Q871 915 871 791L871 0L617 0L617 806Z"  horiz-adv-x="1013" vert-adv-y="2048"  />

      
      <glyph glyph-name="uni05E9" unicode="&#x05E9;" d="M417 251Q508 212 610 190Q712 168 802 168Q945 168 1054.50 208.50Q1164 249 1226 332.50Q1288 416 1288 542L1288 1189L1533 1189L1533 515Q1533 337 1437 213.50Q1341 90 1178 28.50Q1015-33 813-33Q656-33 489 4.50Q322 42 172 114L172 1189L417 1189L417 251M668 356Q695 394 710 463.50Q725 533 725 620L725 1189L971 1189L971 670Q971 568 946.50 485.50Q922 403 876 352L668 356Z"  horiz-adv-x="1705" vert-adv-y="2048"  />

      
      <glyph glyph-name="uni05EA" unicode="&#x05EA;" d="M689 1189Q924 1189 1042.50 1076Q1161 963 1161 737L1161 0L908 0L907 755Q907 877 855 933.50Q803 990 691 990L530 990Q507 935 493 860Q479 785 479 713L479 344Q479 171 392 78.50Q305-14 145-14Q84-14 10-3L10 196Q45 193 77 193Q156 193 194 234Q232 275 232 362L232 691Q232 769 253 852.50Q274 936 311 990L108 990L108 1189L689 1189Z"  horiz-adv-x="1303" vert-adv-y="2048"  />

      
      <glyph glyph-name="uniFB1F" unicode="&#xFB1F;" d="M53 0M917 990L716 990L716 1189L1171 1189L1171 518L917 518L917 990M254 990L53 990L53 1189L508 1189L508 518L254 518L254 990M162-188L605-188L605-303L162-303L162-188Z"  horiz-adv-x="1327" vert-adv-y="2048"  />

      
      <glyph glyph-name="uniFB20" unicode="&#xFB20;" d="M1097 1189L1064 488Q1056 320 987 201.50Q918 83 796 22Q674-39 509-39Q306-39 60 53L116 240Q294 170 436 161Q397 197 367.50 246Q338 295 325 353L135 1189L390 1189L573 332Q594 238 624 184Q710 217 758.50 290.50Q807 364 812 476L844 1189L1097 1189Z"  horiz-adv-x="1269" vert-adv-y="2048"  />

      
      <glyph glyph-name="uniFB21" unicode="&#xFB21;" d="M1332 378L1736 0L1389 0L504 836Q479 783 467 718.50Q455 654 455 568L455 0L209 0L209 572Q209 829 382 951L130 1189L466 1189L1150 548L1483 1189L1767 1189L1332 378Z"  horiz-adv-x="1852" vert-adv-y="2048"  />

      
      <glyph glyph-name="uniFB22" unicode="&#xFB22;" d="M1330 1189L1330 1001L1082 975L1082 0L828 0L828 990L60 990L60 1189L1330 1189Z"  horiz-adv-x="1396" vert-adv-y="2048"  />

      
      <glyph glyph-name="uniFB23" unicode="&#xFB23;" d="M1251 806Q1251 893 1201 941.50Q1151 990 1061 990L146 990L146 1189L1074 1189Q1209 1189 1306 1141.50Q1403 1094 1454 1004.50Q1505 915 1505 791L1505 0L1251 0L1251 806M144 397Q144 518 184 629L411 661L422 650Q411 602 402 530Q393 458 393 392L393 0L144 0L144 397Z"  horiz-adv-x="1647" vert-adv-y="2048"  />

      
      <glyph glyph-name="uniFB24" unicode="&#xFB24;" d="M674-36Q545-36 387-17Q229 2 71 37L108 236Q265 204 411 187.50Q557 171 665 171Q905 171 1018 251.50Q1131 332 1132 490L1132 990L112 990L112 1189L1386 1189L1386 488Q1385 228 1199 96Q1013-36 674-36Z"  horiz-adv-x="1558" vert-adv-y="2048"  />

      
      <glyph glyph-name="uniFB25" unicode="&#xFB25;" d="M1367 1028L771 0L501 0L1061 990L73 990L73 1482L327 1482L327 1189L1367 1189L1367 1028Z"  horiz-adv-x="1438" vert-adv-y="2048"  />

      
      <glyph glyph-name="uniFB26" unicode="&#xFB26;" d="M130 1189L1637 1189L1637 0L130 0L130 1189M1384 200L1384 990L384 990L384 200L1384 200Z"  horiz-adv-x="1789" vert-adv-y="2048"  />

      
      <glyph glyph-name="uniFB27" unicode="&#xFB27;" d="M1015 806Q1015 893 965.50 941.50Q916 990 825 990L48 990L48 1189L838 1189Q973 1189 1070 1141.50Q1167 1094 1218 1004.50Q1269 915 1269 791L1269 0L1015 0L1015 806Z"  horiz-adv-x="1411" vert-adv-y="2048"  />

      
      <glyph glyph-name="uniFB28" unicode="&#xFB28;" d="M1177 1189Q1411 1189 1529 1075.50Q1647 962 1647 737L1647 0L1395 0L1394 755Q1394 876 1341.50 933Q1289 990 1177 990L530 990Q507 935 493 860Q479 785 479 713L479 344Q479 171 392 78.50Q305-14 145-14Q84-14 10-3L10 196Q45 193 77 193Q156 193 194 234Q232 275 232 362L232 691Q232 769 253 852.50Q274 936 311 990L108 990L108 1189L1177 1189Z"  horiz-adv-x="1789" vert-adv-y="2048"  />

      
      <glyph glyph-name="uniFB2A" unicode="&#xFB2A;" d="M172 0M417 251Q508 212 610 190Q712 168 802 168Q945 168 1054.50 208.50Q1164 249 1226 332.50Q1288 416 1288 542L1288 1189L1533 1189L1533 515Q1533 337 1437 213.50Q1341 90 1178 28.50Q1015-33 813-33Q656-33 489 4.50Q322 42 172 114L172 1189L417 1189L417 251M668 356Q695 394 710 463.50Q725 533 725 620L725 1189L971 1189L971 670Q971 568 946.50 485.50Q922 403 876 352L668 356M1399 1342Q1361 1342 1334.50 1366Q1308 1390 1308 1424Q1308 1460 1334 1483.50Q1360 1507 1399 1507Q1439 1507 1464.50 1483.50Q1490 1460 1490 1424Q1490 1388 1464.50 1365Q1439 1342 1399 1342Z"  horiz-adv-x="1705" vert-adv-y="2048"  />

      
      <glyph glyph-name="uniFB2B" unicode="&#xFB2B;" d="M172 0M417 251Q508 212 610 190Q712 168 802 168Q945 168 1054.50 208.50Q1164 249 1226 332.50Q1288 416 1288 542L1288 1189L1533 1189L1533 515Q1533 337 1437 213.50Q1341 90 1178 28.50Q1015-33 813-33Q656-33 489 4.50Q322 42 172 114L172 1189L417 1189L417 251M668 356Q695 394 710 463.50Q725 533 725 620L725 1189L971 1189L971 670Q971 568 946.50 485.50Q922 403 876 352L668 356M285 1342Q247 1342 220.50 1366Q194 1390 194 1424Q194 1460 220 1483.50Q246 1507 285 1507Q324 1507 350 1483.50Q376 1460 376 1424Q376 1388 350 1365Q324 1342 285 1342Z"  horiz-adv-x="1705" vert-adv-y="2048"  />

      
      <glyph glyph-name="uniFB2C" unicode="&#xFB2C;" d="M172 0M417 251Q508 212 610 190Q712 168 802 168Q945 168 1054.50 208.50Q1164 249 1226 332.50Q1288 416 1288 542L1288 1189L1533 1189L1533 515Q1533 337 1437 213.50Q1341 90 1178 28.50Q1015-33 813-33Q656-33 489 4.50Q322 42 172 114L172 1189L417 1189L417 251M668 356Q695 394 710 463.50Q725 533 725 620L725 1189L971 1189L971 670Q971 568 946.50 485.50Q922 403 876 352L668 356M1128 520Q1089 520 1063 544Q1037 568 1037 603Q1037 638 1063 661.50Q1089 685 1128 685Q1167 685 1193 661.50Q1219 638 1219 603Q1219 567 1193 543.50Q1167 520 1128 520M1399 1342Q1361 1342 1334.50 1366Q1308 1390 1308 1424Q1308 1460 1334 1483.50Q1360 1507 1399 1507Q1439 1507 1464.50 1483.50Q1490 1460 1490 1424Q1490 1388 1464.50 1365Q1439 1342 1399 1342Z"  horiz-adv-x="1705" vert-adv-y="2048"  />

      
      <glyph glyph-name="uniFB2D" unicode="&#xFB2D;" d="M172 0M417 251Q508 212 610 190Q712 168 802 168Q945 168 1054.50 208.50Q1164 249 1226 332.50Q1288 416 1288 542L1288 1189L1533 1189L1533 515Q1533 337 1437 213.50Q1341 90 1178 28.50Q1015-33 813-33Q656-33 489 4.50Q322 42 172 114L172 1189L417 1189L417 251M668 356Q695 394 710 463.50Q725 533 725 620L725 1189L971 1189L971 670Q971 568 946.50 485.50Q922 403 876 352L668 356M1128 520Q1089 520 1063 544Q1037 568 1037 603Q1037 638 1063 661.50Q1089 685 1128 685Q1167 685 1193 661.50Q1219 638 1219 603Q1219 567 1193 543.50Q1167 520 1128 520M285 1342Q247 1342 220.50 1366Q194 1390 194 1424Q194 1460 220 1483.50Q246 1507 285 1507Q324 1507 350 1483.50Q376 1460 376 1424Q376 1388 350 1365Q324 1342 285 1342Z"  horiz-adv-x="1705" vert-adv-y="2048"  />

      
      <glyph glyph-name="uniFB2E" unicode="&#xFB2E;" d="M130 0M894 510L1255 0L972 0L488 684Q454 655 437.50 613Q421 571 421 514L421 0L176 0L176 411Q176 571 227.50 670Q279 769 390 822L130 1189L414 1189L738 730L979 1189L1264 1189L894 510M469-188L912-188L912-303L469-303L469-188Z"  horiz-adv-x="1349" vert-adv-y="2048"  />

      
      <glyph glyph-name="uniFB2F" unicode="&#xFB2F;" d="M130 0M894 510L1255 0L972 0L488 684Q454 655 437.50 613Q421 571 421 514L421 0L176 0L176 411Q176 571 227.50 670Q279 769 390 822L130 1189L414 1189L738 730L979 1189L1264 1189L894 510M692-563Q653-563 627-539Q601-515 601-481Q601-466 605-455Q609-444 619-427Q634-401 643-374.50Q652-348 655-303L490-303L490-188L892-188L892-303L727-303Q731-348 740.50-374.50Q750-401 764-426Q773-443 777.50-454.50Q782-466 782-481Q782-516 756.50-539.50Q731-563 692-563Z"  horiz-adv-x="1349" vert-adv-y="2048"  />

      
      <glyph glyph-name="uniFB30" unicode="&#xFB30;" d="M130 0M894 510L1255 0L972 0L488 684Q454 655 437.50 613Q421 571 421 514L421 0L176 0L176 411Q176 571 227.50 670Q279 769 390 822L130 1189L414 1189L738 730L979 1189L1264 1189L894 510M606 108Q567 108 541 132Q515 156 515 191Q515 226 541 249.50Q567 273 606 273Q645 273 671 249.50Q697 226 697 191Q697 155 671 131.50Q645 108 606 108Z"  horiz-adv-x="1349" vert-adv-y="2048"  />

      
      <glyph glyph-name="uniFB31" unicode="&#xFB31;" d="M56 0M1058 191L1058 0L56 0L56 200L664 200L664 758Q664 878 606.50 934Q549 990 426 990L121 990L121 1189L442 1189Q672 1189 794.50 1075.50Q917 962 917 748L917 209L1058 191M364 520Q325 520 299 544Q273 568 273 603Q273 638 299 661.50Q325 685 364 685Q403 685 429 661.50Q455 638 455 603Q455 567 429 543.50Q403 520 364 520Z"  horiz-adv-x="1098" vert-adv-y="2048"  />

      
      <glyph glyph-name="uniFB32" unicode="&#xFB32;" d="M16 0M79-11Q41-11 16-6L16 224Q50 218 94 218Q220 221 301.50 286.50Q383 352 416 465L416 990L151 990L151 1189L665 1189L665 582Q665 488 684 395L766 0L530 0L460 315L454 315Q440 226 387.50 151.50Q335 77 254.50 33Q174-11 79-11M184 520Q145 520 119 544Q93 568 93 603Q93 638 119 661.50Q145 685 184 685Q223 685 249 661.50Q275 638 275 603Q275 567 249 543.50Q223 520 184 520Z"  horiz-adv-x="851" vert-adv-y="2048"  />

      
      <glyph glyph-name="uniFB33" unicode="&#xFB33;" d="M60 0M1050 1189L1050 990L846 990L846 0L592 0L592 990L60 990L60 1189L1050 1189M305 520Q266 520 240 544Q214 568 214 603Q214 638 240 661.50Q266 685 305 685Q344 685 370 661.50Q396 638 396 603Q396 567 370 543.50Q344 520 305 520Z"  horiz-adv-x="1116" vert-adv-y="2048"  />

      
      <glyph glyph-name="uniFB34" unicode="&#xFB34;" d="M144 0M847 758Q847 878 789 934Q731 990 608 990L146 990L146 1189L625 1189Q855 1189 977.50 1075.50Q1100 962 1100 748L1100 0L847 0L847 758M144 407Q144 506 161.50 561Q179 616 207 661L411 661Q389 573 389 430L389 0L144 0L144 407M619 520Q580 520 554 544Q528 568 528 603Q528 638 554 661.50Q580 685 619 685Q658 685 684 661.50Q710 638 710 603Q710 567 684 543.50Q658 520 619 520Z"  horiz-adv-x="1242" vert-adv-y="2048"  />

      
      <glyph glyph-name="uniFB35" unicode="&#xFB35;" d="M0 0M208 990L88 990L88 1189L462 1189L462 0L208 0L208 990M47 520Q8 520-18 544Q-44 568-44 603Q-44 638-18 661.50Q8 685 47 685Q86 685 112 661.50Q138 638 138 603Q138 567 112 543.50Q86 520 47 520Z"  horiz-adv-x="634" vert-adv-y="2048"  />

      
      <glyph glyph-name="uniFB36" unicode="&#xFB36;" d="M71 0M147 981L71 997L71 1189L693 1189L692 990L396 990L553 0L292 0L147 981M608 520Q569 520 543 544Q517 568 517 603Q517 638 543 661.50Q569 685 608 685Q647 685 673 661.50Q699 638 699 603Q699 567 673 543.50Q647 520 608 520Z"  horiz-adv-x="762" vert-adv-y="2048"  />

      
      <glyph glyph-name="uniFB38" unicode="&#xFB38;" d="M172 0M670-23Q523-23 410 39Q297 101 234.50 213.50Q172 326 172 473L172 1189L426 1189L426 448Q426 367 456.50 304.50Q487 242 542 208Q597 174 669 174Q742 174 797.50 208Q853 242 883.50 304.50Q914 367 914 448L914 816Q914 902 875.50 948Q837 994 765 994Q710 994 640 967L611 1132Q662 1163 726.50 1182Q791 1201 848 1201Q946 1201 1018 1157Q1090 1113 1128.50 1031Q1167 949 1167 837L1167 473Q1167 326 1105 213.50Q1043 101 930.50 39Q818-23 670-23M670 520Q631 520 605 544Q579 568 579 603Q579 638 605 661.50Q631 685 670 685Q709 685 735 661.50Q761 638 761 603Q761 567 735 543.50Q709 520 670 520Z"  horiz-adv-x="1288" vert-adv-y="2048"  />

      
      <glyph glyph-name="uniFB39" unicode="&#xFB39;" d="M0 518M254 990L53 990L53 1189L508 1189L508 518L254 518L254 990M73 689Q34 689 8 713Q-18 737-18 772Q-18 807 8 830.50Q34 854 73 854Q112 854 138 830.50Q164 807 164 772Q164 736 138 712.50Q112 689 73 689Z"  horiz-adv-x="664" vert-adv-y="2048"  />

      
      <glyph glyph-name="uniFB3A" unicode="&#xFB3A;" d="M67 0M622 990L67 990L67 1189L872 1189L872-416L622-416L622 990M317 551Q278 551 252 575Q226 599 226 634Q226 669 252 692.50Q278 716 317 716Q356 716 382 692.50Q408 669 408 634Q408 598 382 574.50Q356 551 317 551Z"  horiz-adv-x="1044" vert-adv-y="2048"  />

      
      <glyph glyph-name="uniFB3B" unicode="&#xFB3B;" d="M71 0M414-18Q261-18 71 31L111 218Q266 180 385 180Q539 182 615.50 253.50Q692 325 692 463L692 990L116 990L116 1189L946 1189L946 511Q946 243 805.50 112.50Q665-18 414-18M385 520Q346 520 320 544Q294 568 294 603Q294 638 320 661.50Q346 685 385 685Q424 685 450 661.50Q476 638 476 603Q476 567 450 543.50Q424 520 385 520Z"  horiz-adv-x="1118" vert-adv-y="2048"  />

      
      <glyph glyph-name="uniFB3C" unicode="&#xFB3C;" d="M73 0M1013 1028L600 0L330 0L739 990L73 990L73 1536L327 1536L327 1189L1013 1189L1013 1028M300 584Q261 584 235 608Q209 632 209 667Q209 702 235 725.50Q261 749 300 749Q339 749 365 725.50Q391 702 391 667Q391 631 365 607.50Q339 584 300 584Z"  horiz-adv-x="1084" vert-adv-y="2048"  />

      
      <glyph glyph-name="uniFB3E" unicode="&#xFB3E;" d="M118 0M246 710Q256 791 289.50 863.50Q323 936 368 977Q375 984 385 990L383 994Q342 987 281 970.50Q220 954 174 937L118 1123Q234 1165 384 1190.50Q534 1216 664 1216Q921 1216 1055.50 1082.50Q1190 949 1191 690L1191 0L685 0L685 199L937 199L937 722Q937 860 878 933.50Q819 1007 709 1007Q619 1007 563 937Q507 867 493 740L414 0L163 0L246 710M707 520Q668 520 642 544Q616 568 616 603Q616 638 642 661.50Q668 685 707 685Q746 685 772 661.50Q798 638 798 603Q798 567 772 543.50Q746 520 707 520Z"  horiz-adv-x="1333" vert-adv-y="2048"  />

      
      <glyph glyph-name="uniFB40" unicode="&#xFB40;" d="M60 0M271-20Q217-20 168.50-14Q120-8 60 5L63 198Q131 187 209 187Q284 187 321 229Q358 271 358 359L358 990L138 990L138 1189L611 1189L611 339Q611 167 522 73.50Q433-20 271-20M155 520Q116 520 90 544Q64 568 64 603Q64 638 90 661.50Q116 685 155 685Q194 685 220 661.50Q246 638 246 603Q246 567 220 543.50Q194 520 155 520Z"  horiz-adv-x="783" vert-adv-y="2048"  />

      
      <glyph glyph-name="uniFB41" unicode="&#xFB41;" d="M80 0M675-23Q523-23 406 46Q289 115 223.50 240Q158 365 156 529L156 624Q155 690 174 760Q193 830 225.50 888.50Q258 947 296 979Q303 985 310 990L308 994Q277 989 225 976.50Q173 964 129 951L80 1138Q199 1173 353 1194.50Q507 1216 639 1216Q814 1216 939 1151Q1064 1086 1129.50 960.50Q1195 835 1195 658L1195 529Q1195 365 1130 240Q1065 115 947 46Q829-23 675-23M675 188Q754 188 814.50 230.50Q875 273 908.50 350Q942 427 942 528L942 654Q942 821 870 914Q798 1007 669 1007Q549 1007 480 910.50Q411 814 409 640L409 528Q409 427 442.50 350Q476 273 536 230.50Q596 188 675 188M677 520Q638 520 612 544Q586 568 586 603Q586 638 612 661.50Q638 685 677 685Q716 685 742 661.50Q768 638 768 603Q768 567 742 543.50Q716 520 677 520Z"  horiz-adv-x="1319" vert-adv-y="2048"  />

      
      <glyph glyph-name="uniFB43" unicode="&#xFB43;" d="M136 0M1082-416L831-416L831 990L489 990Q463 934 448.50 861Q434 788 434 717L434 597Q476 584 562 584L562 395Q521 391 474 391Q387 391 317.50 408Q248 425 188 460L186 638Q184 737 207.50 833Q231 929 271 990L136 990L136 1189L1082 1189L1082-416M635 690Q596 690 570 714Q544 738 544 773Q544 808 570 831.50Q596 855 635 855Q674 855 700 831.50Q726 808 726 773Q726 737 700 713.50Q674 690 635 690Z"  horiz-adv-x="1254" vert-adv-y="2048"  />

      
      <glyph glyph-name="uniFB44" unicode="&#xFB44;" d="M136 0M607-23Q510-23 396.50-4.50Q283 14 185 48L232 235Q325 208 419.50 194Q514 180 586 180Q739 182 819.50 253.50Q900 325 900 463L900 990L489 990Q463 934 448.50 864.50Q434 795 434 725L434 651Q476 638 562 638L562 449Q521 445 474 445Q387 445 317.50 462Q248 479 188 514L186 646Q186 745 208.50 837Q231 929 271 990L136 990L136 1189L1154 1189L1154 504Q1154 327 1083.50 209Q1013 91 890 34Q767-23 607-23M673 705Q634 705 608 729Q582 753 582 788Q582 823 608 846.50Q634 870 673 870Q712 870 738 846.50Q764 823 764 788Q764 752 738 728.50Q712 705 673 705Z"  horiz-adv-x="1326" vert-adv-y="2048"  />

      
      <glyph glyph-name="uniFB46" unicode="&#xFB46;" d="M753 536L1041 119L1041 0L129 0L129 200L715 200L43 1189L327 1189L604 757L823 1189L1108 1189L753 536M398 397Q398 361 372 337.50Q346 314 307 314Q268 314 242 338Q216 362 216 397Q216 432 242 455.50Q268 479 307 479Q346 479 372 455.50Q398 432 398 397Z"  horiz-adv-x="1166" vert-adv-y="2048"  />

      
      <glyph glyph-name="uniFB47" unicode="&#xFB47;" d="M172 0M589 195Q726 200 804.50 280.50Q883 361 883 507L883 990L172 990L172 1189L1137 1189L1137 512Q1137 355 1070.50 241Q1004 127 880.50 66Q757 5 589 0L589 195M188 430Q188 528 205.50 582.50Q223 637 250 683L455 683Q433 601 433 453L433-416L188-416L188 430M655 520Q616 520 590 544Q564 568 564 603Q564 638 590 661.50Q616 685 655 685Q694 685 720 661.50Q746 638 746 603Q746 567 720 543.50Q694 520 655 520Z"  horiz-adv-x="1309" vert-adv-y="2048"  />

      
      <glyph glyph-name="uniFB48" unicode="&#xFB48;" d="M48 0M617 806Q617 893 567 941.50Q517 990 426 990L48 990L48 1189L440 1189Q574 1189 671 1141.50Q768 1094 819.50 1004.50Q871 915 871 791L871 0L617 0L617 806M313 520Q274 520 248 544Q222 568 222 603Q222 638 248 661.50Q274 685 313 685Q352 685 378 661.50Q404 638 404 603Q404 567 378 543.50Q352 520 313 520Z"  horiz-adv-x="1013" vert-adv-y="2048"  />

      
      <glyph glyph-name="uniFB49" unicode="&#xFB49;" d="M172 0M417 251Q508 212 610 190Q712 168 802 168Q945 168 1054.50 208.50Q1164 249 1226 332.50Q1288 416 1288 542L1288 1189L1533 1189L1533 515Q1533 337 1437 213.50Q1341 90 1178 28.50Q1015-33 813-33Q656-33 489 4.50Q322 42 172 114L172 1189L417 1189L417 251M668 356Q695 394 710 463.50Q725 533 725 620L725 1189L971 1189L971 670Q971 568 946.50 485.50Q922 403 876 352L668 356M1128 520Q1089 520 1063 544Q1037 568 1037 603Q1037 638 1063 661.50Q1089 685 1128 685Q1167 685 1193 661.50Q1219 638 1219 603Q1219 567 1193 543.50Q1167 520 1128 520Z"  horiz-adv-x="1705" vert-adv-y="2048"  />

      
      <glyph glyph-name="uniFB4A" unicode="&#xFB4A;" d="M10 0M689 1189Q924 1189 1042.50 1076Q1161 963 1161 737L1161 0L908 0L907 755Q907 877 855 933.50Q803 990 691 990L530 990Q507 935 493 860Q479 785 479 713L479 344Q479 171 392 78.50Q305-14 145-14Q84-14 10-3L10 196Q45 193 77 193Q156 193 194 234Q232 275 232 362L232 691Q232 769 253 852.50Q274 936 311 990L108 990L108 1189L689 1189M692 520Q653 520 627 544Q601 568 601 603Q601 638 627 661.50Q653 685 692 685Q731 685 757 661.50Q783 638 783 603Q783 567 757 543.50Q731 520 692 520Z"  horiz-adv-x="1303" vert-adv-y="2048"  />

      
      <glyph glyph-name="uniFB4B" unicode="&#xFB4B;" d="M88 0M208 990L88 990L88 1189L462 1189L462 0L208 0L208 990M278 1342Q239 1342 213 1366Q187 1390 187 1424Q187 1460 213 1483.50Q239 1507 278 1507Q317 1507 343 1483.50Q369 1460 369 1424Q369 1388 343 1365Q317 1342 278 1342Z"  horiz-adv-x="634" vert-adv-y="2048"  />

      
      <glyph glyph-name="uniFB4C" unicode="&#xFB4C;" d="M56 0M1058 191L1058 0L56 0L56 200L664 200L664 758Q664 878 606.50 934Q549 990 426 990L121 990L121 1189L442 1189Q672 1189 794.50 1075.50Q917 962 917 748L917 209L1058 191M228 1497L765 1497L765 1362L228 1362L228 1497Z"  horiz-adv-x="1098" vert-adv-y="2048"  />

      
      <glyph glyph-name="uniFB4D" unicode="&#xFB4D;" d="M71 0M414-18Q261-18 71 31L111 218Q266 180 385 180Q539 182 615.50 253.50Q692 325 692 463L692 990L116 990L116 1189L946 1189L946 511Q946 243 805.50 112.50Q665-18 414-18M229 1497L766 1497L766 1362L229 1362L229 1497Z"  horiz-adv-x="1118" vert-adv-y="2048"  />

      
      <glyph glyph-name="uniFB4E" unicode="&#xFB4E;" d="M136 0M607-23Q510-23 396.50-4.50Q283 14 185 48L232 235Q325 208 419.50 194Q514 180 586 180Q739 182 819.50 253.50Q900 325 900 463L900 990L489 990Q463 934 448.50 864.50Q434 795 434 725L434 651Q476 638 562 638L562 449Q521 445 474 445Q387 445 317.50 462Q248 479 188 514L186 646Q186 745 208.50 837Q231 929 271 990L136 990L136 1189L1154 1189L1154 504Q1154 327 1083.50 209Q1013 91 890 34Q767-23 607-23M387 1497L924 1497L924 1362L387 1362L387 1497Z"  horiz-adv-x="1326" vert-adv-y="2048"  />

      
      <glyph glyph-name="uni30" unicode="&#x30;" d="M1061 612Q1061-20 584-20Q357-20 230.50 131Q104 282 104 612L104 850Q104 1179 229 1327.50Q354 1476 582 1476Q810 1476 935.50 1327.50Q1061 1179 1061 850L1061 612M812 887Q812 1097 755 1186.50Q698 1276 582 1276Q468 1276 410.50 1186.50Q353 1097 353 887L353 577Q353 367 411.50 273.50Q470 180 584 180Q699 180 755.50 272.50Q812 365 812 577L812 887Z"  horiz-adv-x="1166" vert-adv-y="2048"  />

      
      <glyph glyph-name="uni31" unicode="&#x31;" d="M523 0L523 1162L168 1043L168 1251L741 1461L772 1461L772 0L523 0Z"  horiz-adv-x="1166" vert-adv-y="2048"  />

      
      <glyph glyph-name="uni32" unicode="&#x32;" d="M108 0L108 172L582 686Q660 773 704 835.50Q748 898 766.50 948Q785 998 785 1048Q785 1150 728.50 1213Q672 1276 572 1276Q454 1276 391.50 1203.50Q329 1131 329 1011L80 1011Q80 1140 139 1246Q198 1352 310 1414Q422 1476 575 1476Q720 1476 823 1427Q926 1378 980 1287.50Q1034 1197 1034 1074Q1034 946 958 818.50Q882 691 736 538L420 200L1090 200L1090 0L108 0Z"  horiz-adv-x="1166" vert-adv-y="2048"  />

      
      <glyph glyph-name="uni33" unicode="&#x33;" d="M805 748Q930 705 990 615Q1050 525 1050 408Q1050 275 986 178Q922 81 810 30.50Q698-20 557-20Q428-20 318.50 27.50Q209 75 143.50 168Q78 261 78 392L327 392Q327 330 356 281.50Q385 233 438 206.50Q491 180 561 180Q674 180 737.50 240Q801 300 801 409Q801 529 731.50 587Q662 645 536 645L391 645L391 782L391 841L536 841Q655 841 717 901Q779 961 779 1062Q779 1164 724 1220Q669 1276 561 1276Q498 1276 448 1251.50Q398 1227 369.50 1182Q341 1137 341 1077L92 1077Q92 1191 152 1282Q212 1373 318.50 1424.50Q425 1476 557 1476Q699 1476 805 1429Q911 1382 969.50 1289Q1028 1196 1028 1062Q1028 970 970 883Q912 796 805 748Z"  horiz-adv-x="1166" vert-adv-y="2048"  />

      
      <glyph glyph-name="uni34" unicode="&#x34;" d="M1114 323L934 323L934 0L685 0L685 323L60 323L53 475L678 1456L877 1456L934 1456L934 523L1114 523L1114 323M685 523L685 1119L667 1087L312 523L685 523Z"  horiz-adv-x="1166" vert-adv-y="2048"  />

      
      <glyph glyph-name="uni35" unicode="&#x35;" d="M250 1456L1036 1456L1036 1243L456 1243L417 899Q459 922 517.50 939Q576 956 644 956Q781 956 879.50 897Q978 838 1030.50 727.50Q1083 617 1083 466Q1083 328 1029.50 218Q976 108 868 44Q760-20 603-20Q478-20 372 28.50Q266 77 200 170.50Q134 264 126 395L368 395Q381 292 442 236Q503 180 602 180Q716 180 775.50 260Q835 340 835 474Q835 602 768.50 679.50Q702 757 579 757Q526 757 488.50 746.50Q451 736 425.50 718.50Q400 701 369 672L170 722L250 1456Z"  horiz-adv-x="1166" vert-adv-y="2048"  />

      
      <glyph glyph-name="uni36" unicode="&#x36;" d="M667 966Q803 966 897 899Q991 832 1037 721Q1083 610 1083 478Q1083 337 1026 223.50Q969 110 861.50 45Q754-20 608-20Q456-20 344 57.50Q232 135 173.50 265.50Q115 396 115 552L115 649Q115 879 190 1062.50Q265 1246 427 1355Q589 1464 838 1464L868 1464L868 1259L851 1259Q701 1259 598 1205Q495 1151 439.50 1058.50Q384 966 370 845Q425 904 501 935Q577 966 667 966M605 181Q676 181 728 218Q780 255 808 321Q836 387 836 472Q836 554 809 620.50Q782 687 729.50 726Q677 765 604 765Q523 765 458 720Q393 675 365 606L365 529Q365 418 397 339.50Q429 261 483.50 221Q538 181 605 181Z"  horiz-adv-x="1166" vert-adv-y="2048"  />

      
      <glyph glyph-name="uni37" unicode="&#x37;" d="M501 0L239 0L818 1256L69 1256L69 1456L1080 1456L1080 1318L501 0Z"  horiz-adv-x="1166" vert-adv-y="2048"  />

      
      <glyph glyph-name="uni38" unicode="&#x38;" d="M826 751Q936 701 999 608.50Q1062 516 1062 397Q1062 265 1000 171Q938 77 829.50 28.50Q721-20 583-20Q445-20 336.50 28.50Q228 77 166 171Q104 265 104 397Q104 517 166 609Q228 701 338 751Q243 800 189.50 884Q136 968 136 1072Q136 1199 193 1290Q250 1381 351 1428.50Q452 1476 583 1476Q714 1476 815 1428.50Q916 1381 973 1290Q1030 1199 1030 1072Q1030 968 975.50 884Q921 800 826 751M583 1276Q492 1276 438.50 1218.50Q385 1161 385 1063Q385 966 438.50 907Q492 848 583 848Q675 848 728 906.50Q781 965 781 1063Q781 1158 727.50 1217Q674 1276 583 1276M583 180Q690 180 751 241.50Q812 303 812 411Q812 482 783.50 535.50Q755 589 702.50 618.50Q650 648 581 648Q512 648 460.50 618.50Q409 589 381 535.50Q353 482 353 411Q353 303 414.50 241.50Q476 180 583 180Z"  horiz-adv-x="1166" vert-adv-y="2048"  />

      
      <glyph glyph-name="uni39" unicode="&#x39;" d="M566 1476Q719 1476 827.50 1397.50Q936 1319 991 1184.50Q1046 1050 1046 884L1046 802Q1046 442 878.50 217Q711-8 325-8L305-8L305 200L323 200Q564 200 673.50 307Q783 414 796 606Q740 547 666.50 513Q593 479 513 479Q377 479 282.50 545.50Q188 612 140.50 723Q93 834 93 967Q93 1109 149.50 1225Q206 1341 313 1408.50Q420 1476 566 1476M567 674Q643 674 704.50 716.50Q766 759 798 827L798 925Q798 1036 766.50 1115Q735 1194 682 1234.50Q629 1275 565 1275Q495 1275 444 1234.50Q393 1194 366 1125.50Q339 1057 339 974Q339 893 364.50 824.50Q390 756 441.50 715Q493 674 567 674Z"  horiz-adv-x="1166" vert-adv-y="2048"  />

      
      <glyph glyph-name="uni2044" unicode="&#x2044;" d="M43 182L754 1320L882 1247L171 109L43 182Z"  horiz-adv-x="923" vert-adv-y="2048"  />

      
      <glyph glyph-name="uni2080" unicode="&#x2080;" d="M75 0M683-47Q683-210 601.50-292.50Q520-375 380-375Q240-375 157.50-292.50Q75-210 75-47L75 106Q75 269 157 352.50Q239 436 378 436Q519 436 601 352.50Q683 269 683 106L683-47M495 118Q495 284 378 284Q264 284 264 118L264-57Q264-145 293.50-184.50Q323-224 380-224Q436-224 465.50-184.50Q495-145 495-57L495 118Z"  horiz-adv-x="759" vert-adv-y="2048"  />

      
      <glyph glyph-name="uni2081" unicode="&#x2081;" d="M130 0M329-364L329 204L130 156L130 304L497 424L516 424L516-364L329-364Z"  horiz-adv-x="759" vert-adv-y="2048"  />

      
      <glyph glyph-name="uni2082" unicode="&#x2082;" d="M60 0M78-364L78-237L365 26Q421 76 448 119Q475 162 475 192Q475 234 448 259.50Q421 285 371 285Q311 285 280 252Q249 219 249 167L60 167Q60 241 97 302.50Q134 364 203 400Q272 436 364 436Q506 436 585.50 371.50Q665 307 665 193Q665 138 642 92Q619 46 576 2Q533-42 458-104L322-213L691-213L691-364L78-364Z"  horiz-adv-x="759" vert-adv-y="2048"  />

      
      <glyph glyph-name="uni2083" unicode="&#x2083;" d="M54 0M534 41Q683 1 683-143Q683-215 641-267.50Q599-320 526-347.50Q453-375 361-375Q281-375 211-349.50Q141-324 97.50-270Q54-216 54-134L244-134Q244-172 279-198Q314-224 371-224Q431-224 462.50-197.50Q494-171 494-128Q494-75 459-51Q424-27 357-27L269-27L269 58L269 103L357 103Q418 103 449 128.50Q480 154 480 199Q480 236 452 260.50Q424 285 366 285Q318 285 286.50 265.50Q255 246 255 213L66 213Q66 282 105.50 332.50Q145 383 212.50 409.50Q280 436 361 436Q502 436 585.50 377.50Q669 319 669 211Q669 154 633.50 109.50Q598 65 534 41Z"  horiz-adv-x="759" vert-adv-y="2048"  />

      
      <glyph glyph-name="uni2084" unicode="&#x2084;" d="M53 0M703-201L608-201L608-364L419-364L419-201L63-201L53-78L418 425L566 425L608 425L608-48L703-48L703-201M419-48L419 190L406 168L237-48L419-48Z"  horiz-adv-x="759" vert-adv-y="2048"  />

      
      <glyph glyph-name="uni2085" unicode="&#x2085;" d="M78 0M149 425L643 425L643 274L304 274L283 128Q354 155 416 155Q545 155 616 88Q687 21 687-101Q687-175 653-237Q619-299 550.50-337Q482-375 383-375Q304-375 235-346.50Q166-318 123-265.50Q80-213 78-143L266-143Q272-224 383-224Q444-224 471-190Q498-156 498-100Q498-44 464-11Q430 22 367 22Q322 22 296.50 11.50Q271 1 248-17L97 20L149 425Z"  horiz-adv-x="759" vert-adv-y="2048"  />

      
      <glyph glyph-name="uni2086" unicode="&#x2086;" d="M77 0M447 162Q528 162 584.50 128Q641 94 670 34.50Q699-25 699-102Q699-180 661-242Q623-304 554-339.50Q485-375 396-375Q300-375 228.50-338.50Q157-302 117-230Q77-158 77-55L77-4Q77 143 134.50 242Q192 341 294.50 390Q397 439 535 439L563 439L563 284L552 284Q427 284 355 240Q283 196 269 92Q301 124 346.50 143Q392 162 447 162M391-224Q443-224 476.50-189Q510-154 510-102Q510-47 478.50-17.50Q447 12 390 12Q348 12 314.50-5Q281-22 265-46L265-82Q265-153 298-188.50Q331-224 391-224Z"  horiz-adv-x="759" vert-adv-y="2048"  />

      
      <glyph glyph-name="uni2087" unicode="&#x2087;" d="M54 0M349-364L150-364L488 273L54 273L54 425L687 425L687 319L349-364Z"  horiz-adv-x="759" vert-adv-y="2048"  />

      
      <glyph glyph-name="uni2088" unicode="&#x2088;" d="M75 0M551 42Q613 14 648-34Q683-82 683-146Q683-257 599.50-316Q516-375 380-375Q244-375 159.50-316Q75-257 75-146Q75-82 110.50-33.50Q146 15 208 43Q154 70 124 113.50Q94 157 94 213Q94 320 172 378Q250 436 378 436Q508 436 586.50 378Q665 320 665 213Q665 157 635 113.50Q605 70 551 42M378 285Q333 285 308 263Q283 241 283 201Q283 162 308.50 138.50Q334 115 380 115Q426 115 451 138.50Q476 162 476 201Q476 240 450.50 262.50Q425 285 378 285M380-224Q432-224 463.50-198.50Q495-173 495-129Q495-86 463-61.50Q431-37 378-37Q326-37 295-61Q264-85 264-129Q264-173 295.50-198.50Q327-224 380-224Z"  horiz-adv-x="759" vert-adv-y="2048"  />

      
      <glyph glyph-name="uni2089" unicode="&#x2089;" d="M70 0M373 436Q464 436 532 400Q600 364 638.50 291.50Q677 219 677 113L677 60Q677-374 228-374L213-374L213-224L226-224Q349-224 411.50-186.50Q474-149 486-55Q455-81 415-96Q375-111 331-111Q207-111 138.50-42Q70 27 70 152Q70 229 108.50 294.50Q147 360 216 398Q285 436 373 436M379 30Q417 30 445.50 44.50Q474 59 489 81L489 150Q489 218 458 251Q427 284 373 284Q321 284 290 246Q259 208 259 151Q259 95 289.50 62.50Q320 30 379 30Z"  horiz-adv-x="759" vert-adv-y="2048"  />

      
      <glyph glyph-name="uni2070" unicode="&#x2070;" d="M75 656M683 984Q683 821 601.50 738.50Q520 656 380 656Q240 656 157.50 738.50Q75 821 75 984L75 1137Q75 1300 157 1383.50Q239 1467 378 1467Q519 1467 601 1383.50Q683 1300 683 1137L683 984M495 1149Q495 1315 378 1315Q264 1315 264 1149L264 974Q264 886 293.50 846.50Q323 807 380 807Q436 807 465.50 846.50Q495 886 495 974L495 1149Z"  horiz-adv-x="759" vert-adv-y="2048"  />

      
      <glyph glyph-name="unib9" unicode="&#xb9;" d="M130 667M329 667L329 1235L130 1187L130 1335L497 1455L516 1455L516 667L329 667Z"  horiz-adv-x="759" vert-adv-y="2048"  />

      
      <glyph glyph-name="unib2" unicode="&#xb2;" d="M60 667M78 667L78 794L365 1057Q421 1107 448 1150Q475 1193 475 1223Q475 1265 448 1290.50Q421 1316 371 1316Q311 1316 280 1283Q249 1250 249 1198L60 1198Q60 1272 97 1333.50Q134 1395 203 1431Q272 1467 364 1467Q506 1467 585.50 1402.50Q665 1338 665 1224Q665 1169 642 1123Q619 1077 576 1033Q533 989 458 927L322 818L691 818L691 667L78 667Z"  horiz-adv-x="759" vert-adv-y="2048"  />

      
      <glyph glyph-name="unib3" unicode="&#xb3;" d="M54 656M534 1072Q683 1032 683 888Q683 816 641 763.50Q599 711 526 683.50Q453 656 361 656Q281 656 211 681.50Q141 707 97.50 761Q54 815 54 897L244 897Q244 859 279 833Q314 807 371 807Q431 807 462.50 833.50Q494 860 494 903Q494 956 459 980Q424 1004 357 1004L269 1004L269 1089L269 1134L357 1134Q418 1134 449 1159.50Q480 1185 480 1230Q480 1267 452 1291.50Q424 1316 366 1316Q318 1316 286.50 1296.50Q255 1277 255 1244L66 1244Q66 1313 105.50 1363.50Q145 1414 212.50 1440.50Q280 1467 361 1467Q502 1467 585.50 1408.50Q669 1350 669 1242Q669 1185 633.50 1140.50Q598 1096 534 1072Z"  horiz-adv-x="759" vert-adv-y="2048"  />

      
      <glyph glyph-name="uni2074" unicode="&#x2074;" d="M53 667M703 830L608 830L608 667L419 667L419 830L63 830L53 953L418 1456L566 1456L608 1456L608 983L703 983L703 830M419 983L419 1221L406 1199L237 983L419 983Z"  horiz-adv-x="759" vert-adv-y="2048"  />

      
      <glyph glyph-name="uni2075" unicode="&#x2075;" d="M78 656M149 1456L643 1456L643 1305L304 1305L283 1159Q354 1186 416 1186Q545 1186 616 1119Q687 1052 687 930Q687 856 653 794Q619 732 550.50 694Q482 656 383 656Q304 656 235 684.50Q166 713 123 765.50Q80 818 78 888L266 888Q272 807 383 807Q444 807 471 841Q498 875 498 931Q498 987 464 1020Q430 1053 367 1053Q322 1053 296.50 1042.50Q271 1032 248 1014L97 1051L149 1456Z"  horiz-adv-x="759" vert-adv-y="2048"  />

      
      <glyph glyph-name="uni2076" unicode="&#x2076;" d="M77 656M447 1193Q528 1193 584.50 1159Q641 1125 670 1065.50Q699 1006 699 929Q699 851 661 789Q623 727 554 691.50Q485 656 396 656Q300 656 228.50 692.50Q157 729 117 801Q77 873 77 976L77 1027Q77 1174 134.50 1273Q192 1372 294.50 1421Q397 1470 535 1470L563 1470L563 1315L552 1315Q427 1315 355 1271Q283 1227 269 1123Q301 1155 346.50 1174Q392 1193 447 1193M391 807Q443 807 476.50 842Q510 877 510 929Q510 984 478.50 1013.50Q447 1043 390 1043Q348 1043 314.50 1026Q281 1009 265 985L265 949Q265 878 298 842.50Q331 807 391 807Z"  horiz-adv-x="759" vert-adv-y="2048"  />

      
      <glyph glyph-name="uni2077" unicode="&#x2077;" d="M54 667M349 667L150 667L488 1304L54 1304L54 1456L687 1456L687 1350L349 667Z"  horiz-adv-x="759" vert-adv-y="2048"  />

      
      <glyph glyph-name="uni2078" unicode="&#x2078;" d="M75 656M551 1073Q613 1045 648 997Q683 949 683 885Q683 774 599.50 715Q516 656 380 656Q244 656 159.50 715Q75 774 75 885Q75 949 110.50 997.50Q146 1046 208 1074Q154 1101 124 1144.50Q94 1188 94 1244Q94 1351 172 1409Q250 1467 378 1467Q508 1467 586.50 1409Q665 1351 665 1244Q665 1188 635 1144.50Q605 1101 551 1073M378 1316Q333 1316 308 1294Q283 1272 283 1232Q283 1193 308.50 1169.50Q334 1146 380 1146Q426 1146 451 1169.50Q476 1193 476 1232Q476 1271 450.50 1293.50Q425 1316 378 1316M380 807Q432 807 463.50 832.50Q495 858 495 902Q495 945 463 969.50Q431 994 378 994Q326 994 295 970Q264 946 264 902Q264 858 295.50 832.50Q327 807 380 807Z"  horiz-adv-x="759" vert-adv-y="2048"  />

      
      <glyph glyph-name="uni2079" unicode="&#x2079;" d="M70 657M373 1467Q464 1467 532 1431Q600 1395 638.50 1322.50Q677 1250 677 1144L677 1091Q677 657 228 657L213 657L213 807L226 807Q349 807 411.50 844.50Q474 882 486 976Q455 950 415 935Q375 920 331 920Q207 920 138.50 989Q70 1058 70 1183Q70 1260 108.50 1325.50Q147 1391 216 1429Q285 1467 373 1467M379 1061Q417 1061 445.50 1075.50Q474 1090 489 1112L489 1181Q489 1249 458 1282Q427 1315 373 1315Q321 1315 290 1277Q259 1239 259 1182Q259 1126 289.50 1093.50Q320 1061 379 1061Z"  horiz-adv-x="759" vert-adv-y="2048"  />

      
      <glyph glyph-name="uni2a" unicode="&#x2a;" d="M28 1059L83 1230L386 1112L371 1457L552 1457L536 1105L834 1221L889 1048L577 960L779 694L632 587L451 876L273 596L126 699L333 971L28 1059Z"  horiz-adv-x="909" vert-adv-y="2048"  />

      
      <glyph glyph-name="uni5c" unicode="&#x5c;" d="M265 1456L873-125L625-125L18 1456L265 1456Z"  horiz-adv-x="857" vert-adv-y="2048"  />

      
      <glyph glyph-name="unib7" unicode="&#xb7;" d="M286 850Q353 850 392 811.50Q431 773 431 713Q431 654 392 615.50Q353 577 286 577Q219 577 180.50 615.50Q142 654 142 713Q142 773 180.50 811.50Q219 850 286 850Z"  horiz-adv-x="583" vert-adv-y="2048"  />

      
      <glyph glyph-name="uni2022" unicode="&#x2022;" d="M136 771Q136 834 163.50 883Q191 932 241.50 960Q292 988 359 988Q428 988 479 960.50Q530 933 557.50 883.50Q585 834 585 771L585 731Q585 668 558 619.50Q531 571 480 543.50Q429 516 361 516Q293 516 242 543.50Q191 571 163.50 619.50Q136 668 136 731L136 771Z"  horiz-adv-x="719" vert-adv-y="2048"  />

      
      <glyph glyph-name="uni3a" unicode="&#x3a;" d="M129 0M274 262Q340 262 379 223Q418 184 418 124Q418 65 379 26.50Q340-12 274-12Q207-12 168 26.50Q129 65 129 124Q129 184 168 223Q207 262 274 262M274 1107Q340 1107 379 1068Q418 1029 418 969Q418 910 379 871.50Q340 833 274 833Q207 833 168 871.50Q129 910 129 969Q129 1029 168 1068Q207 1107 274 1107Z"  horiz-adv-x="548" vert-adv-y="2048"  />

      
      <glyph glyph-name="uni2c" unicode="&#x2c;" d="M353 61Q353-43 301-152.50Q249-262 163-333L30-256Q80-174 106-105Q132-36 132 52L132 237L354 237L353 61Z"  horiz-adv-x="457" vert-adv-y="2048"  />

      
      </font>
</defs>
</svg>
