<svg xmlns="http://www.w3.org/2000/svg" width="86" height="86" viewBox="0 0 86 86"><g fill="#0070FF"><path d="M43 65.597L23.432 54.3V31.703L43 20.407l19.568 11.296.002 22.597L43 65.597zM26.206 52.699L43 62.394l16.795-9.696V33.303L43 23.61l-16.795 9.694v19.395z"/><path d="M43 44.602L24.126 33.704l1.387-2.402L43 41.399l17.489-10.097 1.387 2.402z"/><path d="M41.613 43h2.774v20.996h-2.774zM24.125 33.704l-4.928-2.845h-5.689v-2.774h6.433l5.571 3.217zM61.875 33.704l-1.387-2.402 5.571-3.217h6.433v2.774h-5.689zM72.492 57.916h-6.433l-5.571-3.217 1.387-2.402 4.928 2.845h5.689zM19.941 57.916h-6.433v-2.774h5.689l4.928-2.845 1.387 2.402zM41.613 13.508h2.774v8.5h-2.774zM41.613 63.996h2.774v8.499h-2.774z"/><g><path d="M13.508 10.58h3.082v2.774h-3.082zM69.409 10.58h3.083v2.774h-3.083zM13.508 72.649h3.082v2.774h-3.082zM69.409 72.649h3.083v2.774h-3.083z"/></g><path d="M50.448 14.896H35.553V0h14.896v14.896zM38.327 12.12h9.347V2.774h-9.347v9.347zM50.448 86H35.553V71.104h14.896V86zm-12.121-2.774h9.347V73.88h-9.347v9.347zM14.896 36.768H0V21.872h14.896v14.896zM2.774 33.994h9.348v-9.348H2.774v9.348zm12.122 30.135H0V49.233h14.896V64.13zM2.774 61.355h9.348v-9.347H2.774v9.347zM86 36.768H71.104V21.872H86v14.896zm-12.121-2.774h9.347v-9.348H73.88v9.348zM86 64.129H71.104V49.233H86V64.13zm-12.121-2.774h9.347v-9.347H73.88v9.347z"/></g></svg>