<svg xmlns="http://www.w3.org/2000/svg" width="30" height="30" viewBox="0 0 30 30"><path fill="#FFF" d="M8.031 5.625H21.97a2.35 2.35 0 0 1 2.406 2.406v13.937a2.35 2.35 0 0 1-2.406 2.407H8.03a2.35 2.35 0 0 1-2.406-2.406V8.03a2.35 2.35 0 0 1 2.406-2.406zm11.25 2.084a.846.846 0 0 0-.843.843v2.02a.846.846 0 0 0 .844.845h2.12a.847.847 0 0 0 .848-.845v-2.02a.846.846 0 0 0-.844-.845h-2.122l-.003.002zm2.973 5.846h-1.648c.16.521.24 1.064.24 1.609a5.74 5.74 0 0 1-5.829 5.649 5.74 5.74 0 0 1-5.83-5.65c0-.546.081-1.088.241-1.61h-1.72v7.922a.75.75 0 0 0 .746.746H21.51a.75.75 0 0 0 .746-.746v-7.921l-.003.001zm-7.237-2.242a3.709 3.709 0 0 0-3.767 3.646 3.709 3.709 0 0 0 3.766 3.65 3.71 3.71 0 0 0 3.766-3.649 3.709 3.709 0 0 0-3.764-3.648z"/></svg>