<svg xmlns="http://www.w3.org/2000/svg" width="30" height="30" viewBox="0 0 30 30"><path fill="#FFF" d="M18.297 21.727c-.58 0-1.088-.134-1.521-.403-.339-.2-.564-.46-.676-.78-.122-.313-.183-1.058-.183-2.238v-5.125h4.735v-3.134h-4.735V5H13.07c-.13 1.023-.365 1.873-.703 2.55a5.538 5.538 0 0 1-1.34 1.716c-.555.469-1.227.833-2.016 1.093v2.823h2.211v7.01c0 .928.096 1.626.287 2.095.182.468.524.923 1.027 1.366.52.433 1.119.758 1.795.975.703.234 1.509.351 2.42.351.832 0 1.582-.082 2.25-.247.659-.148 1.43-.43 2.315-.846v-3.148c-.997.66-2.003.99-3.018.99z"/></svg>