<svg xmlns="http://www.w3.org/2000/svg" width="30" height="30" viewBox="0 0 30 30"><path fill="#FFF" d="M24.449 8.295c-.808.471-1.69.803-2.608.981A4.12 4.12 0 0 0 18.847 8a4.073 4.073 0 0 0-4.103 4.04c0 .31.035.618.106.92a11.71 11.71 0 0 1-8.457-4.221 3.965 3.965 0 0 0-.554 2.03 4.023 4.023 0 0 0 1.824 3.364 4.15 4.15 0 0 1-1.858-.507v.05a4.061 4.061 0 0 0 3.291 3.963 4.156 4.156 0 0 1-1.853.066 4.102 4.102 0 0 0 3.832 2.807 8.316 8.316 0 0 1-5.096 1.729c-.327 0-.654-.019-.979-.056A11.752 11.752 0 0 0 11.29 24a11.5 11.5 0 0 0 11.673-11.495l-.013-.524A8.187 8.187 0 0 0 25 9.893a8.305 8.305 0 0 1-2.356.637 4.074 4.074 0 0 0 1.805-2.235z"/></svg>