<svg xmlns="http://www.w3.org/2000/svg" xmlns:xlink="http://www.w3.org/1999/xlink" width="2880" height="1440" viewBox="0 0 2880 1440"><defs><path id="a" d="M0 0h2880v1440H0z"/></defs><g fill="none" fill-rule="evenodd"><mask id="b" fill="#fff"><use xlink:href="#a"/></mask><use fill="#0098A0" xlink:href="#a"/><g fill="#FFF" mask="url(#b)" opacity=".1"><path d="M1800 1440h190.588L1800 1249.412zM1990.588 720H1800v190.588z"/><path d="M1800 1080l-360 360h169.412L1800 1249.412V1080l360 360v-169.412L1969.412 1080 2160 889.412V720l-360 360V910.588L1609.412 720H1440z"/><path d="M1630.588 1080L1440 889.412v381.176zM2520 1440h190.588L2520 1249.412zM2710.588 720H2520v190.588z"/><path d="M2520 1080l-360 360h169.412L2520 1249.412V1080l360 360v-169.412L2689.412 1080 2880 889.412V720l-360 360V910.588L2329.412 720H2160z"/><path d="M2350.588 1080L2160 889.412v381.176z"/><g><path d="M2520 720h190.588L2520 529.412zM2710.588 0H2520v190.588z"/><path d="M2520 360l-360 360h169.412L2520 529.412V360l360 360V550.588L2689.412 360 2880 169.412V0l-360 360V190.588L2329.412 0H2160z"/><path d="M2350.588 360L2160 169.412v381.176z"/></g><g><path d="M1800 720h190.588L1800 529.412zM1990.588 0H1800v190.588z"/><path d="M1800 360l-360 360h169.412L1800 529.412V360l360 360V550.588L1969.412 360 2160 169.412V0l-360 360V190.588L1609.412 0H1440z"/><path d="M1630.588 360L1440 169.412v381.176z"/></g><g><path d="M1080 1440h190.588L1080 1249.412zM1270.588 720H1080v190.588z"/><path d="M1080 1080l-360 360h169.412L1080 1249.412V1080l360 360v-169.412L1249.412 1080 1440 889.412V720l-360 360V910.588L889.412 720H720z"/><path d="M910.588 1080L720 889.412v381.176z"/></g><g><path d="M1081 720h190.588L1081 529.412zM1271.588 0H1081v190.588z"/><path d="M1081 360L721 720h169.412L1081 529.412V360l360 360V550.588L1250.412 360 1441 169.412V0l-360 360V190.588L890.412 0H721z"/><path d="M911.588 360L721 169.412v381.176z"/></g><g><path d="M360 1440h190.588L360 1249.412zM550.588 720H360v190.588z"/><path d="M360 1080L0 1440h169.412L360 1249.412V1080l360 360v-169.412L529.412 1080 720 889.412V720l-360 360V910.588L169.412 720H0z"/><path d="M190.588 1080L0 889.412v381.176z"/></g><g><path d="M361 720h190.588L361 529.412zM551.588 0H361v190.588z"/><path d="M361 360L1 720h169.412L361 529.412V360l360 360V550.588L530.412 360 721 169.412V0L361 360V190.588L170.412 0H1z"/><path d="M191.588 360L1 169.412v381.176z"/></g></g><g transform="translate(342 -377)" fill="#0098A0" stroke="#9AE9ED" mask="url(#b)" opacity=".5"><rect width="2192" height="2192" x="1.5" y="1.5" fill-opacity=".5" stroke-opacity=".15" stroke-width="3" rx="1096"/><rect width="1369.713" height="1369.713" x="413.143" y="412.143" stroke-opacity=".15" stroke-width="2.287" rx="684.857"/><rect width="978.367" height="978.367" x="608.817" y="607.817" stroke-opacity=".2" stroke-width="1.633" rx="489.183"/><rect width="698.833" height="698.833" x="748.583" y="747.583" stroke-opacity=".25" stroke-width="1.167" rx="349.417"/><rect width="499" height="499" x="848.5" y="847.5" stroke-opacity=".3" rx="249.5"/></g></g></svg>