<svg height="16" viewBox="0 0 16 16" width="16" xmlns="http://www.w3.org/2000/svg"><g fill="none" fill-rule="evenodd"><path d="M16 12.235v-8.47L11.765 8z" fill="#dc3b41"/><path d="M8 8L0 0v3.765L4.235 8 0 12.235V16z" fill="#0098a0"/><path d="M8 11.765V16H3.765z" fill="#974188"/><path d="M3.765 0H8v4.235z" fill="#ee9f3f"/><g fill="#002344"><path d="M8 16h4.235L8 11.765zM12.235 0H8v4.235z"/><path d="M8 8l-8 8h3.765L8 11.765V8l8 8v-3.765L11.765 8 16 3.765V0L8 8V4.235L3.765 0H0z"/><path d="M4.235 8L0 3.765v8.47z"/></g><path d="M8 8V4.235L12.235 0H16zM8 8v3.765L12.235 16H16z" fill="#0098a0"/></g></svg>