<svg height="91" viewBox="0 0 182 91" width="182" xmlns="http://www.w3.org/2000/svg"><g fill-opacity=".03" fill-rule="evenodd"><path d="M90.599 45.45v24.552l24.547-24.552zM181.089 69.86l-.001-24.41h-24.364z"/><path d="M135.92 45.367l-.032.022L90.548.044l-.059.066v20.791l.059-.066 24.598 24.601h20.704L90.577 90.697h.079l20.733-.013 24.531-24.52 24.468 24.473 20.686-.017-45.094-45.184h20.744l24.374-24.373V.002L135.964 45.41z"/><path d="M135.91 24.557L160.476 0H111.346zM.11 45.247V20.695l24.548 24.552zM90.6 20.837l-.001 24.409H66.235z"/><path d="M45.431 45.33l-.032-.022L.059 90.653 0 90.587V69.796l.059.066 24.599-24.601h20.703L.088 0h.079L20.9.013l24.531 24.52L69.899.06l20.686.017-45.094 45.184h20.744l24.374 24.373v21.061L45.475 45.288z"/><path d="M45.421 66.14l24.566 24.557H20.857z"/></g></svg>