<svg xmlns="http://www.w3.org/2000/svg" width="20" height="20" viewBox="0 0 20 20"><path fill="#373B46" d="M3.537 8.415H4.236v7.165h-.653a3.583 3.583 0 0 1-1.45-6.86v-.958C2.132 3.472 5.656 0 10 0s7.868 3.473 7.868 7.762v.958a3.584 3.584 0 0 1-1.409 6.86l-2.308 3.183a.702.702 0 0 1-.568.29H12.15a.714.714 0 0 1-.715.71h-2.87a.714.714 0 0 1-.715-.715v-1.395c0-.394.32-.714.715-.714h2.87c.393 0 .712.317.715.71h1.075l2.54-3.503V8.415H16.462v-.653c0-3.509-2.891-6.358-6.463-6.358S3.537 4.253 3.537 7.762v.653z"/></svg>