<svg xmlns="http://www.w3.org/2000/svg" width="20" height="20" viewBox="0 0 20 20"><g fill="none" fill-rule="evenodd"><path fill="#373B46" fill-rule="nonzero" d="M7.283 11.4L5.995 5.6h11.793l-1.913 5.8H7.283zm-.48 1.6h9.506a1 1 0 0 0 .95-.687l2.308-7A1 1 0 0 0 18.617 4H5.247a1 1 0 0 0-.977 1.217l1.556 7a1 1 0 0 0 .976.783z"/><path stroke="#373B46" stroke-linecap="round" stroke-linejoin="round" stroke-width="1.4" d="M.7 4h.548a1.2 1.2 0 0 1 1.169.927l1.85 7.919A2.4 2.4 0 0 0 6.604 14.7H17"/><rect width="2" height="2" x="15" y="16" fill="#373B46" rx="1"/><rect width="2" height="2" x="5" y="16" fill="#373B46" rx="1"/></g></svg>