<svg xmlns="http://www.w3.org/2000/svg" width="20" height="20" viewBox="0 0 20 20"><g fill="#373B46" fill-rule="evenodd"><rect width="1.4" height="16" x="9.3" y="2" rx=".7"/><g transform="translate(0 3)"><path d="M1 0h6a1 1 0 0 1 1 1v6a1 1 0 0 1-1 1H1a1 1 0 0 1-1-1V1a1 1 0 0 1 1-1z"/><rect width="8" height="1.4" y="9.4" rx=".7"/></g><g transform="translate(12 3)"><path d="M1 0h6a1 1 0 0 1 1 1v6a1 1 0 0 1-1 1H1a1 1 0 0 1-1-1V1a1 1 0 0 1 1-1z"/><rect width="8" height="1.4" y="9.4" rx=".7"/><rect width="8" height="1.4" y="12.2" rx=".7"/></g></g></svg>