<svg xmlns="http://www.w3.org/2000/svg" xmlns:xlink="http://www.w3.org/1999/xlink" width="20" height="20" viewBox="0 0 20 20"><defs><path id="a" d="M10 8.889l2.587-2.587a.786.786 0 1 1 1.111 1.11L11.111 10l2.587 2.587a.786.786 0 1 1-1.11 1.111L10 11.111l-2.587 2.587a.786.786 0 1 1-1.111-1.11L8.889 10 6.302 7.413a.786.786 0 1 1 1.11-1.111L10 8.889z"/></defs><g fill="#E62600" fill-rule="nonzero"><path d="M10 2a8 8 0 1 0 0 16 8 8 0 0 0 0-16zm0-2c5.523 0 10 4.477 10 10s-4.477 10-10 10S0 15.523 0 10 4.477 0 10 0z"/><use xlink:href="#a"/></g></svg>