<svg xmlns="http://www.w3.org/2000/svg" width="20" height="20" viewBox="0 0 20 20"><path fill="#373B46" d="M9.116 14.157a1.9 1.9 0 0 1 1.768 0l2.281 1.2-.436-2.54a1.9 1.9 0 0 1 .547-1.682l1.845-1.799-2.55-.37a1.9 1.9 0 0 1-1.43-1.04L10 5.616l-1.14 2.31a1.9 1.9 0 0 1-1.431 1.04l-2.55.37 1.845 1.799a1.9 1.9 0 0 1 .547 1.681l-.436 2.54 2.28-1.199zm.744 1.416l-4.433 2.331a.4.4 0 0 1-.58-.422l.847-4.936a.3.3 0 0 0-.087-.266L2.021 8.785a.4.4 0 0 1 .222-.683l4.956-.72a.3.3 0 0 0 .226-.164L9.64 2.727a.4.4 0 0 1 .718 0l2.216 4.491a.3.3 0 0 0 .226.164l4.956.72a.4.4 0 0 1 .222.683l-3.586 3.495a.3.3 0 0 0-.087.266l.847 4.936a.4.4 0 0 1-.58.422l-4.433-2.33a.3.3 0 0 0-.28 0z"/></svg>