<svg xmlns="http://www.w3.org/2000/svg" width="20" height="20" viewBox="0 0 20 20"><path d="M3.6 3.6v3.8h3.8V3.6H3.6zM3 2h5a1 1 0 0 1 1 1v5a1 1 0 0 1-1 1H3a1 1 0 0 1-1-1V3a1 1 0 0 1 1-1zm.6 10.6v3.8h3.8v-3.8H3.6zM3 11h5a1 1 0 0 1 1 1v5a1 1 0 0 1-1 1H3a1 1 0 0 1-1-1v-5a1 1 0 0 1 1-1zm9.6-7.4v3.8h3.8V3.6h-3.8zM12 2h5a1 1 0 0 1 1 1v5a1 1 0 0 1-1 1h-5a1 1 0 0 1-1-1V3a1 1 0 0 1 1-1zm.6 10.6v3.8h3.8v-3.8h-3.8zM12 11h5a1 1 0 0 1 1 1v5a1 1 0 0 1-1 1h-5a1 1 0 0 1-1-1v-5a1 1 0 0 1 1-1z" fill="#373B46"/></svg>