<svg xmlns="http://www.w3.org/2000/svg" width="20" height="20" viewBox="0 0 20 20"><g fill="none" fill-rule="evenodd"><rect width="2.4" height="2.4" x="2.8" y="2.8" stroke="#373B46" stroke-width="1.6" rx="1"/><rect width="2.4" height="2.4" x="2.8" y="8.8" stroke="#373B46" stroke-width="1.6" rx="1"/><path fill="#373B46" fill-rule="nonzero" d="M10.6 3.6v.8h5.8v-.8h-5.8zM10 2h7a1 1 0 0 1 1 1v2a1 1 0 0 1-1 1h-7a1 1 0 0 1-1-1V3a1 1 0 0 1 1-1zm.6 7.6v.8h5.8v-.8h-5.8zM10 8h7a1 1 0 0 1 1 1v2a1 1 0 0 1-1 1h-7a1 1 0 0 1-1-1V9a1 1 0 0 1 1-1z"/><rect width="2.4" height="2.4" x="2.8" y="14.8" stroke="#373B46" stroke-width="1.6" rx="1"/><path fill="#373B46" fill-rule="nonzero" d="M10.6 15.6v.8h5.8v-.8h-5.8zM10 14h7a1 1 0 0 1 1 1v2a1 1 0 0 1-1 1h-7a1 1 0 0 1-1-1v-2a1 1 0 0 1 1-1z"/></g></svg>