<svg xmlns="http://www.w3.org/2000/svg" xmlns:xlink="http://www.w3.org/1999/xlink" width="20" height="20" viewBox="0 0 20 20"><defs><path id="a" d="M10.727 11.859h-1.19L9.182 4.9h1.894l-.349 6.959zM9.1 14.039c0-.337.089-.593.267-.768.177-.176.43-.264.758-.264.324 0 .572.092.746.274.173.182.26.435.26.759 0 .323-.088.58-.264.769-.175.189-.423.283-.742.283-.323 0-.575-.09-.755-.273-.18-.182-.27-.442-.27-.78z"/></defs><g fill="#FFBD00" fill-rule="evenodd"><path fill-rule="nonzero" d="M10 2a8 8 0 1 0 0 16 8 8 0 0 0 0-16zm0-2c5.523 0 10 4.477 10 10s-4.477 10-10 10S0 15.523 0 10 4.477 0 10 0z"/><use xlink:href="#a"/></g></svg>