<svg xmlns="http://www.w3.org/2000/svg" xmlns:xlink="http://www.w3.org/1999/xlink" width="20" height="20" viewBox="0 0 20 20"><defs><path id="a" d="M7.561 5.939V3.96a.811.811 0 1 0-1.622 0V5.94H3.96a.811.811 0 1 0 0 1.622H5.94V9.54a.811.811 0 1 0 1.622 0V7.56H9.54a.811.811 0 1 0 0-1.622H7.56z"/></defs><g fill="#373B46" fill-rule="nonzero" transform="translate(1 1)"><path d="M10.658 9.789a4.95 4.95 0 1 0-.944.926l.534-.4.41-.526zm6.879 6.565a.9.9 0 1 1-1.273 1.273l-5.471-5.471a6.75 6.75 0 1 1 1.285-1.26l5.459 5.458z"/><use xlink:href="#a"/></g></svg>