<svg xmlns="http://www.w3.org/2000/svg" width="170" height="56" viewBox="0 0 170 56"><g fill="none" fill-rule="evenodd"><path fill="#FAA819" d="M0 0v55.505h18.333v-5.191H6.112V5.534h12.221V0zm25.929 0v5.534h12.493v44.78H25.929v5.191h18.605V0z"/><path fill="#FEFEFE" d="M18.333 25.317V10.281h-6.149v35.101h6.149V29.755zm7.596-15.036v15.036h-5.302v4.438h9.467l-4.165 2.486v13.141h6.149V10.281z"/><path fill="#FAA819" d="M0 0v55.505h18.333v-5.191H6.112V5.534h12.221V0z"/><path fill="#FEFEFE" d="M51.091 45.382h6.149V10.281h-6.149zm112.325-35.101V31.43h-.121l-9.284-21.149h-5.908v35.102h6.149V24.282h.121l9.404 21.101h5.788V10.281z"/><path fill="#FAA819" d="M25.929 0v5.534h12.493v44.78H25.929v5.191h18.605V0z"/><path fill="#FEFEFE" d="M18.333 25.317V10.281h-6.149v35.101h6.149V29.755zm116.403-15.036h-5.124l-9.586 35.101h6.107l2.978-12.276h-.042l3.014-12.718h.121l3.014 12.718h-3.747l-1.147 4.734h6.039l1.809 7.542h6.149zM99.893 26.105l-6.724-15.824h-5.908v35.102h6.149V24.035h.121l3.548 8.878zm9.131-15.824l-6.049 14.345.01.004-4.686 11.337.008.022h5.591l4.825-11.953h.12v21.346h6.149V10.281zM69.267 45.383h6.149v-28.07h-6.149zm-7.114-35.102v4.732h7.114v.006h6.149v-.006h7.113v-4.732zm-36.224 0v15.036h-5.302v4.438h9.467l-4.165 2.486v13.141h6.149V10.281z"/></g></svg>